%FSLAX45Y45*%
G04 Gerber Fmt 4.5, Leading zero omitted, Abs format (unit mm)*
G04 Created by KiCad (PCBNEW (5.0.2)-1) date 2019-03-20 12:51:36 PM*
%MOMM*%
%LPD*%
G01*
G04 APERTURE LIST*
%ADD10C,0.200000*%
%ADD11C,0.300000*%
G04 APERTURE END LIST*
D10*
X-6278773Y6379409D02*
G75*
G02X-6118860Y6474460I168744J-101849D01*
G01*
X-6310030Y6277560D02*
X-6278880Y6380480D01*
X-6355080Y5433060D02*
X-6311900Y5433060D01*
X-6311900Y5433060D02*
X-6310030Y6277560D01*
X-163830Y5636260D02*
X-62230Y5636260D01*
X-280856Y6456322D02*
G75*
G02X-165380Y6275060I-84524J-181262D01*
G01*
X-365380Y6475060D02*
X-280963Y6456371D01*
X-6355080Y1115060D02*
X-6355080Y5433060D01*
X-62230Y638810D02*
X-163830Y638810D01*
X-62230Y5636260D02*
X-62230Y638810D01*
X-3665380Y-1180D02*
X-3665220Y1112520D01*
X-165380Y6275060D02*
X-165380Y5636940D01*
X-165380Y-1180D02*
X-3665380Y-1180D01*
X-165380Y636940D02*
X-165380Y-1180D01*
X-3665380Y1112520D02*
X-6355080Y1115060D01*
X-6118860Y6474460D02*
X-365380Y6475060D01*
D10*
X-6199500Y4200520D02*
X-6119500Y4120520D01*
X-6119500Y4200520D02*
X-6199500Y4120520D01*
X-6194420Y3750940D02*
X-6114420Y3670940D01*
X-6114420Y3750940D02*
X-6194420Y3670940D01*
X-5178420Y3750940D02*
X-5098420Y3670940D01*
X-5098420Y3750940D02*
X-5178420Y3670940D01*
X-400680Y3626480D02*
X-320680Y3546480D01*
X-320680Y3626480D02*
X-400680Y3546480D01*
X-400680Y2610480D02*
X-320680Y2530480D01*
X-320680Y2610480D02*
X-400680Y2530480D01*
X-5183500Y4200520D02*
X-5103500Y4120520D01*
X-5103500Y4200520D02*
X-5183500Y4120520D01*
X-6076480Y5242560D02*
G75*
G03X-6076480Y5242560I-50000J0D01*
G01*
X-6086480Y5192560D02*
X-6086480Y5292560D01*
X-6166480Y5192560D02*
X-6166480Y5292560D01*
X-6086480Y5292560D02*
G75*
G03X-6166480Y5292560I-40000J0D01*
G01*
X-6166480Y5192560D02*
G75*
G03X-6086480Y5192560I40000J0D01*
G01*
X-5836480Y5442560D02*
G75*
G03X-5836480Y5442560I-50000J0D01*
G01*
X-5846480Y5392560D02*
X-5846480Y5492560D01*
X-5926480Y5392560D02*
X-5926480Y5492560D01*
X-5846480Y5492560D02*
G75*
G03X-5926480Y5492560I-40000J0D01*
G01*
X-5926480Y5392560D02*
G75*
G03X-5846480Y5392560I40000J0D01*
G01*
X-5286480Y5442560D02*
G75*
G03X-5286480Y5442560I-50000J0D01*
G01*
X-5296480Y5392560D02*
X-5296480Y5492560D01*
X-5376480Y5392560D02*
X-5376480Y5492560D01*
X-5296480Y5492560D02*
G75*
G03X-5376480Y5492560I-40000J0D01*
G01*
X-5376480Y5392560D02*
G75*
G03X-5296480Y5392560I40000J0D01*
G01*
X-2507780Y1800860D02*
G75*
G03X-2507780Y1800860I-50000J0D01*
G01*
X-2557780Y6171360D02*
X-2557780Y6066360D01*
X-2610280Y6118860D02*
X-2505280Y6118860D01*
X-2557780Y5917360D02*
X-2557780Y5812360D01*
X-2610280Y5864860D02*
X-2505280Y5864860D01*
X-2557780Y5663360D02*
X-2557780Y5558360D01*
X-2610280Y5610860D02*
X-2505280Y5610860D01*
X-2557780Y5409360D02*
X-2557780Y5304360D01*
X-2610280Y5356860D02*
X-2505280Y5356860D01*
X-2557780Y5155360D02*
X-2557780Y5050360D01*
X-2610280Y5102860D02*
X-2505280Y5102860D01*
X-2557780Y4901360D02*
X-2557780Y4796360D01*
X-2610280Y4848860D02*
X-2505280Y4848860D01*
X-2557780Y4647360D02*
X-2557780Y4542360D01*
X-2610280Y4594860D02*
X-2505280Y4594860D01*
X-2557780Y4393360D02*
X-2557780Y4288360D01*
X-2610280Y4340860D02*
X-2505280Y4340860D01*
X-2557780Y4139360D02*
X-2557780Y4034360D01*
X-2610280Y4086860D02*
X-2505280Y4086860D01*
X-2557780Y3885360D02*
X-2557780Y3780360D01*
X-2610280Y3832860D02*
X-2505280Y3832860D01*
X-2557780Y3631360D02*
X-2557780Y3526360D01*
X-2610280Y3578860D02*
X-2505280Y3578860D01*
X-2557780Y3377360D02*
X-2557780Y3272360D01*
X-2610280Y3324860D02*
X-2505280Y3324860D01*
X-2557780Y3123360D02*
X-2557780Y3018360D01*
X-2610280Y3070860D02*
X-2505280Y3070860D01*
X-2557780Y2869360D02*
X-2557780Y2764360D01*
X-2610280Y2816860D02*
X-2505280Y2816860D01*
X-2557780Y2615360D02*
X-2557780Y2510360D01*
X-2610280Y2562860D02*
X-2505280Y2562860D01*
X-2557780Y2361360D02*
X-2557780Y2256360D01*
X-2610280Y2308860D02*
X-2505280Y2308860D01*
X-2557780Y2107360D02*
X-2557780Y2002360D01*
X-2610280Y2054860D02*
X-2505280Y2054860D01*
X-2557780Y1599360D02*
X-2557780Y1494360D01*
X-2610280Y1546860D02*
X-2505280Y1546860D01*
X-2557780Y1345360D02*
X-2557780Y1240360D01*
X-2610280Y1292860D02*
X-2505280Y1292860D01*
X-2557780Y1091360D02*
X-2557780Y986360D01*
X-2610280Y1038860D02*
X-2505280Y1038860D01*
X-2557780Y837360D02*
X-2557780Y732360D01*
X-2610280Y784860D02*
X-2505280Y784860D01*
X-2557780Y583360D02*
X-2557780Y478360D01*
X-2610280Y530860D02*
X-2505280Y530860D01*
X-2557780Y329360D02*
X-2557780Y224360D01*
X-2610280Y276860D02*
X-2505280Y276860D01*
X-1033780Y6171360D02*
X-1033780Y6066360D01*
X-1086280Y6118860D02*
X-981280Y6118860D01*
X-1033780Y5917360D02*
X-1033780Y5812360D01*
X-1086280Y5864860D02*
X-981280Y5864860D01*
X-1033780Y5663360D02*
X-1033780Y5558360D01*
X-1086280Y5610860D02*
X-981280Y5610860D01*
X-1033780Y5409360D02*
X-1033780Y5304360D01*
X-1086280Y5356860D02*
X-981280Y5356860D01*
X-1033780Y5155360D02*
X-1033780Y5050360D01*
X-1086280Y5102860D02*
X-981280Y5102860D01*
X-1033780Y4901360D02*
X-1033780Y4796360D01*
X-1086280Y4848860D02*
X-981280Y4848860D01*
X-1033780Y4647360D02*
X-1033780Y4542360D01*
X-1086280Y4594860D02*
X-981280Y4594860D01*
X-1033780Y4393360D02*
X-1033780Y4288360D01*
X-1086280Y4340860D02*
X-981280Y4340860D01*
X-1033780Y4139360D02*
X-1033780Y4034360D01*
X-1086280Y4086860D02*
X-981280Y4086860D01*
X-1033780Y3885360D02*
X-1033780Y3780360D01*
X-1086280Y3832860D02*
X-981280Y3832860D01*
X-1033780Y3631360D02*
X-1033780Y3526360D01*
X-1086280Y3578860D02*
X-981280Y3578860D01*
X-1033780Y3377360D02*
X-1033780Y3272360D01*
X-1086280Y3324860D02*
X-981280Y3324860D01*
X-1033780Y3123360D02*
X-1033780Y3018360D01*
X-1086280Y3070860D02*
X-981280Y3070860D01*
X-1033780Y2869360D02*
X-1033780Y2764360D01*
X-1086280Y2816860D02*
X-981280Y2816860D01*
X-1033780Y2615360D02*
X-1033780Y2510360D01*
X-1086280Y2562860D02*
X-981280Y2562860D01*
X-1033780Y2361360D02*
X-1033780Y2256360D01*
X-1086280Y2308860D02*
X-981280Y2308860D01*
X-1033780Y2107360D02*
X-1033780Y2002360D01*
X-1086280Y2054860D02*
X-981280Y2054860D01*
X-1033780Y1853360D02*
X-1033780Y1748360D01*
X-1086280Y1800860D02*
X-981280Y1800860D01*
X-1033780Y1599360D02*
X-1033780Y1494360D01*
X-1086280Y1546860D02*
X-981280Y1546860D01*
X-1033780Y1345360D02*
X-1033780Y1240360D01*
X-1086280Y1292860D02*
X-981280Y1292860D01*
X-1033780Y1091360D02*
X-1033780Y986360D01*
X-1086280Y1038860D02*
X-981280Y1038860D01*
X-1033780Y837360D02*
X-1033780Y732360D01*
X-1086280Y784860D02*
X-981280Y784860D01*
X-1033780Y583360D02*
X-1033780Y478360D01*
X-1086280Y530860D02*
X-981280Y530860D01*
X-994889Y237969D02*
X-994889Y315751D01*
X-1072671Y315751D01*
X-1072671Y237969D01*
X-994889Y237969D01*
X-2926080Y5830260D02*
X-2866080Y5890260D01*
X-2926080Y5950260D01*
X-2986080Y5890260D01*
X-2926080Y5830260D01*
X-4041140Y5837880D02*
X-3981140Y5897880D01*
X-4041140Y5957880D01*
X-4101140Y5897880D01*
X-4041140Y5837880D01*
X-1841500Y5840420D02*
X-1781500Y5900420D01*
X-1841500Y5960420D01*
X-1901500Y5900420D01*
X-1841500Y5840420D01*
X-5364480Y1150310D02*
X-5304480Y1210310D01*
X-5364480Y1270310D01*
X-5424480Y1210310D01*
X-5364480Y1150310D01*
X-739140Y836620D02*
X-679140Y896620D01*
X-739140Y956620D01*
X-799140Y896620D01*
X-739140Y836620D01*
X-1841500Y836620D02*
X-1781500Y896620D01*
X-1841500Y956620D01*
X-1901500Y896620D01*
X-1841500Y836620D01*
X-2938780Y839160D02*
X-2878780Y899160D01*
X-2938780Y959160D01*
X-2998780Y899160D01*
X-2938780Y839160D01*
X-5138420Y4588200D02*
X-5078420Y4648200D01*
X-5138420Y4708200D01*
X-5198420Y4648200D01*
X-5138420Y4588200D01*
X-5140960Y3335980D02*
X-5080960Y3395980D01*
X-5140960Y3455980D01*
X-5200960Y3395980D01*
X-5140960Y3335980D01*
X-2913380Y2083760D02*
X-2853380Y2143760D01*
X-2913380Y2203760D01*
X-2973380Y2143760D01*
X-2913380Y2083760D01*
X-2938780Y4585660D02*
X-2878780Y4645660D01*
X-2938780Y4705660D01*
X-2998780Y4645660D01*
X-2938780Y4585660D01*
X-4265930Y1150310D02*
X-4205930Y1210310D01*
X-4265930Y1270310D01*
X-4325930Y1210310D01*
X-4265930Y1150310D01*
X-739140Y2088840D02*
X-679140Y2148840D01*
X-739140Y2208840D01*
X-799140Y2148840D01*
X-739140Y2088840D01*
X-739140Y5837880D02*
X-679140Y5897880D01*
X-739140Y5957880D01*
X-799140Y5897880D01*
X-739140Y5837880D01*
X-5123180Y2083760D02*
X-5063180Y2143760D01*
X-5123180Y2203760D01*
X-5183180Y2143760D01*
X-5123180Y2083760D01*
X-4038600Y4588200D02*
X-3978600Y4648200D01*
X-4038600Y4708200D01*
X-4098600Y4648200D01*
X-4038600Y4588200D01*
X-2938780Y3341060D02*
X-2878780Y3401060D01*
X-2938780Y3461060D01*
X-2998780Y3401060D01*
X-2938780Y3341060D01*
X-5377180Y5842960D02*
X-5317180Y5902960D01*
X-5377180Y5962960D01*
X-5437180Y5902960D01*
X-5377180Y5842960D01*
X-5123180Y5842960D02*
X-5063180Y5902960D01*
X-5123180Y5962960D01*
X-5183180Y5902960D01*
X-5123180Y5842960D01*
X-1838960Y3335980D02*
X-1778960Y3395980D01*
X-1838960Y3455980D01*
X-1898960Y3395980D01*
X-1838960Y3335980D01*
X-4041140Y3335980D02*
X-3981140Y3395980D01*
X-4041140Y3455980D01*
X-4101140Y3395980D01*
X-4041140Y3335980D01*
X-1838960Y2086300D02*
X-1778960Y2146300D01*
X-1838960Y2206300D01*
X-1898960Y2146300D01*
X-1838960Y2086300D01*
X-4041140Y2086300D02*
X-3981140Y2146300D01*
X-4041140Y2206300D01*
X-4101140Y2146300D01*
X-4041140Y2086300D01*
X-1840230Y4585660D02*
X-1780230Y4645660D01*
X-1840230Y4705660D01*
X-1900230Y4645660D01*
X-1840230Y4585660D01*
X-741680Y4585660D02*
X-681680Y4645660D01*
X-741680Y4705660D01*
X-801680Y4645660D01*
X-741680Y4585660D01*
X-741680Y3334710D02*
X-681680Y3394710D01*
X-741680Y3454710D01*
X-801680Y3394710D01*
X-741680Y3334710D01*
X-6112510Y3077718D02*
X-5972810Y2938018D01*
X-5972810Y3077718D02*
X-6112510Y2938018D01*
X-5972810Y3007868D02*
G75*
G03X-5972810Y3007868I-69850J0D01*
G01*
X-6112510Y1578102D02*
X-5972810Y1438402D01*
X-5972810Y1578102D02*
X-6112510Y1438402D01*
X-5972810Y1508252D02*
G75*
G03X-5972810Y1508252I-69850J0D01*
G01*
X-6112256Y2327910D02*
X-5972556Y2188210D01*
X-5972556Y2327910D02*
X-6112256Y2188210D01*
X-5972556Y2258060D02*
G75*
G03X-5972556Y2258060I-69850J0D01*
G01*
X-5862320Y2827528D02*
X-5722620Y2687828D01*
X-5722620Y2827528D02*
X-5862320Y2687828D01*
X-5722620Y2757678D02*
G75*
G03X-5722620Y2757678I-69850J0D01*
G01*
X-5862320Y1828292D02*
X-5722620Y1688592D01*
X-5722620Y1828292D02*
X-5862320Y1688592D01*
X-5722620Y1758442D02*
G75*
G03X-5722620Y1758442I-69850J0D01*
G01*
D11*
X-6078652Y-476895D02*
X-6078652Y-176895D01*
X-6007223Y-176895D01*
X-5964366Y-191180D01*
X-5935794Y-219752D01*
X-5921509Y-248323D01*
X-5907223Y-305466D01*
X-5907223Y-348323D01*
X-5921509Y-405466D01*
X-5935794Y-434038D01*
X-5964366Y-462609D01*
X-6007223Y-476895D01*
X-6078652Y-476895D01*
X-5778652Y-476895D02*
X-5778652Y-276895D01*
X-5778652Y-334038D02*
X-5764366Y-305466D01*
X-5750080Y-291181D01*
X-5721509Y-276895D01*
X-5692937Y-276895D01*
X-5592937Y-476895D02*
X-5592937Y-276895D01*
X-5592937Y-176895D02*
X-5607223Y-191180D01*
X-5592937Y-205466D01*
X-5578652Y-191180D01*
X-5592937Y-176895D01*
X-5592937Y-205466D01*
X-5407223Y-476895D02*
X-5435794Y-462609D01*
X-5450080Y-434038D01*
X-5450080Y-176895D01*
X-5250080Y-476895D02*
X-5278652Y-462609D01*
X-5292937Y-434038D01*
X-5292937Y-176895D01*
X-4907223Y-476895D02*
X-4907223Y-176895D01*
X-4807223Y-391180D01*
X-4707223Y-176895D01*
X-4707223Y-476895D01*
X-4435794Y-476895D02*
X-4435794Y-319752D01*
X-4450080Y-291181D01*
X-4478652Y-276895D01*
X-4535794Y-276895D01*
X-4564366Y-291181D01*
X-4435794Y-462609D02*
X-4464366Y-476895D01*
X-4535794Y-476895D01*
X-4564366Y-462609D01*
X-4578652Y-434038D01*
X-4578652Y-405466D01*
X-4564366Y-376895D01*
X-4535794Y-362609D01*
X-4464366Y-362609D01*
X-4435794Y-348323D01*
X-4292937Y-276895D02*
X-4292937Y-576895D01*
X-4292937Y-291181D02*
X-4264366Y-276895D01*
X-4207223Y-276895D01*
X-4178652Y-291181D01*
X-4164366Y-305466D01*
X-4150080Y-334038D01*
X-4150080Y-419752D01*
X-4164366Y-448323D01*
X-4178652Y-462609D01*
X-4207223Y-476895D01*
X-4264366Y-476895D01*
X-4292937Y-462609D01*
X-4021509Y-448323D02*
X-4007223Y-462609D01*
X-4021509Y-476895D01*
X-4035794Y-462609D01*
X-4021509Y-448323D01*
X-4021509Y-476895D01*
X-4021509Y-291181D02*
X-4007223Y-305466D01*
X-4021509Y-319752D01*
X-4035794Y-305466D01*
X-4021509Y-291181D01*
X-4021509Y-319752D01*
X-6445080Y-931180D02*
X-6365080Y-1011180D01*
X-6365080Y-931180D02*
X-6445080Y-1011180D01*
X-6021509Y-806895D02*
X-5992937Y-806895D01*
X-5964366Y-821180D01*
X-5950080Y-835466D01*
X-5935794Y-864038D01*
X-5921509Y-921180D01*
X-5921509Y-992609D01*
X-5935794Y-1049752D01*
X-5950080Y-1078323D01*
X-5964366Y-1092609D01*
X-5992937Y-1106895D01*
X-6021509Y-1106895D01*
X-6050080Y-1092609D01*
X-6064366Y-1078323D01*
X-6078652Y-1049752D01*
X-6092937Y-992609D01*
X-6092937Y-921180D01*
X-6078652Y-864038D01*
X-6064366Y-835466D01*
X-6050080Y-821180D01*
X-6021509Y-806895D01*
X-5792937Y-1078323D02*
X-5778652Y-1092609D01*
X-5792937Y-1106895D01*
X-5807223Y-1092609D01*
X-5792937Y-1078323D01*
X-5792937Y-1106895D01*
X-5607223Y-935466D02*
X-5635794Y-921180D01*
X-5650080Y-906895D01*
X-5664366Y-878323D01*
X-5664366Y-864038D01*
X-5650080Y-835466D01*
X-5635794Y-821180D01*
X-5607223Y-806895D01*
X-5550080Y-806895D01*
X-5521509Y-821180D01*
X-5507223Y-835466D01*
X-5492937Y-864038D01*
X-5492937Y-878323D01*
X-5507223Y-906895D01*
X-5521509Y-921180D01*
X-5550080Y-935466D01*
X-5607223Y-935466D01*
X-5635794Y-949752D01*
X-5650080Y-964038D01*
X-5664366Y-992609D01*
X-5664366Y-1049752D01*
X-5650080Y-1078323D01*
X-5635794Y-1092609D01*
X-5607223Y-1106895D01*
X-5550080Y-1106895D01*
X-5521509Y-1092609D01*
X-5507223Y-1078323D01*
X-5492937Y-1049752D01*
X-5492937Y-992609D01*
X-5507223Y-964038D01*
X-5521509Y-949752D01*
X-5550080Y-935466D01*
X-5307223Y-806895D02*
X-5278652Y-806895D01*
X-5250080Y-821180D01*
X-5235794Y-835466D01*
X-5221509Y-864038D01*
X-5207223Y-921180D01*
X-5207223Y-992609D01*
X-5221509Y-1049752D01*
X-5235794Y-1078323D01*
X-5250080Y-1092609D01*
X-5278652Y-1106895D01*
X-5307223Y-1106895D01*
X-5335794Y-1092609D01*
X-5350080Y-1078323D01*
X-5364366Y-1049752D01*
X-5378652Y-992609D01*
X-5378652Y-921180D01*
X-5364366Y-864038D01*
X-5350080Y-835466D01*
X-5335794Y-821180D01*
X-5307223Y-806895D01*
X-5078652Y-1106895D02*
X-5078652Y-906895D01*
X-5078652Y-935466D02*
X-5064366Y-921180D01*
X-5035794Y-906895D01*
X-4992937Y-906895D01*
X-4964366Y-921180D01*
X-4950080Y-949752D01*
X-4950080Y-1106895D01*
X-4950080Y-949752D02*
X-4935794Y-921180D01*
X-4907223Y-906895D01*
X-4864366Y-906895D01*
X-4835794Y-921180D01*
X-4821509Y-949752D01*
X-4821509Y-1106895D01*
X-4678652Y-1106895D02*
X-4678652Y-906895D01*
X-4678652Y-935466D02*
X-4664366Y-921180D01*
X-4635794Y-906895D01*
X-4592937Y-906895D01*
X-4564366Y-921180D01*
X-4550080Y-949752D01*
X-4550080Y-1106895D01*
X-4550080Y-949752D02*
X-4535794Y-921180D01*
X-4507223Y-906895D01*
X-4464366Y-906895D01*
X-4435794Y-921180D01*
X-4421509Y-949752D01*
X-4421509Y-1106895D01*
X-3835794Y-792609D02*
X-4092937Y-1178323D01*
X-3450080Y-806895D02*
X-3421509Y-806895D01*
X-3392937Y-821180D01*
X-3378652Y-835466D01*
X-3364366Y-864038D01*
X-3350080Y-921180D01*
X-3350080Y-992609D01*
X-3364366Y-1049752D01*
X-3378652Y-1078323D01*
X-3392937Y-1092609D01*
X-3421509Y-1106895D01*
X-3450080Y-1106895D01*
X-3478652Y-1092609D01*
X-3492937Y-1078323D01*
X-3507223Y-1049752D01*
X-3521509Y-992609D01*
X-3521509Y-921180D01*
X-3507223Y-864038D01*
X-3492937Y-835466D01*
X-3478652Y-821180D01*
X-3450080Y-806895D01*
X-3221509Y-1078323D02*
X-3207223Y-1092609D01*
X-3221509Y-1106895D01*
X-3235794Y-1092609D01*
X-3221509Y-1078323D01*
X-3221509Y-1106895D01*
X-3021509Y-806895D02*
X-2992937Y-806895D01*
X-2964366Y-821180D01*
X-2950080Y-835466D01*
X-2935794Y-864038D01*
X-2921509Y-921180D01*
X-2921509Y-992609D01*
X-2935794Y-1049752D01*
X-2950080Y-1078323D01*
X-2964366Y-1092609D01*
X-2992937Y-1106895D01*
X-3021509Y-1106895D01*
X-3050080Y-1092609D01*
X-3064366Y-1078323D01*
X-3078652Y-1049752D01*
X-3092937Y-992609D01*
X-3092937Y-921180D01*
X-3078652Y-864038D01*
X-3064366Y-835466D01*
X-3050080Y-821180D01*
X-3021509Y-806895D01*
X-2821509Y-806895D02*
X-2635794Y-806895D01*
X-2735794Y-921180D01*
X-2692937Y-921180D01*
X-2664366Y-935466D01*
X-2650080Y-949752D01*
X-2635794Y-978323D01*
X-2635794Y-1049752D01*
X-2650080Y-1078323D01*
X-2664366Y-1092609D01*
X-2692937Y-1106895D01*
X-2778652Y-1106895D01*
X-2807223Y-1092609D01*
X-2821509Y-1078323D01*
X-2350080Y-1106895D02*
X-2521509Y-1106895D01*
X-2435794Y-1106895D02*
X-2435794Y-806895D01*
X-2464366Y-849752D01*
X-2492937Y-878323D01*
X-2521509Y-892609D01*
X-2235794Y-806895D02*
X-2235794Y-864038D01*
X-2121509Y-806895D02*
X-2121509Y-864038D01*
X-1678652Y-1221181D02*
X-1692937Y-1206895D01*
X-1721509Y-1164038D01*
X-1735794Y-1135466D01*
X-1750080Y-1092609D01*
X-1764366Y-1021180D01*
X-1764366Y-964038D01*
X-1750080Y-892609D01*
X-1735794Y-849752D01*
X-1721509Y-821180D01*
X-1692937Y-778323D01*
X-1678652Y-764038D01*
X-1435794Y-806895D02*
X-1492937Y-806895D01*
X-1521509Y-821180D01*
X-1535794Y-835466D01*
X-1564366Y-878323D01*
X-1578652Y-935466D01*
X-1578652Y-1049752D01*
X-1564366Y-1078323D01*
X-1550080Y-1092609D01*
X-1521509Y-1106895D01*
X-1464366Y-1106895D01*
X-1435794Y-1092609D01*
X-1421509Y-1078323D01*
X-1407223Y-1049752D01*
X-1407223Y-978323D01*
X-1421509Y-949752D01*
X-1435794Y-935466D01*
X-1464366Y-921180D01*
X-1521509Y-921180D01*
X-1550080Y-935466D01*
X-1564366Y-949752D01*
X-1578652Y-978323D01*
X-1050080Y-1106895D02*
X-1050080Y-806895D01*
X-921509Y-1106895D02*
X-921509Y-949752D01*
X-935794Y-921180D01*
X-964366Y-906895D01*
X-1007223Y-906895D01*
X-1035794Y-921180D01*
X-1050080Y-935466D01*
X-735794Y-1106895D02*
X-764366Y-1092609D01*
X-778652Y-1078323D01*
X-792937Y-1049752D01*
X-792937Y-964038D01*
X-778652Y-935466D01*
X-764366Y-921180D01*
X-735794Y-906895D01*
X-692937Y-906895D01*
X-664366Y-921180D01*
X-650080Y-935466D01*
X-635794Y-964038D01*
X-635794Y-1049752D01*
X-650080Y-1078323D01*
X-664366Y-1092609D01*
X-692937Y-1106895D01*
X-735794Y-1106895D01*
X-464366Y-1106895D02*
X-492937Y-1092609D01*
X-507223Y-1064038D01*
X-507223Y-806895D01*
X-235794Y-1092609D02*
X-264366Y-1106895D01*
X-321509Y-1106895D01*
X-350080Y-1092609D01*
X-364366Y-1064038D01*
X-364366Y-949752D01*
X-350080Y-921180D01*
X-321509Y-906895D01*
X-264366Y-906895D01*
X-235794Y-921180D01*
X-221509Y-949752D01*
X-221509Y-978323D01*
X-364366Y-1006895D01*
X-107223Y-1092609D02*
X-78652Y-1106895D01*
X-21509Y-1106895D01*
X7063Y-1092609D01*
X21348Y-1064038D01*
X21348Y-1049752D01*
X7063Y-1021180D01*
X-21509Y-1006895D01*
X-64366Y-1006895D01*
X-92937Y-992609D01*
X-107223Y-964038D01*
X-107223Y-949752D01*
X-92937Y-921180D01*
X-64366Y-906895D01*
X-21509Y-906895D01*
X7063Y-921180D01*
X121348Y-1221181D02*
X135634Y-1206895D01*
X164206Y-1164038D01*
X178491Y-1135466D01*
X192777Y-1092609D01*
X207063Y-1021180D01*
X207063Y-964038D01*
X192777Y-892609D01*
X178491Y-849752D01*
X164206Y-821180D01*
X135634Y-778323D01*
X121348Y-764038D01*
X-6365080Y-1367181D02*
G75*
G03X-6365080Y-1367181I-50000J0D01*
G01*
X-5921509Y-1502895D02*
X-6092937Y-1502895D01*
X-6007223Y-1502895D02*
X-6007223Y-1202895D01*
X-6035794Y-1245752D01*
X-6064366Y-1274323D01*
X-6092937Y-1288609D01*
X-5792937Y-1474323D02*
X-5778652Y-1488609D01*
X-5792937Y-1502895D01*
X-5807223Y-1488609D01*
X-5792937Y-1474323D01*
X-5792937Y-1502895D01*
X-5592937Y-1202895D02*
X-5564366Y-1202895D01*
X-5535794Y-1217181D01*
X-5521509Y-1231466D01*
X-5507223Y-1260038D01*
X-5492937Y-1317181D01*
X-5492937Y-1388609D01*
X-5507223Y-1445752D01*
X-5521509Y-1474323D01*
X-5535794Y-1488609D01*
X-5564366Y-1502895D01*
X-5592937Y-1502895D01*
X-5621509Y-1488609D01*
X-5635794Y-1474323D01*
X-5650080Y-1445752D01*
X-5664366Y-1388609D01*
X-5664366Y-1317181D01*
X-5650080Y-1260038D01*
X-5635794Y-1231466D01*
X-5621509Y-1217181D01*
X-5592937Y-1202895D01*
X-5307223Y-1202895D02*
X-5278652Y-1202895D01*
X-5250080Y-1217181D01*
X-5235794Y-1231466D01*
X-5221509Y-1260038D01*
X-5207223Y-1317181D01*
X-5207223Y-1388609D01*
X-5221509Y-1445752D01*
X-5235794Y-1474323D01*
X-5250080Y-1488609D01*
X-5278652Y-1502895D01*
X-5307223Y-1502895D01*
X-5335794Y-1488609D01*
X-5350080Y-1474323D01*
X-5364366Y-1445752D01*
X-5378652Y-1388609D01*
X-5378652Y-1317181D01*
X-5364366Y-1260038D01*
X-5350080Y-1231466D01*
X-5335794Y-1217181D01*
X-5307223Y-1202895D01*
X-5078652Y-1502895D02*
X-5078652Y-1302895D01*
X-5078652Y-1331466D02*
X-5064366Y-1317181D01*
X-5035794Y-1302895D01*
X-4992937Y-1302895D01*
X-4964366Y-1317181D01*
X-4950080Y-1345752D01*
X-4950080Y-1502895D01*
X-4950080Y-1345752D02*
X-4935794Y-1317181D01*
X-4907223Y-1302895D01*
X-4864366Y-1302895D01*
X-4835794Y-1317181D01*
X-4821509Y-1345752D01*
X-4821509Y-1502895D01*
X-4678652Y-1502895D02*
X-4678652Y-1302895D01*
X-4678652Y-1331466D02*
X-4664366Y-1317181D01*
X-4635794Y-1302895D01*
X-4592937Y-1302895D01*
X-4564366Y-1317181D01*
X-4550080Y-1345752D01*
X-4550080Y-1502895D01*
X-4550080Y-1345752D02*
X-4535794Y-1317181D01*
X-4507223Y-1302895D01*
X-4464366Y-1302895D01*
X-4435794Y-1317181D01*
X-4421509Y-1345752D01*
X-4421509Y-1502895D01*
X-3835794Y-1188609D02*
X-4092937Y-1574323D01*
X-3450080Y-1202895D02*
X-3421509Y-1202895D01*
X-3392937Y-1217181D01*
X-3378652Y-1231466D01*
X-3364366Y-1260038D01*
X-3350080Y-1317181D01*
X-3350080Y-1388609D01*
X-3364366Y-1445752D01*
X-3378652Y-1474323D01*
X-3392937Y-1488609D01*
X-3421509Y-1502895D01*
X-3450080Y-1502895D01*
X-3478652Y-1488609D01*
X-3492937Y-1474323D01*
X-3507223Y-1445752D01*
X-3521509Y-1388609D01*
X-3521509Y-1317181D01*
X-3507223Y-1260038D01*
X-3492937Y-1231466D01*
X-3478652Y-1217181D01*
X-3450080Y-1202895D01*
X-3221509Y-1474323D02*
X-3207223Y-1488609D01*
X-3221509Y-1502895D01*
X-3235794Y-1488609D01*
X-3221509Y-1474323D01*
X-3221509Y-1502895D01*
X-3021509Y-1202895D02*
X-2992937Y-1202895D01*
X-2964366Y-1217181D01*
X-2950080Y-1231466D01*
X-2935794Y-1260038D01*
X-2921509Y-1317181D01*
X-2921509Y-1388609D01*
X-2935794Y-1445752D01*
X-2950080Y-1474323D01*
X-2964366Y-1488609D01*
X-2992937Y-1502895D01*
X-3021509Y-1502895D01*
X-3050080Y-1488609D01*
X-3064366Y-1474323D01*
X-3078652Y-1445752D01*
X-3092937Y-1388609D01*
X-3092937Y-1317181D01*
X-3078652Y-1260038D01*
X-3064366Y-1231466D01*
X-3050080Y-1217181D01*
X-3021509Y-1202895D01*
X-2821509Y-1202895D02*
X-2635794Y-1202895D01*
X-2735794Y-1317181D01*
X-2692937Y-1317181D01*
X-2664366Y-1331466D01*
X-2650080Y-1345752D01*
X-2635794Y-1374323D01*
X-2635794Y-1445752D01*
X-2650080Y-1474323D01*
X-2664366Y-1488609D01*
X-2692937Y-1502895D01*
X-2778652Y-1502895D01*
X-2807223Y-1488609D01*
X-2821509Y-1474323D01*
X-2492937Y-1502895D02*
X-2435794Y-1502895D01*
X-2407223Y-1488609D01*
X-2392937Y-1474323D01*
X-2364366Y-1431466D01*
X-2350080Y-1374323D01*
X-2350080Y-1260038D01*
X-2364366Y-1231466D01*
X-2378652Y-1217181D01*
X-2407223Y-1202895D01*
X-2464366Y-1202895D01*
X-2492937Y-1217181D01*
X-2507223Y-1231466D01*
X-2521509Y-1260038D01*
X-2521509Y-1331466D01*
X-2507223Y-1360038D01*
X-2492937Y-1374323D01*
X-2464366Y-1388609D01*
X-2407223Y-1388609D01*
X-2378652Y-1374323D01*
X-2364366Y-1360038D01*
X-2350080Y-1331466D01*
X-2235794Y-1202895D02*
X-2235794Y-1260038D01*
X-2121509Y-1202895D02*
X-2121509Y-1260038D01*
X-1678652Y-1617180D02*
X-1692937Y-1602895D01*
X-1721509Y-1560038D01*
X-1735794Y-1531466D01*
X-1750080Y-1488609D01*
X-1764366Y-1417180D01*
X-1764366Y-1360038D01*
X-1750080Y-1288609D01*
X-1735794Y-1245752D01*
X-1721509Y-1217181D01*
X-1692937Y-1174323D01*
X-1678652Y-1160038D01*
X-1407223Y-1502895D02*
X-1578652Y-1502895D01*
X-1492937Y-1502895D02*
X-1492937Y-1202895D01*
X-1521509Y-1245752D01*
X-1550080Y-1274323D01*
X-1578652Y-1288609D01*
X-1050080Y-1502895D02*
X-1050080Y-1202895D01*
X-921509Y-1502895D02*
X-921509Y-1345752D01*
X-935794Y-1317181D01*
X-964366Y-1302895D01*
X-1007223Y-1302895D01*
X-1035794Y-1317181D01*
X-1050080Y-1331466D01*
X-735794Y-1502895D02*
X-764366Y-1488609D01*
X-778652Y-1474323D01*
X-792937Y-1445752D01*
X-792937Y-1360038D01*
X-778652Y-1331466D01*
X-764366Y-1317181D01*
X-735794Y-1302895D01*
X-692937Y-1302895D01*
X-664366Y-1317181D01*
X-650080Y-1331466D01*
X-635794Y-1360038D01*
X-635794Y-1445752D01*
X-650080Y-1474323D01*
X-664366Y-1488609D01*
X-692937Y-1502895D01*
X-735794Y-1502895D01*
X-464366Y-1502895D02*
X-492937Y-1488609D01*
X-507223Y-1460038D01*
X-507223Y-1202895D01*
X-235794Y-1488609D02*
X-264366Y-1502895D01*
X-321509Y-1502895D01*
X-350080Y-1488609D01*
X-364366Y-1460038D01*
X-364366Y-1345752D01*
X-350080Y-1317181D01*
X-321509Y-1302895D01*
X-264366Y-1302895D01*
X-235794Y-1317181D01*
X-221509Y-1345752D01*
X-221509Y-1374323D01*
X-364366Y-1402895D01*
X-107223Y-1488609D02*
X-78652Y-1502895D01*
X-21509Y-1502895D01*
X7063Y-1488609D01*
X21348Y-1460038D01*
X21348Y-1445752D01*
X7063Y-1417180D01*
X-21509Y-1402895D01*
X-64366Y-1402895D01*
X-92937Y-1388609D01*
X-107223Y-1360038D01*
X-107223Y-1345752D01*
X-92937Y-1317181D01*
X-64366Y-1302895D01*
X-21509Y-1302895D01*
X7063Y-1317181D01*
X378491Y-1388609D02*
X607063Y-1388609D01*
X492777Y-1502895D02*
X492777Y-1274323D01*
X949920Y-1202895D02*
X1135634Y-1202895D01*
X1035634Y-1317181D01*
X1078491Y-1317181D01*
X1107063Y-1331466D01*
X1121348Y-1345752D01*
X1135634Y-1374323D01*
X1135634Y-1445752D01*
X1121348Y-1474323D01*
X1107063Y-1488609D01*
X1078491Y-1502895D01*
X992777Y-1502895D01*
X964206Y-1488609D01*
X949920Y-1474323D01*
X1478491Y-1488609D02*
X1507063Y-1502895D01*
X1564206Y-1502895D01*
X1592777Y-1488609D01*
X1607063Y-1460038D01*
X1607063Y-1445752D01*
X1592777Y-1417180D01*
X1564206Y-1402895D01*
X1521348Y-1402895D01*
X1492777Y-1388609D01*
X1478491Y-1360038D01*
X1478491Y-1345752D01*
X1492777Y-1317181D01*
X1521348Y-1302895D01*
X1564206Y-1302895D01*
X1592777Y-1317181D01*
X1778491Y-1502895D02*
X1749920Y-1488609D01*
X1735634Y-1460038D01*
X1735634Y-1202895D01*
X1935634Y-1502895D02*
X1907063Y-1488609D01*
X1892777Y-1474323D01*
X1878491Y-1445752D01*
X1878491Y-1360038D01*
X1892777Y-1331466D01*
X1907063Y-1317181D01*
X1935634Y-1302895D01*
X1978491Y-1302895D01*
X2007063Y-1317181D01*
X2021348Y-1331466D01*
X2035634Y-1360038D01*
X2035634Y-1445752D01*
X2021348Y-1474323D01*
X2007063Y-1488609D01*
X1978491Y-1502895D01*
X1935634Y-1502895D01*
X2121348Y-1302895D02*
X2235634Y-1302895D01*
X2164206Y-1202895D02*
X2164206Y-1460038D01*
X2178491Y-1488609D01*
X2207063Y-1502895D01*
X2235634Y-1502895D01*
X2321348Y-1488609D02*
X2349920Y-1502895D01*
X2407063Y-1502895D01*
X2435634Y-1488609D01*
X2449920Y-1460038D01*
X2449920Y-1445752D01*
X2435634Y-1417180D01*
X2407063Y-1402895D01*
X2364206Y-1402895D01*
X2335634Y-1388609D01*
X2321348Y-1360038D01*
X2321348Y-1345752D01*
X2335634Y-1317181D01*
X2364206Y-1302895D01*
X2407063Y-1302895D01*
X2435634Y-1317181D01*
X2549920Y-1617180D02*
X2564206Y-1602895D01*
X2592777Y-1560038D01*
X2607063Y-1531466D01*
X2621348Y-1488609D01*
X2635634Y-1417180D01*
X2635634Y-1360038D01*
X2621348Y-1288609D01*
X2607063Y-1245752D01*
X2592777Y-1217181D01*
X2564206Y-1174323D01*
X2549920Y-1160038D01*
X-6417580Y-1710680D02*
X-6417580Y-1815680D01*
X-6470080Y-1763180D02*
X-6365080Y-1763180D01*
X-5921509Y-1898895D02*
X-6092937Y-1898895D01*
X-6007223Y-1898895D02*
X-6007223Y-1598895D01*
X-6035794Y-1641752D01*
X-6064366Y-1670323D01*
X-6092937Y-1684609D01*
X-5792937Y-1870323D02*
X-5778652Y-1884609D01*
X-5792937Y-1898895D01*
X-5807223Y-1884609D01*
X-5792937Y-1870323D01*
X-5792937Y-1898895D01*
X-5592937Y-1598895D02*
X-5564366Y-1598895D01*
X-5535794Y-1613180D01*
X-5521509Y-1627466D01*
X-5507223Y-1656038D01*
X-5492937Y-1713180D01*
X-5492937Y-1784609D01*
X-5507223Y-1841752D01*
X-5521509Y-1870323D01*
X-5535794Y-1884609D01*
X-5564366Y-1898895D01*
X-5592937Y-1898895D01*
X-5621509Y-1884609D01*
X-5635794Y-1870323D01*
X-5650080Y-1841752D01*
X-5664366Y-1784609D01*
X-5664366Y-1713180D01*
X-5650080Y-1656038D01*
X-5635794Y-1627466D01*
X-5621509Y-1613180D01*
X-5592937Y-1598895D01*
X-5221509Y-1598895D02*
X-5364366Y-1598895D01*
X-5378652Y-1741752D01*
X-5364366Y-1727466D01*
X-5335794Y-1713180D01*
X-5264366Y-1713180D01*
X-5235794Y-1727466D01*
X-5221509Y-1741752D01*
X-5207223Y-1770323D01*
X-5207223Y-1841752D01*
X-5221509Y-1870323D01*
X-5235794Y-1884609D01*
X-5264366Y-1898895D01*
X-5335794Y-1898895D01*
X-5364366Y-1884609D01*
X-5378652Y-1870323D01*
X-5078652Y-1898895D02*
X-5078652Y-1698895D01*
X-5078652Y-1727466D02*
X-5064366Y-1713180D01*
X-5035794Y-1698895D01*
X-4992937Y-1698895D01*
X-4964366Y-1713180D01*
X-4950080Y-1741752D01*
X-4950080Y-1898895D01*
X-4950080Y-1741752D02*
X-4935794Y-1713180D01*
X-4907223Y-1698895D01*
X-4864366Y-1698895D01*
X-4835794Y-1713180D01*
X-4821509Y-1741752D01*
X-4821509Y-1898895D01*
X-4678652Y-1898895D02*
X-4678652Y-1698895D01*
X-4678652Y-1727466D02*
X-4664366Y-1713180D01*
X-4635794Y-1698895D01*
X-4592937Y-1698895D01*
X-4564366Y-1713180D01*
X-4550080Y-1741752D01*
X-4550080Y-1898895D01*
X-4550080Y-1741752D02*
X-4535794Y-1713180D01*
X-4507223Y-1698895D01*
X-4464366Y-1698895D01*
X-4435794Y-1713180D01*
X-4421509Y-1741752D01*
X-4421509Y-1898895D01*
X-3835794Y-1584609D02*
X-4092937Y-1970323D01*
X-3450080Y-1598895D02*
X-3421509Y-1598895D01*
X-3392937Y-1613180D01*
X-3378652Y-1627466D01*
X-3364366Y-1656038D01*
X-3350080Y-1713180D01*
X-3350080Y-1784609D01*
X-3364366Y-1841752D01*
X-3378652Y-1870323D01*
X-3392937Y-1884609D01*
X-3421509Y-1898895D01*
X-3450080Y-1898895D01*
X-3478652Y-1884609D01*
X-3492937Y-1870323D01*
X-3507223Y-1841752D01*
X-3521509Y-1784609D01*
X-3521509Y-1713180D01*
X-3507223Y-1656038D01*
X-3492937Y-1627466D01*
X-3478652Y-1613180D01*
X-3450080Y-1598895D01*
X-3221509Y-1870323D02*
X-3207223Y-1884609D01*
X-3221509Y-1898895D01*
X-3235794Y-1884609D01*
X-3221509Y-1870323D01*
X-3221509Y-1898895D01*
X-3021509Y-1598895D02*
X-2992937Y-1598895D01*
X-2964366Y-1613180D01*
X-2950080Y-1627466D01*
X-2935794Y-1656038D01*
X-2921509Y-1713180D01*
X-2921509Y-1784609D01*
X-2935794Y-1841752D01*
X-2950080Y-1870323D01*
X-2964366Y-1884609D01*
X-2992937Y-1898895D01*
X-3021509Y-1898895D01*
X-3050080Y-1884609D01*
X-3064366Y-1870323D01*
X-3078652Y-1841752D01*
X-3092937Y-1784609D01*
X-3092937Y-1713180D01*
X-3078652Y-1656038D01*
X-3064366Y-1627466D01*
X-3050080Y-1613180D01*
X-3021509Y-1598895D01*
X-2664366Y-1698895D02*
X-2664366Y-1898895D01*
X-2735794Y-1584609D02*
X-2807223Y-1798895D01*
X-2621509Y-1798895D01*
X-2350080Y-1898895D02*
X-2521509Y-1898895D01*
X-2435794Y-1898895D02*
X-2435794Y-1598895D01*
X-2464366Y-1641752D01*
X-2492937Y-1670323D01*
X-2521509Y-1684609D01*
X-2235794Y-1598895D02*
X-2235794Y-1656038D01*
X-2121509Y-1598895D02*
X-2121509Y-1656038D01*
X-1678652Y-2013180D02*
X-1692937Y-1998895D01*
X-1721509Y-1956038D01*
X-1735794Y-1927466D01*
X-1750080Y-1884609D01*
X-1764366Y-1813180D01*
X-1764366Y-1756038D01*
X-1750080Y-1684609D01*
X-1735794Y-1641752D01*
X-1721509Y-1613180D01*
X-1692937Y-1570323D01*
X-1678652Y-1556038D01*
X-1435794Y-1698895D02*
X-1435794Y-1898895D01*
X-1507223Y-1584609D02*
X-1578652Y-1798895D01*
X-1392937Y-1798895D01*
X-1150080Y-1598895D02*
X-1207223Y-1598895D01*
X-1235794Y-1613180D01*
X-1250080Y-1627466D01*
X-1278652Y-1670323D01*
X-1292937Y-1727466D01*
X-1292937Y-1841752D01*
X-1278652Y-1870323D01*
X-1264366Y-1884609D01*
X-1235794Y-1898895D01*
X-1178652Y-1898895D01*
X-1150080Y-1884609D01*
X-1135794Y-1870323D01*
X-1121509Y-1841752D01*
X-1121509Y-1770323D01*
X-1135794Y-1741752D01*
X-1150080Y-1727466D01*
X-1178652Y-1713180D01*
X-1235794Y-1713180D01*
X-1264366Y-1727466D01*
X-1278652Y-1741752D01*
X-1292937Y-1770323D01*
X-764366Y-1898895D02*
X-764366Y-1598895D01*
X-635794Y-1898895D02*
X-635794Y-1741752D01*
X-650080Y-1713180D01*
X-678652Y-1698895D01*
X-721509Y-1698895D01*
X-750080Y-1713180D01*
X-764366Y-1727466D01*
X-450080Y-1898895D02*
X-478652Y-1884609D01*
X-492937Y-1870323D01*
X-507223Y-1841752D01*
X-507223Y-1756038D01*
X-492937Y-1727466D01*
X-478652Y-1713180D01*
X-450080Y-1698895D01*
X-407223Y-1698895D01*
X-378652Y-1713180D01*
X-364366Y-1727466D01*
X-350080Y-1756038D01*
X-350080Y-1841752D01*
X-364366Y-1870323D01*
X-378652Y-1884609D01*
X-407223Y-1898895D01*
X-450080Y-1898895D01*
X-178652Y-1898895D02*
X-207223Y-1884609D01*
X-221509Y-1856038D01*
X-221509Y-1598895D01*
X49920Y-1884609D02*
X21348Y-1898895D01*
X-35794Y-1898895D01*
X-64366Y-1884609D01*
X-78652Y-1856038D01*
X-78652Y-1741752D01*
X-64366Y-1713180D01*
X-35794Y-1698895D01*
X21348Y-1698895D01*
X49920Y-1713180D01*
X64206Y-1741752D01*
X64206Y-1770323D01*
X-78652Y-1798895D01*
X178491Y-1884609D02*
X207063Y-1898895D01*
X264206Y-1898895D01*
X292777Y-1884609D01*
X307063Y-1856038D01*
X307063Y-1841752D01*
X292777Y-1813180D01*
X264206Y-1798895D01*
X221348Y-1798895D01*
X192777Y-1784609D01*
X178491Y-1756038D01*
X178491Y-1741752D01*
X192777Y-1713180D01*
X221348Y-1698895D01*
X264206Y-1698895D01*
X292777Y-1713180D01*
X407063Y-2013180D02*
X421348Y-1998895D01*
X449920Y-1956038D01*
X464206Y-1927466D01*
X478491Y-1884609D01*
X492777Y-1813180D01*
X492777Y-1756038D01*
X478491Y-1684609D01*
X464206Y-1641752D01*
X449920Y-1613180D01*
X421348Y-1570323D01*
X407063Y-1556038D01*
X-6381189Y-2198072D02*
X-6381189Y-2120289D01*
X-6458971Y-2120289D01*
X-6458971Y-2198072D01*
X-6381189Y-2198072D01*
X-5921509Y-2294895D02*
X-6092937Y-2294895D01*
X-6007223Y-2294895D02*
X-6007223Y-1994895D01*
X-6035794Y-2037752D01*
X-6064366Y-2066323D01*
X-6092937Y-2080609D01*
X-5792937Y-2266323D02*
X-5778652Y-2280609D01*
X-5792937Y-2294895D01*
X-5807223Y-2280609D01*
X-5792937Y-2266323D01*
X-5792937Y-2294895D01*
X-5492937Y-2294895D02*
X-5664366Y-2294895D01*
X-5578652Y-2294895D02*
X-5578652Y-1994895D01*
X-5607223Y-2037752D01*
X-5635794Y-2066323D01*
X-5664366Y-2080609D01*
X-5307223Y-1994895D02*
X-5278652Y-1994895D01*
X-5250080Y-2009180D01*
X-5235794Y-2023466D01*
X-5221509Y-2052038D01*
X-5207223Y-2109181D01*
X-5207223Y-2180609D01*
X-5221509Y-2237752D01*
X-5235794Y-2266323D01*
X-5250080Y-2280609D01*
X-5278652Y-2294895D01*
X-5307223Y-2294895D01*
X-5335794Y-2280609D01*
X-5350080Y-2266323D01*
X-5364366Y-2237752D01*
X-5378652Y-2180609D01*
X-5378652Y-2109181D01*
X-5364366Y-2052038D01*
X-5350080Y-2023466D01*
X-5335794Y-2009180D01*
X-5307223Y-1994895D01*
X-5078652Y-2294895D02*
X-5078652Y-2094895D01*
X-5078652Y-2123466D02*
X-5064366Y-2109181D01*
X-5035794Y-2094895D01*
X-4992937Y-2094895D01*
X-4964366Y-2109181D01*
X-4950080Y-2137752D01*
X-4950080Y-2294895D01*
X-4950080Y-2137752D02*
X-4935794Y-2109181D01*
X-4907223Y-2094895D01*
X-4864366Y-2094895D01*
X-4835794Y-2109181D01*
X-4821509Y-2137752D01*
X-4821509Y-2294895D01*
X-4678652Y-2294895D02*
X-4678652Y-2094895D01*
X-4678652Y-2123466D02*
X-4664366Y-2109181D01*
X-4635794Y-2094895D01*
X-4592937Y-2094895D01*
X-4564366Y-2109181D01*
X-4550080Y-2137752D01*
X-4550080Y-2294895D01*
X-4550080Y-2137752D02*
X-4535794Y-2109181D01*
X-4507223Y-2094895D01*
X-4464366Y-2094895D01*
X-4435794Y-2109181D01*
X-4421509Y-2137752D01*
X-4421509Y-2294895D01*
X-3835794Y-1980609D02*
X-4092937Y-2366323D01*
X-3450080Y-1994895D02*
X-3421509Y-1994895D01*
X-3392937Y-2009180D01*
X-3378652Y-2023466D01*
X-3364366Y-2052038D01*
X-3350080Y-2109181D01*
X-3350080Y-2180609D01*
X-3364366Y-2237752D01*
X-3378652Y-2266323D01*
X-3392937Y-2280609D01*
X-3421509Y-2294895D01*
X-3450080Y-2294895D01*
X-3478652Y-2280609D01*
X-3492937Y-2266323D01*
X-3507223Y-2237752D01*
X-3521509Y-2180609D01*
X-3521509Y-2109181D01*
X-3507223Y-2052038D01*
X-3492937Y-2023466D01*
X-3478652Y-2009180D01*
X-3450080Y-1994895D01*
X-3221509Y-2266323D02*
X-3207223Y-2280609D01*
X-3221509Y-2294895D01*
X-3235794Y-2280609D01*
X-3221509Y-2266323D01*
X-3221509Y-2294895D01*
X-3021509Y-1994895D02*
X-2992937Y-1994895D01*
X-2964366Y-2009180D01*
X-2950080Y-2023466D01*
X-2935794Y-2052038D01*
X-2921509Y-2109181D01*
X-2921509Y-2180609D01*
X-2935794Y-2237752D01*
X-2950080Y-2266323D01*
X-2964366Y-2280609D01*
X-2992937Y-2294895D01*
X-3021509Y-2294895D01*
X-3050080Y-2280609D01*
X-3064366Y-2266323D01*
X-3078652Y-2237752D01*
X-3092937Y-2180609D01*
X-3092937Y-2109181D01*
X-3078652Y-2052038D01*
X-3064366Y-2023466D01*
X-3050080Y-2009180D01*
X-3021509Y-1994895D01*
X-2664366Y-2094895D02*
X-2664366Y-2294895D01*
X-2735794Y-1980609D02*
X-2807223Y-2194895D01*
X-2621509Y-2194895D01*
X-2535794Y-1994895D02*
X-2350080Y-1994895D01*
X-2450080Y-2109181D01*
X-2407223Y-2109181D01*
X-2378652Y-2123466D01*
X-2364366Y-2137752D01*
X-2350080Y-2166323D01*
X-2350080Y-2237752D01*
X-2364366Y-2266323D01*
X-2378652Y-2280609D01*
X-2407223Y-2294895D01*
X-2492937Y-2294895D01*
X-2521509Y-2280609D01*
X-2535794Y-2266323D01*
X-2235794Y-1994895D02*
X-2235794Y-2052038D01*
X-2121509Y-1994895D02*
X-2121509Y-2052038D01*
X-1678652Y-2409181D02*
X-1692937Y-2394895D01*
X-1721509Y-2352038D01*
X-1735794Y-2323466D01*
X-1750080Y-2280609D01*
X-1764366Y-2209181D01*
X-1764366Y-2152038D01*
X-1750080Y-2080609D01*
X-1735794Y-2037752D01*
X-1721509Y-2009180D01*
X-1692937Y-1966323D01*
X-1678652Y-1952038D01*
X-1407223Y-2294895D02*
X-1578652Y-2294895D01*
X-1492937Y-2294895D02*
X-1492937Y-1994895D01*
X-1521509Y-2037752D01*
X-1550080Y-2066323D01*
X-1578652Y-2080609D01*
X-1050080Y-2294895D02*
X-1050080Y-1994895D01*
X-921509Y-2294895D02*
X-921509Y-2137752D01*
X-935794Y-2109181D01*
X-964366Y-2094895D01*
X-1007223Y-2094895D01*
X-1035794Y-2109181D01*
X-1050080Y-2123466D01*
X-735794Y-2294895D02*
X-764366Y-2280609D01*
X-778652Y-2266323D01*
X-792937Y-2237752D01*
X-792937Y-2152038D01*
X-778652Y-2123466D01*
X-764366Y-2109181D01*
X-735794Y-2094895D01*
X-692937Y-2094895D01*
X-664366Y-2109181D01*
X-650080Y-2123466D01*
X-635794Y-2152038D01*
X-635794Y-2237752D01*
X-650080Y-2266323D01*
X-664366Y-2280609D01*
X-692937Y-2294895D01*
X-735794Y-2294895D01*
X-464366Y-2294895D02*
X-492937Y-2280609D01*
X-507223Y-2252038D01*
X-507223Y-1994895D01*
X-235794Y-2280609D02*
X-264366Y-2294895D01*
X-321509Y-2294895D01*
X-350080Y-2280609D01*
X-364366Y-2252038D01*
X-364366Y-2137752D01*
X-350080Y-2109181D01*
X-321509Y-2094895D01*
X-264366Y-2094895D01*
X-235794Y-2109181D01*
X-221509Y-2137752D01*
X-221509Y-2166323D01*
X-364366Y-2194895D01*
X-121509Y-2409181D02*
X-107223Y-2394895D01*
X-78652Y-2352038D01*
X-64366Y-2323466D01*
X-50080Y-2280609D01*
X-35794Y-2209181D01*
X-35794Y-2152038D01*
X-50080Y-2080609D01*
X-64366Y-2037752D01*
X-78652Y-2009180D01*
X-107223Y-1966323D01*
X-121509Y-1952038D01*
X-6425080Y-2615181D02*
X-6365080Y-2555181D01*
X-6425080Y-2495181D01*
X-6485080Y-2555181D01*
X-6425080Y-2615181D01*
X-5921509Y-2690895D02*
X-6092937Y-2690895D01*
X-6007223Y-2690895D02*
X-6007223Y-2390895D01*
X-6035794Y-2433752D01*
X-6064366Y-2462323D01*
X-6092937Y-2476609D01*
X-5792937Y-2662323D02*
X-5778652Y-2676609D01*
X-5792937Y-2690895D01*
X-5807223Y-2676609D01*
X-5792937Y-2662323D01*
X-5792937Y-2690895D01*
X-5664366Y-2419466D02*
X-5650080Y-2405181D01*
X-5621509Y-2390895D01*
X-5550080Y-2390895D01*
X-5521509Y-2405181D01*
X-5507223Y-2419466D01*
X-5492937Y-2448038D01*
X-5492937Y-2476609D01*
X-5507223Y-2519466D01*
X-5678652Y-2690895D01*
X-5492937Y-2690895D01*
X-5307223Y-2390895D02*
X-5278652Y-2390895D01*
X-5250080Y-2405181D01*
X-5235794Y-2419466D01*
X-5221509Y-2448038D01*
X-5207223Y-2505181D01*
X-5207223Y-2576609D01*
X-5221509Y-2633752D01*
X-5235794Y-2662323D01*
X-5250080Y-2676609D01*
X-5278652Y-2690895D01*
X-5307223Y-2690895D01*
X-5335794Y-2676609D01*
X-5350080Y-2662323D01*
X-5364366Y-2633752D01*
X-5378652Y-2576609D01*
X-5378652Y-2505181D01*
X-5364366Y-2448038D01*
X-5350080Y-2419466D01*
X-5335794Y-2405181D01*
X-5307223Y-2390895D01*
X-5078652Y-2690895D02*
X-5078652Y-2490895D01*
X-5078652Y-2519466D02*
X-5064366Y-2505181D01*
X-5035794Y-2490895D01*
X-4992937Y-2490895D01*
X-4964366Y-2505181D01*
X-4950080Y-2533752D01*
X-4950080Y-2690895D01*
X-4950080Y-2533752D02*
X-4935794Y-2505181D01*
X-4907223Y-2490895D01*
X-4864366Y-2490895D01*
X-4835794Y-2505181D01*
X-4821509Y-2533752D01*
X-4821509Y-2690895D01*
X-4678652Y-2690895D02*
X-4678652Y-2490895D01*
X-4678652Y-2519466D02*
X-4664366Y-2505181D01*
X-4635794Y-2490895D01*
X-4592937Y-2490895D01*
X-4564366Y-2505181D01*
X-4550080Y-2533752D01*
X-4550080Y-2690895D01*
X-4550080Y-2533752D02*
X-4535794Y-2505181D01*
X-4507223Y-2490895D01*
X-4464366Y-2490895D01*
X-4435794Y-2505181D01*
X-4421509Y-2533752D01*
X-4421509Y-2690895D01*
X-3835794Y-2376609D02*
X-4092937Y-2762323D01*
X-3450080Y-2390895D02*
X-3421509Y-2390895D01*
X-3392937Y-2405181D01*
X-3378652Y-2419466D01*
X-3364366Y-2448038D01*
X-3350080Y-2505181D01*
X-3350080Y-2576609D01*
X-3364366Y-2633752D01*
X-3378652Y-2662323D01*
X-3392937Y-2676609D01*
X-3421509Y-2690895D01*
X-3450080Y-2690895D01*
X-3478652Y-2676609D01*
X-3492937Y-2662323D01*
X-3507223Y-2633752D01*
X-3521509Y-2576609D01*
X-3521509Y-2505181D01*
X-3507223Y-2448038D01*
X-3492937Y-2419466D01*
X-3478652Y-2405181D01*
X-3450080Y-2390895D01*
X-3221509Y-2662323D02*
X-3207223Y-2676609D01*
X-3221509Y-2690895D01*
X-3235794Y-2676609D01*
X-3221509Y-2662323D01*
X-3221509Y-2690895D01*
X-3021509Y-2390895D02*
X-2992937Y-2390895D01*
X-2964366Y-2405181D01*
X-2950080Y-2419466D01*
X-2935794Y-2448038D01*
X-2921509Y-2505181D01*
X-2921509Y-2576609D01*
X-2935794Y-2633752D01*
X-2950080Y-2662323D01*
X-2964366Y-2676609D01*
X-2992937Y-2690895D01*
X-3021509Y-2690895D01*
X-3050080Y-2676609D01*
X-3064366Y-2662323D01*
X-3078652Y-2633752D01*
X-3092937Y-2576609D01*
X-3092937Y-2505181D01*
X-3078652Y-2448038D01*
X-3064366Y-2419466D01*
X-3050080Y-2405181D01*
X-3021509Y-2390895D01*
X-2664366Y-2490895D02*
X-2664366Y-2690895D01*
X-2735794Y-2376609D02*
X-2807223Y-2590895D01*
X-2621509Y-2590895D01*
X-2535794Y-2390895D02*
X-2335794Y-2390895D01*
X-2464366Y-2690895D01*
X-2235794Y-2390895D02*
X-2235794Y-2448038D01*
X-2121509Y-2390895D02*
X-2121509Y-2448038D01*
X-1678652Y-2805180D02*
X-1692937Y-2790895D01*
X-1721509Y-2748038D01*
X-1735794Y-2719466D01*
X-1750080Y-2676609D01*
X-1764366Y-2605181D01*
X-1764366Y-2548038D01*
X-1750080Y-2476609D01*
X-1735794Y-2433752D01*
X-1721509Y-2405181D01*
X-1692937Y-2362323D01*
X-1678652Y-2348038D01*
X-1578652Y-2419466D02*
X-1564366Y-2405181D01*
X-1535794Y-2390895D01*
X-1464366Y-2390895D01*
X-1435794Y-2405181D01*
X-1421509Y-2419466D01*
X-1407223Y-2448038D01*
X-1407223Y-2476609D01*
X-1421509Y-2519466D01*
X-1592937Y-2690895D01*
X-1407223Y-2690895D01*
X-1150080Y-2390895D02*
X-1207223Y-2390895D01*
X-1235794Y-2405181D01*
X-1250080Y-2419466D01*
X-1278652Y-2462323D01*
X-1292937Y-2519466D01*
X-1292937Y-2633752D01*
X-1278652Y-2662323D01*
X-1264366Y-2676609D01*
X-1235794Y-2690895D01*
X-1178652Y-2690895D01*
X-1150080Y-2676609D01*
X-1135794Y-2662323D01*
X-1121509Y-2633752D01*
X-1121509Y-2562323D01*
X-1135794Y-2533752D01*
X-1150080Y-2519466D01*
X-1178652Y-2505181D01*
X-1235794Y-2505181D01*
X-1264366Y-2519466D01*
X-1278652Y-2533752D01*
X-1292937Y-2562323D01*
X-764366Y-2690895D02*
X-764366Y-2390895D01*
X-635794Y-2690895D02*
X-635794Y-2533752D01*
X-650080Y-2505181D01*
X-678652Y-2490895D01*
X-721509Y-2490895D01*
X-750080Y-2505181D01*
X-764366Y-2519466D01*
X-450080Y-2690895D02*
X-478652Y-2676609D01*
X-492937Y-2662323D01*
X-507223Y-2633752D01*
X-507223Y-2548038D01*
X-492937Y-2519466D01*
X-478652Y-2505181D01*
X-450080Y-2490895D01*
X-407223Y-2490895D01*
X-378652Y-2505181D01*
X-364366Y-2519466D01*
X-350080Y-2548038D01*
X-350080Y-2633752D01*
X-364366Y-2662323D01*
X-378652Y-2676609D01*
X-407223Y-2690895D01*
X-450080Y-2690895D01*
X-178652Y-2690895D02*
X-207223Y-2676609D01*
X-221509Y-2648038D01*
X-221509Y-2390895D01*
X49920Y-2676609D02*
X21348Y-2690895D01*
X-35794Y-2690895D01*
X-64366Y-2676609D01*
X-78652Y-2648038D01*
X-78652Y-2533752D01*
X-64366Y-2505181D01*
X-35794Y-2490895D01*
X21348Y-2490895D01*
X49920Y-2505181D01*
X64206Y-2533752D01*
X64206Y-2562323D01*
X-78652Y-2590895D01*
X178491Y-2676609D02*
X207063Y-2690895D01*
X264206Y-2690895D01*
X292777Y-2676609D01*
X307063Y-2648038D01*
X307063Y-2633752D01*
X292777Y-2605181D01*
X264206Y-2590895D01*
X221348Y-2590895D01*
X192777Y-2576609D01*
X178491Y-2548038D01*
X178491Y-2533752D01*
X192777Y-2505181D01*
X221348Y-2490895D01*
X264206Y-2490895D01*
X292777Y-2505181D01*
X407063Y-2805180D02*
X421348Y-2790895D01*
X449920Y-2748038D01*
X464206Y-2719466D01*
X478491Y-2676609D01*
X492777Y-2605181D01*
X492777Y-2548038D01*
X478491Y-2476609D01*
X464206Y-2433752D01*
X449920Y-2405181D01*
X421348Y-2362323D01*
X407063Y-2348038D01*
X-6504780Y-2881330D02*
X-6365080Y-3021030D01*
X-6365080Y-2881330D02*
X-6504780Y-3021030D01*
X-6365080Y-2951180D02*
G75*
G03X-6365080Y-2951180I-69850J0D01*
G01*
X-5921509Y-3086895D02*
X-6092937Y-3086895D01*
X-6007223Y-3086895D02*
X-6007223Y-2786895D01*
X-6035794Y-2829752D01*
X-6064366Y-2858323D01*
X-6092937Y-2872609D01*
X-5792937Y-3058323D02*
X-5778652Y-3072609D01*
X-5792937Y-3086895D01*
X-5807223Y-3072609D01*
X-5792937Y-3058323D01*
X-5792937Y-3086895D01*
X-5521509Y-2886895D02*
X-5521509Y-3086895D01*
X-5592937Y-2772609D02*
X-5664366Y-2986895D01*
X-5478652Y-2986895D01*
X-5307223Y-2786895D02*
X-5278652Y-2786895D01*
X-5250080Y-2801180D01*
X-5235794Y-2815466D01*
X-5221509Y-2844038D01*
X-5207223Y-2901180D01*
X-5207223Y-2972609D01*
X-5221509Y-3029752D01*
X-5235794Y-3058323D01*
X-5250080Y-3072609D01*
X-5278652Y-3086895D01*
X-5307223Y-3086895D01*
X-5335794Y-3072609D01*
X-5350080Y-3058323D01*
X-5364366Y-3029752D01*
X-5378652Y-2972609D01*
X-5378652Y-2901180D01*
X-5364366Y-2844038D01*
X-5350080Y-2815466D01*
X-5335794Y-2801180D01*
X-5307223Y-2786895D01*
X-5078652Y-3086895D02*
X-5078652Y-2886895D01*
X-5078652Y-2915466D02*
X-5064366Y-2901180D01*
X-5035794Y-2886895D01*
X-4992937Y-2886895D01*
X-4964366Y-2901180D01*
X-4950080Y-2929752D01*
X-4950080Y-3086895D01*
X-4950080Y-2929752D02*
X-4935794Y-2901180D01*
X-4907223Y-2886895D01*
X-4864366Y-2886895D01*
X-4835794Y-2901180D01*
X-4821509Y-2929752D01*
X-4821509Y-3086895D01*
X-4678652Y-3086895D02*
X-4678652Y-2886895D01*
X-4678652Y-2915466D02*
X-4664366Y-2901180D01*
X-4635794Y-2886895D01*
X-4592937Y-2886895D01*
X-4564366Y-2901180D01*
X-4550080Y-2929752D01*
X-4550080Y-3086895D01*
X-4550080Y-2929752D02*
X-4535794Y-2901180D01*
X-4507223Y-2886895D01*
X-4464366Y-2886895D01*
X-4435794Y-2901180D01*
X-4421509Y-2929752D01*
X-4421509Y-3086895D01*
X-3835794Y-2772609D02*
X-4092937Y-3158323D01*
X-3450080Y-2786895D02*
X-3421509Y-2786895D01*
X-3392937Y-2801180D01*
X-3378652Y-2815466D01*
X-3364366Y-2844038D01*
X-3350080Y-2901180D01*
X-3350080Y-2972609D01*
X-3364366Y-3029752D01*
X-3378652Y-3058323D01*
X-3392937Y-3072609D01*
X-3421509Y-3086895D01*
X-3450080Y-3086895D01*
X-3478652Y-3072609D01*
X-3492937Y-3058323D01*
X-3507223Y-3029752D01*
X-3521509Y-2972609D01*
X-3521509Y-2901180D01*
X-3507223Y-2844038D01*
X-3492937Y-2815466D01*
X-3478652Y-2801180D01*
X-3450080Y-2786895D01*
X-3221509Y-3058323D02*
X-3207223Y-3072609D01*
X-3221509Y-3086895D01*
X-3235794Y-3072609D01*
X-3221509Y-3058323D01*
X-3221509Y-3086895D01*
X-3021509Y-2786895D02*
X-2992937Y-2786895D01*
X-2964366Y-2801180D01*
X-2950080Y-2815466D01*
X-2935794Y-2844038D01*
X-2921509Y-2901180D01*
X-2921509Y-2972609D01*
X-2935794Y-3029752D01*
X-2950080Y-3058323D01*
X-2964366Y-3072609D01*
X-2992937Y-3086895D01*
X-3021509Y-3086895D01*
X-3050080Y-3072609D01*
X-3064366Y-3058323D01*
X-3078652Y-3029752D01*
X-3092937Y-2972609D01*
X-3092937Y-2901180D01*
X-3078652Y-2844038D01*
X-3064366Y-2815466D01*
X-3050080Y-2801180D01*
X-3021509Y-2786895D01*
X-2650080Y-2786895D02*
X-2792937Y-2786895D01*
X-2807223Y-2929752D01*
X-2792937Y-2915466D01*
X-2764366Y-2901180D01*
X-2692937Y-2901180D01*
X-2664366Y-2915466D01*
X-2650080Y-2929752D01*
X-2635794Y-2958323D01*
X-2635794Y-3029752D01*
X-2650080Y-3058323D01*
X-2664366Y-3072609D01*
X-2692937Y-3086895D01*
X-2764366Y-3086895D01*
X-2792937Y-3072609D01*
X-2807223Y-3058323D01*
X-2364366Y-2786895D02*
X-2507223Y-2786895D01*
X-2521509Y-2929752D01*
X-2507223Y-2915466D01*
X-2478652Y-2901180D01*
X-2407223Y-2901180D01*
X-2378652Y-2915466D01*
X-2364366Y-2929752D01*
X-2350080Y-2958323D01*
X-2350080Y-3029752D01*
X-2364366Y-3058323D01*
X-2378652Y-3072609D01*
X-2407223Y-3086895D01*
X-2478652Y-3086895D01*
X-2507223Y-3072609D01*
X-2521509Y-3058323D01*
X-2235794Y-2786895D02*
X-2235794Y-2844038D01*
X-2121509Y-2786895D02*
X-2121509Y-2844038D01*
X-1678652Y-3201180D02*
X-1692937Y-3186895D01*
X-1721509Y-3144038D01*
X-1735794Y-3115466D01*
X-1750080Y-3072609D01*
X-1764366Y-3001180D01*
X-1764366Y-2944038D01*
X-1750080Y-2872609D01*
X-1735794Y-2829752D01*
X-1721509Y-2801180D01*
X-1692937Y-2758323D01*
X-1678652Y-2744038D01*
X-1421509Y-2786895D02*
X-1564366Y-2786895D01*
X-1578652Y-2929752D01*
X-1564366Y-2915466D01*
X-1535794Y-2901180D01*
X-1464366Y-2901180D01*
X-1435794Y-2915466D01*
X-1421509Y-2929752D01*
X-1407223Y-2958323D01*
X-1407223Y-3029752D01*
X-1421509Y-3058323D01*
X-1435794Y-3072609D01*
X-1464366Y-3086895D01*
X-1535794Y-3086895D01*
X-1564366Y-3072609D01*
X-1578652Y-3058323D01*
X-1050080Y-3086895D02*
X-1050080Y-2786895D01*
X-921509Y-3086895D02*
X-921509Y-2929752D01*
X-935794Y-2901180D01*
X-964366Y-2886895D01*
X-1007223Y-2886895D01*
X-1035794Y-2901180D01*
X-1050080Y-2915466D01*
X-735794Y-3086895D02*
X-764366Y-3072609D01*
X-778652Y-3058323D01*
X-792937Y-3029752D01*
X-792937Y-2944038D01*
X-778652Y-2915466D01*
X-764366Y-2901180D01*
X-735794Y-2886895D01*
X-692937Y-2886895D01*
X-664366Y-2901180D01*
X-650080Y-2915466D01*
X-635794Y-2944038D01*
X-635794Y-3029752D01*
X-650080Y-3058323D01*
X-664366Y-3072609D01*
X-692937Y-3086895D01*
X-735794Y-3086895D01*
X-464366Y-3086895D02*
X-492937Y-3072609D01*
X-507223Y-3044038D01*
X-507223Y-2786895D01*
X-235794Y-3072609D02*
X-264366Y-3086895D01*
X-321509Y-3086895D01*
X-350080Y-3072609D01*
X-364366Y-3044038D01*
X-364366Y-2929752D01*
X-350080Y-2901180D01*
X-321509Y-2886895D01*
X-264366Y-2886895D01*
X-235794Y-2901180D01*
X-221509Y-2929752D01*
X-221509Y-2958323D01*
X-364366Y-2986895D01*
X-107223Y-3072609D02*
X-78652Y-3086895D01*
X-21509Y-3086895D01*
X7063Y-3072609D01*
X21348Y-3044038D01*
X21348Y-3029752D01*
X7063Y-3001180D01*
X-21509Y-2986895D01*
X-64366Y-2986895D01*
X-92937Y-2972609D01*
X-107223Y-2944038D01*
X-107223Y-2929752D01*
X-92937Y-2901180D01*
X-64366Y-2886895D01*
X-21509Y-2886895D01*
X7063Y-2901180D01*
X121348Y-3201180D02*
X135634Y-3186895D01*
X164206Y-3144038D01*
X178491Y-3115466D01*
X192777Y-3072609D01*
X207063Y-3001180D01*
X207063Y-2944038D01*
X192777Y-2872609D01*
X178491Y-2829752D01*
X164206Y-2801180D01*
X135634Y-2758323D01*
X121348Y-2744038D01*
M02*
