G04 #@! TF.GenerationSoftware,KiCad,Pcbnew,(5.0.2)-1*
G04 #@! TF.CreationDate,2019-04-04T01:38:51-04:00*
G04 #@! TF.ProjectId,po_midi_adapter,706f5f6d-6964-4695-9f61-646170746572,rev?*
G04 #@! TF.SameCoordinates,PXa2393f8PY7537788*
G04 #@! TF.FileFunction,Copper,L1,Top*
G04 #@! TF.FilePolarity,Positive*
%FSLAX46Y46*%
G04 Gerber Fmt 4.6, Leading zero omitted, Abs format (unit mm)*
G04 Created by KiCad (PCBNEW (5.0.2)-1) date 4/4/2019 1:38:51 AM*
%MOMM*%
%LPD*%
G01*
G04 APERTURE LIST*
G04 #@! TA.AperFunction,ComponentPad*
%ADD10C,1.700000*%
G04 #@! TD*
G04 #@! TA.AperFunction,ComponentPad*
%ADD11R,1.600000X1.600000*%
G04 #@! TD*
G04 #@! TA.AperFunction,ComponentPad*
%ADD12C,1.550000*%
G04 #@! TD*
G04 #@! TA.AperFunction,ComponentPad*
%ADD13C,2.200000*%
G04 #@! TD*
G04 #@! TA.AperFunction,ComponentPad*
%ADD14O,2.000000X2.000000*%
G04 #@! TD*
G04 #@! TA.AperFunction,ComponentPad*
%ADD15R,1.900000X1.900000*%
G04 #@! TD*
G04 #@! TA.AperFunction,ComponentPad*
%ADD16C,2.499360*%
G04 #@! TD*
G04 #@! TA.AperFunction,ComponentPad*
%ADD17O,1.600000X1.600000*%
G04 #@! TD*
G04 #@! TA.AperFunction,ComponentPad*
%ADD18C,1.600000*%
G04 #@! TD*
G04 #@! TA.AperFunction,ComponentPad*
%ADD19C,1.308000*%
G04 #@! TD*
G04 #@! TA.AperFunction,ComponentPad*
%ADD20R,1.308000X1.308000*%
G04 #@! TD*
G04 #@! TA.AperFunction,ComponentPad*
%ADD21C,2.800000*%
G04 #@! TD*
G04 APERTURE END LIST*
D10*
G04 #@! TO.P,U1,17*
G04 #@! TO.N,/GPIO_9*
X-10337800Y43408600D03*
G04 #@! TO.P,U1,18*
G04 #@! TO.N,N/C*
X-10337800Y45948600D03*
G04 #@! TO.P,U1,19*
X-10337800Y48488600D03*
G04 #@! TO.P,U1,20*
X-10337800Y51028600D03*
G04 #@! TO.P,U1,16*
X-10337800Y40868600D03*
G04 #@! TO.P,U1,15*
X-10337800Y38328600D03*
G04 #@! TO.P,U1,14*
G04 #@! TO.N,/GPIO_10*
X-10337800Y35788600D03*
G04 #@! TO.P,U1,21*
G04 #@! TO.N,N/C*
X-10337800Y53568600D03*
G04 #@! TO.P,U1,22*
G04 #@! TO.N,/GPIO_13*
X-10337800Y56108600D03*
G04 #@! TO.P,U1,23*
G04 #@! TO.N,N/C*
X-10337800Y58648600D03*
G04 #@! TO.P,U1,24*
G04 #@! TO.N,/GPIO_14*
X-10337800Y61188600D03*
G04 #@! TO.P,U1,30*
G04 #@! TO.N,/GPIO_16*
X-25577800Y61188600D03*
G04 #@! TO.P,U1,31*
G04 #@! TO.N,/GPIO_15*
X-25577800Y58648600D03*
G04 #@! TO.P,U1,32*
G04 #@! TO.N,/GPIO_WRITE*
X-25577800Y56108600D03*
G04 #@! TO.P,U1,33*
G04 #@! TO.N,/GPIO_PLAY*
X-25577800Y53568600D03*
G04 #@! TO.P,U1,34*
G04 #@! TO.N,N/C*
X-25577800Y51028600D03*
G04 #@! TO.P,U1,35*
G04 #@! TO.N,/GPIO_12*
X-25577800Y48488600D03*
G04 #@! TO.P,U1,36*
G04 #@! TO.N,/GPIO_11*
X-25577800Y45948600D03*
G04 #@! TO.P,U1,37*
G04 #@! TO.N,/AUDIO_RING*
X-25577800Y43408600D03*
G04 #@! TO.P,U1,13*
G04 #@! TO.N,/GPIO_6*
X-10337800Y33248600D03*
G04 #@! TO.P,U1,12*
G04 #@! TO.N,/GPIO_5*
X-10337800Y30708600D03*
G04 #@! TO.P,U1,11*
G04 #@! TO.N,N/C*
X-10337800Y28168600D03*
G04 #@! TO.P,U1,10*
G04 #@! TO.N,/MIDI_1_OUT*
X-10337800Y25628600D03*
G04 #@! TO.P,U1,9*
G04 #@! TO.N,N/C*
X-10337800Y23088600D03*
G04 #@! TO.P,U1,8*
G04 #@! TO.N,/GPIO_2*
X-10337800Y20548600D03*
G04 #@! TO.P,U1,7*
G04 #@! TO.N,/GPIO_1*
X-10337800Y18008600D03*
G04 #@! TO.P,U1,6*
G04 #@! TO.N,N/C*
X-10337800Y15468600D03*
G04 #@! TO.P,U1,5*
G04 #@! TO.N,/GPIO_PATTERN*
X-10337800Y12928600D03*
G04 #@! TO.P,U1,4*
G04 #@! TO.N,/GPIO_SOUND*
X-10337800Y10388600D03*
G04 #@! TO.P,U1,3*
G04 #@! TO.N,N/C*
X-10337800Y7848600D03*
G04 #@! TO.P,U1,2*
X-10337800Y5308600D03*
D11*
G04 #@! TO.P,U1,1*
G04 #@! TO.N,GND*
X-10337800Y2768600D03*
D10*
G04 #@! TO.P,U1,38*
G04 #@! TO.N,/AUDIO_TIP*
X-25577800Y40868600D03*
G04 #@! TO.P,U1,39*
G04 #@! TO.N,GND*
X-25577800Y38328600D03*
D12*
G04 #@! TO.P,U1,40*
G04 #@! TO.N,N/C*
X-25577800Y35788600D03*
G04 #@! TO.P,U1,41*
G04 #@! TO.N,/GPIO_7*
X-25577800Y33248600D03*
D10*
G04 #@! TO.P,U1,42*
G04 #@! TO.N,/GPIO_8*
X-25577800Y30708600D03*
G04 #@! TO.P,U1,43*
G04 #@! TO.N,/GPIO_FX*
X-25577800Y28168600D03*
G04 #@! TO.P,U1,44*
G04 #@! TO.N,/GPIO_SPECIAL*
X-25577800Y25628600D03*
G04 #@! TO.P,U1,45*
G04 #@! TO.N,/GPIO_4*
X-25577800Y23088600D03*
G04 #@! TO.P,U1,46*
G04 #@! TO.N,/GPIO_3*
X-25577800Y20548600D03*
D12*
G04 #@! TO.P,U1,47*
G04 #@! TO.N,N/C*
X-25577800Y18008600D03*
D10*
G04 #@! TO.P,U1,48*
G04 #@! TO.N,/GPIO_POT_B*
X-25577800Y15468600D03*
G04 #@! TO.P,U1,49*
G04 #@! TO.N,/GPIO_POT_A*
X-25577800Y12928600D03*
G04 #@! TO.P,U1,50*
G04 #@! TO.N,/GPIO_BPM*
X-25577800Y10388600D03*
G04 #@! TO.P,U1,51*
G04 #@! TO.N,N/C*
X-25577800Y7848600D03*
G04 #@! TO.P,U1,52*
X-25577800Y5308600D03*
G04 #@! TO.P,U1,53*
G04 #@! TO.N,/5V*
X-25577800Y2768600D03*
G04 #@! TD*
D13*
G04 #@! TO.P,J28,1*
G04 #@! TO.N,/GPIO_11*
X-29387800Y46456600D03*
G04 #@! TD*
G04 #@! TO.P,J27,1*
G04 #@! TO.N,/GPIO_POT_A*
X-42659300Y12103100D03*
G04 #@! TD*
G04 #@! TO.P,J26,1*
G04 #@! TO.N,/GPIO_POT_B*
X-53644800Y12103100D03*
G04 #@! TD*
G04 #@! TO.P,J25,1*
G04 #@! TO.N,/GPIO_16*
X-40411400Y58978800D03*
G04 #@! TD*
G04 #@! TO.P,J24,1*
G04 #@! TO.N,/GPIO_PLAY*
X-51384200Y46482000D03*
G04 #@! TD*
G04 #@! TO.P,J23,1*
G04 #@! TO.N,/GPIO_FX*
X-51409600Y33959800D03*
G04 #@! TD*
G04 #@! TO.P,J22,1*
G04 #@! TO.N,/GPIO_4*
X-40411400Y21463000D03*
G04 #@! TD*
G04 #@! TO.P,J21,1*
G04 #@! TO.N,/GPIO_BPM*
X-29387800Y8991600D03*
G04 #@! TD*
G04 #@! TO.P,J20,1*
G04 #@! TO.N,/GPIO_PATTERN*
X-18415000Y8966200D03*
G04 #@! TD*
G04 #@! TO.P,J19,1*
G04 #@! TO.N,/GPIO_SOUND*
X-7391400Y8966200D03*
G04 #@! TD*
G04 #@! TO.P,J17,1*
G04 #@! TO.N,/GPIO_13*
X-7391400Y58978800D03*
G04 #@! TD*
G04 #@! TO.P,J16,1*
G04 #@! TO.N,/GPIO_14*
X-18415000Y59004200D03*
G04 #@! TD*
G04 #@! TO.P,J14,1*
G04 #@! TO.N,/GPIO_12*
X-40386000Y46482000D03*
G04 #@! TD*
G04 #@! TO.P,J13,1*
G04 #@! TO.N,/GPIO_10*
X-18402300Y46456600D03*
G04 #@! TD*
G04 #@! TO.P,J12,1*
G04 #@! TO.N,/GPIO_9*
X-7416800Y46456600D03*
G04 #@! TD*
G04 #@! TO.P,J11,1*
G04 #@! TO.N,/GPIO_8*
X-40411400Y33959800D03*
G04 #@! TD*
G04 #@! TO.P,J10,1*
G04 #@! TO.N,/GPIO_7*
X-29387800Y34010600D03*
G04 #@! TD*
G04 #@! TO.P,J9,1*
G04 #@! TO.N,/GPIO_6*
X-18389600Y33959800D03*
G04 #@! TD*
G04 #@! TO.P,J8,1*
G04 #@! TO.N,/GPIO_5*
X-7416800Y33947100D03*
G04 #@! TD*
G04 #@! TO.P,J6,1*
G04 #@! TO.N,/GPIO_1*
X-7391400Y21488400D03*
G04 #@! TD*
G04 #@! TO.P,J5,1*
G04 #@! TO.N,/GPIO_2*
X-18389600Y21463000D03*
G04 #@! TD*
D14*
G04 #@! TO.P,J18,2*
G04 #@! TO.N,Net-(J18-Pad2)*
X-53771800Y59029600D03*
D15*
G04 #@! TO.P,J18,1*
G04 #@! TO.N,/GPIO_WRITE*
X-51231800Y59029600D03*
G04 #@! TD*
D16*
G04 #@! TO.P,J2,5*
G04 #@! TO.N,Net-(J2-Pad5)*
X-54241700Y28084780D03*
G04 #@! TO.P,J2,1*
G04 #@! TO.N,N/C*
X-56743600Y15590520D03*
G04 #@! TO.P,J2,2*
G04 #@! TO.N,GND*
X-56741060Y23088600D03*
G04 #@! TO.P,J2,4*
G04 #@! TO.N,Net-(J2-Pad4)*
X-54241700Y18092420D03*
G04 #@! TO.P,J2,3*
G04 #@! TO.N,N/C*
X-56743600Y30586680D03*
G04 #@! TD*
D13*
G04 #@! TO.P,J4,1*
G04 #@! TO.N,/GPIO_3*
X-29133800Y21437600D03*
G04 #@! TD*
G04 #@! TO.P,J7,1*
G04 #@! TO.N,/GPIO_15*
X-29260800Y58902600D03*
G04 #@! TD*
G04 #@! TO.P,J15,1*
G04 #@! TO.N,/GPIO_SPECIAL*
X-51231800Y21437600D03*
G04 #@! TD*
D17*
G04 #@! TO.P,R2,2*
G04 #@! TO.N,/5V*
X-37541200Y17780000D03*
D18*
G04 #@! TO.P,R2,1*
G04 #@! TO.N,Net-(J2-Pad4)*
X-47701200Y17780000D03*
G04 #@! TD*
G04 #@! TO.P,R3,1*
G04 #@! TO.N,Net-(J2-Pad5)*
X-54610000Y33832800D03*
D17*
G04 #@! TO.P,R3,2*
G04 #@! TO.N,/MIDI_1_BUF_OUT*
X-54610000Y43992800D03*
G04 #@! TD*
D18*
G04 #@! TO.P,R4,1*
G04 #@! TO.N,GND*
X-3581400Y7162800D03*
D17*
G04 #@! TO.P,R4,2*
G04 #@! TO.N,/MIDI_1_OUT*
X-3581400Y17322800D03*
G04 #@! TD*
D19*
G04 #@! TO.P,S1,3*
G04 #@! TO.N,N/C*
X-40037000Y52857400D03*
G04 #@! TO.P,S1,2*
G04 #@! TO.N,GND*
X-42037000Y52857400D03*
D20*
G04 #@! TO.P,S1,1*
G04 #@! TO.N,Net-(J18-Pad2)*
X-44037000Y52857400D03*
G04 #@! TD*
D11*
G04 #@! TO.P,U2,1*
G04 #@! TO.N,GND*
X-32156400Y43738800D03*
D17*
G04 #@! TO.P,U2,8*
G04 #@! TO.N,N/C*
X-47396400Y36118800D03*
G04 #@! TO.P,U2,2*
G04 #@! TO.N,/MIDI_1_OUT*
X-34696400Y43738800D03*
G04 #@! TO.P,U2,9*
G04 #@! TO.N,N/C*
X-44856400Y36118800D03*
G04 #@! TO.P,U2,3*
G04 #@! TO.N,/MIDI_1_BUF_OUT*
X-37236400Y43738800D03*
G04 #@! TO.P,U2,10*
G04 #@! TO.N,N/C*
X-42316400Y36118800D03*
G04 #@! TO.P,U2,4*
X-39776400Y43738800D03*
G04 #@! TO.P,U2,11*
X-39776400Y36118800D03*
G04 #@! TO.P,U2,5*
X-42316400Y43738800D03*
G04 #@! TO.P,U2,12*
X-37236400Y36118800D03*
G04 #@! TO.P,U2,6*
X-44856400Y43738800D03*
G04 #@! TO.P,U2,13*
X-34696400Y36118800D03*
G04 #@! TO.P,U2,7*
G04 #@! TO.N,GND*
X-47396400Y43738800D03*
G04 #@! TO.P,U2,14*
G04 #@! TO.N,/5V*
X-32156400Y36118800D03*
G04 #@! TD*
D21*
G04 #@! TO.P,J1,S*
G04 #@! TO.N,GND*
X-61645800Y51892200D03*
G04 #@! TO.P,J1,T*
G04 #@! TO.N,/AUDIO_TIP*
X-59245800Y53892200D03*
G04 #@! TO.P,J1,R*
G04 #@! TO.N,/AUDIO_RING*
X-53745800Y53892200D03*
G04 #@! TD*
M02*
