M48
;DRILL file {KiCad (5.0.2)-1} date 4/4/2019 1:38:58 AM
;FORMAT={-:-/ absolute / inch / decimal}
FMAT,2
INCH,TZ
T1C0.0315
T2C0.0354
T3C0.0433
T4C0.0550
T5C0.0787
T6C0.0591
%
G90
G05
T1
X-1.7337Y2.081
X-1.655Y2.081
X-1.5763Y2.081
X-1.866Y1.722
X-1.866Y1.422
X-1.766Y1.722
X-1.766Y1.422
X-1.666Y1.722
X-1.666Y1.422
X-1.566Y1.722
X-1.566Y1.422
X-1.466Y1.722
X-1.466Y1.422
X-1.366Y1.722
X-1.366Y1.422
X-1.266Y1.722
X-1.266Y1.422
X-0.141Y0.682
X-0.141Y0.282
X-1.878Y0.7
X-1.478Y0.7
X-2.15Y1.732
X-2.15Y1.332
T2
X-1.007Y2.409
X-1.007Y2.309
X-1.007Y2.209
X-1.007Y2.109
X-1.007Y2.009
X-1.007Y1.909
X-1.007Y1.809
X-1.007Y1.709
X-1.007Y1.609
X-1.007Y1.509
X-1.007Y1.409
X-1.007Y1.309
X-1.007Y1.209
X-1.007Y1.109
X-1.007Y1.009
X-1.007Y0.909
X-1.007Y0.809
X-1.007Y0.709
X-1.007Y0.609
X-1.007Y0.509
X-1.007Y0.409
X-1.007Y0.309
X-1.007Y0.209
X-1.007Y0.109
X-0.407Y2.409
X-0.407Y2.309
X-0.407Y2.209
X-0.407Y2.109
X-0.407Y2.009
X-0.407Y1.909
X-0.407Y1.809
X-0.407Y1.709
X-0.407Y1.609
X-0.407Y1.509
X-0.407Y1.409
X-0.407Y1.309
X-0.407Y1.209
X-0.407Y1.109
X-0.407Y1.009
X-0.407Y0.909
X-0.407Y0.809
X-0.407Y0.709
X-0.407Y0.609
X-0.407Y0.509
X-0.407Y0.409
X-0.407Y0.309
X-0.407Y0.209
T3
X-0.291Y0.353
X-0.291Y2.322
X-1.157Y1.339
X-1.152Y2.319
X-0.407Y0.109
X-1.157Y0.354
X-0.292Y1.3365
X-0.724Y0.845
X-1.591Y0.845
X-0.292Y1.829
X-1.147Y0.844
X-2.017Y0.844
X-2.112Y0.4765
X-2.024Y1.337
X-0.725Y0.353
X-0.724Y1.337
X-1.6795Y0.4765
X-2.023Y1.83
X-1.591Y1.337
X-0.291Y0.846
X-1.157Y1.829
X-1.591Y2.322
X-1.59Y1.83
X-0.7245Y1.829
X-0.725Y2.323
X-2.117Y2.324
X-2.017Y2.324
T4
X-2.234Y1.2042
X-2.234Y0.6138
X-2.2339Y0.909
X-2.1355Y1.1057
X-2.1355Y0.7123
T5
X-2.427Y2.043
X-2.3325Y2.1217
X-2.116Y2.1217
T6
X-1.8164Y2.081
X-1.4936Y2.081
T0
M30
