G04 #@! TF.GenerationSoftware,KiCad,Pcbnew,(5.0.2)-1*
G04 #@! TF.CreationDate,2019-03-30T17:50:24-04:00*
G04 #@! TF.ProjectId,po_midi_adapter,706f5f6d-6964-4695-9f61-646170746572,rev?*
G04 #@! TF.SameCoordinates,PXa2393f8PY7537788*
G04 #@! TF.FileFunction,Other,Fab,Top*
%FSLAX46Y46*%
G04 Gerber Fmt 4.6, Leading zero omitted, Abs format (unit mm)*
G04 Created by KiCad (PCBNEW (5.0.2)-1) date 2019-03-30 5:50:24 PM*
%MOMM*%
%LPD*%
G01*
G04 APERTURE LIST*
%ADD10C,0.120000*%
%ADD11C,0.100000*%
%ADD12C,0.150000*%
G04 APERTURE END LIST*
D10*
G04 #@! TO.C,J28*
X-28887800Y46456600D02*
G75*
G03X-28887800Y46456600I-500000J0D01*
G01*
X-28087800Y46456600D02*
G75*
G03X-28087800Y46456600I-1300000J0D01*
G01*
G04 #@! TO.C,J27*
X-42159300Y12103100D02*
G75*
G03X-42159300Y12103100I-500000J0D01*
G01*
X-41359300Y12103100D02*
G75*
G03X-41359300Y12103100I-1300000J0D01*
G01*
G04 #@! TO.C,J26*
X-53144800Y12103100D02*
G75*
G03X-53144800Y12103100I-500000J0D01*
G01*
X-52344800Y12103100D02*
G75*
G03X-52344800Y12103100I-1300000J0D01*
G01*
G04 #@! TO.C,J25*
X-39911400Y58978800D02*
G75*
G03X-39911400Y58978800I-500000J0D01*
G01*
X-39111400Y58978800D02*
G75*
G03X-39111400Y58978800I-1300000J0D01*
G01*
G04 #@! TO.C,J24*
X-50884200Y46482000D02*
G75*
G03X-50884200Y46482000I-500000J0D01*
G01*
X-50084200Y46482000D02*
G75*
G03X-50084200Y46482000I-1300000J0D01*
G01*
G04 #@! TO.C,J23*
X-50909600Y33959800D02*
G75*
G03X-50909600Y33959800I-500000J0D01*
G01*
X-50109600Y33959800D02*
G75*
G03X-50109600Y33959800I-1300000J0D01*
G01*
G04 #@! TO.C,J22*
X-39911400Y21463000D02*
G75*
G03X-39911400Y21463000I-500000J0D01*
G01*
X-39111400Y21463000D02*
G75*
G03X-39111400Y21463000I-1300000J0D01*
G01*
G04 #@! TO.C,J21*
X-28887800Y8991600D02*
G75*
G03X-28887800Y8991600I-500000J0D01*
G01*
X-28087800Y8991600D02*
G75*
G03X-28087800Y8991600I-1300000J0D01*
G01*
G04 #@! TO.C,J20*
X-17915000Y8966200D02*
G75*
G03X-17915000Y8966200I-500000J0D01*
G01*
X-17115000Y8966200D02*
G75*
G03X-17115000Y8966200I-1300000J0D01*
G01*
G04 #@! TO.C,J19*
X-6891400Y8966200D02*
G75*
G03X-6891400Y8966200I-500000J0D01*
G01*
X-6091400Y8966200D02*
G75*
G03X-6091400Y8966200I-1300000J0D01*
G01*
G04 #@! TO.C,J17*
X-6891400Y58978800D02*
G75*
G03X-6891400Y58978800I-500000J0D01*
G01*
X-6091400Y58978800D02*
G75*
G03X-6091400Y58978800I-1300000J0D01*
G01*
G04 #@! TO.C,J16*
X-17915000Y59004200D02*
G75*
G03X-17915000Y59004200I-500000J0D01*
G01*
X-17115000Y59004200D02*
G75*
G03X-17115000Y59004200I-1300000J0D01*
G01*
G04 #@! TO.C,J14*
X-39886000Y46482000D02*
G75*
G03X-39886000Y46482000I-500000J0D01*
G01*
X-39086000Y46482000D02*
G75*
G03X-39086000Y46482000I-1300000J0D01*
G01*
G04 #@! TO.C,J13*
X-17902300Y46456600D02*
G75*
G03X-17902300Y46456600I-500000J0D01*
G01*
X-17102300Y46456600D02*
G75*
G03X-17102300Y46456600I-1300000J0D01*
G01*
G04 #@! TO.C,J12*
X-6916800Y46456600D02*
G75*
G03X-6916800Y46456600I-500000J0D01*
G01*
X-6116800Y46456600D02*
G75*
G03X-6116800Y46456600I-1300000J0D01*
G01*
G04 #@! TO.C,J11*
X-39911400Y33959800D02*
G75*
G03X-39911400Y33959800I-500000J0D01*
G01*
X-39111400Y33959800D02*
G75*
G03X-39111400Y33959800I-1300000J0D01*
G01*
G04 #@! TO.C,J10*
X-28887800Y34010600D02*
G75*
G03X-28887800Y34010600I-500000J0D01*
G01*
X-28087800Y34010600D02*
G75*
G03X-28087800Y34010600I-1300000J0D01*
G01*
G04 #@! TO.C,J9*
X-17889600Y33959800D02*
G75*
G03X-17889600Y33959800I-500000J0D01*
G01*
X-17089600Y33959800D02*
G75*
G03X-17089600Y33959800I-1300000J0D01*
G01*
G04 #@! TO.C,J8*
X-6916800Y33947100D02*
G75*
G03X-6916800Y33947100I-500000J0D01*
G01*
X-6116800Y33947100D02*
G75*
G03X-6116800Y33947100I-1300000J0D01*
G01*
G04 #@! TO.C,J6*
X-6891400Y21488400D02*
G75*
G03X-6891400Y21488400I-500000J0D01*
G01*
X-6091400Y21488400D02*
G75*
G03X-6091400Y21488400I-1300000J0D01*
G01*
G04 #@! TO.C,J5*
X-17889600Y21463000D02*
G75*
G03X-17889600Y21463000I-500000J0D01*
G01*
X-17089600Y21463000D02*
G75*
G03X-17089600Y21463000I-1300000J0D01*
G01*
D11*
G04 #@! TO.C,J18*
X-50596800Y60299600D02*
X-49961800Y59664600D01*
X-55041800Y60299600D02*
X-50596800Y60299600D01*
X-55041800Y57759600D02*
X-55041800Y60299600D01*
X-49961800Y57759600D02*
X-55041800Y57759600D01*
X-49961800Y59664600D02*
X-49961800Y57759600D01*
D10*
G04 #@! TO.C,J4*
X-28633800Y21437600D02*
G75*
G03X-28633800Y21437600I-500000J0D01*
G01*
X-27833800Y21437600D02*
G75*
G03X-27833800Y21437600I-1300000J0D01*
G01*
G04 #@! TO.C,J7*
X-27960800Y58902600D02*
G75*
G03X-27960800Y58902600I-1300000J0D01*
G01*
X-28760800Y58902600D02*
G75*
G03X-28760800Y58902600I-500000J0D01*
G01*
G04 #@! TO.C,J15*
X-50731800Y21437600D02*
G75*
G03X-50731800Y21437600I-500000J0D01*
G01*
X-49931800Y21437600D02*
G75*
G03X-49931800Y21437600I-1300000J0D01*
G01*
D11*
G04 #@! TO.C,R2*
X-37541200Y17780000D02*
X-39471200Y17780000D01*
X-47701200Y17780000D02*
X-45771200Y17780000D01*
X-39471200Y19030000D02*
X-45771200Y19030000D01*
X-39471200Y16530000D02*
X-39471200Y19030000D01*
X-45771200Y16530000D02*
X-39471200Y16530000D01*
X-45771200Y19030000D02*
X-45771200Y16530000D01*
G04 #@! TO.C,R3*
X-55860000Y35762800D02*
X-53360000Y35762800D01*
X-53360000Y35762800D02*
X-53360000Y42062800D01*
X-53360000Y42062800D02*
X-55860000Y42062800D01*
X-55860000Y42062800D02*
X-55860000Y35762800D01*
X-54610000Y33832800D02*
X-54610000Y35762800D01*
X-54610000Y43992800D02*
X-54610000Y42062800D01*
G04 #@! TO.C,R4*
X-4831400Y9092800D02*
X-2331400Y9092800D01*
X-2331400Y9092800D02*
X-2331400Y15392800D01*
X-2331400Y15392800D02*
X-4831400Y15392800D01*
X-4831400Y15392800D02*
X-4831400Y9092800D01*
X-3581400Y7162800D02*
X-3581400Y9092800D01*
X-3581400Y17322800D02*
X-3581400Y15392800D01*
G04 #@! TO.C,U2*
X-30886400Y42103800D02*
X-30886400Y36753800D01*
X-30886400Y36753800D02*
X-48666400Y36753800D01*
X-48666400Y36753800D02*
X-48666400Y43103800D01*
X-48666400Y43103800D02*
X-31886400Y43103800D01*
X-31886400Y43103800D02*
X-30886400Y42103800D01*
G04 #@! TO.C,J1*
X-66845800Y49792200D02*
X-66845800Y55792200D01*
X-66845800Y55792200D02*
X-62845800Y55792200D01*
X-62845800Y55792200D02*
X-62845800Y56092200D01*
X-62845800Y56092200D02*
X-48845800Y56092200D01*
X-48845800Y56092200D02*
X-48845800Y47892200D01*
X-48845800Y47892200D02*
X-62845800Y47892200D01*
X-62845800Y47892200D02*
X-62845800Y49792200D01*
X-62845800Y49792200D02*
X-66845800Y49792200D01*
G04 #@! TD*
G04 #@! TO.C,U1*
D12*
X-8345420Y28407172D02*
X-8345420Y28978600D01*
X-7345420Y28692886D02*
X-8345420Y28692886D01*
X-7393039Y29692886D02*
X-7345420Y29597648D01*
X-7345420Y29407172D01*
X-7393039Y29311934D01*
X-7488277Y29264315D01*
X-7869229Y29264315D01*
X-7964467Y29311934D01*
X-8012086Y29407172D01*
X-8012086Y29597648D01*
X-7964467Y29692886D01*
X-7869229Y29740505D01*
X-7773991Y29740505D01*
X-7678753Y29264315D01*
X-7393039Y30550029D02*
X-7345420Y30454791D01*
X-7345420Y30264315D01*
X-7393039Y30169077D01*
X-7488277Y30121458D01*
X-7869229Y30121458D01*
X-7964467Y30169077D01*
X-8012086Y30264315D01*
X-8012086Y30454791D01*
X-7964467Y30550029D01*
X-7869229Y30597648D01*
X-7773991Y30597648D01*
X-7678753Y30121458D01*
X-8012086Y31026220D02*
X-7345420Y31026220D01*
X-7916848Y31026220D02*
X-7964467Y31073839D01*
X-8012086Y31169077D01*
X-8012086Y31311934D01*
X-7964467Y31407172D01*
X-7869229Y31454791D01*
X-7345420Y31454791D01*
X-7393039Y31883362D02*
X-7345420Y31978600D01*
X-7345420Y32169077D01*
X-7393039Y32264315D01*
X-7488277Y32311934D01*
X-7535896Y32311934D01*
X-7631134Y32264315D01*
X-7678753Y32169077D01*
X-7678753Y32026220D01*
X-7726372Y31930981D01*
X-7821610Y31883362D01*
X-7869229Y31883362D01*
X-7964467Y31930981D01*
X-8012086Y32026220D01*
X-8012086Y32169077D01*
X-7964467Y32264315D01*
X-8012086Y32645267D02*
X-7345420Y32883362D01*
X-8012086Y33121458D02*
X-7345420Y32883362D01*
X-7107324Y32788124D01*
X-7059705Y32740505D01*
X-7012086Y32645267D01*
X-8345420Y33407172D02*
X-8345420Y34026220D01*
X-7964467Y33692886D01*
X-7964467Y33835743D01*
X-7916848Y33930981D01*
X-7869229Y33978600D01*
X-7773991Y34026220D01*
X-7535896Y34026220D01*
X-7440658Y33978600D01*
X-7393039Y33930981D01*
X-7345420Y33835743D01*
X-7345420Y33550029D01*
X-7393039Y33454791D01*
X-7440658Y33407172D01*
X-7440658Y34454791D02*
X-7393039Y34502410D01*
X-7345420Y34454791D01*
X-7393039Y34407172D01*
X-7440658Y34454791D01*
X-7345420Y34454791D01*
X-8345420Y35359553D02*
X-8345420Y35169077D01*
X-8297800Y35073839D01*
X-8250181Y35026220D01*
X-8107324Y34930981D01*
X-7916848Y34883362D01*
X-7535896Y34883362D01*
X-7440658Y34930981D01*
X-7393039Y34978600D01*
X-7345420Y35073839D01*
X-7345420Y35264315D01*
X-7393039Y35359553D01*
X-7440658Y35407172D01*
X-7535896Y35454791D01*
X-7773991Y35454791D01*
X-7869229Y35407172D01*
X-7916848Y35359553D01*
X-7964467Y35264315D01*
X-7964467Y35073839D01*
X-7916848Y34978600D01*
X-7869229Y34930981D01*
X-7773991Y34883362D01*
G04 #@! TO.C,J28*
X-33125896Y48149458D02*
X-33173515Y48101839D01*
X-33316372Y48054220D01*
X-33411610Y48054220D01*
X-33554467Y48101839D01*
X-33649705Y48197077D01*
X-33697324Y48292315D01*
X-33744943Y48482791D01*
X-33744943Y48625648D01*
X-33697324Y48816124D01*
X-33649705Y48911362D01*
X-33554467Y49006600D01*
X-33411610Y49054220D01*
X-33316372Y49054220D01*
X-33173515Y49006600D01*
X-33125896Y48958981D01*
X-32554467Y48054220D02*
X-32649705Y48101839D01*
X-32697324Y48149458D01*
X-32744943Y48244696D01*
X-32744943Y48530410D01*
X-32697324Y48625648D01*
X-32649705Y48673267D01*
X-32554467Y48720886D01*
X-32411610Y48720886D01*
X-32316372Y48673267D01*
X-32268753Y48625648D01*
X-32221134Y48530410D01*
X-32221134Y48244696D01*
X-32268753Y48149458D01*
X-32316372Y48101839D01*
X-32411610Y48054220D01*
X-32554467Y48054220D01*
X-31792562Y48720886D02*
X-31792562Y48054220D01*
X-31792562Y48625648D02*
X-31744943Y48673267D01*
X-31649705Y48720886D01*
X-31506848Y48720886D01*
X-31411610Y48673267D01*
X-31363991Y48578029D01*
X-31363991Y48054220D01*
X-30887800Y48720886D02*
X-30887800Y48054220D01*
X-30887800Y48625648D02*
X-30840181Y48673267D01*
X-30744943Y48720886D01*
X-30602086Y48720886D01*
X-30506848Y48673267D01*
X-30459229Y48578029D01*
X-30459229Y48054220D01*
X-30221134Y47958981D02*
X-29459229Y47958981D01*
X-29030658Y49054220D02*
X-28935420Y49054220D01*
X-28840181Y49006600D01*
X-28792562Y48958981D01*
X-28744943Y48863743D01*
X-28697324Y48673267D01*
X-28697324Y48435172D01*
X-28744943Y48244696D01*
X-28792562Y48149458D01*
X-28840181Y48101839D01*
X-28935420Y48054220D01*
X-29030658Y48054220D01*
X-29125896Y48101839D01*
X-29173515Y48149458D01*
X-29221134Y48244696D01*
X-29268753Y48435172D01*
X-29268753Y48673267D01*
X-29221134Y48863743D01*
X-29173515Y48958981D01*
X-29125896Y49006600D01*
X-29030658Y49054220D01*
X-27744943Y48054220D02*
X-28316372Y48054220D01*
X-28030658Y48054220D02*
X-28030658Y49054220D01*
X-28125896Y48911362D01*
X-28221134Y48816124D01*
X-28316372Y48768505D01*
X-27411610Y48054220D02*
X-26887800Y48720886D01*
X-27411610Y48720886D02*
X-26887800Y48054220D01*
X-26316372Y49054220D02*
X-26221134Y49054220D01*
X-26125896Y49006600D01*
X-26078277Y48958981D01*
X-26030658Y48863743D01*
X-25983039Y48673267D01*
X-25983039Y48435172D01*
X-26030658Y48244696D01*
X-26078277Y48149458D01*
X-26125896Y48101839D01*
X-26221134Y48054220D01*
X-26316372Y48054220D01*
X-26411610Y48101839D01*
X-26459229Y48149458D01*
X-26506848Y48244696D01*
X-26554467Y48435172D01*
X-26554467Y48673267D01*
X-26506848Y48863743D01*
X-26459229Y48958981D01*
X-26411610Y49006600D01*
X-26316372Y49054220D01*
X-25030658Y48054220D02*
X-25602086Y48054220D01*
X-25316372Y48054220D02*
X-25316372Y49054220D01*
X-25411610Y48911362D01*
X-25506848Y48816124D01*
X-25602086Y48768505D01*
X-30197324Y44754220D02*
X-30197324Y44039934D01*
X-30244943Y43897077D01*
X-30340181Y43801839D01*
X-30483039Y43754220D01*
X-30578277Y43754220D01*
X-29768753Y44658981D02*
X-29721134Y44706600D01*
X-29625896Y44754220D01*
X-29387800Y44754220D01*
X-29292562Y44706600D01*
X-29244943Y44658981D01*
X-29197324Y44563743D01*
X-29197324Y44468505D01*
X-29244943Y44325648D01*
X-29816372Y43754220D01*
X-29197324Y43754220D01*
X-28625896Y44325648D02*
X-28721134Y44373267D01*
X-28768753Y44420886D01*
X-28816372Y44516124D01*
X-28816372Y44563743D01*
X-28768753Y44658981D01*
X-28721134Y44706600D01*
X-28625896Y44754220D01*
X-28435420Y44754220D01*
X-28340181Y44706600D01*
X-28292562Y44658981D01*
X-28244943Y44563743D01*
X-28244943Y44516124D01*
X-28292562Y44420886D01*
X-28340181Y44373267D01*
X-28435420Y44325648D01*
X-28625896Y44325648D01*
X-28721134Y44278029D01*
X-28768753Y44230410D01*
X-28816372Y44135172D01*
X-28816372Y43944696D01*
X-28768753Y43849458D01*
X-28721134Y43801839D01*
X-28625896Y43754220D01*
X-28435420Y43754220D01*
X-28340181Y43801839D01*
X-28292562Y43849458D01*
X-28244943Y43944696D01*
X-28244943Y44135172D01*
X-28292562Y44230410D01*
X-28340181Y44278029D01*
X-28435420Y44325648D01*
G04 #@! TO.C,J27*
X-46397396Y13795958D02*
X-46445015Y13748339D01*
X-46587872Y13700720D01*
X-46683110Y13700720D01*
X-46825967Y13748339D01*
X-46921205Y13843577D01*
X-46968824Y13938815D01*
X-47016443Y14129291D01*
X-47016443Y14272148D01*
X-46968824Y14462624D01*
X-46921205Y14557862D01*
X-46825967Y14653100D01*
X-46683110Y14700720D01*
X-46587872Y14700720D01*
X-46445015Y14653100D01*
X-46397396Y14605481D01*
X-45825967Y13700720D02*
X-45921205Y13748339D01*
X-45968824Y13795958D01*
X-46016443Y13891196D01*
X-46016443Y14176910D01*
X-45968824Y14272148D01*
X-45921205Y14319767D01*
X-45825967Y14367386D01*
X-45683110Y14367386D01*
X-45587872Y14319767D01*
X-45540253Y14272148D01*
X-45492634Y14176910D01*
X-45492634Y13891196D01*
X-45540253Y13795958D01*
X-45587872Y13748339D01*
X-45683110Y13700720D01*
X-45825967Y13700720D01*
X-45064062Y14367386D02*
X-45064062Y13700720D01*
X-45064062Y14272148D02*
X-45016443Y14319767D01*
X-44921205Y14367386D01*
X-44778348Y14367386D01*
X-44683110Y14319767D01*
X-44635491Y14224529D01*
X-44635491Y13700720D01*
X-44159300Y14367386D02*
X-44159300Y13700720D01*
X-44159300Y14272148D02*
X-44111681Y14319767D01*
X-44016443Y14367386D01*
X-43873586Y14367386D01*
X-43778348Y14319767D01*
X-43730729Y14224529D01*
X-43730729Y13700720D01*
X-43492634Y13605481D02*
X-42730729Y13605481D01*
X-42302158Y14700720D02*
X-42206920Y14700720D01*
X-42111681Y14653100D01*
X-42064062Y14605481D01*
X-42016443Y14510243D01*
X-41968824Y14319767D01*
X-41968824Y14081672D01*
X-42016443Y13891196D01*
X-42064062Y13795958D01*
X-42111681Y13748339D01*
X-42206920Y13700720D01*
X-42302158Y13700720D01*
X-42397396Y13748339D01*
X-42445015Y13795958D01*
X-42492634Y13891196D01*
X-42540253Y14081672D01*
X-42540253Y14319767D01*
X-42492634Y14510243D01*
X-42445015Y14605481D01*
X-42397396Y14653100D01*
X-42302158Y14700720D01*
X-41016443Y13700720D02*
X-41587872Y13700720D01*
X-41302158Y13700720D02*
X-41302158Y14700720D01*
X-41397396Y14557862D01*
X-41492634Y14462624D01*
X-41587872Y14415005D01*
X-40683110Y13700720D02*
X-40159300Y14367386D01*
X-40683110Y14367386D02*
X-40159300Y13700720D01*
X-39587872Y14700720D02*
X-39492634Y14700720D01*
X-39397396Y14653100D01*
X-39349777Y14605481D01*
X-39302158Y14510243D01*
X-39254539Y14319767D01*
X-39254539Y14081672D01*
X-39302158Y13891196D01*
X-39349777Y13795958D01*
X-39397396Y13748339D01*
X-39492634Y13700720D01*
X-39587872Y13700720D01*
X-39683110Y13748339D01*
X-39730729Y13795958D01*
X-39778348Y13891196D01*
X-39825967Y14081672D01*
X-39825967Y14319767D01*
X-39778348Y14510243D01*
X-39730729Y14605481D01*
X-39683110Y14653100D01*
X-39587872Y14700720D01*
X-38302158Y13700720D02*
X-38873586Y13700720D01*
X-38587872Y13700720D02*
X-38587872Y14700720D01*
X-38683110Y14557862D01*
X-38778348Y14462624D01*
X-38873586Y14415005D01*
X-43468824Y10400720D02*
X-43468824Y9686434D01*
X-43516443Y9543577D01*
X-43611681Y9448339D01*
X-43754539Y9400720D01*
X-43849777Y9400720D01*
X-43040253Y10305481D02*
X-42992634Y10353100D01*
X-42897396Y10400720D01*
X-42659300Y10400720D01*
X-42564062Y10353100D01*
X-42516443Y10305481D01*
X-42468824Y10210243D01*
X-42468824Y10115005D01*
X-42516443Y9972148D01*
X-43087872Y9400720D01*
X-42468824Y9400720D01*
X-42135491Y10400720D02*
X-41468824Y10400720D01*
X-41897396Y9400720D01*
G04 #@! TO.C,J26*
X-57382896Y13795958D02*
X-57430515Y13748339D01*
X-57573372Y13700720D01*
X-57668610Y13700720D01*
X-57811467Y13748339D01*
X-57906705Y13843577D01*
X-57954324Y13938815D01*
X-58001943Y14129291D01*
X-58001943Y14272148D01*
X-57954324Y14462624D01*
X-57906705Y14557862D01*
X-57811467Y14653100D01*
X-57668610Y14700720D01*
X-57573372Y14700720D01*
X-57430515Y14653100D01*
X-57382896Y14605481D01*
X-56811467Y13700720D02*
X-56906705Y13748339D01*
X-56954324Y13795958D01*
X-57001943Y13891196D01*
X-57001943Y14176910D01*
X-56954324Y14272148D01*
X-56906705Y14319767D01*
X-56811467Y14367386D01*
X-56668610Y14367386D01*
X-56573372Y14319767D01*
X-56525753Y14272148D01*
X-56478134Y14176910D01*
X-56478134Y13891196D01*
X-56525753Y13795958D01*
X-56573372Y13748339D01*
X-56668610Y13700720D01*
X-56811467Y13700720D01*
X-56049562Y14367386D02*
X-56049562Y13700720D01*
X-56049562Y14272148D02*
X-56001943Y14319767D01*
X-55906705Y14367386D01*
X-55763848Y14367386D01*
X-55668610Y14319767D01*
X-55620991Y14224529D01*
X-55620991Y13700720D01*
X-55144800Y14367386D02*
X-55144800Y13700720D01*
X-55144800Y14272148D02*
X-55097181Y14319767D01*
X-55001943Y14367386D01*
X-54859086Y14367386D01*
X-54763848Y14319767D01*
X-54716229Y14224529D01*
X-54716229Y13700720D01*
X-54478134Y13605481D02*
X-53716229Y13605481D01*
X-53287658Y14700720D02*
X-53192420Y14700720D01*
X-53097181Y14653100D01*
X-53049562Y14605481D01*
X-53001943Y14510243D01*
X-52954324Y14319767D01*
X-52954324Y14081672D01*
X-53001943Y13891196D01*
X-53049562Y13795958D01*
X-53097181Y13748339D01*
X-53192420Y13700720D01*
X-53287658Y13700720D01*
X-53382896Y13748339D01*
X-53430515Y13795958D01*
X-53478134Y13891196D01*
X-53525753Y14081672D01*
X-53525753Y14319767D01*
X-53478134Y14510243D01*
X-53430515Y14605481D01*
X-53382896Y14653100D01*
X-53287658Y14700720D01*
X-52001943Y13700720D02*
X-52573372Y13700720D01*
X-52287658Y13700720D02*
X-52287658Y14700720D01*
X-52382896Y14557862D01*
X-52478134Y14462624D01*
X-52573372Y14415005D01*
X-51668610Y13700720D02*
X-51144800Y14367386D01*
X-51668610Y14367386D02*
X-51144800Y13700720D01*
X-50573372Y14700720D02*
X-50478134Y14700720D01*
X-50382896Y14653100D01*
X-50335277Y14605481D01*
X-50287658Y14510243D01*
X-50240039Y14319767D01*
X-50240039Y14081672D01*
X-50287658Y13891196D01*
X-50335277Y13795958D01*
X-50382896Y13748339D01*
X-50478134Y13700720D01*
X-50573372Y13700720D01*
X-50668610Y13748339D01*
X-50716229Y13795958D01*
X-50763848Y13891196D01*
X-50811467Y14081672D01*
X-50811467Y14319767D01*
X-50763848Y14510243D01*
X-50716229Y14605481D01*
X-50668610Y14653100D01*
X-50573372Y14700720D01*
X-49287658Y13700720D02*
X-49859086Y13700720D01*
X-49573372Y13700720D02*
X-49573372Y14700720D01*
X-49668610Y14557862D01*
X-49763848Y14462624D01*
X-49859086Y14415005D01*
X-54454324Y10400720D02*
X-54454324Y9686434D01*
X-54501943Y9543577D01*
X-54597181Y9448339D01*
X-54740039Y9400720D01*
X-54835277Y9400720D01*
X-54025753Y10305481D02*
X-53978134Y10353100D01*
X-53882896Y10400720D01*
X-53644800Y10400720D01*
X-53549562Y10353100D01*
X-53501943Y10305481D01*
X-53454324Y10210243D01*
X-53454324Y10115005D01*
X-53501943Y9972148D01*
X-54073372Y9400720D01*
X-53454324Y9400720D01*
X-52597181Y10400720D02*
X-52787658Y10400720D01*
X-52882896Y10353100D01*
X-52930515Y10305481D01*
X-53025753Y10162624D01*
X-53073372Y9972148D01*
X-53073372Y9591196D01*
X-53025753Y9495958D01*
X-52978134Y9448339D01*
X-52882896Y9400720D01*
X-52692420Y9400720D01*
X-52597181Y9448339D01*
X-52549562Y9495958D01*
X-52501943Y9591196D01*
X-52501943Y9829291D01*
X-52549562Y9924529D01*
X-52597181Y9972148D01*
X-52692420Y10019767D01*
X-52882896Y10019767D01*
X-52978134Y9972148D01*
X-53025753Y9924529D01*
X-53073372Y9829291D01*
G04 #@! TO.C,J25*
X-44149496Y60671658D02*
X-44197115Y60624039D01*
X-44339972Y60576420D01*
X-44435210Y60576420D01*
X-44578067Y60624039D01*
X-44673305Y60719277D01*
X-44720924Y60814515D01*
X-44768543Y61004991D01*
X-44768543Y61147848D01*
X-44720924Y61338324D01*
X-44673305Y61433562D01*
X-44578067Y61528800D01*
X-44435210Y61576420D01*
X-44339972Y61576420D01*
X-44197115Y61528800D01*
X-44149496Y61481181D01*
X-43578067Y60576420D02*
X-43673305Y60624039D01*
X-43720924Y60671658D01*
X-43768543Y60766896D01*
X-43768543Y61052610D01*
X-43720924Y61147848D01*
X-43673305Y61195467D01*
X-43578067Y61243086D01*
X-43435210Y61243086D01*
X-43339972Y61195467D01*
X-43292353Y61147848D01*
X-43244734Y61052610D01*
X-43244734Y60766896D01*
X-43292353Y60671658D01*
X-43339972Y60624039D01*
X-43435210Y60576420D01*
X-43578067Y60576420D01*
X-42816162Y61243086D02*
X-42816162Y60576420D01*
X-42816162Y61147848D02*
X-42768543Y61195467D01*
X-42673305Y61243086D01*
X-42530448Y61243086D01*
X-42435210Y61195467D01*
X-42387591Y61100229D01*
X-42387591Y60576420D01*
X-41911400Y61243086D02*
X-41911400Y60576420D01*
X-41911400Y61147848D02*
X-41863781Y61195467D01*
X-41768543Y61243086D01*
X-41625686Y61243086D01*
X-41530448Y61195467D01*
X-41482829Y61100229D01*
X-41482829Y60576420D01*
X-41244734Y60481181D02*
X-40482829Y60481181D01*
X-40054258Y61576420D02*
X-39959020Y61576420D01*
X-39863781Y61528800D01*
X-39816162Y61481181D01*
X-39768543Y61385943D01*
X-39720924Y61195467D01*
X-39720924Y60957372D01*
X-39768543Y60766896D01*
X-39816162Y60671658D01*
X-39863781Y60624039D01*
X-39959020Y60576420D01*
X-40054258Y60576420D01*
X-40149496Y60624039D01*
X-40197115Y60671658D01*
X-40244734Y60766896D01*
X-40292353Y60957372D01*
X-40292353Y61195467D01*
X-40244734Y61385943D01*
X-40197115Y61481181D01*
X-40149496Y61528800D01*
X-40054258Y61576420D01*
X-38768543Y60576420D02*
X-39339972Y60576420D01*
X-39054258Y60576420D02*
X-39054258Y61576420D01*
X-39149496Y61433562D01*
X-39244734Y61338324D01*
X-39339972Y61290705D01*
X-38435210Y60576420D02*
X-37911400Y61243086D01*
X-38435210Y61243086D02*
X-37911400Y60576420D01*
X-37339972Y61576420D02*
X-37244734Y61576420D01*
X-37149496Y61528800D01*
X-37101877Y61481181D01*
X-37054258Y61385943D01*
X-37006639Y61195467D01*
X-37006639Y60957372D01*
X-37054258Y60766896D01*
X-37101877Y60671658D01*
X-37149496Y60624039D01*
X-37244734Y60576420D01*
X-37339972Y60576420D01*
X-37435210Y60624039D01*
X-37482829Y60671658D01*
X-37530448Y60766896D01*
X-37578067Y60957372D01*
X-37578067Y61195467D01*
X-37530448Y61385943D01*
X-37482829Y61481181D01*
X-37435210Y61528800D01*
X-37339972Y61576420D01*
X-36054258Y60576420D02*
X-36625686Y60576420D01*
X-36339972Y60576420D02*
X-36339972Y61576420D01*
X-36435210Y61433562D01*
X-36530448Y61338324D01*
X-36625686Y61290705D01*
X-41220924Y57276420D02*
X-41220924Y56562134D01*
X-41268543Y56419277D01*
X-41363781Y56324039D01*
X-41506639Y56276420D01*
X-41601877Y56276420D01*
X-40792353Y57181181D02*
X-40744734Y57228800D01*
X-40649496Y57276420D01*
X-40411400Y57276420D01*
X-40316162Y57228800D01*
X-40268543Y57181181D01*
X-40220924Y57085943D01*
X-40220924Y56990705D01*
X-40268543Y56847848D01*
X-40839972Y56276420D01*
X-40220924Y56276420D01*
X-39316162Y57276420D02*
X-39792353Y57276420D01*
X-39839972Y56800229D01*
X-39792353Y56847848D01*
X-39697115Y56895467D01*
X-39459020Y56895467D01*
X-39363781Y56847848D01*
X-39316162Y56800229D01*
X-39268543Y56704991D01*
X-39268543Y56466896D01*
X-39316162Y56371658D01*
X-39363781Y56324039D01*
X-39459020Y56276420D01*
X-39697115Y56276420D01*
X-39792353Y56324039D01*
X-39839972Y56371658D01*
G04 #@! TO.C,J24*
X-55122296Y48174858D02*
X-55169915Y48127239D01*
X-55312772Y48079620D01*
X-55408010Y48079620D01*
X-55550867Y48127239D01*
X-55646105Y48222477D01*
X-55693724Y48317715D01*
X-55741343Y48508191D01*
X-55741343Y48651048D01*
X-55693724Y48841524D01*
X-55646105Y48936762D01*
X-55550867Y49032000D01*
X-55408010Y49079620D01*
X-55312772Y49079620D01*
X-55169915Y49032000D01*
X-55122296Y48984381D01*
X-54550867Y48079620D02*
X-54646105Y48127239D01*
X-54693724Y48174858D01*
X-54741343Y48270096D01*
X-54741343Y48555810D01*
X-54693724Y48651048D01*
X-54646105Y48698667D01*
X-54550867Y48746286D01*
X-54408010Y48746286D01*
X-54312772Y48698667D01*
X-54265153Y48651048D01*
X-54217534Y48555810D01*
X-54217534Y48270096D01*
X-54265153Y48174858D01*
X-54312772Y48127239D01*
X-54408010Y48079620D01*
X-54550867Y48079620D01*
X-53788962Y48746286D02*
X-53788962Y48079620D01*
X-53788962Y48651048D02*
X-53741343Y48698667D01*
X-53646105Y48746286D01*
X-53503248Y48746286D01*
X-53408010Y48698667D01*
X-53360391Y48603429D01*
X-53360391Y48079620D01*
X-52884200Y48746286D02*
X-52884200Y48079620D01*
X-52884200Y48651048D02*
X-52836581Y48698667D01*
X-52741343Y48746286D01*
X-52598486Y48746286D01*
X-52503248Y48698667D01*
X-52455629Y48603429D01*
X-52455629Y48079620D01*
X-52217534Y47984381D02*
X-51455629Y47984381D01*
X-51027058Y49079620D02*
X-50931820Y49079620D01*
X-50836581Y49032000D01*
X-50788962Y48984381D01*
X-50741343Y48889143D01*
X-50693724Y48698667D01*
X-50693724Y48460572D01*
X-50741343Y48270096D01*
X-50788962Y48174858D01*
X-50836581Y48127239D01*
X-50931820Y48079620D01*
X-51027058Y48079620D01*
X-51122296Y48127239D01*
X-51169915Y48174858D01*
X-51217534Y48270096D01*
X-51265153Y48460572D01*
X-51265153Y48698667D01*
X-51217534Y48889143D01*
X-51169915Y48984381D01*
X-51122296Y49032000D01*
X-51027058Y49079620D01*
X-49741343Y48079620D02*
X-50312772Y48079620D01*
X-50027058Y48079620D02*
X-50027058Y49079620D01*
X-50122296Y48936762D01*
X-50217534Y48841524D01*
X-50312772Y48793905D01*
X-49408010Y48079620D02*
X-48884200Y48746286D01*
X-49408010Y48746286D02*
X-48884200Y48079620D01*
X-48312772Y49079620D02*
X-48217534Y49079620D01*
X-48122296Y49032000D01*
X-48074677Y48984381D01*
X-48027058Y48889143D01*
X-47979439Y48698667D01*
X-47979439Y48460572D01*
X-48027058Y48270096D01*
X-48074677Y48174858D01*
X-48122296Y48127239D01*
X-48217534Y48079620D01*
X-48312772Y48079620D01*
X-48408010Y48127239D01*
X-48455629Y48174858D01*
X-48503248Y48270096D01*
X-48550867Y48460572D01*
X-48550867Y48698667D01*
X-48503248Y48889143D01*
X-48455629Y48984381D01*
X-48408010Y49032000D01*
X-48312772Y49079620D01*
X-47027058Y48079620D02*
X-47598486Y48079620D01*
X-47312772Y48079620D02*
X-47312772Y49079620D01*
X-47408010Y48936762D01*
X-47503248Y48841524D01*
X-47598486Y48793905D01*
X-52193724Y44779620D02*
X-52193724Y44065334D01*
X-52241343Y43922477D01*
X-52336581Y43827239D01*
X-52479439Y43779620D01*
X-52574677Y43779620D01*
X-51765153Y44684381D02*
X-51717534Y44732000D01*
X-51622296Y44779620D01*
X-51384200Y44779620D01*
X-51288962Y44732000D01*
X-51241343Y44684381D01*
X-51193724Y44589143D01*
X-51193724Y44493905D01*
X-51241343Y44351048D01*
X-51812772Y43779620D01*
X-51193724Y43779620D01*
X-50336581Y44446286D02*
X-50336581Y43779620D01*
X-50574677Y44827239D02*
X-50812772Y44112953D01*
X-50193724Y44112953D01*
G04 #@! TO.C,J23*
X-55147696Y35652658D02*
X-55195315Y35605039D01*
X-55338172Y35557420D01*
X-55433410Y35557420D01*
X-55576267Y35605039D01*
X-55671505Y35700277D01*
X-55719124Y35795515D01*
X-55766743Y35985991D01*
X-55766743Y36128848D01*
X-55719124Y36319324D01*
X-55671505Y36414562D01*
X-55576267Y36509800D01*
X-55433410Y36557420D01*
X-55338172Y36557420D01*
X-55195315Y36509800D01*
X-55147696Y36462181D01*
X-54576267Y35557420D02*
X-54671505Y35605039D01*
X-54719124Y35652658D01*
X-54766743Y35747896D01*
X-54766743Y36033610D01*
X-54719124Y36128848D01*
X-54671505Y36176467D01*
X-54576267Y36224086D01*
X-54433410Y36224086D01*
X-54338172Y36176467D01*
X-54290553Y36128848D01*
X-54242934Y36033610D01*
X-54242934Y35747896D01*
X-54290553Y35652658D01*
X-54338172Y35605039D01*
X-54433410Y35557420D01*
X-54576267Y35557420D01*
X-53814362Y36224086D02*
X-53814362Y35557420D01*
X-53814362Y36128848D02*
X-53766743Y36176467D01*
X-53671505Y36224086D01*
X-53528648Y36224086D01*
X-53433410Y36176467D01*
X-53385791Y36081229D01*
X-53385791Y35557420D01*
X-52909600Y36224086D02*
X-52909600Y35557420D01*
X-52909600Y36128848D02*
X-52861981Y36176467D01*
X-52766743Y36224086D01*
X-52623886Y36224086D01*
X-52528648Y36176467D01*
X-52481029Y36081229D01*
X-52481029Y35557420D01*
X-52242934Y35462181D02*
X-51481029Y35462181D01*
X-51052458Y36557420D02*
X-50957220Y36557420D01*
X-50861981Y36509800D01*
X-50814362Y36462181D01*
X-50766743Y36366943D01*
X-50719124Y36176467D01*
X-50719124Y35938372D01*
X-50766743Y35747896D01*
X-50814362Y35652658D01*
X-50861981Y35605039D01*
X-50957220Y35557420D01*
X-51052458Y35557420D01*
X-51147696Y35605039D01*
X-51195315Y35652658D01*
X-51242934Y35747896D01*
X-51290553Y35938372D01*
X-51290553Y36176467D01*
X-51242934Y36366943D01*
X-51195315Y36462181D01*
X-51147696Y36509800D01*
X-51052458Y36557420D01*
X-49766743Y35557420D02*
X-50338172Y35557420D01*
X-50052458Y35557420D02*
X-50052458Y36557420D01*
X-50147696Y36414562D01*
X-50242934Y36319324D01*
X-50338172Y36271705D01*
X-49433410Y35557420D02*
X-48909600Y36224086D01*
X-49433410Y36224086D02*
X-48909600Y35557420D01*
X-48338172Y36557420D02*
X-48242934Y36557420D01*
X-48147696Y36509800D01*
X-48100077Y36462181D01*
X-48052458Y36366943D01*
X-48004839Y36176467D01*
X-48004839Y35938372D01*
X-48052458Y35747896D01*
X-48100077Y35652658D01*
X-48147696Y35605039D01*
X-48242934Y35557420D01*
X-48338172Y35557420D01*
X-48433410Y35605039D01*
X-48481029Y35652658D01*
X-48528648Y35747896D01*
X-48576267Y35938372D01*
X-48576267Y36176467D01*
X-48528648Y36366943D01*
X-48481029Y36462181D01*
X-48433410Y36509800D01*
X-48338172Y36557420D01*
X-47052458Y35557420D02*
X-47623886Y35557420D01*
X-47338172Y35557420D02*
X-47338172Y36557420D01*
X-47433410Y36414562D01*
X-47528648Y36319324D01*
X-47623886Y36271705D01*
X-52219124Y32257420D02*
X-52219124Y31543134D01*
X-52266743Y31400277D01*
X-52361981Y31305039D01*
X-52504839Y31257420D01*
X-52600077Y31257420D01*
X-51790553Y32162181D02*
X-51742934Y32209800D01*
X-51647696Y32257420D01*
X-51409600Y32257420D01*
X-51314362Y32209800D01*
X-51266743Y32162181D01*
X-51219124Y32066943D01*
X-51219124Y31971705D01*
X-51266743Y31828848D01*
X-51838172Y31257420D01*
X-51219124Y31257420D01*
X-50885791Y32257420D02*
X-50266743Y32257420D01*
X-50600077Y31876467D01*
X-50457220Y31876467D01*
X-50361981Y31828848D01*
X-50314362Y31781229D01*
X-50266743Y31685991D01*
X-50266743Y31447896D01*
X-50314362Y31352658D01*
X-50361981Y31305039D01*
X-50457220Y31257420D01*
X-50742934Y31257420D01*
X-50838172Y31305039D01*
X-50885791Y31352658D01*
G04 #@! TO.C,J22*
X-44149496Y23155858D02*
X-44197115Y23108239D01*
X-44339972Y23060620D01*
X-44435210Y23060620D01*
X-44578067Y23108239D01*
X-44673305Y23203477D01*
X-44720924Y23298715D01*
X-44768543Y23489191D01*
X-44768543Y23632048D01*
X-44720924Y23822524D01*
X-44673305Y23917762D01*
X-44578067Y24013000D01*
X-44435210Y24060620D01*
X-44339972Y24060620D01*
X-44197115Y24013000D01*
X-44149496Y23965381D01*
X-43578067Y23060620D02*
X-43673305Y23108239D01*
X-43720924Y23155858D01*
X-43768543Y23251096D01*
X-43768543Y23536810D01*
X-43720924Y23632048D01*
X-43673305Y23679667D01*
X-43578067Y23727286D01*
X-43435210Y23727286D01*
X-43339972Y23679667D01*
X-43292353Y23632048D01*
X-43244734Y23536810D01*
X-43244734Y23251096D01*
X-43292353Y23155858D01*
X-43339972Y23108239D01*
X-43435210Y23060620D01*
X-43578067Y23060620D01*
X-42816162Y23727286D02*
X-42816162Y23060620D01*
X-42816162Y23632048D02*
X-42768543Y23679667D01*
X-42673305Y23727286D01*
X-42530448Y23727286D01*
X-42435210Y23679667D01*
X-42387591Y23584429D01*
X-42387591Y23060620D01*
X-41911400Y23727286D02*
X-41911400Y23060620D01*
X-41911400Y23632048D02*
X-41863781Y23679667D01*
X-41768543Y23727286D01*
X-41625686Y23727286D01*
X-41530448Y23679667D01*
X-41482829Y23584429D01*
X-41482829Y23060620D01*
X-41244734Y22965381D02*
X-40482829Y22965381D01*
X-40054258Y24060620D02*
X-39959020Y24060620D01*
X-39863781Y24013000D01*
X-39816162Y23965381D01*
X-39768543Y23870143D01*
X-39720924Y23679667D01*
X-39720924Y23441572D01*
X-39768543Y23251096D01*
X-39816162Y23155858D01*
X-39863781Y23108239D01*
X-39959020Y23060620D01*
X-40054258Y23060620D01*
X-40149496Y23108239D01*
X-40197115Y23155858D01*
X-40244734Y23251096D01*
X-40292353Y23441572D01*
X-40292353Y23679667D01*
X-40244734Y23870143D01*
X-40197115Y23965381D01*
X-40149496Y24013000D01*
X-40054258Y24060620D01*
X-38768543Y23060620D02*
X-39339972Y23060620D01*
X-39054258Y23060620D02*
X-39054258Y24060620D01*
X-39149496Y23917762D01*
X-39244734Y23822524D01*
X-39339972Y23774905D01*
X-38435210Y23060620D02*
X-37911400Y23727286D01*
X-38435210Y23727286D02*
X-37911400Y23060620D01*
X-37339972Y24060620D02*
X-37244734Y24060620D01*
X-37149496Y24013000D01*
X-37101877Y23965381D01*
X-37054258Y23870143D01*
X-37006639Y23679667D01*
X-37006639Y23441572D01*
X-37054258Y23251096D01*
X-37101877Y23155858D01*
X-37149496Y23108239D01*
X-37244734Y23060620D01*
X-37339972Y23060620D01*
X-37435210Y23108239D01*
X-37482829Y23155858D01*
X-37530448Y23251096D01*
X-37578067Y23441572D01*
X-37578067Y23679667D01*
X-37530448Y23870143D01*
X-37482829Y23965381D01*
X-37435210Y24013000D01*
X-37339972Y24060620D01*
X-36054258Y23060620D02*
X-36625686Y23060620D01*
X-36339972Y23060620D02*
X-36339972Y24060620D01*
X-36435210Y23917762D01*
X-36530448Y23822524D01*
X-36625686Y23774905D01*
X-41220924Y19760620D02*
X-41220924Y19046334D01*
X-41268543Y18903477D01*
X-41363781Y18808239D01*
X-41506639Y18760620D01*
X-41601877Y18760620D01*
X-40792353Y19665381D02*
X-40744734Y19713000D01*
X-40649496Y19760620D01*
X-40411400Y19760620D01*
X-40316162Y19713000D01*
X-40268543Y19665381D01*
X-40220924Y19570143D01*
X-40220924Y19474905D01*
X-40268543Y19332048D01*
X-40839972Y18760620D01*
X-40220924Y18760620D01*
X-39839972Y19665381D02*
X-39792353Y19713000D01*
X-39697115Y19760620D01*
X-39459020Y19760620D01*
X-39363781Y19713000D01*
X-39316162Y19665381D01*
X-39268543Y19570143D01*
X-39268543Y19474905D01*
X-39316162Y19332048D01*
X-39887591Y18760620D01*
X-39268543Y18760620D01*
G04 #@! TO.C,J21*
X-33125896Y10684458D02*
X-33173515Y10636839D01*
X-33316372Y10589220D01*
X-33411610Y10589220D01*
X-33554467Y10636839D01*
X-33649705Y10732077D01*
X-33697324Y10827315D01*
X-33744943Y11017791D01*
X-33744943Y11160648D01*
X-33697324Y11351124D01*
X-33649705Y11446362D01*
X-33554467Y11541600D01*
X-33411610Y11589220D01*
X-33316372Y11589220D01*
X-33173515Y11541600D01*
X-33125896Y11493981D01*
X-32554467Y10589220D02*
X-32649705Y10636839D01*
X-32697324Y10684458D01*
X-32744943Y10779696D01*
X-32744943Y11065410D01*
X-32697324Y11160648D01*
X-32649705Y11208267D01*
X-32554467Y11255886D01*
X-32411610Y11255886D01*
X-32316372Y11208267D01*
X-32268753Y11160648D01*
X-32221134Y11065410D01*
X-32221134Y10779696D01*
X-32268753Y10684458D01*
X-32316372Y10636839D01*
X-32411610Y10589220D01*
X-32554467Y10589220D01*
X-31792562Y11255886D02*
X-31792562Y10589220D01*
X-31792562Y11160648D02*
X-31744943Y11208267D01*
X-31649705Y11255886D01*
X-31506848Y11255886D01*
X-31411610Y11208267D01*
X-31363991Y11113029D01*
X-31363991Y10589220D01*
X-30887800Y11255886D02*
X-30887800Y10589220D01*
X-30887800Y11160648D02*
X-30840181Y11208267D01*
X-30744943Y11255886D01*
X-30602086Y11255886D01*
X-30506848Y11208267D01*
X-30459229Y11113029D01*
X-30459229Y10589220D01*
X-30221134Y10493981D02*
X-29459229Y10493981D01*
X-29030658Y11589220D02*
X-28935420Y11589220D01*
X-28840181Y11541600D01*
X-28792562Y11493981D01*
X-28744943Y11398743D01*
X-28697324Y11208267D01*
X-28697324Y10970172D01*
X-28744943Y10779696D01*
X-28792562Y10684458D01*
X-28840181Y10636839D01*
X-28935420Y10589220D01*
X-29030658Y10589220D01*
X-29125896Y10636839D01*
X-29173515Y10684458D01*
X-29221134Y10779696D01*
X-29268753Y10970172D01*
X-29268753Y11208267D01*
X-29221134Y11398743D01*
X-29173515Y11493981D01*
X-29125896Y11541600D01*
X-29030658Y11589220D01*
X-27744943Y10589220D02*
X-28316372Y10589220D01*
X-28030658Y10589220D02*
X-28030658Y11589220D01*
X-28125896Y11446362D01*
X-28221134Y11351124D01*
X-28316372Y11303505D01*
X-27411610Y10589220D02*
X-26887800Y11255886D01*
X-27411610Y11255886D02*
X-26887800Y10589220D01*
X-26316372Y11589220D02*
X-26221134Y11589220D01*
X-26125896Y11541600D01*
X-26078277Y11493981D01*
X-26030658Y11398743D01*
X-25983039Y11208267D01*
X-25983039Y10970172D01*
X-26030658Y10779696D01*
X-26078277Y10684458D01*
X-26125896Y10636839D01*
X-26221134Y10589220D01*
X-26316372Y10589220D01*
X-26411610Y10636839D01*
X-26459229Y10684458D01*
X-26506848Y10779696D01*
X-26554467Y10970172D01*
X-26554467Y11208267D01*
X-26506848Y11398743D01*
X-26459229Y11493981D01*
X-26411610Y11541600D01*
X-26316372Y11589220D01*
X-25030658Y10589220D02*
X-25602086Y10589220D01*
X-25316372Y10589220D02*
X-25316372Y11589220D01*
X-25411610Y11446362D01*
X-25506848Y11351124D01*
X-25602086Y11303505D01*
X-30197324Y7289220D02*
X-30197324Y6574934D01*
X-30244943Y6432077D01*
X-30340181Y6336839D01*
X-30483039Y6289220D01*
X-30578277Y6289220D01*
X-29768753Y7193981D02*
X-29721134Y7241600D01*
X-29625896Y7289220D01*
X-29387800Y7289220D01*
X-29292562Y7241600D01*
X-29244943Y7193981D01*
X-29197324Y7098743D01*
X-29197324Y7003505D01*
X-29244943Y6860648D01*
X-29816372Y6289220D01*
X-29197324Y6289220D01*
X-28244943Y6289220D02*
X-28816372Y6289220D01*
X-28530658Y6289220D02*
X-28530658Y7289220D01*
X-28625896Y7146362D01*
X-28721134Y7051124D01*
X-28816372Y7003505D01*
G04 #@! TO.C,J20*
X-22153096Y10659058D02*
X-22200715Y10611439D01*
X-22343572Y10563820D01*
X-22438810Y10563820D01*
X-22581667Y10611439D01*
X-22676905Y10706677D01*
X-22724524Y10801915D01*
X-22772143Y10992391D01*
X-22772143Y11135248D01*
X-22724524Y11325724D01*
X-22676905Y11420962D01*
X-22581667Y11516200D01*
X-22438810Y11563820D01*
X-22343572Y11563820D01*
X-22200715Y11516200D01*
X-22153096Y11468581D01*
X-21581667Y10563820D02*
X-21676905Y10611439D01*
X-21724524Y10659058D01*
X-21772143Y10754296D01*
X-21772143Y11040010D01*
X-21724524Y11135248D01*
X-21676905Y11182867D01*
X-21581667Y11230486D01*
X-21438810Y11230486D01*
X-21343572Y11182867D01*
X-21295953Y11135248D01*
X-21248334Y11040010D01*
X-21248334Y10754296D01*
X-21295953Y10659058D01*
X-21343572Y10611439D01*
X-21438810Y10563820D01*
X-21581667Y10563820D01*
X-20819762Y11230486D02*
X-20819762Y10563820D01*
X-20819762Y11135248D02*
X-20772143Y11182867D01*
X-20676905Y11230486D01*
X-20534048Y11230486D01*
X-20438810Y11182867D01*
X-20391191Y11087629D01*
X-20391191Y10563820D01*
X-19915000Y11230486D02*
X-19915000Y10563820D01*
X-19915000Y11135248D02*
X-19867381Y11182867D01*
X-19772143Y11230486D01*
X-19629286Y11230486D01*
X-19534048Y11182867D01*
X-19486429Y11087629D01*
X-19486429Y10563820D01*
X-19248334Y10468581D02*
X-18486429Y10468581D01*
X-18057858Y11563820D02*
X-17962620Y11563820D01*
X-17867381Y11516200D01*
X-17819762Y11468581D01*
X-17772143Y11373343D01*
X-17724524Y11182867D01*
X-17724524Y10944772D01*
X-17772143Y10754296D01*
X-17819762Y10659058D01*
X-17867381Y10611439D01*
X-17962620Y10563820D01*
X-18057858Y10563820D01*
X-18153096Y10611439D01*
X-18200715Y10659058D01*
X-18248334Y10754296D01*
X-18295953Y10944772D01*
X-18295953Y11182867D01*
X-18248334Y11373343D01*
X-18200715Y11468581D01*
X-18153096Y11516200D01*
X-18057858Y11563820D01*
X-16772143Y10563820D02*
X-17343572Y10563820D01*
X-17057858Y10563820D02*
X-17057858Y11563820D01*
X-17153096Y11420962D01*
X-17248334Y11325724D01*
X-17343572Y11278105D01*
X-16438810Y10563820D02*
X-15915000Y11230486D01*
X-16438810Y11230486D02*
X-15915000Y10563820D01*
X-15343572Y11563820D02*
X-15248334Y11563820D01*
X-15153096Y11516200D01*
X-15105477Y11468581D01*
X-15057858Y11373343D01*
X-15010239Y11182867D01*
X-15010239Y10944772D01*
X-15057858Y10754296D01*
X-15105477Y10659058D01*
X-15153096Y10611439D01*
X-15248334Y10563820D01*
X-15343572Y10563820D01*
X-15438810Y10611439D01*
X-15486429Y10659058D01*
X-15534048Y10754296D01*
X-15581667Y10944772D01*
X-15581667Y11182867D01*
X-15534048Y11373343D01*
X-15486429Y11468581D01*
X-15438810Y11516200D01*
X-15343572Y11563820D01*
X-14057858Y10563820D02*
X-14629286Y10563820D01*
X-14343572Y10563820D02*
X-14343572Y11563820D01*
X-14438810Y11420962D01*
X-14534048Y11325724D01*
X-14629286Y11278105D01*
X-19224524Y7263820D02*
X-19224524Y6549534D01*
X-19272143Y6406677D01*
X-19367381Y6311439D01*
X-19510239Y6263820D01*
X-19605477Y6263820D01*
X-18795953Y7168581D02*
X-18748334Y7216200D01*
X-18653096Y7263820D01*
X-18415000Y7263820D01*
X-18319762Y7216200D01*
X-18272143Y7168581D01*
X-18224524Y7073343D01*
X-18224524Y6978105D01*
X-18272143Y6835248D01*
X-18843572Y6263820D01*
X-18224524Y6263820D01*
X-17605477Y7263820D02*
X-17510239Y7263820D01*
X-17415000Y7216200D01*
X-17367381Y7168581D01*
X-17319762Y7073343D01*
X-17272143Y6882867D01*
X-17272143Y6644772D01*
X-17319762Y6454296D01*
X-17367381Y6359058D01*
X-17415000Y6311439D01*
X-17510239Y6263820D01*
X-17605477Y6263820D01*
X-17700715Y6311439D01*
X-17748334Y6359058D01*
X-17795953Y6454296D01*
X-17843572Y6644772D01*
X-17843572Y6882867D01*
X-17795953Y7073343D01*
X-17748334Y7168581D01*
X-17700715Y7216200D01*
X-17605477Y7263820D01*
G04 #@! TO.C,J19*
X-11129496Y10659058D02*
X-11177115Y10611439D01*
X-11319972Y10563820D01*
X-11415210Y10563820D01*
X-11558067Y10611439D01*
X-11653305Y10706677D01*
X-11700924Y10801915D01*
X-11748543Y10992391D01*
X-11748543Y11135248D01*
X-11700924Y11325724D01*
X-11653305Y11420962D01*
X-11558067Y11516200D01*
X-11415210Y11563820D01*
X-11319972Y11563820D01*
X-11177115Y11516200D01*
X-11129496Y11468581D01*
X-10558067Y10563820D02*
X-10653305Y10611439D01*
X-10700924Y10659058D01*
X-10748543Y10754296D01*
X-10748543Y11040010D01*
X-10700924Y11135248D01*
X-10653305Y11182867D01*
X-10558067Y11230486D01*
X-10415210Y11230486D01*
X-10319972Y11182867D01*
X-10272353Y11135248D01*
X-10224734Y11040010D01*
X-10224734Y10754296D01*
X-10272353Y10659058D01*
X-10319972Y10611439D01*
X-10415210Y10563820D01*
X-10558067Y10563820D01*
X-9796162Y11230486D02*
X-9796162Y10563820D01*
X-9796162Y11135248D02*
X-9748543Y11182867D01*
X-9653305Y11230486D01*
X-9510448Y11230486D01*
X-9415210Y11182867D01*
X-9367591Y11087629D01*
X-9367591Y10563820D01*
X-8891400Y11230486D02*
X-8891400Y10563820D01*
X-8891400Y11135248D02*
X-8843781Y11182867D01*
X-8748543Y11230486D01*
X-8605686Y11230486D01*
X-8510448Y11182867D01*
X-8462829Y11087629D01*
X-8462829Y10563820D01*
X-8224734Y10468581D02*
X-7462829Y10468581D01*
X-7034258Y11563820D02*
X-6939020Y11563820D01*
X-6843781Y11516200D01*
X-6796162Y11468581D01*
X-6748543Y11373343D01*
X-6700924Y11182867D01*
X-6700924Y10944772D01*
X-6748543Y10754296D01*
X-6796162Y10659058D01*
X-6843781Y10611439D01*
X-6939020Y10563820D01*
X-7034258Y10563820D01*
X-7129496Y10611439D01*
X-7177115Y10659058D01*
X-7224734Y10754296D01*
X-7272353Y10944772D01*
X-7272353Y11182867D01*
X-7224734Y11373343D01*
X-7177115Y11468581D01*
X-7129496Y11516200D01*
X-7034258Y11563820D01*
X-5748543Y10563820D02*
X-6319972Y10563820D01*
X-6034258Y10563820D02*
X-6034258Y11563820D01*
X-6129496Y11420962D01*
X-6224734Y11325724D01*
X-6319972Y11278105D01*
X-5415210Y10563820D02*
X-4891400Y11230486D01*
X-5415210Y11230486D02*
X-4891400Y10563820D01*
X-4319972Y11563820D02*
X-4224734Y11563820D01*
X-4129496Y11516200D01*
X-4081877Y11468581D01*
X-4034258Y11373343D01*
X-3986639Y11182867D01*
X-3986639Y10944772D01*
X-4034258Y10754296D01*
X-4081877Y10659058D01*
X-4129496Y10611439D01*
X-4224734Y10563820D01*
X-4319972Y10563820D01*
X-4415210Y10611439D01*
X-4462829Y10659058D01*
X-4510448Y10754296D01*
X-4558067Y10944772D01*
X-4558067Y11182867D01*
X-4510448Y11373343D01*
X-4462829Y11468581D01*
X-4415210Y11516200D01*
X-4319972Y11563820D01*
X-3034258Y10563820D02*
X-3605686Y10563820D01*
X-3319972Y10563820D02*
X-3319972Y11563820D01*
X-3415210Y11420962D01*
X-3510448Y11325724D01*
X-3605686Y11278105D01*
X-8200924Y7263820D02*
X-8200924Y6549534D01*
X-8248543Y6406677D01*
X-8343781Y6311439D01*
X-8486639Y6263820D01*
X-8581877Y6263820D01*
X-7200924Y6263820D02*
X-7772353Y6263820D01*
X-7486639Y6263820D02*
X-7486639Y7263820D01*
X-7581877Y7120962D01*
X-7677115Y7025724D01*
X-7772353Y6978105D01*
X-6724734Y6263820D02*
X-6534258Y6263820D01*
X-6439020Y6311439D01*
X-6391400Y6359058D01*
X-6296162Y6501915D01*
X-6248543Y6692391D01*
X-6248543Y7073343D01*
X-6296162Y7168581D01*
X-6343781Y7216200D01*
X-6439020Y7263820D01*
X-6629496Y7263820D01*
X-6724734Y7216200D01*
X-6772353Y7168581D01*
X-6819972Y7073343D01*
X-6819972Y6835248D01*
X-6772353Y6740010D01*
X-6724734Y6692391D01*
X-6629496Y6644772D01*
X-6439020Y6644772D01*
X-6343781Y6692391D01*
X-6296162Y6740010D01*
X-6248543Y6835248D01*
G04 #@! TO.C,J17*
X-11129496Y60671658D02*
X-11177115Y60624039D01*
X-11319972Y60576420D01*
X-11415210Y60576420D01*
X-11558067Y60624039D01*
X-11653305Y60719277D01*
X-11700924Y60814515D01*
X-11748543Y61004991D01*
X-11748543Y61147848D01*
X-11700924Y61338324D01*
X-11653305Y61433562D01*
X-11558067Y61528800D01*
X-11415210Y61576420D01*
X-11319972Y61576420D01*
X-11177115Y61528800D01*
X-11129496Y61481181D01*
X-10558067Y60576420D02*
X-10653305Y60624039D01*
X-10700924Y60671658D01*
X-10748543Y60766896D01*
X-10748543Y61052610D01*
X-10700924Y61147848D01*
X-10653305Y61195467D01*
X-10558067Y61243086D01*
X-10415210Y61243086D01*
X-10319972Y61195467D01*
X-10272353Y61147848D01*
X-10224734Y61052610D01*
X-10224734Y60766896D01*
X-10272353Y60671658D01*
X-10319972Y60624039D01*
X-10415210Y60576420D01*
X-10558067Y60576420D01*
X-9796162Y61243086D02*
X-9796162Y60576420D01*
X-9796162Y61147848D02*
X-9748543Y61195467D01*
X-9653305Y61243086D01*
X-9510448Y61243086D01*
X-9415210Y61195467D01*
X-9367591Y61100229D01*
X-9367591Y60576420D01*
X-8891400Y61243086D02*
X-8891400Y60576420D01*
X-8891400Y61147848D02*
X-8843781Y61195467D01*
X-8748543Y61243086D01*
X-8605686Y61243086D01*
X-8510448Y61195467D01*
X-8462829Y61100229D01*
X-8462829Y60576420D01*
X-8224734Y60481181D02*
X-7462829Y60481181D01*
X-7034258Y61576420D02*
X-6939020Y61576420D01*
X-6843781Y61528800D01*
X-6796162Y61481181D01*
X-6748543Y61385943D01*
X-6700924Y61195467D01*
X-6700924Y60957372D01*
X-6748543Y60766896D01*
X-6796162Y60671658D01*
X-6843781Y60624039D01*
X-6939020Y60576420D01*
X-7034258Y60576420D01*
X-7129496Y60624039D01*
X-7177115Y60671658D01*
X-7224734Y60766896D01*
X-7272353Y60957372D01*
X-7272353Y61195467D01*
X-7224734Y61385943D01*
X-7177115Y61481181D01*
X-7129496Y61528800D01*
X-7034258Y61576420D01*
X-5748543Y60576420D02*
X-6319972Y60576420D01*
X-6034258Y60576420D02*
X-6034258Y61576420D01*
X-6129496Y61433562D01*
X-6224734Y61338324D01*
X-6319972Y61290705D01*
X-5415210Y60576420D02*
X-4891400Y61243086D01*
X-5415210Y61243086D02*
X-4891400Y60576420D01*
X-4319972Y61576420D02*
X-4224734Y61576420D01*
X-4129496Y61528800D01*
X-4081877Y61481181D01*
X-4034258Y61385943D01*
X-3986639Y61195467D01*
X-3986639Y60957372D01*
X-4034258Y60766896D01*
X-4081877Y60671658D01*
X-4129496Y60624039D01*
X-4224734Y60576420D01*
X-4319972Y60576420D01*
X-4415210Y60624039D01*
X-4462829Y60671658D01*
X-4510448Y60766896D01*
X-4558067Y60957372D01*
X-4558067Y61195467D01*
X-4510448Y61385943D01*
X-4462829Y61481181D01*
X-4415210Y61528800D01*
X-4319972Y61576420D01*
X-3034258Y60576420D02*
X-3605686Y60576420D01*
X-3319972Y60576420D02*
X-3319972Y61576420D01*
X-3415210Y61433562D01*
X-3510448Y61338324D01*
X-3605686Y61290705D01*
X-8200924Y57276420D02*
X-8200924Y56562134D01*
X-8248543Y56419277D01*
X-8343781Y56324039D01*
X-8486639Y56276420D01*
X-8581877Y56276420D01*
X-7200924Y56276420D02*
X-7772353Y56276420D01*
X-7486639Y56276420D02*
X-7486639Y57276420D01*
X-7581877Y57133562D01*
X-7677115Y57038324D01*
X-7772353Y56990705D01*
X-6867591Y57276420D02*
X-6200924Y57276420D01*
X-6629496Y56276420D01*
G04 #@! TO.C,J16*
X-22153096Y60697058D02*
X-22200715Y60649439D01*
X-22343572Y60601820D01*
X-22438810Y60601820D01*
X-22581667Y60649439D01*
X-22676905Y60744677D01*
X-22724524Y60839915D01*
X-22772143Y61030391D01*
X-22772143Y61173248D01*
X-22724524Y61363724D01*
X-22676905Y61458962D01*
X-22581667Y61554200D01*
X-22438810Y61601820D01*
X-22343572Y61601820D01*
X-22200715Y61554200D01*
X-22153096Y61506581D01*
X-21581667Y60601820D02*
X-21676905Y60649439D01*
X-21724524Y60697058D01*
X-21772143Y60792296D01*
X-21772143Y61078010D01*
X-21724524Y61173248D01*
X-21676905Y61220867D01*
X-21581667Y61268486D01*
X-21438810Y61268486D01*
X-21343572Y61220867D01*
X-21295953Y61173248D01*
X-21248334Y61078010D01*
X-21248334Y60792296D01*
X-21295953Y60697058D01*
X-21343572Y60649439D01*
X-21438810Y60601820D01*
X-21581667Y60601820D01*
X-20819762Y61268486D02*
X-20819762Y60601820D01*
X-20819762Y61173248D02*
X-20772143Y61220867D01*
X-20676905Y61268486D01*
X-20534048Y61268486D01*
X-20438810Y61220867D01*
X-20391191Y61125629D01*
X-20391191Y60601820D01*
X-19915000Y61268486D02*
X-19915000Y60601820D01*
X-19915000Y61173248D02*
X-19867381Y61220867D01*
X-19772143Y61268486D01*
X-19629286Y61268486D01*
X-19534048Y61220867D01*
X-19486429Y61125629D01*
X-19486429Y60601820D01*
X-19248334Y60506581D02*
X-18486429Y60506581D01*
X-18057858Y61601820D02*
X-17962620Y61601820D01*
X-17867381Y61554200D01*
X-17819762Y61506581D01*
X-17772143Y61411343D01*
X-17724524Y61220867D01*
X-17724524Y60982772D01*
X-17772143Y60792296D01*
X-17819762Y60697058D01*
X-17867381Y60649439D01*
X-17962620Y60601820D01*
X-18057858Y60601820D01*
X-18153096Y60649439D01*
X-18200715Y60697058D01*
X-18248334Y60792296D01*
X-18295953Y60982772D01*
X-18295953Y61220867D01*
X-18248334Y61411343D01*
X-18200715Y61506581D01*
X-18153096Y61554200D01*
X-18057858Y61601820D01*
X-16772143Y60601820D02*
X-17343572Y60601820D01*
X-17057858Y60601820D02*
X-17057858Y61601820D01*
X-17153096Y61458962D01*
X-17248334Y61363724D01*
X-17343572Y61316105D01*
X-16438810Y60601820D02*
X-15915000Y61268486D01*
X-16438810Y61268486D02*
X-15915000Y60601820D01*
X-15343572Y61601820D02*
X-15248334Y61601820D01*
X-15153096Y61554200D01*
X-15105477Y61506581D01*
X-15057858Y61411343D01*
X-15010239Y61220867D01*
X-15010239Y60982772D01*
X-15057858Y60792296D01*
X-15105477Y60697058D01*
X-15153096Y60649439D01*
X-15248334Y60601820D01*
X-15343572Y60601820D01*
X-15438810Y60649439D01*
X-15486429Y60697058D01*
X-15534048Y60792296D01*
X-15581667Y60982772D01*
X-15581667Y61220867D01*
X-15534048Y61411343D01*
X-15486429Y61506581D01*
X-15438810Y61554200D01*
X-15343572Y61601820D01*
X-14057858Y60601820D02*
X-14629286Y60601820D01*
X-14343572Y60601820D02*
X-14343572Y61601820D01*
X-14438810Y61458962D01*
X-14534048Y61363724D01*
X-14629286Y61316105D01*
X-19224524Y57301820D02*
X-19224524Y56587534D01*
X-19272143Y56444677D01*
X-19367381Y56349439D01*
X-19510239Y56301820D01*
X-19605477Y56301820D01*
X-18224524Y56301820D02*
X-18795953Y56301820D01*
X-18510239Y56301820D02*
X-18510239Y57301820D01*
X-18605477Y57158962D01*
X-18700715Y57063724D01*
X-18795953Y57016105D01*
X-17367381Y57301820D02*
X-17557858Y57301820D01*
X-17653096Y57254200D01*
X-17700715Y57206581D01*
X-17795953Y57063724D01*
X-17843572Y56873248D01*
X-17843572Y56492296D01*
X-17795953Y56397058D01*
X-17748334Y56349439D01*
X-17653096Y56301820D01*
X-17462620Y56301820D01*
X-17367381Y56349439D01*
X-17319762Y56397058D01*
X-17272143Y56492296D01*
X-17272143Y56730391D01*
X-17319762Y56825629D01*
X-17367381Y56873248D01*
X-17462620Y56920867D01*
X-17653096Y56920867D01*
X-17748334Y56873248D01*
X-17795953Y56825629D01*
X-17843572Y56730391D01*
G04 #@! TO.C,J14*
X-44124096Y48174858D02*
X-44171715Y48127239D01*
X-44314572Y48079620D01*
X-44409810Y48079620D01*
X-44552667Y48127239D01*
X-44647905Y48222477D01*
X-44695524Y48317715D01*
X-44743143Y48508191D01*
X-44743143Y48651048D01*
X-44695524Y48841524D01*
X-44647905Y48936762D01*
X-44552667Y49032000D01*
X-44409810Y49079620D01*
X-44314572Y49079620D01*
X-44171715Y49032000D01*
X-44124096Y48984381D01*
X-43552667Y48079620D02*
X-43647905Y48127239D01*
X-43695524Y48174858D01*
X-43743143Y48270096D01*
X-43743143Y48555810D01*
X-43695524Y48651048D01*
X-43647905Y48698667D01*
X-43552667Y48746286D01*
X-43409810Y48746286D01*
X-43314572Y48698667D01*
X-43266953Y48651048D01*
X-43219334Y48555810D01*
X-43219334Y48270096D01*
X-43266953Y48174858D01*
X-43314572Y48127239D01*
X-43409810Y48079620D01*
X-43552667Y48079620D01*
X-42790762Y48746286D02*
X-42790762Y48079620D01*
X-42790762Y48651048D02*
X-42743143Y48698667D01*
X-42647905Y48746286D01*
X-42505048Y48746286D01*
X-42409810Y48698667D01*
X-42362191Y48603429D01*
X-42362191Y48079620D01*
X-41886000Y48746286D02*
X-41886000Y48079620D01*
X-41886000Y48651048D02*
X-41838381Y48698667D01*
X-41743143Y48746286D01*
X-41600286Y48746286D01*
X-41505048Y48698667D01*
X-41457429Y48603429D01*
X-41457429Y48079620D01*
X-41219334Y47984381D02*
X-40457429Y47984381D01*
X-40028858Y49079620D02*
X-39933620Y49079620D01*
X-39838381Y49032000D01*
X-39790762Y48984381D01*
X-39743143Y48889143D01*
X-39695524Y48698667D01*
X-39695524Y48460572D01*
X-39743143Y48270096D01*
X-39790762Y48174858D01*
X-39838381Y48127239D01*
X-39933620Y48079620D01*
X-40028858Y48079620D01*
X-40124096Y48127239D01*
X-40171715Y48174858D01*
X-40219334Y48270096D01*
X-40266953Y48460572D01*
X-40266953Y48698667D01*
X-40219334Y48889143D01*
X-40171715Y48984381D01*
X-40124096Y49032000D01*
X-40028858Y49079620D01*
X-38743143Y48079620D02*
X-39314572Y48079620D01*
X-39028858Y48079620D02*
X-39028858Y49079620D01*
X-39124096Y48936762D01*
X-39219334Y48841524D01*
X-39314572Y48793905D01*
X-38409810Y48079620D02*
X-37886000Y48746286D01*
X-38409810Y48746286D02*
X-37886000Y48079620D01*
X-37314572Y49079620D02*
X-37219334Y49079620D01*
X-37124096Y49032000D01*
X-37076477Y48984381D01*
X-37028858Y48889143D01*
X-36981239Y48698667D01*
X-36981239Y48460572D01*
X-37028858Y48270096D01*
X-37076477Y48174858D01*
X-37124096Y48127239D01*
X-37219334Y48079620D01*
X-37314572Y48079620D01*
X-37409810Y48127239D01*
X-37457429Y48174858D01*
X-37505048Y48270096D01*
X-37552667Y48460572D01*
X-37552667Y48698667D01*
X-37505048Y48889143D01*
X-37457429Y48984381D01*
X-37409810Y49032000D01*
X-37314572Y49079620D01*
X-36028858Y48079620D02*
X-36600286Y48079620D01*
X-36314572Y48079620D02*
X-36314572Y49079620D01*
X-36409810Y48936762D01*
X-36505048Y48841524D01*
X-36600286Y48793905D01*
X-41195524Y44779620D02*
X-41195524Y44065334D01*
X-41243143Y43922477D01*
X-41338381Y43827239D01*
X-41481239Y43779620D01*
X-41576477Y43779620D01*
X-40195524Y43779620D02*
X-40766953Y43779620D01*
X-40481239Y43779620D02*
X-40481239Y44779620D01*
X-40576477Y44636762D01*
X-40671715Y44541524D01*
X-40766953Y44493905D01*
X-39338381Y44446286D02*
X-39338381Y43779620D01*
X-39576477Y44827239D02*
X-39814572Y44112953D01*
X-39195524Y44112953D01*
G04 #@! TO.C,J13*
X-22140396Y48149458D02*
X-22188015Y48101839D01*
X-22330872Y48054220D01*
X-22426110Y48054220D01*
X-22568967Y48101839D01*
X-22664205Y48197077D01*
X-22711824Y48292315D01*
X-22759443Y48482791D01*
X-22759443Y48625648D01*
X-22711824Y48816124D01*
X-22664205Y48911362D01*
X-22568967Y49006600D01*
X-22426110Y49054220D01*
X-22330872Y49054220D01*
X-22188015Y49006600D01*
X-22140396Y48958981D01*
X-21568967Y48054220D02*
X-21664205Y48101839D01*
X-21711824Y48149458D01*
X-21759443Y48244696D01*
X-21759443Y48530410D01*
X-21711824Y48625648D01*
X-21664205Y48673267D01*
X-21568967Y48720886D01*
X-21426110Y48720886D01*
X-21330872Y48673267D01*
X-21283253Y48625648D01*
X-21235634Y48530410D01*
X-21235634Y48244696D01*
X-21283253Y48149458D01*
X-21330872Y48101839D01*
X-21426110Y48054220D01*
X-21568967Y48054220D01*
X-20807062Y48720886D02*
X-20807062Y48054220D01*
X-20807062Y48625648D02*
X-20759443Y48673267D01*
X-20664205Y48720886D01*
X-20521348Y48720886D01*
X-20426110Y48673267D01*
X-20378491Y48578029D01*
X-20378491Y48054220D01*
X-19902300Y48720886D02*
X-19902300Y48054220D01*
X-19902300Y48625648D02*
X-19854681Y48673267D01*
X-19759443Y48720886D01*
X-19616586Y48720886D01*
X-19521348Y48673267D01*
X-19473729Y48578029D01*
X-19473729Y48054220D01*
X-19235634Y47958981D02*
X-18473729Y47958981D01*
X-18045158Y49054220D02*
X-17949920Y49054220D01*
X-17854681Y49006600D01*
X-17807062Y48958981D01*
X-17759443Y48863743D01*
X-17711824Y48673267D01*
X-17711824Y48435172D01*
X-17759443Y48244696D01*
X-17807062Y48149458D01*
X-17854681Y48101839D01*
X-17949920Y48054220D01*
X-18045158Y48054220D01*
X-18140396Y48101839D01*
X-18188015Y48149458D01*
X-18235634Y48244696D01*
X-18283253Y48435172D01*
X-18283253Y48673267D01*
X-18235634Y48863743D01*
X-18188015Y48958981D01*
X-18140396Y49006600D01*
X-18045158Y49054220D01*
X-16759443Y48054220D02*
X-17330872Y48054220D01*
X-17045158Y48054220D02*
X-17045158Y49054220D01*
X-17140396Y48911362D01*
X-17235634Y48816124D01*
X-17330872Y48768505D01*
X-16426110Y48054220D02*
X-15902300Y48720886D01*
X-16426110Y48720886D02*
X-15902300Y48054220D01*
X-15330872Y49054220D02*
X-15235634Y49054220D01*
X-15140396Y49006600D01*
X-15092777Y48958981D01*
X-15045158Y48863743D01*
X-14997539Y48673267D01*
X-14997539Y48435172D01*
X-15045158Y48244696D01*
X-15092777Y48149458D01*
X-15140396Y48101839D01*
X-15235634Y48054220D01*
X-15330872Y48054220D01*
X-15426110Y48101839D01*
X-15473729Y48149458D01*
X-15521348Y48244696D01*
X-15568967Y48435172D01*
X-15568967Y48673267D01*
X-15521348Y48863743D01*
X-15473729Y48958981D01*
X-15426110Y49006600D01*
X-15330872Y49054220D01*
X-14045158Y48054220D02*
X-14616586Y48054220D01*
X-14330872Y48054220D02*
X-14330872Y49054220D01*
X-14426110Y48911362D01*
X-14521348Y48816124D01*
X-14616586Y48768505D01*
X-19211824Y44754220D02*
X-19211824Y44039934D01*
X-19259443Y43897077D01*
X-19354681Y43801839D01*
X-19497539Y43754220D01*
X-19592777Y43754220D01*
X-18211824Y43754220D02*
X-18783253Y43754220D01*
X-18497539Y43754220D02*
X-18497539Y44754220D01*
X-18592777Y44611362D01*
X-18688015Y44516124D01*
X-18783253Y44468505D01*
X-17878491Y44754220D02*
X-17259443Y44754220D01*
X-17592777Y44373267D01*
X-17449920Y44373267D01*
X-17354681Y44325648D01*
X-17307062Y44278029D01*
X-17259443Y44182791D01*
X-17259443Y43944696D01*
X-17307062Y43849458D01*
X-17354681Y43801839D01*
X-17449920Y43754220D01*
X-17735634Y43754220D01*
X-17830872Y43801839D01*
X-17878491Y43849458D01*
G04 #@! TO.C,J12*
X-11154896Y48149458D02*
X-11202515Y48101839D01*
X-11345372Y48054220D01*
X-11440610Y48054220D01*
X-11583467Y48101839D01*
X-11678705Y48197077D01*
X-11726324Y48292315D01*
X-11773943Y48482791D01*
X-11773943Y48625648D01*
X-11726324Y48816124D01*
X-11678705Y48911362D01*
X-11583467Y49006600D01*
X-11440610Y49054220D01*
X-11345372Y49054220D01*
X-11202515Y49006600D01*
X-11154896Y48958981D01*
X-10583467Y48054220D02*
X-10678705Y48101839D01*
X-10726324Y48149458D01*
X-10773943Y48244696D01*
X-10773943Y48530410D01*
X-10726324Y48625648D01*
X-10678705Y48673267D01*
X-10583467Y48720886D01*
X-10440610Y48720886D01*
X-10345372Y48673267D01*
X-10297753Y48625648D01*
X-10250134Y48530410D01*
X-10250134Y48244696D01*
X-10297753Y48149458D01*
X-10345372Y48101839D01*
X-10440610Y48054220D01*
X-10583467Y48054220D01*
X-9821562Y48720886D02*
X-9821562Y48054220D01*
X-9821562Y48625648D02*
X-9773943Y48673267D01*
X-9678705Y48720886D01*
X-9535848Y48720886D01*
X-9440610Y48673267D01*
X-9392991Y48578029D01*
X-9392991Y48054220D01*
X-8916800Y48720886D02*
X-8916800Y48054220D01*
X-8916800Y48625648D02*
X-8869181Y48673267D01*
X-8773943Y48720886D01*
X-8631086Y48720886D01*
X-8535848Y48673267D01*
X-8488229Y48578029D01*
X-8488229Y48054220D01*
X-8250134Y47958981D02*
X-7488229Y47958981D01*
X-7059658Y49054220D02*
X-6964420Y49054220D01*
X-6869181Y49006600D01*
X-6821562Y48958981D01*
X-6773943Y48863743D01*
X-6726324Y48673267D01*
X-6726324Y48435172D01*
X-6773943Y48244696D01*
X-6821562Y48149458D01*
X-6869181Y48101839D01*
X-6964420Y48054220D01*
X-7059658Y48054220D01*
X-7154896Y48101839D01*
X-7202515Y48149458D01*
X-7250134Y48244696D01*
X-7297753Y48435172D01*
X-7297753Y48673267D01*
X-7250134Y48863743D01*
X-7202515Y48958981D01*
X-7154896Y49006600D01*
X-7059658Y49054220D01*
X-5773943Y48054220D02*
X-6345372Y48054220D01*
X-6059658Y48054220D02*
X-6059658Y49054220D01*
X-6154896Y48911362D01*
X-6250134Y48816124D01*
X-6345372Y48768505D01*
X-5440610Y48054220D02*
X-4916800Y48720886D01*
X-5440610Y48720886D02*
X-4916800Y48054220D01*
X-4345372Y49054220D02*
X-4250134Y49054220D01*
X-4154896Y49006600D01*
X-4107277Y48958981D01*
X-4059658Y48863743D01*
X-4012039Y48673267D01*
X-4012039Y48435172D01*
X-4059658Y48244696D01*
X-4107277Y48149458D01*
X-4154896Y48101839D01*
X-4250134Y48054220D01*
X-4345372Y48054220D01*
X-4440610Y48101839D01*
X-4488229Y48149458D01*
X-4535848Y48244696D01*
X-4583467Y48435172D01*
X-4583467Y48673267D01*
X-4535848Y48863743D01*
X-4488229Y48958981D01*
X-4440610Y49006600D01*
X-4345372Y49054220D01*
X-3059658Y48054220D02*
X-3631086Y48054220D01*
X-3345372Y48054220D02*
X-3345372Y49054220D01*
X-3440610Y48911362D01*
X-3535848Y48816124D01*
X-3631086Y48768505D01*
X-8226324Y44754220D02*
X-8226324Y44039934D01*
X-8273943Y43897077D01*
X-8369181Y43801839D01*
X-8512039Y43754220D01*
X-8607277Y43754220D01*
X-7226324Y43754220D02*
X-7797753Y43754220D01*
X-7512039Y43754220D02*
X-7512039Y44754220D01*
X-7607277Y44611362D01*
X-7702515Y44516124D01*
X-7797753Y44468505D01*
X-6845372Y44658981D02*
X-6797753Y44706600D01*
X-6702515Y44754220D01*
X-6464420Y44754220D01*
X-6369181Y44706600D01*
X-6321562Y44658981D01*
X-6273943Y44563743D01*
X-6273943Y44468505D01*
X-6321562Y44325648D01*
X-6892991Y43754220D01*
X-6273943Y43754220D01*
G04 #@! TO.C,J11*
X-44149496Y35652658D02*
X-44197115Y35605039D01*
X-44339972Y35557420D01*
X-44435210Y35557420D01*
X-44578067Y35605039D01*
X-44673305Y35700277D01*
X-44720924Y35795515D01*
X-44768543Y35985991D01*
X-44768543Y36128848D01*
X-44720924Y36319324D01*
X-44673305Y36414562D01*
X-44578067Y36509800D01*
X-44435210Y36557420D01*
X-44339972Y36557420D01*
X-44197115Y36509800D01*
X-44149496Y36462181D01*
X-43578067Y35557420D02*
X-43673305Y35605039D01*
X-43720924Y35652658D01*
X-43768543Y35747896D01*
X-43768543Y36033610D01*
X-43720924Y36128848D01*
X-43673305Y36176467D01*
X-43578067Y36224086D01*
X-43435210Y36224086D01*
X-43339972Y36176467D01*
X-43292353Y36128848D01*
X-43244734Y36033610D01*
X-43244734Y35747896D01*
X-43292353Y35652658D01*
X-43339972Y35605039D01*
X-43435210Y35557420D01*
X-43578067Y35557420D01*
X-42816162Y36224086D02*
X-42816162Y35557420D01*
X-42816162Y36128848D02*
X-42768543Y36176467D01*
X-42673305Y36224086D01*
X-42530448Y36224086D01*
X-42435210Y36176467D01*
X-42387591Y36081229D01*
X-42387591Y35557420D01*
X-41911400Y36224086D02*
X-41911400Y35557420D01*
X-41911400Y36128848D02*
X-41863781Y36176467D01*
X-41768543Y36224086D01*
X-41625686Y36224086D01*
X-41530448Y36176467D01*
X-41482829Y36081229D01*
X-41482829Y35557420D01*
X-41244734Y35462181D02*
X-40482829Y35462181D01*
X-40054258Y36557420D02*
X-39959020Y36557420D01*
X-39863781Y36509800D01*
X-39816162Y36462181D01*
X-39768543Y36366943D01*
X-39720924Y36176467D01*
X-39720924Y35938372D01*
X-39768543Y35747896D01*
X-39816162Y35652658D01*
X-39863781Y35605039D01*
X-39959020Y35557420D01*
X-40054258Y35557420D01*
X-40149496Y35605039D01*
X-40197115Y35652658D01*
X-40244734Y35747896D01*
X-40292353Y35938372D01*
X-40292353Y36176467D01*
X-40244734Y36366943D01*
X-40197115Y36462181D01*
X-40149496Y36509800D01*
X-40054258Y36557420D01*
X-38768543Y35557420D02*
X-39339972Y35557420D01*
X-39054258Y35557420D02*
X-39054258Y36557420D01*
X-39149496Y36414562D01*
X-39244734Y36319324D01*
X-39339972Y36271705D01*
X-38435210Y35557420D02*
X-37911400Y36224086D01*
X-38435210Y36224086D02*
X-37911400Y35557420D01*
X-37339972Y36557420D02*
X-37244734Y36557420D01*
X-37149496Y36509800D01*
X-37101877Y36462181D01*
X-37054258Y36366943D01*
X-37006639Y36176467D01*
X-37006639Y35938372D01*
X-37054258Y35747896D01*
X-37101877Y35652658D01*
X-37149496Y35605039D01*
X-37244734Y35557420D01*
X-37339972Y35557420D01*
X-37435210Y35605039D01*
X-37482829Y35652658D01*
X-37530448Y35747896D01*
X-37578067Y35938372D01*
X-37578067Y36176467D01*
X-37530448Y36366943D01*
X-37482829Y36462181D01*
X-37435210Y36509800D01*
X-37339972Y36557420D01*
X-36054258Y35557420D02*
X-36625686Y35557420D01*
X-36339972Y35557420D02*
X-36339972Y36557420D01*
X-36435210Y36414562D01*
X-36530448Y36319324D01*
X-36625686Y36271705D01*
X-41220924Y32257420D02*
X-41220924Y31543134D01*
X-41268543Y31400277D01*
X-41363781Y31305039D01*
X-41506639Y31257420D01*
X-41601877Y31257420D01*
X-40220924Y31257420D02*
X-40792353Y31257420D01*
X-40506639Y31257420D02*
X-40506639Y32257420D01*
X-40601877Y32114562D01*
X-40697115Y32019324D01*
X-40792353Y31971705D01*
X-39268543Y31257420D02*
X-39839972Y31257420D01*
X-39554258Y31257420D02*
X-39554258Y32257420D01*
X-39649496Y32114562D01*
X-39744734Y32019324D01*
X-39839972Y31971705D01*
G04 #@! TO.C,J10*
X-33125896Y35703458D02*
X-33173515Y35655839D01*
X-33316372Y35608220D01*
X-33411610Y35608220D01*
X-33554467Y35655839D01*
X-33649705Y35751077D01*
X-33697324Y35846315D01*
X-33744943Y36036791D01*
X-33744943Y36179648D01*
X-33697324Y36370124D01*
X-33649705Y36465362D01*
X-33554467Y36560600D01*
X-33411610Y36608220D01*
X-33316372Y36608220D01*
X-33173515Y36560600D01*
X-33125896Y36512981D01*
X-32554467Y35608220D02*
X-32649705Y35655839D01*
X-32697324Y35703458D01*
X-32744943Y35798696D01*
X-32744943Y36084410D01*
X-32697324Y36179648D01*
X-32649705Y36227267D01*
X-32554467Y36274886D01*
X-32411610Y36274886D01*
X-32316372Y36227267D01*
X-32268753Y36179648D01*
X-32221134Y36084410D01*
X-32221134Y35798696D01*
X-32268753Y35703458D01*
X-32316372Y35655839D01*
X-32411610Y35608220D01*
X-32554467Y35608220D01*
X-31792562Y36274886D02*
X-31792562Y35608220D01*
X-31792562Y36179648D02*
X-31744943Y36227267D01*
X-31649705Y36274886D01*
X-31506848Y36274886D01*
X-31411610Y36227267D01*
X-31363991Y36132029D01*
X-31363991Y35608220D01*
X-30887800Y36274886D02*
X-30887800Y35608220D01*
X-30887800Y36179648D02*
X-30840181Y36227267D01*
X-30744943Y36274886D01*
X-30602086Y36274886D01*
X-30506848Y36227267D01*
X-30459229Y36132029D01*
X-30459229Y35608220D01*
X-30221134Y35512981D02*
X-29459229Y35512981D01*
X-29030658Y36608220D02*
X-28935420Y36608220D01*
X-28840181Y36560600D01*
X-28792562Y36512981D01*
X-28744943Y36417743D01*
X-28697324Y36227267D01*
X-28697324Y35989172D01*
X-28744943Y35798696D01*
X-28792562Y35703458D01*
X-28840181Y35655839D01*
X-28935420Y35608220D01*
X-29030658Y35608220D01*
X-29125896Y35655839D01*
X-29173515Y35703458D01*
X-29221134Y35798696D01*
X-29268753Y35989172D01*
X-29268753Y36227267D01*
X-29221134Y36417743D01*
X-29173515Y36512981D01*
X-29125896Y36560600D01*
X-29030658Y36608220D01*
X-27744943Y35608220D02*
X-28316372Y35608220D01*
X-28030658Y35608220D02*
X-28030658Y36608220D01*
X-28125896Y36465362D01*
X-28221134Y36370124D01*
X-28316372Y36322505D01*
X-27411610Y35608220D02*
X-26887800Y36274886D01*
X-27411610Y36274886D02*
X-26887800Y35608220D01*
X-26316372Y36608220D02*
X-26221134Y36608220D01*
X-26125896Y36560600D01*
X-26078277Y36512981D01*
X-26030658Y36417743D01*
X-25983039Y36227267D01*
X-25983039Y35989172D01*
X-26030658Y35798696D01*
X-26078277Y35703458D01*
X-26125896Y35655839D01*
X-26221134Y35608220D01*
X-26316372Y35608220D01*
X-26411610Y35655839D01*
X-26459229Y35703458D01*
X-26506848Y35798696D01*
X-26554467Y35989172D01*
X-26554467Y36227267D01*
X-26506848Y36417743D01*
X-26459229Y36512981D01*
X-26411610Y36560600D01*
X-26316372Y36608220D01*
X-25030658Y35608220D02*
X-25602086Y35608220D01*
X-25316372Y35608220D02*
X-25316372Y36608220D01*
X-25411610Y36465362D01*
X-25506848Y36370124D01*
X-25602086Y36322505D01*
X-30197324Y32308220D02*
X-30197324Y31593934D01*
X-30244943Y31451077D01*
X-30340181Y31355839D01*
X-30483039Y31308220D01*
X-30578277Y31308220D01*
X-29197324Y31308220D02*
X-29768753Y31308220D01*
X-29483039Y31308220D02*
X-29483039Y32308220D01*
X-29578277Y32165362D01*
X-29673515Y32070124D01*
X-29768753Y32022505D01*
X-28578277Y32308220D02*
X-28483039Y32308220D01*
X-28387800Y32260600D01*
X-28340181Y32212981D01*
X-28292562Y32117743D01*
X-28244943Y31927267D01*
X-28244943Y31689172D01*
X-28292562Y31498696D01*
X-28340181Y31403458D01*
X-28387800Y31355839D01*
X-28483039Y31308220D01*
X-28578277Y31308220D01*
X-28673515Y31355839D01*
X-28721134Y31403458D01*
X-28768753Y31498696D01*
X-28816372Y31689172D01*
X-28816372Y31927267D01*
X-28768753Y32117743D01*
X-28721134Y32212981D01*
X-28673515Y32260600D01*
X-28578277Y32308220D01*
G04 #@! TO.C,J9*
X-22127696Y35652658D02*
X-22175315Y35605039D01*
X-22318172Y35557420D01*
X-22413410Y35557420D01*
X-22556267Y35605039D01*
X-22651505Y35700277D01*
X-22699124Y35795515D01*
X-22746743Y35985991D01*
X-22746743Y36128848D01*
X-22699124Y36319324D01*
X-22651505Y36414562D01*
X-22556267Y36509800D01*
X-22413410Y36557420D01*
X-22318172Y36557420D01*
X-22175315Y36509800D01*
X-22127696Y36462181D01*
X-21556267Y35557420D02*
X-21651505Y35605039D01*
X-21699124Y35652658D01*
X-21746743Y35747896D01*
X-21746743Y36033610D01*
X-21699124Y36128848D01*
X-21651505Y36176467D01*
X-21556267Y36224086D01*
X-21413410Y36224086D01*
X-21318172Y36176467D01*
X-21270553Y36128848D01*
X-21222934Y36033610D01*
X-21222934Y35747896D01*
X-21270553Y35652658D01*
X-21318172Y35605039D01*
X-21413410Y35557420D01*
X-21556267Y35557420D01*
X-20794362Y36224086D02*
X-20794362Y35557420D01*
X-20794362Y36128848D02*
X-20746743Y36176467D01*
X-20651505Y36224086D01*
X-20508648Y36224086D01*
X-20413410Y36176467D01*
X-20365791Y36081229D01*
X-20365791Y35557420D01*
X-19889600Y36224086D02*
X-19889600Y35557420D01*
X-19889600Y36128848D02*
X-19841981Y36176467D01*
X-19746743Y36224086D01*
X-19603886Y36224086D01*
X-19508648Y36176467D01*
X-19461029Y36081229D01*
X-19461029Y35557420D01*
X-19222934Y35462181D02*
X-18461029Y35462181D01*
X-18032458Y36557420D02*
X-17937220Y36557420D01*
X-17841981Y36509800D01*
X-17794362Y36462181D01*
X-17746743Y36366943D01*
X-17699124Y36176467D01*
X-17699124Y35938372D01*
X-17746743Y35747896D01*
X-17794362Y35652658D01*
X-17841981Y35605039D01*
X-17937220Y35557420D01*
X-18032458Y35557420D01*
X-18127696Y35605039D01*
X-18175315Y35652658D01*
X-18222934Y35747896D01*
X-18270553Y35938372D01*
X-18270553Y36176467D01*
X-18222934Y36366943D01*
X-18175315Y36462181D01*
X-18127696Y36509800D01*
X-18032458Y36557420D01*
X-16746743Y35557420D02*
X-17318172Y35557420D01*
X-17032458Y35557420D02*
X-17032458Y36557420D01*
X-17127696Y36414562D01*
X-17222934Y36319324D01*
X-17318172Y36271705D01*
X-16413410Y35557420D02*
X-15889600Y36224086D01*
X-16413410Y36224086D02*
X-15889600Y35557420D01*
X-15318172Y36557420D02*
X-15222934Y36557420D01*
X-15127696Y36509800D01*
X-15080077Y36462181D01*
X-15032458Y36366943D01*
X-14984839Y36176467D01*
X-14984839Y35938372D01*
X-15032458Y35747896D01*
X-15080077Y35652658D01*
X-15127696Y35605039D01*
X-15222934Y35557420D01*
X-15318172Y35557420D01*
X-15413410Y35605039D01*
X-15461029Y35652658D01*
X-15508648Y35747896D01*
X-15556267Y35938372D01*
X-15556267Y36176467D01*
X-15508648Y36366943D01*
X-15461029Y36462181D01*
X-15413410Y36509800D01*
X-15318172Y36557420D01*
X-14032458Y35557420D02*
X-14603886Y35557420D01*
X-14318172Y35557420D02*
X-14318172Y36557420D01*
X-14413410Y36414562D01*
X-14508648Y36319324D01*
X-14603886Y36271705D01*
X-18722934Y32257420D02*
X-18722934Y31543134D01*
X-18770553Y31400277D01*
X-18865791Y31305039D01*
X-19008648Y31257420D01*
X-19103886Y31257420D01*
X-18199124Y31257420D02*
X-18008648Y31257420D01*
X-17913410Y31305039D01*
X-17865791Y31352658D01*
X-17770553Y31495515D01*
X-17722934Y31685991D01*
X-17722934Y32066943D01*
X-17770553Y32162181D01*
X-17818172Y32209800D01*
X-17913410Y32257420D01*
X-18103886Y32257420D01*
X-18199124Y32209800D01*
X-18246743Y32162181D01*
X-18294362Y32066943D01*
X-18294362Y31828848D01*
X-18246743Y31733610D01*
X-18199124Y31685991D01*
X-18103886Y31638372D01*
X-17913410Y31638372D01*
X-17818172Y31685991D01*
X-17770553Y31733610D01*
X-17722934Y31828848D01*
G04 #@! TO.C,J8*
X-11154896Y35639958D02*
X-11202515Y35592339D01*
X-11345372Y35544720D01*
X-11440610Y35544720D01*
X-11583467Y35592339D01*
X-11678705Y35687577D01*
X-11726324Y35782815D01*
X-11773943Y35973291D01*
X-11773943Y36116148D01*
X-11726324Y36306624D01*
X-11678705Y36401862D01*
X-11583467Y36497100D01*
X-11440610Y36544720D01*
X-11345372Y36544720D01*
X-11202515Y36497100D01*
X-11154896Y36449481D01*
X-10583467Y35544720D02*
X-10678705Y35592339D01*
X-10726324Y35639958D01*
X-10773943Y35735196D01*
X-10773943Y36020910D01*
X-10726324Y36116148D01*
X-10678705Y36163767D01*
X-10583467Y36211386D01*
X-10440610Y36211386D01*
X-10345372Y36163767D01*
X-10297753Y36116148D01*
X-10250134Y36020910D01*
X-10250134Y35735196D01*
X-10297753Y35639958D01*
X-10345372Y35592339D01*
X-10440610Y35544720D01*
X-10583467Y35544720D01*
X-9821562Y36211386D02*
X-9821562Y35544720D01*
X-9821562Y36116148D02*
X-9773943Y36163767D01*
X-9678705Y36211386D01*
X-9535848Y36211386D01*
X-9440610Y36163767D01*
X-9392991Y36068529D01*
X-9392991Y35544720D01*
X-8916800Y36211386D02*
X-8916800Y35544720D01*
X-8916800Y36116148D02*
X-8869181Y36163767D01*
X-8773943Y36211386D01*
X-8631086Y36211386D01*
X-8535848Y36163767D01*
X-8488229Y36068529D01*
X-8488229Y35544720D01*
X-8250134Y35449481D02*
X-7488229Y35449481D01*
X-7059658Y36544720D02*
X-6964420Y36544720D01*
X-6869181Y36497100D01*
X-6821562Y36449481D01*
X-6773943Y36354243D01*
X-6726324Y36163767D01*
X-6726324Y35925672D01*
X-6773943Y35735196D01*
X-6821562Y35639958D01*
X-6869181Y35592339D01*
X-6964420Y35544720D01*
X-7059658Y35544720D01*
X-7154896Y35592339D01*
X-7202515Y35639958D01*
X-7250134Y35735196D01*
X-7297753Y35925672D01*
X-7297753Y36163767D01*
X-7250134Y36354243D01*
X-7202515Y36449481D01*
X-7154896Y36497100D01*
X-7059658Y36544720D01*
X-5773943Y35544720D02*
X-6345372Y35544720D01*
X-6059658Y35544720D02*
X-6059658Y36544720D01*
X-6154896Y36401862D01*
X-6250134Y36306624D01*
X-6345372Y36259005D01*
X-5440610Y35544720D02*
X-4916800Y36211386D01*
X-5440610Y36211386D02*
X-4916800Y35544720D01*
X-4345372Y36544720D02*
X-4250134Y36544720D01*
X-4154896Y36497100D01*
X-4107277Y36449481D01*
X-4059658Y36354243D01*
X-4012039Y36163767D01*
X-4012039Y35925672D01*
X-4059658Y35735196D01*
X-4107277Y35639958D01*
X-4154896Y35592339D01*
X-4250134Y35544720D01*
X-4345372Y35544720D01*
X-4440610Y35592339D01*
X-4488229Y35639958D01*
X-4535848Y35735196D01*
X-4583467Y35925672D01*
X-4583467Y36163767D01*
X-4535848Y36354243D01*
X-4488229Y36449481D01*
X-4440610Y36497100D01*
X-4345372Y36544720D01*
X-3059658Y35544720D02*
X-3631086Y35544720D01*
X-3345372Y35544720D02*
X-3345372Y36544720D01*
X-3440610Y36401862D01*
X-3535848Y36306624D01*
X-3631086Y36259005D01*
X-7750134Y32244720D02*
X-7750134Y31530434D01*
X-7797753Y31387577D01*
X-7892991Y31292339D01*
X-8035848Y31244720D01*
X-8131086Y31244720D01*
X-7131086Y31816148D02*
X-7226324Y31863767D01*
X-7273943Y31911386D01*
X-7321562Y32006624D01*
X-7321562Y32054243D01*
X-7273943Y32149481D01*
X-7226324Y32197100D01*
X-7131086Y32244720D01*
X-6940610Y32244720D01*
X-6845372Y32197100D01*
X-6797753Y32149481D01*
X-6750134Y32054243D01*
X-6750134Y32006624D01*
X-6797753Y31911386D01*
X-6845372Y31863767D01*
X-6940610Y31816148D01*
X-7131086Y31816148D01*
X-7226324Y31768529D01*
X-7273943Y31720910D01*
X-7321562Y31625672D01*
X-7321562Y31435196D01*
X-7273943Y31339958D01*
X-7226324Y31292339D01*
X-7131086Y31244720D01*
X-6940610Y31244720D01*
X-6845372Y31292339D01*
X-6797753Y31339958D01*
X-6750134Y31435196D01*
X-6750134Y31625672D01*
X-6797753Y31720910D01*
X-6845372Y31768529D01*
X-6940610Y31816148D01*
G04 #@! TO.C,J6*
X-11129496Y23181258D02*
X-11177115Y23133639D01*
X-11319972Y23086020D01*
X-11415210Y23086020D01*
X-11558067Y23133639D01*
X-11653305Y23228877D01*
X-11700924Y23324115D01*
X-11748543Y23514591D01*
X-11748543Y23657448D01*
X-11700924Y23847924D01*
X-11653305Y23943162D01*
X-11558067Y24038400D01*
X-11415210Y24086020D01*
X-11319972Y24086020D01*
X-11177115Y24038400D01*
X-11129496Y23990781D01*
X-10558067Y23086020D02*
X-10653305Y23133639D01*
X-10700924Y23181258D01*
X-10748543Y23276496D01*
X-10748543Y23562210D01*
X-10700924Y23657448D01*
X-10653305Y23705067D01*
X-10558067Y23752686D01*
X-10415210Y23752686D01*
X-10319972Y23705067D01*
X-10272353Y23657448D01*
X-10224734Y23562210D01*
X-10224734Y23276496D01*
X-10272353Y23181258D01*
X-10319972Y23133639D01*
X-10415210Y23086020D01*
X-10558067Y23086020D01*
X-9796162Y23752686D02*
X-9796162Y23086020D01*
X-9796162Y23657448D02*
X-9748543Y23705067D01*
X-9653305Y23752686D01*
X-9510448Y23752686D01*
X-9415210Y23705067D01*
X-9367591Y23609829D01*
X-9367591Y23086020D01*
X-8891400Y23752686D02*
X-8891400Y23086020D01*
X-8891400Y23657448D02*
X-8843781Y23705067D01*
X-8748543Y23752686D01*
X-8605686Y23752686D01*
X-8510448Y23705067D01*
X-8462829Y23609829D01*
X-8462829Y23086020D01*
X-8224734Y22990781D02*
X-7462829Y22990781D01*
X-7034258Y24086020D02*
X-6939020Y24086020D01*
X-6843781Y24038400D01*
X-6796162Y23990781D01*
X-6748543Y23895543D01*
X-6700924Y23705067D01*
X-6700924Y23466972D01*
X-6748543Y23276496D01*
X-6796162Y23181258D01*
X-6843781Y23133639D01*
X-6939020Y23086020D01*
X-7034258Y23086020D01*
X-7129496Y23133639D01*
X-7177115Y23181258D01*
X-7224734Y23276496D01*
X-7272353Y23466972D01*
X-7272353Y23705067D01*
X-7224734Y23895543D01*
X-7177115Y23990781D01*
X-7129496Y24038400D01*
X-7034258Y24086020D01*
X-5748543Y23086020D02*
X-6319972Y23086020D01*
X-6034258Y23086020D02*
X-6034258Y24086020D01*
X-6129496Y23943162D01*
X-6224734Y23847924D01*
X-6319972Y23800305D01*
X-5415210Y23086020D02*
X-4891400Y23752686D01*
X-5415210Y23752686D02*
X-4891400Y23086020D01*
X-4319972Y24086020D02*
X-4224734Y24086020D01*
X-4129496Y24038400D01*
X-4081877Y23990781D01*
X-4034258Y23895543D01*
X-3986639Y23705067D01*
X-3986639Y23466972D01*
X-4034258Y23276496D01*
X-4081877Y23181258D01*
X-4129496Y23133639D01*
X-4224734Y23086020D01*
X-4319972Y23086020D01*
X-4415210Y23133639D01*
X-4462829Y23181258D01*
X-4510448Y23276496D01*
X-4558067Y23466972D01*
X-4558067Y23705067D01*
X-4510448Y23895543D01*
X-4462829Y23990781D01*
X-4415210Y24038400D01*
X-4319972Y24086020D01*
X-3034258Y23086020D02*
X-3605686Y23086020D01*
X-3319972Y23086020D02*
X-3319972Y24086020D01*
X-3415210Y23943162D01*
X-3510448Y23847924D01*
X-3605686Y23800305D01*
X-7724734Y19786020D02*
X-7724734Y19071734D01*
X-7772353Y18928877D01*
X-7867591Y18833639D01*
X-8010448Y18786020D01*
X-8105686Y18786020D01*
X-6819972Y19786020D02*
X-7010448Y19786020D01*
X-7105686Y19738400D01*
X-7153305Y19690781D01*
X-7248543Y19547924D01*
X-7296162Y19357448D01*
X-7296162Y18976496D01*
X-7248543Y18881258D01*
X-7200924Y18833639D01*
X-7105686Y18786020D01*
X-6915210Y18786020D01*
X-6819972Y18833639D01*
X-6772353Y18881258D01*
X-6724734Y18976496D01*
X-6724734Y19214591D01*
X-6772353Y19309829D01*
X-6819972Y19357448D01*
X-6915210Y19405067D01*
X-7105686Y19405067D01*
X-7200924Y19357448D01*
X-7248543Y19309829D01*
X-7296162Y19214591D01*
G04 #@! TO.C,J5*
X-22127696Y23155858D02*
X-22175315Y23108239D01*
X-22318172Y23060620D01*
X-22413410Y23060620D01*
X-22556267Y23108239D01*
X-22651505Y23203477D01*
X-22699124Y23298715D01*
X-22746743Y23489191D01*
X-22746743Y23632048D01*
X-22699124Y23822524D01*
X-22651505Y23917762D01*
X-22556267Y24013000D01*
X-22413410Y24060620D01*
X-22318172Y24060620D01*
X-22175315Y24013000D01*
X-22127696Y23965381D01*
X-21556267Y23060620D02*
X-21651505Y23108239D01*
X-21699124Y23155858D01*
X-21746743Y23251096D01*
X-21746743Y23536810D01*
X-21699124Y23632048D01*
X-21651505Y23679667D01*
X-21556267Y23727286D01*
X-21413410Y23727286D01*
X-21318172Y23679667D01*
X-21270553Y23632048D01*
X-21222934Y23536810D01*
X-21222934Y23251096D01*
X-21270553Y23155858D01*
X-21318172Y23108239D01*
X-21413410Y23060620D01*
X-21556267Y23060620D01*
X-20794362Y23727286D02*
X-20794362Y23060620D01*
X-20794362Y23632048D02*
X-20746743Y23679667D01*
X-20651505Y23727286D01*
X-20508648Y23727286D01*
X-20413410Y23679667D01*
X-20365791Y23584429D01*
X-20365791Y23060620D01*
X-19889600Y23727286D02*
X-19889600Y23060620D01*
X-19889600Y23632048D02*
X-19841981Y23679667D01*
X-19746743Y23727286D01*
X-19603886Y23727286D01*
X-19508648Y23679667D01*
X-19461029Y23584429D01*
X-19461029Y23060620D01*
X-19222934Y22965381D02*
X-18461029Y22965381D01*
X-18032458Y24060620D02*
X-17937220Y24060620D01*
X-17841981Y24013000D01*
X-17794362Y23965381D01*
X-17746743Y23870143D01*
X-17699124Y23679667D01*
X-17699124Y23441572D01*
X-17746743Y23251096D01*
X-17794362Y23155858D01*
X-17841981Y23108239D01*
X-17937220Y23060620D01*
X-18032458Y23060620D01*
X-18127696Y23108239D01*
X-18175315Y23155858D01*
X-18222934Y23251096D01*
X-18270553Y23441572D01*
X-18270553Y23679667D01*
X-18222934Y23870143D01*
X-18175315Y23965381D01*
X-18127696Y24013000D01*
X-18032458Y24060620D01*
X-16746743Y23060620D02*
X-17318172Y23060620D01*
X-17032458Y23060620D02*
X-17032458Y24060620D01*
X-17127696Y23917762D01*
X-17222934Y23822524D01*
X-17318172Y23774905D01*
X-16413410Y23060620D02*
X-15889600Y23727286D01*
X-16413410Y23727286D02*
X-15889600Y23060620D01*
X-15318172Y24060620D02*
X-15222934Y24060620D01*
X-15127696Y24013000D01*
X-15080077Y23965381D01*
X-15032458Y23870143D01*
X-14984839Y23679667D01*
X-14984839Y23441572D01*
X-15032458Y23251096D01*
X-15080077Y23155858D01*
X-15127696Y23108239D01*
X-15222934Y23060620D01*
X-15318172Y23060620D01*
X-15413410Y23108239D01*
X-15461029Y23155858D01*
X-15508648Y23251096D01*
X-15556267Y23441572D01*
X-15556267Y23679667D01*
X-15508648Y23870143D01*
X-15461029Y23965381D01*
X-15413410Y24013000D01*
X-15318172Y24060620D01*
X-14032458Y23060620D02*
X-14603886Y23060620D01*
X-14318172Y23060620D02*
X-14318172Y24060620D01*
X-14413410Y23917762D01*
X-14508648Y23822524D01*
X-14603886Y23774905D01*
X-18722934Y19760620D02*
X-18722934Y19046334D01*
X-18770553Y18903477D01*
X-18865791Y18808239D01*
X-19008648Y18760620D01*
X-19103886Y18760620D01*
X-17770553Y19760620D02*
X-18246743Y19760620D01*
X-18294362Y19284429D01*
X-18246743Y19332048D01*
X-18151505Y19379667D01*
X-17913410Y19379667D01*
X-17818172Y19332048D01*
X-17770553Y19284429D01*
X-17722934Y19189191D01*
X-17722934Y18951096D01*
X-17770553Y18855858D01*
X-17818172Y18808239D01*
X-17913410Y18760620D01*
X-18151505Y18760620D01*
X-18246743Y18808239D01*
X-18294362Y18855858D01*
G04 #@! TO.C,J18*
X-55744658Y55291505D02*
X-55697039Y55243886D01*
X-55649420Y55101029D01*
X-55649420Y55005791D01*
X-55697039Y54862934D01*
X-55792277Y54767696D01*
X-55887515Y54720077D01*
X-56077991Y54672458D01*
X-56220848Y54672458D01*
X-56411324Y54720077D01*
X-56506562Y54767696D01*
X-56601800Y54862934D01*
X-56649420Y55005791D01*
X-56649420Y55101029D01*
X-56601800Y55243886D01*
X-56554181Y55291505D01*
X-55649420Y55862934D02*
X-55697039Y55767696D01*
X-55744658Y55720077D01*
X-55839896Y55672458D01*
X-56125610Y55672458D01*
X-56220848Y55720077D01*
X-56268467Y55767696D01*
X-56316086Y55862934D01*
X-56316086Y56005791D01*
X-56268467Y56101029D01*
X-56220848Y56148648D01*
X-56125610Y56196267D01*
X-55839896Y56196267D01*
X-55744658Y56148648D01*
X-55697039Y56101029D01*
X-55649420Y56005791D01*
X-55649420Y55862934D01*
X-56316086Y56624839D02*
X-55649420Y56624839D01*
X-56220848Y56624839D02*
X-56268467Y56672458D01*
X-56316086Y56767696D01*
X-56316086Y56910553D01*
X-56268467Y57005791D01*
X-56173229Y57053410D01*
X-55649420Y57053410D01*
X-56316086Y57529600D02*
X-55649420Y57529600D01*
X-56220848Y57529600D02*
X-56268467Y57577220D01*
X-56316086Y57672458D01*
X-56316086Y57815315D01*
X-56268467Y57910553D01*
X-56173229Y57958172D01*
X-55649420Y57958172D01*
X-55554181Y58196267D02*
X-55554181Y58958172D01*
X-56649420Y59386743D02*
X-56649420Y59481981D01*
X-56601800Y59577220D01*
X-56554181Y59624839D01*
X-56458943Y59672458D01*
X-56268467Y59720077D01*
X-56030372Y59720077D01*
X-55839896Y59672458D01*
X-55744658Y59624839D01*
X-55697039Y59577220D01*
X-55649420Y59481981D01*
X-55649420Y59386743D01*
X-55697039Y59291505D01*
X-55744658Y59243886D01*
X-55839896Y59196267D01*
X-56030372Y59148648D01*
X-56268467Y59148648D01*
X-56458943Y59196267D01*
X-56554181Y59243886D01*
X-56601800Y59291505D01*
X-56649420Y59386743D01*
X-55649420Y60672458D02*
X-55649420Y60101029D01*
X-55649420Y60386743D02*
X-56649420Y60386743D01*
X-56506562Y60291505D01*
X-56411324Y60196267D01*
X-56363705Y60101029D01*
X-55649420Y61005791D02*
X-56316086Y61529600D01*
X-56316086Y61005791D02*
X-55649420Y61529600D01*
X-56649420Y62101029D02*
X-56649420Y62196267D01*
X-56601800Y62291505D01*
X-56554181Y62339124D01*
X-56458943Y62386743D01*
X-56268467Y62434362D01*
X-56030372Y62434362D01*
X-55839896Y62386743D01*
X-55744658Y62339124D01*
X-55697039Y62291505D01*
X-55649420Y62196267D01*
X-55649420Y62101029D01*
X-55697039Y62005791D01*
X-55744658Y61958172D01*
X-55839896Y61910553D01*
X-56030372Y61862934D01*
X-56268467Y61862934D01*
X-56458943Y61910553D01*
X-56554181Y61958172D01*
X-56601800Y62005791D01*
X-56649420Y62101029D01*
X-56554181Y62815315D02*
X-56601800Y62862934D01*
X-56649420Y62958172D01*
X-56649420Y63196267D01*
X-56601800Y63291505D01*
X-56554181Y63339124D01*
X-56458943Y63386743D01*
X-56363705Y63386743D01*
X-56220848Y63339124D01*
X-55649420Y62767696D01*
X-55649420Y63386743D01*
X-53311324Y59577220D02*
X-53311324Y58862934D01*
X-53358943Y58720077D01*
X-53454181Y58624839D01*
X-53597039Y58577220D01*
X-53692277Y58577220D01*
X-52311324Y58577220D02*
X-52882753Y58577220D01*
X-52597039Y58577220D02*
X-52597039Y59577220D01*
X-52692277Y59434362D01*
X-52787515Y59339124D01*
X-52882753Y59291505D01*
X-51739896Y59148648D02*
X-51835134Y59196267D01*
X-51882753Y59243886D01*
X-51930372Y59339124D01*
X-51930372Y59386743D01*
X-51882753Y59481981D01*
X-51835134Y59529600D01*
X-51739896Y59577220D01*
X-51549420Y59577220D01*
X-51454181Y59529600D01*
X-51406562Y59481981D01*
X-51358943Y59386743D01*
X-51358943Y59339124D01*
X-51406562Y59243886D01*
X-51454181Y59196267D01*
X-51549420Y59148648D01*
X-51739896Y59148648D01*
X-51835134Y59101029D01*
X-51882753Y59053410D01*
X-51930372Y58958172D01*
X-51930372Y58767696D01*
X-51882753Y58672458D01*
X-51835134Y58624839D01*
X-51739896Y58577220D01*
X-51549420Y58577220D01*
X-51454181Y58624839D01*
X-51406562Y58672458D01*
X-51358943Y58767696D01*
X-51358943Y58958172D01*
X-51406562Y59053410D01*
X-51454181Y59101029D01*
X-51549420Y59148648D01*
G04 #@! TO.C,J4*
X-26726658Y17699505D02*
X-26679039Y17651886D01*
X-26631420Y17509029D01*
X-26631420Y17413791D01*
X-26679039Y17270934D01*
X-26774277Y17175696D01*
X-26869515Y17128077D01*
X-27059991Y17080458D01*
X-27202848Y17080458D01*
X-27393324Y17128077D01*
X-27488562Y17175696D01*
X-27583800Y17270934D01*
X-27631420Y17413791D01*
X-27631420Y17509029D01*
X-27583800Y17651886D01*
X-27536181Y17699505D01*
X-26631420Y18270934D02*
X-26679039Y18175696D01*
X-26726658Y18128077D01*
X-26821896Y18080458D01*
X-27107610Y18080458D01*
X-27202848Y18128077D01*
X-27250467Y18175696D01*
X-27298086Y18270934D01*
X-27298086Y18413791D01*
X-27250467Y18509029D01*
X-27202848Y18556648D01*
X-27107610Y18604267D01*
X-26821896Y18604267D01*
X-26726658Y18556648D01*
X-26679039Y18509029D01*
X-26631420Y18413791D01*
X-26631420Y18270934D01*
X-27298086Y19032839D02*
X-26631420Y19032839D01*
X-27202848Y19032839D02*
X-27250467Y19080458D01*
X-27298086Y19175696D01*
X-27298086Y19318553D01*
X-27250467Y19413791D01*
X-27155229Y19461410D01*
X-26631420Y19461410D01*
X-27298086Y19937600D02*
X-26631420Y19937600D01*
X-27202848Y19937600D02*
X-27250467Y19985220D01*
X-27298086Y20080458D01*
X-27298086Y20223315D01*
X-27250467Y20318553D01*
X-27155229Y20366172D01*
X-26631420Y20366172D01*
X-26536181Y20604267D02*
X-26536181Y21366172D01*
X-27631420Y21794743D02*
X-27631420Y21889981D01*
X-27583800Y21985220D01*
X-27536181Y22032839D01*
X-27440943Y22080458D01*
X-27250467Y22128077D01*
X-27012372Y22128077D01*
X-26821896Y22080458D01*
X-26726658Y22032839D01*
X-26679039Y21985220D01*
X-26631420Y21889981D01*
X-26631420Y21794743D01*
X-26679039Y21699505D01*
X-26726658Y21651886D01*
X-26821896Y21604267D01*
X-27012372Y21556648D01*
X-27250467Y21556648D01*
X-27440943Y21604267D01*
X-27536181Y21651886D01*
X-27583800Y21699505D01*
X-27631420Y21794743D01*
X-26631420Y23080458D02*
X-26631420Y22509029D01*
X-26631420Y22794743D02*
X-27631420Y22794743D01*
X-27488562Y22699505D01*
X-27393324Y22604267D01*
X-27345705Y22509029D01*
X-26631420Y23413791D02*
X-27298086Y23937600D01*
X-27298086Y23413791D02*
X-26631420Y23937600D01*
X-27631420Y24509029D02*
X-27631420Y24604267D01*
X-27583800Y24699505D01*
X-27536181Y24747124D01*
X-27440943Y24794743D01*
X-27250467Y24842362D01*
X-27012372Y24842362D01*
X-26821896Y24794743D01*
X-26726658Y24747124D01*
X-26679039Y24699505D01*
X-26631420Y24604267D01*
X-26631420Y24509029D01*
X-26679039Y24413791D01*
X-26726658Y24366172D01*
X-26821896Y24318553D01*
X-27012372Y24270934D01*
X-27250467Y24270934D01*
X-27440943Y24318553D01*
X-27536181Y24366172D01*
X-27583800Y24413791D01*
X-27631420Y24509029D01*
X-26631420Y25794743D02*
X-26631420Y25223315D01*
X-26631420Y25509029D02*
X-27631420Y25509029D01*
X-27488562Y25413791D01*
X-27393324Y25318553D01*
X-27345705Y25223315D01*
X-31931420Y21104267D02*
X-31217134Y21104267D01*
X-31074277Y21056648D01*
X-30979039Y20961410D01*
X-30931420Y20818553D01*
X-30931420Y20723315D01*
X-31598086Y22009029D02*
X-30931420Y22009029D01*
X-31979039Y21770934D02*
X-31264753Y21532839D01*
X-31264753Y22151886D01*
G04 #@! TO.C,J7*
X-26853658Y55164505D02*
X-26806039Y55116886D01*
X-26758420Y54974029D01*
X-26758420Y54878791D01*
X-26806039Y54735934D01*
X-26901277Y54640696D01*
X-26996515Y54593077D01*
X-27186991Y54545458D01*
X-27329848Y54545458D01*
X-27520324Y54593077D01*
X-27615562Y54640696D01*
X-27710800Y54735934D01*
X-27758420Y54878791D01*
X-27758420Y54974029D01*
X-27710800Y55116886D01*
X-27663181Y55164505D01*
X-26758420Y55735934D02*
X-26806039Y55640696D01*
X-26853658Y55593077D01*
X-26948896Y55545458D01*
X-27234610Y55545458D01*
X-27329848Y55593077D01*
X-27377467Y55640696D01*
X-27425086Y55735934D01*
X-27425086Y55878791D01*
X-27377467Y55974029D01*
X-27329848Y56021648D01*
X-27234610Y56069267D01*
X-26948896Y56069267D01*
X-26853658Y56021648D01*
X-26806039Y55974029D01*
X-26758420Y55878791D01*
X-26758420Y55735934D01*
X-27425086Y56497839D02*
X-26758420Y56497839D01*
X-27329848Y56497839D02*
X-27377467Y56545458D01*
X-27425086Y56640696D01*
X-27425086Y56783553D01*
X-27377467Y56878791D01*
X-27282229Y56926410D01*
X-26758420Y56926410D01*
X-27425086Y57402600D02*
X-26758420Y57402600D01*
X-27329848Y57402600D02*
X-27377467Y57450220D01*
X-27425086Y57545458D01*
X-27425086Y57688315D01*
X-27377467Y57783553D01*
X-27282229Y57831172D01*
X-26758420Y57831172D01*
X-26663181Y58069267D02*
X-26663181Y58831172D01*
X-27758420Y59259743D02*
X-27758420Y59354981D01*
X-27710800Y59450220D01*
X-27663181Y59497839D01*
X-27567943Y59545458D01*
X-27377467Y59593077D01*
X-27139372Y59593077D01*
X-26948896Y59545458D01*
X-26853658Y59497839D01*
X-26806039Y59450220D01*
X-26758420Y59354981D01*
X-26758420Y59259743D01*
X-26806039Y59164505D01*
X-26853658Y59116886D01*
X-26948896Y59069267D01*
X-27139372Y59021648D01*
X-27377467Y59021648D01*
X-27567943Y59069267D01*
X-27663181Y59116886D01*
X-27710800Y59164505D01*
X-27758420Y59259743D01*
X-26758420Y60545458D02*
X-26758420Y59974029D01*
X-26758420Y60259743D02*
X-27758420Y60259743D01*
X-27615562Y60164505D01*
X-27520324Y60069267D01*
X-27472705Y59974029D01*
X-26758420Y60878791D02*
X-27425086Y61402600D01*
X-27425086Y60878791D02*
X-26758420Y61402600D01*
X-27758420Y61974029D02*
X-27758420Y62069267D01*
X-27710800Y62164505D01*
X-27663181Y62212124D01*
X-27567943Y62259743D01*
X-27377467Y62307362D01*
X-27139372Y62307362D01*
X-26948896Y62259743D01*
X-26853658Y62212124D01*
X-26806039Y62164505D01*
X-26758420Y62069267D01*
X-26758420Y61974029D01*
X-26806039Y61878791D01*
X-26853658Y61831172D01*
X-26948896Y61783553D01*
X-27139372Y61735934D01*
X-27377467Y61735934D01*
X-27567943Y61783553D01*
X-27663181Y61831172D01*
X-27710800Y61878791D01*
X-27758420Y61974029D01*
X-26758420Y63259743D02*
X-26758420Y62688315D01*
X-26758420Y62974029D02*
X-27758420Y62974029D01*
X-27615562Y62878791D01*
X-27520324Y62783553D01*
X-27472705Y62688315D01*
X-32058420Y58569267D02*
X-31344134Y58569267D01*
X-31201277Y58521648D01*
X-31106039Y58426410D01*
X-31058420Y58283553D01*
X-31058420Y58188315D01*
X-32058420Y58950220D02*
X-32058420Y59616886D01*
X-31058420Y59188315D01*
G04 #@! TO.C,J15*
X-48824658Y17699505D02*
X-48777039Y17651886D01*
X-48729420Y17509029D01*
X-48729420Y17413791D01*
X-48777039Y17270934D01*
X-48872277Y17175696D01*
X-48967515Y17128077D01*
X-49157991Y17080458D01*
X-49300848Y17080458D01*
X-49491324Y17128077D01*
X-49586562Y17175696D01*
X-49681800Y17270934D01*
X-49729420Y17413791D01*
X-49729420Y17509029D01*
X-49681800Y17651886D01*
X-49634181Y17699505D01*
X-48729420Y18270934D02*
X-48777039Y18175696D01*
X-48824658Y18128077D01*
X-48919896Y18080458D01*
X-49205610Y18080458D01*
X-49300848Y18128077D01*
X-49348467Y18175696D01*
X-49396086Y18270934D01*
X-49396086Y18413791D01*
X-49348467Y18509029D01*
X-49300848Y18556648D01*
X-49205610Y18604267D01*
X-48919896Y18604267D01*
X-48824658Y18556648D01*
X-48777039Y18509029D01*
X-48729420Y18413791D01*
X-48729420Y18270934D01*
X-49396086Y19032839D02*
X-48729420Y19032839D01*
X-49300848Y19032839D02*
X-49348467Y19080458D01*
X-49396086Y19175696D01*
X-49396086Y19318553D01*
X-49348467Y19413791D01*
X-49253229Y19461410D01*
X-48729420Y19461410D01*
X-49396086Y19937600D02*
X-48729420Y19937600D01*
X-49300848Y19937600D02*
X-49348467Y19985220D01*
X-49396086Y20080458D01*
X-49396086Y20223315D01*
X-49348467Y20318553D01*
X-49253229Y20366172D01*
X-48729420Y20366172D01*
X-48634181Y20604267D02*
X-48634181Y21366172D01*
X-49729420Y21794743D02*
X-49729420Y21889981D01*
X-49681800Y21985220D01*
X-49634181Y22032839D01*
X-49538943Y22080458D01*
X-49348467Y22128077D01*
X-49110372Y22128077D01*
X-48919896Y22080458D01*
X-48824658Y22032839D01*
X-48777039Y21985220D01*
X-48729420Y21889981D01*
X-48729420Y21794743D01*
X-48777039Y21699505D01*
X-48824658Y21651886D01*
X-48919896Y21604267D01*
X-49110372Y21556648D01*
X-49348467Y21556648D01*
X-49538943Y21604267D01*
X-49634181Y21651886D01*
X-49681800Y21699505D01*
X-49729420Y21794743D01*
X-48729420Y23080458D02*
X-48729420Y22509029D01*
X-48729420Y22794743D02*
X-49729420Y22794743D01*
X-49586562Y22699505D01*
X-49491324Y22604267D01*
X-49443705Y22509029D01*
X-48729420Y23413791D02*
X-49396086Y23937600D01*
X-49396086Y23413791D02*
X-48729420Y23937600D01*
X-49729420Y24509029D02*
X-49729420Y24604267D01*
X-49681800Y24699505D01*
X-49634181Y24747124D01*
X-49538943Y24794743D01*
X-49348467Y24842362D01*
X-49110372Y24842362D01*
X-48919896Y24794743D01*
X-48824658Y24747124D01*
X-48777039Y24699505D01*
X-48729420Y24604267D01*
X-48729420Y24509029D01*
X-48777039Y24413791D01*
X-48824658Y24366172D01*
X-48919896Y24318553D01*
X-49110372Y24270934D01*
X-49348467Y24270934D01*
X-49538943Y24318553D01*
X-49634181Y24366172D01*
X-49681800Y24413791D01*
X-49729420Y24509029D01*
X-48729420Y25794743D02*
X-48729420Y25223315D01*
X-48729420Y25509029D02*
X-49729420Y25509029D01*
X-49586562Y25413791D01*
X-49491324Y25318553D01*
X-49443705Y25223315D01*
X-54029420Y20628077D02*
X-53315134Y20628077D01*
X-53172277Y20580458D01*
X-53077039Y20485220D01*
X-53029420Y20342362D01*
X-53029420Y20247124D01*
X-53029420Y21628077D02*
X-53029420Y21056648D01*
X-53029420Y21342362D02*
X-54029420Y21342362D01*
X-53886562Y21247124D01*
X-53791324Y21151886D01*
X-53743705Y21056648D01*
X-54029420Y22532839D02*
X-54029420Y22056648D01*
X-53553229Y22009029D01*
X-53600848Y22056648D01*
X-53648467Y22151886D01*
X-53648467Y22389981D01*
X-53600848Y22485220D01*
X-53553229Y22532839D01*
X-53457991Y22580458D01*
X-53219896Y22580458D01*
X-53124658Y22532839D01*
X-53077039Y22485220D01*
X-53029420Y22389981D01*
X-53029420Y22151886D01*
X-53077039Y22056648D01*
X-53124658Y22009029D01*
G04 #@! TO.C,R2*
X-43859296Y15862381D02*
X-43811677Y15910000D01*
X-43716439Y15957620D01*
X-43478343Y15957620D01*
X-43383105Y15910000D01*
X-43335486Y15862381D01*
X-43287867Y15767143D01*
X-43287867Y15671905D01*
X-43335486Y15529048D01*
X-43906915Y14957620D01*
X-43287867Y14957620D01*
X-42906915Y15862381D02*
X-42859296Y15910000D01*
X-42764058Y15957620D01*
X-42525962Y15957620D01*
X-42430724Y15910000D01*
X-42383105Y15862381D01*
X-42335486Y15767143D01*
X-42335486Y15671905D01*
X-42383105Y15529048D01*
X-42954534Y14957620D01*
X-42335486Y14957620D01*
X-41716439Y15957620D02*
X-41621200Y15957620D01*
X-41525962Y15910000D01*
X-41478343Y15862381D01*
X-41430724Y15767143D01*
X-41383105Y15576667D01*
X-41383105Y15338572D01*
X-41430724Y15148096D01*
X-41478343Y15052858D01*
X-41525962Y15005239D01*
X-41621200Y14957620D01*
X-41716439Y14957620D01*
X-41811677Y15005239D01*
X-41859296Y15052858D01*
X-41906915Y15148096D01*
X-41954534Y15338572D01*
X-41954534Y15576667D01*
X-41906915Y15767143D01*
X-41859296Y15862381D01*
X-41811677Y15910000D01*
X-41716439Y15957620D01*
X-42787867Y17327620D02*
X-43121200Y17803810D01*
X-43359296Y17327620D02*
X-43359296Y18327620D01*
X-42978343Y18327620D01*
X-42883105Y18280000D01*
X-42835486Y18232381D01*
X-42787867Y18137143D01*
X-42787867Y17994286D01*
X-42835486Y17899048D01*
X-42883105Y17851429D01*
X-42978343Y17803810D01*
X-43359296Y17803810D01*
X-42406915Y18232381D02*
X-42359296Y18280000D01*
X-42264058Y18327620D01*
X-42025962Y18327620D01*
X-41930724Y18280000D01*
X-41883105Y18232381D01*
X-41835486Y18137143D01*
X-41835486Y18041905D01*
X-41883105Y17899048D01*
X-42454534Y17327620D01*
X-41835486Y17327620D01*
G04 #@! TO.C,R3*
X-52692381Y37674705D02*
X-52740000Y37722324D01*
X-52787620Y37817562D01*
X-52787620Y38055658D01*
X-52740000Y38150896D01*
X-52692381Y38198515D01*
X-52597143Y38246134D01*
X-52501905Y38246134D01*
X-52359048Y38198515D01*
X-51787620Y37627086D01*
X-51787620Y38246134D01*
X-52692381Y38627086D02*
X-52740000Y38674705D01*
X-52787620Y38769943D01*
X-52787620Y39008039D01*
X-52740000Y39103277D01*
X-52692381Y39150896D01*
X-52597143Y39198515D01*
X-52501905Y39198515D01*
X-52359048Y39150896D01*
X-51787620Y38579467D01*
X-51787620Y39198515D01*
X-52787620Y39817562D02*
X-52787620Y39912800D01*
X-52740000Y40008039D01*
X-52692381Y40055658D01*
X-52597143Y40103277D01*
X-52406667Y40150896D01*
X-52168572Y40150896D01*
X-51978096Y40103277D01*
X-51882858Y40055658D01*
X-51835239Y40008039D01*
X-51787620Y39912800D01*
X-51787620Y39817562D01*
X-51835239Y39722324D01*
X-51882858Y39674705D01*
X-51978096Y39627086D01*
X-52168572Y39579467D01*
X-52406667Y39579467D01*
X-52597143Y39627086D01*
X-52692381Y39674705D01*
X-52740000Y39722324D01*
X-52787620Y39817562D01*
X-54157620Y38746134D02*
X-54633810Y38412800D01*
X-54157620Y38174705D02*
X-55157620Y38174705D01*
X-55157620Y38555658D01*
X-55110000Y38650896D01*
X-55062381Y38698515D01*
X-54967143Y38746134D01*
X-54824286Y38746134D01*
X-54729048Y38698515D01*
X-54681429Y38650896D01*
X-54633810Y38555658D01*
X-54633810Y38174705D01*
X-55157620Y39079467D02*
X-55157620Y39698515D01*
X-54776667Y39365181D01*
X-54776667Y39508039D01*
X-54729048Y39603277D01*
X-54681429Y39650896D01*
X-54586191Y39698515D01*
X-54348096Y39698515D01*
X-54252858Y39650896D01*
X-54205239Y39603277D01*
X-54157620Y39508039D01*
X-54157620Y39222324D01*
X-54205239Y39127086D01*
X-54252858Y39079467D01*
G04 #@! TO.C,R4*
X-759020Y11647562D02*
X-759020Y11076134D01*
X-759020Y11361848D02*
X-1759020Y11361848D01*
X-1616162Y11266610D01*
X-1520924Y11171372D01*
X-1473305Y11076134D01*
X-1759020Y12266610D02*
X-1759020Y12361848D01*
X-1711400Y12457086D01*
X-1663781Y12504705D01*
X-1568543Y12552324D01*
X-1378067Y12599943D01*
X-1139972Y12599943D01*
X-949496Y12552324D01*
X-854258Y12504705D01*
X-806639Y12457086D01*
X-759020Y12361848D01*
X-759020Y12266610D01*
X-806639Y12171372D01*
X-854258Y12123753D01*
X-949496Y12076134D01*
X-1139972Y12028515D01*
X-1378067Y12028515D01*
X-1568543Y12076134D01*
X-1663781Y12123753D01*
X-1711400Y12171372D01*
X-1759020Y12266610D01*
X-759020Y13028515D02*
X-1759020Y13028515D01*
X-1139972Y13123753D02*
X-759020Y13409467D01*
X-1425686Y13409467D02*
X-1044734Y13028515D01*
X-3129020Y12076134D02*
X-3605210Y11742800D01*
X-3129020Y11504705D02*
X-4129020Y11504705D01*
X-4129020Y11885658D01*
X-4081400Y11980896D01*
X-4033781Y12028515D01*
X-3938543Y12076134D01*
X-3795686Y12076134D01*
X-3700448Y12028515D01*
X-3652829Y11980896D01*
X-3605210Y11885658D01*
X-3605210Y11504705D01*
X-3795686Y12933277D02*
X-3129020Y12933277D01*
X-4176639Y12695181D02*
X-3462353Y12457086D01*
X-3462353Y13076134D01*
G04 #@! TO.C,U2*
X-49321639Y35190705D02*
X-49274020Y35333562D01*
X-49274020Y35571658D01*
X-49321639Y35666896D01*
X-49369258Y35714515D01*
X-49464496Y35762134D01*
X-49559734Y35762134D01*
X-49654972Y35714515D01*
X-49702591Y35666896D01*
X-49750210Y35571658D01*
X-49797829Y35381181D01*
X-49845448Y35285943D01*
X-49893067Y35238324D01*
X-49988305Y35190705D01*
X-50083543Y35190705D01*
X-50178781Y35238324D01*
X-50226400Y35285943D01*
X-50274020Y35381181D01*
X-50274020Y35619277D01*
X-50226400Y35762134D01*
X-49274020Y36190705D02*
X-50274020Y36190705D01*
X-49274020Y36762134D01*
X-50274020Y36762134D01*
X-50274020Y37143086D02*
X-50274020Y37809753D01*
X-49274020Y37381181D01*
X-49940686Y38619277D02*
X-49274020Y38619277D01*
X-50321639Y38381181D02*
X-49607353Y38143086D01*
X-49607353Y38762134D01*
X-49274020Y39143086D02*
X-50274020Y39143086D01*
X-49797829Y39143086D02*
X-49797829Y39714515D01*
X-49274020Y39714515D02*
X-50274020Y39714515D01*
X-49369258Y40762134D02*
X-49321639Y40714515D01*
X-49274020Y40571658D01*
X-49274020Y40476420D01*
X-49321639Y40333562D01*
X-49416877Y40238324D01*
X-49512115Y40190705D01*
X-49702591Y40143086D01*
X-49845448Y40143086D01*
X-50035924Y40190705D01*
X-50131162Y40238324D01*
X-50226400Y40333562D01*
X-50274020Y40476420D01*
X-50274020Y40571658D01*
X-50226400Y40714515D01*
X-50178781Y40762134D01*
X-49274020Y41714515D02*
X-49274020Y41143086D01*
X-49274020Y41428800D02*
X-50274020Y41428800D01*
X-50131162Y41333562D01*
X-50035924Y41238324D01*
X-49988305Y41143086D01*
X-50178781Y42095467D02*
X-50226400Y42143086D01*
X-50274020Y42238324D01*
X-50274020Y42476420D01*
X-50226400Y42571658D01*
X-50178781Y42619277D01*
X-50083543Y42666896D01*
X-49988305Y42666896D01*
X-49845448Y42619277D01*
X-49274020Y42047848D01*
X-49274020Y42666896D01*
X-50274020Y43571658D02*
X-50274020Y43095467D01*
X-49797829Y43047848D01*
X-49845448Y43095467D01*
X-49893067Y43190705D01*
X-49893067Y43428800D01*
X-49845448Y43524039D01*
X-49797829Y43571658D01*
X-49702591Y43619277D01*
X-49464496Y43619277D01*
X-49369258Y43571658D01*
X-49321639Y43524039D01*
X-49274020Y43428800D01*
X-49274020Y43190705D01*
X-49321639Y43095467D01*
X-49369258Y43047848D01*
X-49274020Y44047848D02*
X-50274020Y44047848D01*
X-49274020Y44619277D01*
X-50274020Y44619277D01*
X-40324020Y39166896D02*
X-39514496Y39166896D01*
X-39419258Y39214515D01*
X-39371639Y39262134D01*
X-39324020Y39357372D01*
X-39324020Y39547848D01*
X-39371639Y39643086D01*
X-39419258Y39690705D01*
X-39514496Y39738324D01*
X-40324020Y39738324D01*
X-40228781Y40166896D02*
X-40276400Y40214515D01*
X-40324020Y40309753D01*
X-40324020Y40547848D01*
X-40276400Y40643086D01*
X-40228781Y40690705D01*
X-40133543Y40738324D01*
X-40038305Y40738324D01*
X-39895448Y40690705D01*
X-39324020Y40119277D01*
X-39324020Y40738324D01*
G04 #@! TO.C,J1*
X-47429134Y48016010D02*
X-47429134Y48492200D01*
X-47143420Y47920772D02*
X-48143420Y48254105D01*
X-47143420Y48587439D01*
X-47810086Y49349343D02*
X-47143420Y49349343D01*
X-47810086Y48920772D02*
X-47286277Y48920772D01*
X-47191039Y48968391D01*
X-47143420Y49063629D01*
X-47143420Y49206486D01*
X-47191039Y49301724D01*
X-47238658Y49349343D01*
X-47143420Y50254105D02*
X-48143420Y50254105D01*
X-47191039Y50254105D02*
X-47143420Y50158867D01*
X-47143420Y49968391D01*
X-47191039Y49873153D01*
X-47238658Y49825534D01*
X-47333896Y49777915D01*
X-47619610Y49777915D01*
X-47714848Y49825534D01*
X-47762467Y49873153D01*
X-47810086Y49968391D01*
X-47810086Y50158867D01*
X-47762467Y50254105D01*
X-47143420Y50730296D02*
X-47810086Y50730296D01*
X-48143420Y50730296D02*
X-48095800Y50682677D01*
X-48048181Y50730296D01*
X-48095800Y50777915D01*
X-48143420Y50730296D01*
X-48048181Y50730296D01*
X-47143420Y51349343D02*
X-47191039Y51254105D01*
X-47238658Y51206486D01*
X-47333896Y51158867D01*
X-47619610Y51158867D01*
X-47714848Y51206486D01*
X-47762467Y51254105D01*
X-47810086Y51349343D01*
X-47810086Y51492200D01*
X-47762467Y51587439D01*
X-47714848Y51635058D01*
X-47619610Y51682677D01*
X-47333896Y51682677D01*
X-47238658Y51635058D01*
X-47191039Y51587439D01*
X-47143420Y51492200D01*
X-47143420Y51349343D01*
X-48143420Y52396962D02*
X-47429134Y52396962D01*
X-47286277Y52349343D01*
X-47191039Y52254105D01*
X-47143420Y52111248D01*
X-47143420Y52016010D01*
X-47143420Y53301724D02*
X-47667229Y53301724D01*
X-47762467Y53254105D01*
X-47810086Y53158867D01*
X-47810086Y52968391D01*
X-47762467Y52873153D01*
X-47191039Y53301724D02*
X-47143420Y53206486D01*
X-47143420Y52968391D01*
X-47191039Y52873153D01*
X-47286277Y52825534D01*
X-47381515Y52825534D01*
X-47476753Y52873153D01*
X-47524372Y52968391D01*
X-47524372Y53206486D01*
X-47571991Y53301724D01*
X-47191039Y54206486D02*
X-47143420Y54111248D01*
X-47143420Y53920772D01*
X-47191039Y53825534D01*
X-47238658Y53777915D01*
X-47333896Y53730296D01*
X-47619610Y53730296D01*
X-47714848Y53777915D01*
X-47762467Y53825534D01*
X-47810086Y53920772D01*
X-47810086Y54111248D01*
X-47762467Y54206486D01*
X-47143420Y54635058D02*
X-48143420Y54635058D01*
X-47524372Y54730296D02*
X-47143420Y55016010D01*
X-47810086Y55016010D02*
X-47429134Y54635058D01*
X-48143420Y55349343D02*
X-48143420Y55968391D01*
X-47762467Y55635058D01*
X-47762467Y55777915D01*
X-47714848Y55873153D01*
X-47667229Y55920772D01*
X-47571991Y55968391D01*
X-47333896Y55968391D01*
X-47238658Y55920772D01*
X-47191039Y55873153D01*
X-47143420Y55777915D01*
X-47143420Y55492200D01*
X-47191039Y55396962D01*
X-47238658Y55349343D01*
X-58393420Y51658867D02*
X-57679134Y51658867D01*
X-57536277Y51611248D01*
X-57441039Y51516010D01*
X-57393420Y51373153D01*
X-57393420Y51277915D01*
X-57393420Y52658867D02*
X-57393420Y52087439D01*
X-57393420Y52373153D02*
X-58393420Y52373153D01*
X-58250562Y52277915D01*
X-58155324Y52182677D01*
X-58107705Y52087439D01*
G04 #@! TD*
M02*
