G04 #@! TF.GenerationSoftware,KiCad,Pcbnew,(5.0.2)-1*
G04 #@! TF.CreationDate,2019-03-30T17:50:24-04:00*
G04 #@! TF.ProjectId,po_midi_adapter,706f5f6d-6964-4695-9f61-646170746572,rev?*
G04 #@! TF.SameCoordinates,PXa2393f8PY7537788*
G04 #@! TF.FileFunction,Other,User*
%FSLAX46Y46*%
G04 Gerber Fmt 4.6, Leading zero omitted, Abs format (unit mm)*
G04 Created by KiCad (PCBNEW (5.0.2)-1) date 2019-03-30 5:50:24 PM*
%MOMM*%
%LPD*%
G01*
G04 APERTURE LIST*
%ADD10C,0.050000*%
G04 APERTURE END LIST*
D10*
G04 #@! TO.C,J28*
X-27887800Y46456600D02*
G75*
G03X-27887800Y46456600I-1500000J0D01*
G01*
G04 #@! TO.C,J27*
X-41159300Y12103100D02*
G75*
G03X-41159300Y12103100I-1500000J0D01*
G01*
G04 #@! TO.C,J26*
X-52144800Y12103100D02*
G75*
G03X-52144800Y12103100I-1500000J0D01*
G01*
G04 #@! TO.C,J25*
X-38911400Y58978800D02*
G75*
G03X-38911400Y58978800I-1500000J0D01*
G01*
G04 #@! TO.C,J24*
X-49884200Y46482000D02*
G75*
G03X-49884200Y46482000I-1500000J0D01*
G01*
G04 #@! TO.C,J23*
X-49909600Y33959800D02*
G75*
G03X-49909600Y33959800I-1500000J0D01*
G01*
G04 #@! TO.C,J22*
X-38911400Y21463000D02*
G75*
G03X-38911400Y21463000I-1500000J0D01*
G01*
G04 #@! TO.C,J21*
X-27887800Y8991600D02*
G75*
G03X-27887800Y8991600I-1500000J0D01*
G01*
G04 #@! TO.C,J20*
X-16915000Y8966200D02*
G75*
G03X-16915000Y8966200I-1500000J0D01*
G01*
G04 #@! TO.C,J19*
X-5891400Y8966200D02*
G75*
G03X-5891400Y8966200I-1500000J0D01*
G01*
G04 #@! TO.C,J17*
X-5891400Y58978800D02*
G75*
G03X-5891400Y58978800I-1500000J0D01*
G01*
G04 #@! TO.C,J16*
X-16915000Y59004200D02*
G75*
G03X-16915000Y59004200I-1500000J0D01*
G01*
G04 #@! TO.C,J14*
X-38886000Y46482000D02*
G75*
G03X-38886000Y46482000I-1500000J0D01*
G01*
G04 #@! TO.C,J13*
X-16902300Y46456600D02*
G75*
G03X-16902300Y46456600I-1500000J0D01*
G01*
G04 #@! TO.C,J12*
X-5916800Y46456600D02*
G75*
G03X-5916800Y46456600I-1500000J0D01*
G01*
G04 #@! TO.C,J11*
X-38911400Y33959800D02*
G75*
G03X-38911400Y33959800I-1500000J0D01*
G01*
G04 #@! TO.C,J10*
X-27887800Y34010600D02*
G75*
G03X-27887800Y34010600I-1500000J0D01*
G01*
G04 #@! TO.C,J9*
X-16889600Y33959800D02*
G75*
G03X-16889600Y33959800I-1500000J0D01*
G01*
G04 #@! TO.C,J8*
X-5916800Y33947100D02*
G75*
G03X-5916800Y33947100I-1500000J0D01*
G01*
G04 #@! TO.C,J6*
X-5891400Y21488400D02*
G75*
G03X-5891400Y21488400I-1500000J0D01*
G01*
G04 #@! TO.C,J5*
X-16889600Y21463000D02*
G75*
G03X-16889600Y21463000I-1500000J0D01*
G01*
G04 #@! TO.C,J18*
X-49431800Y57229600D02*
X-49431800Y60829600D01*
X-55581800Y57229600D02*
X-49431800Y57229600D01*
X-55581800Y60829600D02*
X-55581800Y57229600D01*
X-49431800Y60829600D02*
X-55581800Y60829600D01*
G04 #@! TO.C,J4*
X-27633800Y21437600D02*
G75*
G03X-27633800Y21437600I-1500000J0D01*
G01*
G04 #@! TO.C,J7*
X-27760800Y58902600D02*
G75*
G03X-27760800Y58902600I-1500000J0D01*
G01*
G04 #@! TO.C,J15*
X-49731800Y21437600D02*
G75*
G03X-49731800Y21437600I-1500000J0D01*
G01*
G04 #@! TO.C,R2*
X-36491200Y19280000D02*
X-48751200Y19280000D01*
X-36491200Y16280000D02*
X-36491200Y19280000D01*
X-48751200Y16280000D02*
X-36491200Y16280000D01*
X-48751200Y19280000D02*
X-48751200Y16280000D01*
G04 #@! TO.C,R3*
X-56110000Y32782800D02*
X-53110000Y32782800D01*
X-53110000Y32782800D02*
X-53110000Y45042800D01*
X-53110000Y45042800D02*
X-56110000Y45042800D01*
X-56110000Y45042800D02*
X-56110000Y32782800D01*
G04 #@! TO.C,R4*
X-5081400Y6112800D02*
X-2081400Y6112800D01*
X-2081400Y6112800D02*
X-2081400Y18372800D01*
X-2081400Y18372800D02*
X-5081400Y18372800D01*
X-5081400Y18372800D02*
X-5081400Y6112800D01*
G04 #@! TO.C,S1*
X-47287000Y54107400D02*
X-46587000Y54107400D01*
X-47287000Y51607400D02*
X-47287000Y54107400D01*
X-46587000Y51607400D02*
X-47287000Y51607400D01*
X-46587000Y50457400D02*
X-46587000Y51607400D01*
X-37487000Y50457400D02*
X-46587000Y50457400D01*
X-37487000Y51607400D02*
X-37487000Y50457400D01*
X-36787000Y51607400D02*
X-37487000Y51607400D01*
X-36787000Y54107400D02*
X-36787000Y51607400D01*
X-37487000Y54107400D02*
X-36787000Y54107400D01*
X-37487000Y55257400D02*
X-37487000Y54107400D01*
X-46587000Y55257400D02*
X-37487000Y55257400D01*
X-46587000Y54107400D02*
X-46587000Y55257400D01*
G04 #@! TO.C,U2*
X-30606400Y44838800D02*
X-48956400Y44838800D01*
X-48956400Y44838800D02*
X-48956400Y35038800D01*
X-48956400Y35038800D02*
X-30606400Y35038800D01*
X-30606400Y35038800D02*
X-30606400Y44838800D01*
G04 #@! TO.C,J1*
X-67345800Y47392200D02*
X-48345800Y47392200D01*
X-48345800Y47392200D02*
X-48345800Y56592200D01*
X-48345800Y56592200D02*
X-67345800Y56592200D01*
X-67345800Y56592200D02*
X-67345800Y47392200D01*
G04 #@! TD*
M02*
