G04 #@! TF.GenerationSoftware,KiCad,Pcbnew,(5.0.2)-1*
G04 #@! TF.CreationDate,2019-04-04T01:38:51-04:00*
G04 #@! TF.ProjectId,po_midi_adapter,706f5f6d-6964-4695-9f61-646170746572,rev?*
G04 #@! TF.SameCoordinates,PXa2393f8PY7537788*
G04 #@! TF.FileFunction,Copper,L2,Bot*
G04 #@! TF.FilePolarity,Positive*
%FSLAX46Y46*%
G04 Gerber Fmt 4.6, Leading zero omitted, Abs format (unit mm)*
G04 Created by KiCad (PCBNEW (5.0.2)-1) date 4/4/2019 1:38:51 AM*
%MOMM*%
%LPD*%
G01*
G04 APERTURE LIST*
G04 #@! TA.AperFunction,ComponentPad*
%ADD10C,1.700000*%
G04 #@! TD*
G04 #@! TA.AperFunction,ComponentPad*
%ADD11R,1.600000X1.600000*%
G04 #@! TD*
G04 #@! TA.AperFunction,ComponentPad*
%ADD12C,1.550000*%
G04 #@! TD*
G04 #@! TA.AperFunction,ComponentPad*
%ADD13C,2.200000*%
G04 #@! TD*
G04 #@! TA.AperFunction,ComponentPad*
%ADD14O,2.000000X2.000000*%
G04 #@! TD*
G04 #@! TA.AperFunction,ComponentPad*
%ADD15R,1.900000X1.900000*%
G04 #@! TD*
G04 #@! TA.AperFunction,ComponentPad*
%ADD16C,2.499360*%
G04 #@! TD*
G04 #@! TA.AperFunction,ComponentPad*
%ADD17O,1.600000X1.600000*%
G04 #@! TD*
G04 #@! TA.AperFunction,ComponentPad*
%ADD18C,1.600000*%
G04 #@! TD*
G04 #@! TA.AperFunction,ComponentPad*
%ADD19C,1.308000*%
G04 #@! TD*
G04 #@! TA.AperFunction,ComponentPad*
%ADD20R,1.308000X1.308000*%
G04 #@! TD*
G04 #@! TA.AperFunction,ComponentPad*
%ADD21C,2.800000*%
G04 #@! TD*
G04 #@! TA.AperFunction,Conductor*
%ADD22C,0.508000*%
G04 #@! TD*
G04 #@! TA.AperFunction,Conductor*
%ADD23C,0.635000*%
G04 #@! TD*
G04 #@! TA.AperFunction,Conductor*
%ADD24C,0.254000*%
G04 #@! TD*
G04 APERTURE END LIST*
D10*
G04 #@! TO.P,U1,17*
G04 #@! TO.N,/GPIO_9*
X-10337800Y43408600D03*
G04 #@! TO.P,U1,18*
G04 #@! TO.N,N/C*
X-10337800Y45948600D03*
G04 #@! TO.P,U1,19*
X-10337800Y48488600D03*
G04 #@! TO.P,U1,20*
X-10337800Y51028600D03*
G04 #@! TO.P,U1,16*
X-10337800Y40868600D03*
G04 #@! TO.P,U1,15*
X-10337800Y38328600D03*
G04 #@! TO.P,U1,14*
G04 #@! TO.N,/GPIO_10*
X-10337800Y35788600D03*
G04 #@! TO.P,U1,21*
G04 #@! TO.N,N/C*
X-10337800Y53568600D03*
G04 #@! TO.P,U1,22*
G04 #@! TO.N,/GPIO_13*
X-10337800Y56108600D03*
G04 #@! TO.P,U1,23*
G04 #@! TO.N,N/C*
X-10337800Y58648600D03*
G04 #@! TO.P,U1,24*
G04 #@! TO.N,/GPIO_14*
X-10337800Y61188600D03*
G04 #@! TO.P,U1,30*
G04 #@! TO.N,/GPIO_16*
X-25577800Y61188600D03*
G04 #@! TO.P,U1,31*
G04 #@! TO.N,/GPIO_15*
X-25577800Y58648600D03*
G04 #@! TO.P,U1,32*
G04 #@! TO.N,/GPIO_WRITE*
X-25577800Y56108600D03*
G04 #@! TO.P,U1,33*
G04 #@! TO.N,/GPIO_PLAY*
X-25577800Y53568600D03*
G04 #@! TO.P,U1,34*
G04 #@! TO.N,N/C*
X-25577800Y51028600D03*
G04 #@! TO.P,U1,35*
G04 #@! TO.N,/GPIO_12*
X-25577800Y48488600D03*
G04 #@! TO.P,U1,36*
G04 #@! TO.N,/GPIO_11*
X-25577800Y45948600D03*
G04 #@! TO.P,U1,37*
G04 #@! TO.N,/AUDIO_RING*
X-25577800Y43408600D03*
G04 #@! TO.P,U1,13*
G04 #@! TO.N,/GPIO_6*
X-10337800Y33248600D03*
G04 #@! TO.P,U1,12*
G04 #@! TO.N,/GPIO_5*
X-10337800Y30708600D03*
G04 #@! TO.P,U1,11*
G04 #@! TO.N,N/C*
X-10337800Y28168600D03*
G04 #@! TO.P,U1,10*
G04 #@! TO.N,/MIDI_1_OUT*
X-10337800Y25628600D03*
G04 #@! TO.P,U1,9*
G04 #@! TO.N,N/C*
X-10337800Y23088600D03*
G04 #@! TO.P,U1,8*
G04 #@! TO.N,/GPIO_2*
X-10337800Y20548600D03*
G04 #@! TO.P,U1,7*
G04 #@! TO.N,/GPIO_1*
X-10337800Y18008600D03*
G04 #@! TO.P,U1,6*
G04 #@! TO.N,N/C*
X-10337800Y15468600D03*
G04 #@! TO.P,U1,5*
G04 #@! TO.N,/GPIO_PATTERN*
X-10337800Y12928600D03*
G04 #@! TO.P,U1,4*
G04 #@! TO.N,/GPIO_SOUND*
X-10337800Y10388600D03*
G04 #@! TO.P,U1,3*
G04 #@! TO.N,N/C*
X-10337800Y7848600D03*
G04 #@! TO.P,U1,2*
X-10337800Y5308600D03*
D11*
G04 #@! TO.P,U1,1*
G04 #@! TO.N,GND*
X-10337800Y2768600D03*
D10*
G04 #@! TO.P,U1,38*
G04 #@! TO.N,/AUDIO_TIP*
X-25577800Y40868600D03*
G04 #@! TO.P,U1,39*
G04 #@! TO.N,GND*
X-25577800Y38328600D03*
D12*
G04 #@! TO.P,U1,40*
G04 #@! TO.N,N/C*
X-25577800Y35788600D03*
G04 #@! TO.P,U1,41*
G04 #@! TO.N,/GPIO_7*
X-25577800Y33248600D03*
D10*
G04 #@! TO.P,U1,42*
G04 #@! TO.N,/GPIO_8*
X-25577800Y30708600D03*
G04 #@! TO.P,U1,43*
G04 #@! TO.N,/GPIO_FX*
X-25577800Y28168600D03*
G04 #@! TO.P,U1,44*
G04 #@! TO.N,/GPIO_SPECIAL*
X-25577800Y25628600D03*
G04 #@! TO.P,U1,45*
G04 #@! TO.N,/GPIO_4*
X-25577800Y23088600D03*
G04 #@! TO.P,U1,46*
G04 #@! TO.N,/GPIO_3*
X-25577800Y20548600D03*
D12*
G04 #@! TO.P,U1,47*
G04 #@! TO.N,N/C*
X-25577800Y18008600D03*
D10*
G04 #@! TO.P,U1,48*
G04 #@! TO.N,/GPIO_POT_B*
X-25577800Y15468600D03*
G04 #@! TO.P,U1,49*
G04 #@! TO.N,/GPIO_POT_A*
X-25577800Y12928600D03*
G04 #@! TO.P,U1,50*
G04 #@! TO.N,/GPIO_BPM*
X-25577800Y10388600D03*
G04 #@! TO.P,U1,51*
G04 #@! TO.N,N/C*
X-25577800Y7848600D03*
G04 #@! TO.P,U1,52*
X-25577800Y5308600D03*
G04 #@! TO.P,U1,53*
G04 #@! TO.N,/5V*
X-25577800Y2768600D03*
G04 #@! TD*
D13*
G04 #@! TO.P,J28,1*
G04 #@! TO.N,/GPIO_11*
X-29387800Y46456600D03*
G04 #@! TD*
G04 #@! TO.P,J27,1*
G04 #@! TO.N,/GPIO_POT_A*
X-42659300Y12103100D03*
G04 #@! TD*
G04 #@! TO.P,J26,1*
G04 #@! TO.N,/GPIO_POT_B*
X-53644800Y12103100D03*
G04 #@! TD*
G04 #@! TO.P,J25,1*
G04 #@! TO.N,/GPIO_16*
X-40411400Y58978800D03*
G04 #@! TD*
G04 #@! TO.P,J24,1*
G04 #@! TO.N,/GPIO_PLAY*
X-51384200Y46482000D03*
G04 #@! TD*
G04 #@! TO.P,J23,1*
G04 #@! TO.N,/GPIO_FX*
X-51409600Y33959800D03*
G04 #@! TD*
G04 #@! TO.P,J22,1*
G04 #@! TO.N,/GPIO_4*
X-40411400Y21463000D03*
G04 #@! TD*
G04 #@! TO.P,J21,1*
G04 #@! TO.N,/GPIO_BPM*
X-29387800Y8991600D03*
G04 #@! TD*
G04 #@! TO.P,J20,1*
G04 #@! TO.N,/GPIO_PATTERN*
X-18415000Y8966200D03*
G04 #@! TD*
G04 #@! TO.P,J19,1*
G04 #@! TO.N,/GPIO_SOUND*
X-7391400Y8966200D03*
G04 #@! TD*
G04 #@! TO.P,J17,1*
G04 #@! TO.N,/GPIO_13*
X-7391400Y58978800D03*
G04 #@! TD*
G04 #@! TO.P,J16,1*
G04 #@! TO.N,/GPIO_14*
X-18415000Y59004200D03*
G04 #@! TD*
G04 #@! TO.P,J14,1*
G04 #@! TO.N,/GPIO_12*
X-40386000Y46482000D03*
G04 #@! TD*
G04 #@! TO.P,J13,1*
G04 #@! TO.N,/GPIO_10*
X-18402300Y46456600D03*
G04 #@! TD*
G04 #@! TO.P,J12,1*
G04 #@! TO.N,/GPIO_9*
X-7416800Y46456600D03*
G04 #@! TD*
G04 #@! TO.P,J11,1*
G04 #@! TO.N,/GPIO_8*
X-40411400Y33959800D03*
G04 #@! TD*
G04 #@! TO.P,J10,1*
G04 #@! TO.N,/GPIO_7*
X-29387800Y34010600D03*
G04 #@! TD*
G04 #@! TO.P,J9,1*
G04 #@! TO.N,/GPIO_6*
X-18389600Y33959800D03*
G04 #@! TD*
G04 #@! TO.P,J8,1*
G04 #@! TO.N,/GPIO_5*
X-7416800Y33947100D03*
G04 #@! TD*
G04 #@! TO.P,J6,1*
G04 #@! TO.N,/GPIO_1*
X-7391400Y21488400D03*
G04 #@! TD*
G04 #@! TO.P,J5,1*
G04 #@! TO.N,/GPIO_2*
X-18389600Y21463000D03*
G04 #@! TD*
D14*
G04 #@! TO.P,J18,2*
G04 #@! TO.N,Net-(J18-Pad2)*
X-53771800Y59029600D03*
D15*
G04 #@! TO.P,J18,1*
G04 #@! TO.N,/GPIO_WRITE*
X-51231800Y59029600D03*
G04 #@! TD*
D16*
G04 #@! TO.P,J2,5*
G04 #@! TO.N,Net-(J2-Pad5)*
X-54241700Y28084780D03*
G04 #@! TO.P,J2,1*
G04 #@! TO.N,N/C*
X-56743600Y15590520D03*
G04 #@! TO.P,J2,2*
G04 #@! TO.N,GND*
X-56741060Y23088600D03*
G04 #@! TO.P,J2,4*
G04 #@! TO.N,Net-(J2-Pad4)*
X-54241700Y18092420D03*
G04 #@! TO.P,J2,3*
G04 #@! TO.N,N/C*
X-56743600Y30586680D03*
G04 #@! TD*
D13*
G04 #@! TO.P,J4,1*
G04 #@! TO.N,/GPIO_3*
X-29133800Y21437600D03*
G04 #@! TD*
G04 #@! TO.P,J7,1*
G04 #@! TO.N,/GPIO_15*
X-29260800Y58902600D03*
G04 #@! TD*
G04 #@! TO.P,J15,1*
G04 #@! TO.N,/GPIO_SPECIAL*
X-51231800Y21437600D03*
G04 #@! TD*
D17*
G04 #@! TO.P,R2,2*
G04 #@! TO.N,/5V*
X-37541200Y17780000D03*
D18*
G04 #@! TO.P,R2,1*
G04 #@! TO.N,Net-(J2-Pad4)*
X-47701200Y17780000D03*
G04 #@! TD*
G04 #@! TO.P,R3,1*
G04 #@! TO.N,Net-(J2-Pad5)*
X-54610000Y33832800D03*
D17*
G04 #@! TO.P,R3,2*
G04 #@! TO.N,/MIDI_1_BUF_OUT*
X-54610000Y43992800D03*
G04 #@! TD*
D18*
G04 #@! TO.P,R4,1*
G04 #@! TO.N,GND*
X-3581400Y7162800D03*
D17*
G04 #@! TO.P,R4,2*
G04 #@! TO.N,/MIDI_1_OUT*
X-3581400Y17322800D03*
G04 #@! TD*
D19*
G04 #@! TO.P,S1,3*
G04 #@! TO.N,N/C*
X-40037000Y52857400D03*
G04 #@! TO.P,S1,2*
G04 #@! TO.N,GND*
X-42037000Y52857400D03*
D20*
G04 #@! TO.P,S1,1*
G04 #@! TO.N,Net-(J18-Pad2)*
X-44037000Y52857400D03*
G04 #@! TD*
D11*
G04 #@! TO.P,U2,1*
G04 #@! TO.N,GND*
X-32156400Y43738800D03*
D17*
G04 #@! TO.P,U2,8*
G04 #@! TO.N,N/C*
X-47396400Y36118800D03*
G04 #@! TO.P,U2,2*
G04 #@! TO.N,/MIDI_1_OUT*
X-34696400Y43738800D03*
G04 #@! TO.P,U2,9*
G04 #@! TO.N,N/C*
X-44856400Y36118800D03*
G04 #@! TO.P,U2,3*
G04 #@! TO.N,/MIDI_1_BUF_OUT*
X-37236400Y43738800D03*
G04 #@! TO.P,U2,10*
G04 #@! TO.N,N/C*
X-42316400Y36118800D03*
G04 #@! TO.P,U2,4*
X-39776400Y43738800D03*
G04 #@! TO.P,U2,11*
X-39776400Y36118800D03*
G04 #@! TO.P,U2,5*
X-42316400Y43738800D03*
G04 #@! TO.P,U2,12*
X-37236400Y36118800D03*
G04 #@! TO.P,U2,6*
X-44856400Y43738800D03*
G04 #@! TO.P,U2,13*
X-34696400Y36118800D03*
G04 #@! TO.P,U2,7*
G04 #@! TO.N,GND*
X-47396400Y43738800D03*
G04 #@! TO.P,U2,14*
G04 #@! TO.N,/5V*
X-32156400Y36118800D03*
G04 #@! TD*
D21*
G04 #@! TO.P,J1,S*
G04 #@! TO.N,GND*
X-61645800Y51892200D03*
G04 #@! TO.P,J1,T*
G04 #@! TO.N,/AUDIO_TIP*
X-59245800Y53892200D03*
G04 #@! TO.P,J1,R*
G04 #@! TO.N,/AUDIO_RING*
X-53745800Y53892200D03*
G04 #@! TD*
D22*
G04 #@! TO.N,Net-(J2-Pad4)*
X-53929280Y17780000D02*
X-54241700Y18092420D01*
X-47701200Y17780000D02*
X-53929280Y17780000D01*
D23*
G04 #@! TO.N,/GPIO_1*
X-10337800Y18542000D02*
X-7391400Y21488400D01*
X-10337800Y18008600D02*
X-10337800Y18542000D01*
G04 #@! TO.N,/GPIO_2*
X-17475200Y20548600D02*
X-18389600Y21463000D01*
X-10337800Y20548600D02*
X-17475200Y20548600D01*
G04 #@! TO.N,/GPIO_3*
X-28244800Y20548600D02*
X-29133800Y21437600D01*
X-25577800Y20548600D02*
X-28244800Y20548600D01*
D22*
G04 #@! TO.N,/GPIO_4*
X-38997187Y21463000D02*
X-40411400Y21463000D01*
X-36521588Y23938599D02*
X-38997187Y21463000D01*
X-26427799Y23938599D02*
X-36521588Y23938599D01*
X-25577800Y23088600D02*
X-26427799Y23938599D01*
D23*
G04 #@! TO.N,/GPIO_5*
X-10337800Y31026100D02*
X-7416800Y33947100D01*
X-10337800Y30708600D02*
X-10337800Y31026100D01*
D22*
G04 #@! TO.N,/GPIO_6*
X-11049000Y33959800D02*
X-10337800Y33248600D01*
X-18389600Y33959800D02*
X-11049000Y33959800D01*
G04 #@! TO.N,/GPIO_7*
X-28625800Y33248600D02*
X-29387800Y34010600D01*
X-25577800Y33248600D02*
X-28625800Y33248600D01*
G04 #@! TO.N,/GPIO_8*
X-30861000Y30708600D02*
X-25577800Y30708600D01*
X-40411400Y33959800D02*
X-34112200Y33959800D01*
X-34112200Y33959800D02*
X-30861000Y30708600D01*
D23*
G04 #@! TO.N,/GPIO_9*
X-10337800Y43535600D02*
X-7416800Y46456600D01*
X-10337800Y43408600D02*
X-10337800Y43535600D01*
G04 #@! TO.N,/GPIO_10*
X-18402300Y43853100D02*
X-18402300Y46456600D01*
X-10337800Y35788600D02*
X-18402300Y43853100D01*
D22*
G04 #@! TO.N,/GPIO_12*
X-38379400Y48488600D02*
X-40386000Y46482000D01*
X-25577800Y48488600D02*
X-38379400Y48488600D01*
D23*
G04 #@! TO.N,/GPIO_13*
X-10261600Y56108600D02*
X-7391400Y58978800D01*
X-10337800Y56108600D02*
X-10261600Y56108600D01*
G04 #@! TO.N,/GPIO_14*
X-16230600Y61188600D02*
X-18415000Y59004200D01*
X-10337800Y61188600D02*
X-16230600Y61188600D01*
G04 #@! TO.N,/GPIO_15*
X-28778200Y58648600D02*
X-29159200Y59029600D01*
X-25831800Y58902600D02*
X-25577800Y58648600D01*
X-29260800Y58902600D02*
X-25831800Y58902600D01*
G04 #@! TO.N,/GPIO_16*
X-38201600Y61188600D02*
X-40411400Y58978800D01*
X-25577800Y61188600D02*
X-38201600Y61188600D01*
D22*
G04 #@! TO.N,/GPIO_SOUND*
X-8813800Y10388600D02*
X-7391400Y8966200D01*
X-10337800Y10388600D02*
X-8813800Y10388600D01*
G04 #@! TO.N,/GPIO_PATTERN*
X-14452600Y12928600D02*
X-18415000Y8966200D01*
X-10337800Y12928600D02*
X-14452600Y12928600D01*
G04 #@! TO.N,/GPIO_BPM*
X-27990800Y10388600D02*
X-29387800Y8991600D01*
X-25577800Y10388600D02*
X-27990800Y10388600D01*
G04 #@! TO.N,/GPIO_SPECIAL*
X-44627800Y25628600D02*
X-25577800Y25628600D01*
X-51231800Y21437600D02*
X-48818800Y21437600D01*
X-48818800Y21437600D02*
X-44627800Y25628600D01*
G04 #@! TO.N,/GPIO_FX*
X-44348400Y33959800D02*
X-51409600Y33959800D01*
X-41681400Y31292800D02*
X-44348400Y33959800D01*
X-33883600Y31292800D02*
X-41681400Y31292800D01*
X-25603200Y28041600D02*
X-30632400Y28041600D01*
X-30632400Y28041600D02*
X-33883600Y31292800D01*
G04 #@! TO.N,/GPIO_PLAY*
X-25577800Y53568600D02*
X-29451300Y49695100D01*
X-48171100Y49695100D02*
X-45961300Y49695100D01*
X-51384200Y46482000D02*
X-48171100Y49695100D01*
X-45961300Y49695100D02*
X-41910000Y49695100D01*
X-29451300Y49695100D02*
X-41910000Y49695100D01*
X-41910000Y49695100D02*
X-42151300Y49695100D01*
G04 #@! TO.N,/GPIO_WRITE*
X-42214800Y56108600D02*
X-25577800Y56108600D01*
X-48945800Y59029600D02*
X-51231800Y59029600D01*
X-41626087Y56108600D02*
X-46024800Y56108600D01*
X-46024800Y56108600D02*
X-48945800Y59029600D01*
D23*
G04 #@! TO.N,/GPIO_POT_A*
X-25577800Y12928600D02*
X-39420800Y12928600D01*
D22*
X-40246300Y12103100D02*
X-42659300Y12103100D01*
X-39420800Y12928600D02*
X-40246300Y12103100D01*
G04 #@! TO.N,/GPIO_POT_B*
X-26744526Y15468600D02*
X-25577800Y15468600D01*
X-27201726Y15011400D02*
X-26744526Y15468600D01*
X-53644800Y12103100D02*
X-50736500Y15011400D01*
X-50736500Y15011400D02*
X-27201726Y15011400D01*
G04 #@! TO.N,/GPIO_11*
X-29387800Y46456600D02*
X-29387800Y46837600D01*
X-26085800Y46456600D02*
X-25577800Y45948600D01*
X-29387800Y46456600D02*
X-26085800Y46456600D01*
G04 #@! TO.N,/5V*
X-25704800Y2641600D02*
X-25577800Y2768600D01*
X-23114000Y5232400D02*
X-23114000Y17363722D01*
X-25577800Y2768600D02*
X-23114000Y5232400D01*
X-32156400Y34479278D02*
X-32156400Y36118800D01*
X-29689723Y32012601D02*
X-32156400Y34479278D01*
X-24951879Y32012601D02*
X-29689723Y32012601D01*
X-23114000Y17363722D02*
X-23114000Y30174722D01*
X-23114000Y30174722D02*
X-24951879Y32012601D01*
X-36083599Y19237601D02*
X-37541200Y17780000D01*
X-23114000Y17363722D02*
X-24987879Y19237601D01*
X-24987879Y19237601D02*
X-36083599Y19237601D01*
G04 #@! TO.N,/AUDIO_TIP*
X-59245800Y61855100D02*
X-59245800Y53892200D01*
X-24375719Y40868600D02*
X-21082000Y44162319D01*
X-25577800Y40868600D02*
X-24375719Y40868600D01*
X-21082000Y44162319D02*
X-21082000Y61709300D01*
X-21082000Y61709300D02*
X-23272301Y63899601D01*
X-23272301Y63899601D02*
X-57201299Y63899601D01*
X-57201299Y63899601D02*
X-59245800Y61855100D01*
G04 #@! TO.N,/AUDIO_RING*
X-55568600Y54425600D02*
X-53364800Y54425600D01*
X-56375300Y55232300D02*
X-55568600Y54425600D01*
X-24481785Y43408600D02*
X-22910800Y44979585D01*
X-25577800Y43408600D02*
X-24481785Y43408600D01*
X-56375300Y59352600D02*
X-56375300Y55232300D01*
X-22910800Y44979585D02*
X-22910800Y61950600D01*
X-22910800Y61950600D02*
X-23545800Y62585600D01*
X-23545800Y62585600D02*
X-53142300Y62585600D01*
X-53142300Y62585600D02*
X-56375300Y59352600D01*
G04 #@! TO.N,Net-(J2-Pad5)*
X-54584600Y28427680D02*
X-54241700Y28084780D01*
X-54584600Y34645600D02*
X-54584600Y28427680D01*
G04 #@! TO.N,/MIDI_1_OUT*
X-14438999Y26478599D02*
X-11187799Y26478599D01*
X-11187799Y26478599D02*
X-10337800Y25628600D01*
X-34544000Y42935878D02*
X-26167721Y34559599D01*
X-34544000Y44196000D02*
X-34544000Y42935878D01*
X-26167721Y34559599D02*
X-25069877Y34559599D01*
X-25069877Y34559599D02*
X-23946556Y33436278D01*
X-23946556Y33436278D02*
X-21396678Y33436278D01*
X-21396678Y33436278D02*
X-14438999Y26478599D01*
X-3581400Y22098000D02*
X-3581400Y17322800D01*
X-10337800Y25628600D02*
X-7112000Y25628600D01*
X-7112000Y25628600D02*
X-3581400Y22098000D01*
G04 #@! TO.N,/MIDI_1_BUF_OUT*
X-38836600Y42443400D02*
X-37084000Y44196000D01*
X-39674800Y41605200D02*
X-38836600Y42443400D01*
X-52515570Y41605200D02*
X-51181000Y41605200D01*
X-54584600Y43674230D02*
X-52515570Y41605200D01*
X-51435000Y41605200D02*
X-51181000Y41605200D01*
X-51181000Y41605200D02*
X-39674800Y41605200D01*
G04 #@! TO.N,Net-(J18-Pad2)*
X-53771800Y57615387D02*
X-51553813Y55397400D01*
X-53771800Y59029600D02*
X-53771800Y57615387D01*
X-51553813Y55397400D02*
X-51553813Y55363813D01*
X-51553813Y55363813D02*
X-50952400Y54762400D01*
X-44037000Y54019400D02*
X-44037000Y52857400D01*
X-44780000Y54762400D02*
X-44037000Y54019400D01*
X-50952400Y54762400D02*
X-44780000Y54762400D01*
G04 #@! TD*
D24*
G04 #@! TO.N,GND*
G36*
X-2977480Y64163534D02*
X-2618492Y63929066D01*
X-2329350Y63591120D01*
X-2146524Y63185261D01*
X-2080800Y62720551D01*
X-2080799Y56327344D01*
X-2078000Y56313272D01*
X-2077999Y6425533D01*
X-2080800Y6411451D01*
X-2080799Y415196D01*
X-36226740Y415196D01*
X-36226004Y5542720D01*
X-26754800Y5542720D01*
X-26754800Y5074480D01*
X-26575613Y4641883D01*
X-26244517Y4310787D01*
X-25811920Y4131600D01*
X-25343680Y4131600D01*
X-24911083Y4310787D01*
X-24579987Y4641883D01*
X-24400800Y5074480D01*
X-24400800Y5542720D01*
X-24579987Y5975317D01*
X-24911083Y6306413D01*
X-25343680Y6485600D01*
X-25811920Y6485600D01*
X-26244517Y6306413D01*
X-26575613Y5975317D01*
X-26754800Y5542720D01*
X-36226004Y5542720D01*
X-36225467Y9275448D01*
X-30814800Y9275448D01*
X-30814800Y8707752D01*
X-30597553Y8183269D01*
X-30196131Y7781847D01*
X-29671648Y7564600D01*
X-29103952Y7564600D01*
X-28579469Y7781847D01*
X-28278596Y8082720D01*
X-26754800Y8082720D01*
X-26754800Y7614480D01*
X-26575613Y7181883D01*
X-26244517Y6850787D01*
X-25811920Y6671600D01*
X-25343680Y6671600D01*
X-24911083Y6850787D01*
X-24579987Y7181883D01*
X-24400800Y7614480D01*
X-24400800Y8082720D01*
X-24579987Y8515317D01*
X-24911083Y8846413D01*
X-25343680Y9025600D01*
X-25811920Y9025600D01*
X-26244517Y8846413D01*
X-26575613Y8515317D01*
X-26754800Y8082720D01*
X-28278596Y8082720D01*
X-28178047Y8183269D01*
X-27960800Y8707752D01*
X-27960800Y9275448D01*
X-28054963Y9502779D01*
X-27750142Y9807600D01*
X-26611118Y9807600D01*
X-26575613Y9721883D01*
X-26244517Y9390787D01*
X-25811920Y9211600D01*
X-25343680Y9211600D01*
X-24911083Y9390787D01*
X-24579987Y9721883D01*
X-24400800Y10154480D01*
X-24400800Y10622720D01*
X-24579987Y11055317D01*
X-24911083Y11386413D01*
X-25343680Y11565600D01*
X-25811920Y11565600D01*
X-26244517Y11386413D01*
X-26575613Y11055317D01*
X-26611118Y10969600D01*
X-27933584Y10969600D01*
X-27990801Y10980981D01*
X-28048018Y10969600D01*
X-28048022Y10969600D01*
X-28217495Y10935890D01*
X-28343487Y10851704D01*
X-28361166Y10839891D01*
X-28409677Y10807477D01*
X-28442090Y10758968D01*
X-28876621Y10324437D01*
X-29103952Y10418600D01*
X-29671648Y10418600D01*
X-30196131Y10201353D01*
X-30597553Y9799931D01*
X-30814800Y9275448D01*
X-36225467Y9275448D01*
X-36225205Y11090926D01*
X-36218436Y11124789D01*
X-36225195Y11158939D01*
X-36225194Y11167192D01*
X-36249952Y11291749D01*
X-36344306Y11433005D01*
X-36485536Y11527400D01*
X-36652138Y11560564D01*
X-36694027Y11552238D01*
X-40021764Y11555381D01*
X-40019605Y11555810D01*
X-39827423Y11684223D01*
X-39795008Y11732735D01*
X-39243642Y12284100D01*
X-26584816Y12284100D01*
X-26575613Y12261883D01*
X-26244517Y11930787D01*
X-25811920Y11751600D01*
X-25343680Y11751600D01*
X-24911083Y11930787D01*
X-24579987Y12261883D01*
X-24400800Y12694480D01*
X-24400800Y13162720D01*
X-24579987Y13595317D01*
X-24911083Y13926413D01*
X-25343680Y14105600D01*
X-25811920Y14105600D01*
X-26244517Y13926413D01*
X-26575613Y13595317D01*
X-26584816Y13573100D01*
X-39484275Y13573100D01*
X-39672271Y13535705D01*
X-39885458Y13393258D01*
X-40027905Y13180071D01*
X-40037072Y13133986D01*
X-40486957Y12684100D01*
X-41355384Y12684100D01*
X-41449547Y12911431D01*
X-41850969Y13312853D01*
X-42375452Y13530100D01*
X-42943148Y13530100D01*
X-43467631Y13312853D01*
X-43869053Y12911431D01*
X-44086300Y12386948D01*
X-44086300Y11819252D01*
X-43978549Y11559117D01*
X-52322287Y11566996D01*
X-52217800Y11819252D01*
X-52217800Y12386948D01*
X-52311963Y12614279D01*
X-50495842Y14430400D01*
X-27258944Y14430400D01*
X-27201726Y14419019D01*
X-27144508Y14430400D01*
X-27144504Y14430400D01*
X-26975031Y14464110D01*
X-26782849Y14592523D01*
X-26750434Y14641034D01*
X-26579705Y14811763D01*
X-26575613Y14801883D01*
X-26244517Y14470787D01*
X-25811920Y14291600D01*
X-25343680Y14291600D01*
X-24911083Y14470787D01*
X-24579987Y14801883D01*
X-24400800Y15234480D01*
X-24400800Y15702720D01*
X-24579987Y16135317D01*
X-24911083Y16466413D01*
X-25343680Y16645600D01*
X-25811920Y16645600D01*
X-26244517Y16466413D01*
X-26575613Y16135317D01*
X-26611118Y16049600D01*
X-26687310Y16049600D01*
X-26744527Y16060981D01*
X-26801744Y16049600D01*
X-26801748Y16049600D01*
X-26971221Y16015890D01*
X-27163403Y15887477D01*
X-27195816Y15838968D01*
X-27442383Y15592400D01*
X-50679284Y15592400D01*
X-50736501Y15603781D01*
X-50793718Y15592400D01*
X-50793722Y15592400D01*
X-50963195Y15558690D01*
X-51155377Y15430277D01*
X-51187790Y15381768D01*
X-53133621Y13435937D01*
X-53360952Y13530100D01*
X-53928648Y13530100D01*
X-54453131Y13312853D01*
X-54854553Y12911431D01*
X-55071800Y12386948D01*
X-55071800Y11819252D01*
X-54968348Y11569495D01*
X-63123800Y11577196D01*
X-63123800Y15904141D01*
X-58320280Y15904141D01*
X-58320280Y15276899D01*
X-58080245Y14697403D01*
X-57636717Y14253875D01*
X-57057221Y14013840D01*
X-56429979Y14013840D01*
X-55850483Y14253875D01*
X-55406955Y14697403D01*
X-55166920Y15276899D01*
X-55166920Y15904141D01*
X-55406955Y16483637D01*
X-55850483Y16927165D01*
X-56429979Y17167200D01*
X-57057221Y17167200D01*
X-57636717Y16927165D01*
X-58080245Y16483637D01*
X-58320280Y15904141D01*
X-63123800Y15904141D01*
X-63123800Y18406041D01*
X-55818380Y18406041D01*
X-55818380Y17778799D01*
X-55578345Y17199303D01*
X-55134817Y16755775D01*
X-54555321Y16515740D01*
X-53928079Y16515740D01*
X-53348583Y16755775D01*
X-52905358Y17199000D01*
X-48680397Y17199000D01*
X-48656624Y17141606D01*
X-48339594Y16824576D01*
X-47925374Y16653000D01*
X-47477026Y16653000D01*
X-47062806Y16824576D01*
X-46745776Y17141606D01*
X-46574200Y17555826D01*
X-46574200Y18004174D01*
X-46745776Y18418394D01*
X-47062806Y18735424D01*
X-47477026Y18907000D01*
X-47925374Y18907000D01*
X-48339594Y18735424D01*
X-48656624Y18418394D01*
X-48680397Y18361000D01*
X-52665020Y18361000D01*
X-52665020Y18406041D01*
X-52905055Y18985537D01*
X-53348583Y19429065D01*
X-53928079Y19669100D01*
X-54555321Y19669100D01*
X-55134817Y19429065D01*
X-55578345Y18985537D01*
X-55818380Y18406041D01*
X-63123800Y18406041D01*
X-63123800Y21755511D01*
X-57894543Y21755511D01*
X-57765335Y21462741D01*
X-57065177Y21194529D01*
X-56315676Y21214672D01*
X-55716785Y21462741D01*
X-55602611Y21721448D01*
X-52658800Y21721448D01*
X-52658800Y21153752D01*
X-52441553Y20629269D01*
X-52040131Y20227847D01*
X-51515648Y20010600D01*
X-50947952Y20010600D01*
X-50423469Y20227847D01*
X-50022047Y20629269D01*
X-49927884Y20856600D01*
X-48876018Y20856600D01*
X-48818800Y20845219D01*
X-48761582Y20856600D01*
X-48761578Y20856600D01*
X-48592105Y20890310D01*
X-48399923Y21018723D01*
X-48367508Y21067235D01*
X-47687895Y21746848D01*
X-41838400Y21746848D01*
X-41838400Y21179152D01*
X-41621153Y20654669D01*
X-41219731Y20253247D01*
X-40695248Y20036000D01*
X-40127552Y20036000D01*
X-39603069Y20253247D01*
X-39201647Y20654669D01*
X-39107484Y20882000D01*
X-39054405Y20882000D01*
X-38997187Y20870619D01*
X-38939969Y20882000D01*
X-38939965Y20882000D01*
X-38770492Y20915710D01*
X-38578310Y21044123D01*
X-38545895Y21092635D01*
X-36280930Y23357599D01*
X-26740353Y23357599D01*
X-26754800Y23322720D01*
X-26754800Y22854480D01*
X-26575613Y22421883D01*
X-26244517Y22090787D01*
X-25811920Y21911600D01*
X-25343680Y21911600D01*
X-24911083Y22090787D01*
X-24579987Y22421883D01*
X-24400800Y22854480D01*
X-24400800Y23322720D01*
X-24579987Y23755317D01*
X-24911083Y24086413D01*
X-25343680Y24265600D01*
X-25811920Y24265600D01*
X-25897637Y24230095D01*
X-25976507Y24308965D01*
X-26008922Y24357476D01*
X-26201104Y24485889D01*
X-26370577Y24519599D01*
X-26370581Y24519599D01*
X-26427799Y24530980D01*
X-26485017Y24519599D01*
X-36464370Y24519599D01*
X-36521588Y24530980D01*
X-36578806Y24519599D01*
X-36578810Y24519599D01*
X-36748283Y24485889D01*
X-36891955Y24389890D01*
X-36891956Y24389889D01*
X-36940465Y24357476D01*
X-36972878Y24308967D01*
X-39145665Y22136179D01*
X-39201647Y22271331D01*
X-39603069Y22672753D01*
X-40127552Y22890000D01*
X-40695248Y22890000D01*
X-41219731Y22672753D01*
X-41621153Y22271331D01*
X-41838400Y21746848D01*
X-47687895Y21746848D01*
X-44387141Y25047600D01*
X-26611118Y25047600D01*
X-26575613Y24961883D01*
X-26244517Y24630787D01*
X-25811920Y24451600D01*
X-25343680Y24451600D01*
X-24911083Y24630787D01*
X-24579987Y24961883D01*
X-24400800Y25394480D01*
X-24400800Y25862720D01*
X-24579987Y26295317D01*
X-24911083Y26626413D01*
X-25343680Y26805600D01*
X-25811920Y26805600D01*
X-26244517Y26626413D01*
X-26575613Y26295317D01*
X-26611118Y26209600D01*
X-44570583Y26209600D01*
X-44627801Y26220981D01*
X-44685019Y26209600D01*
X-44685022Y26209600D01*
X-44854495Y26175890D01*
X-44998168Y26079891D01*
X-44998171Y26079888D01*
X-45046677Y26047477D01*
X-45079088Y25998971D01*
X-49059457Y22018600D01*
X-49927884Y22018600D01*
X-50022047Y22245931D01*
X-50423469Y22647353D01*
X-50947952Y22864600D01*
X-51515648Y22864600D01*
X-52040131Y22647353D01*
X-52441553Y22245931D01*
X-52658800Y21721448D01*
X-55602611Y21721448D01*
X-55587577Y21755511D01*
X-56741060Y22908995D01*
X-57894543Y21755511D01*
X-63123800Y21755511D01*
X-63123800Y23412717D01*
X-58635131Y23412717D01*
X-58614988Y22663216D01*
X-58366919Y22064325D01*
X-58074149Y21935117D01*
X-56920665Y23088600D01*
X-56561455Y23088600D01*
X-55407971Y21935117D01*
X-55115201Y22064325D01*
X-54846989Y22764483D01*
X-54867132Y23513984D01*
X-55115201Y24112875D01*
X-55407971Y24242083D01*
X-56561455Y23088600D01*
X-56920665Y23088600D01*
X-58074149Y24242083D01*
X-58366919Y24112875D01*
X-58635131Y23412717D01*
X-63123800Y23412717D01*
X-63123800Y24421689D01*
X-57894543Y24421689D01*
X-56741060Y23268205D01*
X-55587577Y24421689D01*
X-55716785Y24714459D01*
X-56416943Y24982671D01*
X-57166444Y24962528D01*
X-57765335Y24714459D01*
X-57894543Y24421689D01*
X-63123800Y24421689D01*
X-63123800Y28398401D01*
X-55818380Y28398401D01*
X-55818380Y27771159D01*
X-55578345Y27191663D01*
X-55134817Y26748135D01*
X-54555321Y26508100D01*
X-53928079Y26508100D01*
X-53348583Y26748135D01*
X-52905055Y27191663D01*
X-52665020Y27771159D01*
X-52665020Y28398401D01*
X-52905055Y28977897D01*
X-53348583Y29421425D01*
X-53928079Y29661460D01*
X-54003600Y29661460D01*
X-54003600Y32864124D01*
X-53971606Y32877376D01*
X-53654576Y33194406D01*
X-53483000Y33608626D01*
X-53483000Y34056974D01*
X-53560323Y34243648D01*
X-52836600Y34243648D01*
X-52836600Y33675952D01*
X-52619353Y33151469D01*
X-52217931Y32750047D01*
X-51693448Y32532800D01*
X-51125752Y32532800D01*
X-50601269Y32750047D01*
X-50199847Y33151469D01*
X-50105684Y33378800D01*
X-44589057Y33378800D01*
X-42132690Y30922432D01*
X-42100277Y30873923D01*
X-42051768Y30841510D01*
X-42051767Y30841509D01*
X-41908095Y30745510D01*
X-41738622Y30711800D01*
X-41738618Y30711800D01*
X-41681400Y30700419D01*
X-41624182Y30711800D01*
X-34124257Y30711800D01*
X-31083688Y27671229D01*
X-31051277Y27622723D01*
X-31002771Y27590312D01*
X-31002768Y27590309D01*
X-30929297Y27541218D01*
X-30859095Y27494310D01*
X-30689622Y27460600D01*
X-30689617Y27460600D01*
X-30632401Y27449219D01*
X-30575184Y27460600D01*
X-26534330Y27460600D01*
X-26244517Y27170787D01*
X-25811920Y26991600D01*
X-25343680Y26991600D01*
X-24911083Y27170787D01*
X-24579987Y27501883D01*
X-24400800Y27934480D01*
X-24400800Y28402720D01*
X-24579987Y28835317D01*
X-24911083Y29166413D01*
X-25343680Y29345600D01*
X-25811920Y29345600D01*
X-26244517Y29166413D01*
X-26575613Y28835317D01*
X-26663723Y28622600D01*
X-30391741Y28622600D01*
X-33432308Y31663165D01*
X-33464723Y31711677D01*
X-33656905Y31840090D01*
X-33826378Y31873800D01*
X-33826382Y31873800D01*
X-33883600Y31885181D01*
X-33940818Y31873800D01*
X-41440742Y31873800D01*
X-43810590Y34243648D01*
X-41838400Y34243648D01*
X-41838400Y33675952D01*
X-41621153Y33151469D01*
X-41219731Y32750047D01*
X-40695248Y32532800D01*
X-40127552Y32532800D01*
X-39603069Y32750047D01*
X-39201647Y33151469D01*
X-39107484Y33378800D01*
X-34352857Y33378800D01*
X-31312288Y30338229D01*
X-31279877Y30289723D01*
X-31231371Y30257312D01*
X-31231368Y30257309D01*
X-31157897Y30208218D01*
X-31087695Y30161310D01*
X-30918222Y30127600D01*
X-30918217Y30127600D01*
X-30861001Y30116219D01*
X-30803784Y30127600D01*
X-26611118Y30127600D01*
X-26575613Y30041883D01*
X-26244517Y29710787D01*
X-25811920Y29531600D01*
X-25343680Y29531600D01*
X-24911083Y29710787D01*
X-24579987Y30041883D01*
X-24400800Y30474480D01*
X-24400800Y30639864D01*
X-23694999Y29934063D01*
X-23695000Y18766380D01*
X-24536587Y19607966D01*
X-24569002Y19656478D01*
X-24710707Y19751163D01*
X-24579987Y19881883D01*
X-24400800Y20314480D01*
X-24400800Y20782720D01*
X-24579987Y21215317D01*
X-24911083Y21546413D01*
X-25343680Y21725600D01*
X-25811920Y21725600D01*
X-26244517Y21546413D01*
X-26575613Y21215317D01*
X-26584816Y21193100D01*
X-27706800Y21193100D01*
X-27706800Y21721448D01*
X-27924047Y22245931D01*
X-28325469Y22647353D01*
X-28849952Y22864600D01*
X-29417648Y22864600D01*
X-29942131Y22647353D01*
X-30343553Y22245931D01*
X-30560800Y21721448D01*
X-30560800Y21153752D01*
X-30343553Y20629269D01*
X-29942131Y20227847D01*
X-29417648Y20010600D01*
X-28849952Y20010600D01*
X-28695463Y20074591D01*
X-28655649Y20047988D01*
X-28655647Y20047986D01*
X-28496272Y19941495D01*
X-28456344Y19933553D01*
X-28308275Y19904100D01*
X-28308271Y19904100D01*
X-28244800Y19891475D01*
X-28181329Y19904100D01*
X-26584816Y19904100D01*
X-26575613Y19881883D01*
X-26512331Y19818601D01*
X-36026383Y19818601D01*
X-36083600Y19829982D01*
X-36140816Y19818601D01*
X-36140821Y19818601D01*
X-36310294Y19784891D01*
X-36380496Y19737983D01*
X-36453967Y19688892D01*
X-36453970Y19688889D01*
X-36502476Y19656478D01*
X-36534887Y19607972D01*
X-37268101Y18874757D01*
X-37430201Y18907000D01*
X-37652199Y18907000D01*
X-37980933Y18841611D01*
X-38353722Y18592522D01*
X-38602811Y18219733D01*
X-38690279Y17780000D01*
X-38602811Y17340267D01*
X-38353722Y16967478D01*
X-37980933Y16718389D01*
X-37652199Y16653000D01*
X-37430201Y16653000D01*
X-37101467Y16718389D01*
X-36728678Y16967478D01*
X-36479589Y17340267D01*
X-36392121Y17780000D01*
X-36446443Y18053099D01*
X-35842940Y18656601D01*
X-26488262Y18656601D01*
X-26512030Y18632833D01*
X-26679800Y18227801D01*
X-26679800Y17789399D01*
X-26512030Y17384367D01*
X-26202033Y17074370D01*
X-25797001Y16906600D01*
X-25358599Y16906600D01*
X-24953567Y17074370D01*
X-24643570Y17384367D01*
X-24475800Y17789399D01*
X-24475800Y17903864D01*
X-23694999Y17123062D01*
X-23695000Y5473058D01*
X-25257963Y3910095D01*
X-25343680Y3945600D01*
X-25811920Y3945600D01*
X-26244517Y3766413D01*
X-26575613Y3435317D01*
X-26754800Y3002720D01*
X-26754800Y2534480D01*
X-26575613Y2101883D01*
X-26244517Y1770787D01*
X-25811920Y1591600D01*
X-25343680Y1591600D01*
X-24911083Y1770787D01*
X-24579987Y2101883D01*
X-24422186Y2482850D01*
X-11772800Y2482850D01*
X-11772800Y1842291D01*
X-11676127Y1608902D01*
X-11497499Y1430273D01*
X-11264110Y1333600D01*
X-10623550Y1333600D01*
X-10464800Y1492350D01*
X-10464800Y2641600D01*
X-10210800Y2641600D01*
X-10210800Y1492350D01*
X-10052050Y1333600D01*
X-9411490Y1333600D01*
X-9178101Y1430273D01*
X-8999473Y1608902D01*
X-8902800Y1842291D01*
X-8902800Y2482850D01*
X-9061550Y2641600D01*
X-10210800Y2641600D01*
X-10464800Y2641600D01*
X-11614050Y2641600D01*
X-11772800Y2482850D01*
X-24422186Y2482850D01*
X-24400800Y2534480D01*
X-24400800Y3002720D01*
X-24436305Y3088437D01*
X-23829833Y3694909D01*
X-11772800Y3694909D01*
X-11772800Y3054350D01*
X-11614050Y2895600D01*
X-10464800Y2895600D01*
X-10464800Y2915600D01*
X-10210800Y2915600D01*
X-10210800Y2895600D01*
X-9061550Y2895600D01*
X-8902800Y3054350D01*
X-8902800Y3694909D01*
X-8999473Y3928298D01*
X-9178101Y4106927D01*
X-9411490Y4203600D01*
X-9929856Y4203600D01*
X-9671083Y4310787D01*
X-9339987Y4641883D01*
X-9160800Y5074480D01*
X-9160800Y5542720D01*
X-9339987Y5975317D01*
X-9519725Y6155055D01*
X-4409539Y6155055D01*
X-4335405Y5908936D01*
X-3798177Y5715835D01*
X-3227946Y5743022D01*
X-2827395Y5908936D01*
X-2753261Y6155055D01*
X-3581400Y6983195D01*
X-4409539Y6155055D01*
X-9519725Y6155055D01*
X-9671083Y6306413D01*
X-10103680Y6485600D01*
X-10571920Y6485600D01*
X-11004517Y6306413D01*
X-11335613Y5975317D01*
X-11514800Y5542720D01*
X-11514800Y5074480D01*
X-11335613Y4641883D01*
X-11004517Y4310787D01*
X-10745744Y4203600D01*
X-11264110Y4203600D01*
X-11497499Y4106927D01*
X-11676127Y3928298D01*
X-11772800Y3694909D01*
X-23829833Y3694909D01*
X-22743631Y4781111D01*
X-22695123Y4813523D01*
X-22566710Y5005705D01*
X-22533000Y5175178D01*
X-22533000Y5175182D01*
X-22521619Y5232399D01*
X-22533000Y5289616D01*
X-22533000Y9250048D01*
X-19842000Y9250048D01*
X-19842000Y8682352D01*
X-19624753Y8157869D01*
X-19223331Y7756447D01*
X-18698848Y7539200D01*
X-18131152Y7539200D01*
X-17606669Y7756447D01*
X-17280396Y8082720D01*
X-11514800Y8082720D01*
X-11514800Y7614480D01*
X-11335613Y7181883D01*
X-11004517Y6850787D01*
X-10571920Y6671600D01*
X-10103680Y6671600D01*
X-9671083Y6850787D01*
X-9339987Y7181883D01*
X-9258100Y7379577D01*
X-5028365Y7379577D01*
X-5001178Y6809346D01*
X-4835264Y6408795D01*
X-4589145Y6334661D01*
X-3761005Y7162800D01*
X-3401795Y7162800D01*
X-2573655Y6334661D01*
X-2327536Y6408795D01*
X-2134435Y6946023D01*
X-2161622Y7516254D01*
X-2327536Y7916805D01*
X-2573655Y7990939D01*
X-3401795Y7162800D01*
X-3761005Y7162800D01*
X-4589145Y7990939D01*
X-4835264Y7916805D01*
X-5028365Y7379577D01*
X-9258100Y7379577D01*
X-9160800Y7614480D01*
X-9160800Y8082720D01*
X-9339987Y8515317D01*
X-9671083Y8846413D01*
X-10103680Y9025600D01*
X-10571920Y9025600D01*
X-11004517Y8846413D01*
X-11335613Y8515317D01*
X-11514800Y8082720D01*
X-17280396Y8082720D01*
X-17205247Y8157869D01*
X-16988000Y8682352D01*
X-16988000Y9250048D01*
X-17082163Y9477379D01*
X-15936822Y10622720D01*
X-11514800Y10622720D01*
X-11514800Y10154480D01*
X-11335613Y9721883D01*
X-11004517Y9390787D01*
X-10571920Y9211600D01*
X-10103680Y9211600D01*
X-9671083Y9390787D01*
X-9339987Y9721883D01*
X-9304482Y9807600D01*
X-9054457Y9807600D01*
X-8724237Y9477379D01*
X-8818400Y9250048D01*
X-8818400Y8682352D01*
X-8601153Y8157869D01*
X-8199731Y7756447D01*
X-7675248Y7539200D01*
X-7107552Y7539200D01*
X-6583069Y7756447D01*
X-6181647Y8157869D01*
X-6176397Y8170545D01*
X-4409539Y8170545D01*
X-3581400Y7342405D01*
X-2753261Y8170545D01*
X-2827395Y8416664D01*
X-3364623Y8609765D01*
X-3934854Y8582578D01*
X-4335405Y8416664D01*
X-4409539Y8170545D01*
X-6176397Y8170545D01*
X-5964400Y8682352D01*
X-5964400Y9250048D01*
X-6181647Y9774531D01*
X-6583069Y10175953D01*
X-7107552Y10393200D01*
X-7675248Y10393200D01*
X-7902579Y10299037D01*
X-8362508Y10758965D01*
X-8394923Y10807477D01*
X-8587105Y10935890D01*
X-8756578Y10969600D01*
X-8756582Y10969600D01*
X-8813800Y10980981D01*
X-8871018Y10969600D01*
X-9304482Y10969600D01*
X-9339987Y11055317D01*
X-9671083Y11386413D01*
X-10103680Y11565600D01*
X-10571920Y11565600D01*
X-11004517Y11386413D01*
X-11335613Y11055317D01*
X-11514800Y10622720D01*
X-15936822Y10622720D01*
X-14211942Y12347600D01*
X-11371118Y12347600D01*
X-11335613Y12261883D01*
X-11004517Y11930787D01*
X-10571920Y11751600D01*
X-10103680Y11751600D01*
X-9671083Y11930787D01*
X-9339987Y12261883D01*
X-9160800Y12694480D01*
X-9160800Y13162720D01*
X-9339987Y13595317D01*
X-9671083Y13926413D01*
X-10103680Y14105600D01*
X-10571920Y14105600D01*
X-11004517Y13926413D01*
X-11335613Y13595317D01*
X-11371118Y13509600D01*
X-14395382Y13509600D01*
X-14452600Y13520981D01*
X-14509818Y13509600D01*
X-14509822Y13509600D01*
X-14679295Y13475890D01*
X-14822967Y13379891D01*
X-14822968Y13379890D01*
X-14871477Y13347477D01*
X-14903890Y13298968D01*
X-17903821Y10299037D01*
X-18131152Y10393200D01*
X-18698848Y10393200D01*
X-19223331Y10175953D01*
X-19624753Y9774531D01*
X-19842000Y9250048D01*
X-22533000Y9250048D01*
X-22533000Y15702720D01*
X-11514800Y15702720D01*
X-11514800Y15234480D01*
X-11335613Y14801883D01*
X-11004517Y14470787D01*
X-10571920Y14291600D01*
X-10103680Y14291600D01*
X-9671083Y14470787D01*
X-9339987Y14801883D01*
X-9160800Y15234480D01*
X-9160800Y15702720D01*
X-9339987Y16135317D01*
X-9671083Y16466413D01*
X-10103680Y16645600D01*
X-10571920Y16645600D01*
X-11004517Y16466413D01*
X-11335613Y16135317D01*
X-11514800Y15702720D01*
X-22533000Y15702720D01*
X-22533000Y17306506D01*
X-22521619Y17363723D01*
X-22533000Y17420939D01*
X-22533000Y21746848D01*
X-19816600Y21746848D01*
X-19816600Y21179152D01*
X-19599353Y20654669D01*
X-19197931Y20253247D01*
X-18673448Y20036000D01*
X-18105752Y20036000D01*
X-17950729Y20100212D01*
X-17939858Y20083942D01*
X-17886049Y20047988D01*
X-17886047Y20047986D01*
X-17830094Y20010600D01*
X-17726671Y19941495D01*
X-17538675Y19904100D01*
X-17538670Y19904100D01*
X-17475200Y19891475D01*
X-17411730Y19904100D01*
X-11344816Y19904100D01*
X-11335613Y19881883D01*
X-11004517Y19550787D01*
X-10571920Y19371600D01*
X-10419659Y19371600D01*
X-10629516Y19161743D01*
X-11004517Y19006413D01*
X-11335613Y18675317D01*
X-11514800Y18242720D01*
X-11514800Y17774480D01*
X-11335613Y17341883D01*
X-11004517Y17010787D01*
X-10571920Y16831600D01*
X-10103680Y16831600D01*
X-9671083Y17010787D01*
X-9339987Y17341883D01*
X-9160800Y17774480D01*
X-9160800Y18242720D01*
X-9326232Y18642109D01*
X-7839079Y20129261D01*
X-7675248Y20061400D01*
X-7107552Y20061400D01*
X-6583069Y20278647D01*
X-6181647Y20680069D01*
X-5964400Y21204552D01*
X-5964400Y21772248D01*
X-6181647Y22296731D01*
X-6583069Y22698153D01*
X-7107552Y22915400D01*
X-7675248Y22915400D01*
X-8199731Y22698153D01*
X-8601153Y22296731D01*
X-8818400Y21772248D01*
X-8818400Y21204552D01*
X-8750539Y21040721D01*
X-9160800Y20630460D01*
X-9160800Y20782720D01*
X-9339987Y21215317D01*
X-9671083Y21546413D01*
X-10103680Y21725600D01*
X-10571920Y21725600D01*
X-11004517Y21546413D01*
X-11335613Y21215317D01*
X-11344816Y21193100D01*
X-16962600Y21193100D01*
X-16962600Y21746848D01*
X-17179847Y22271331D01*
X-17581269Y22672753D01*
X-18105752Y22890000D01*
X-18673448Y22890000D01*
X-19197931Y22672753D01*
X-19599353Y22271331D01*
X-19816600Y21746848D01*
X-22533000Y21746848D01*
X-22533000Y23322720D01*
X-11514800Y23322720D01*
X-11514800Y22854480D01*
X-11335613Y22421883D01*
X-11004517Y22090787D01*
X-10571920Y21911600D01*
X-10103680Y21911600D01*
X-9671083Y22090787D01*
X-9339987Y22421883D01*
X-9160800Y22854480D01*
X-9160800Y23322720D01*
X-9339987Y23755317D01*
X-9671083Y24086413D01*
X-10103680Y24265600D01*
X-10571920Y24265600D01*
X-11004517Y24086413D01*
X-11335613Y23755317D01*
X-11514800Y23322720D01*
X-22533000Y23322720D01*
X-22533000Y30117506D01*
X-22521619Y30174723D01*
X-22533000Y30231940D01*
X-22533000Y30231944D01*
X-22566710Y30401417D01*
X-22695123Y30593599D01*
X-22743632Y30626012D01*
X-24500587Y32382966D01*
X-24533002Y32431478D01*
X-24714911Y32553026D01*
X-24643570Y32624367D01*
X-24475800Y33029399D01*
X-24475800Y33143864D01*
X-24397846Y33065910D01*
X-24365433Y33017401D01*
X-24316924Y32984988D01*
X-24316923Y32984987D01*
X-24173251Y32888988D01*
X-24003778Y32855278D01*
X-24003774Y32855278D01*
X-23946556Y32843897D01*
X-23889338Y32855278D01*
X-21637335Y32855278D01*
X-14890289Y26108231D01*
X-14857876Y26059722D01*
X-14809367Y26027309D01*
X-14809366Y26027308D01*
X-14766952Y25998968D01*
X-14665694Y25931309D01*
X-14496221Y25897599D01*
X-14496218Y25897599D01*
X-14439000Y25886218D01*
X-14381782Y25897599D01*
X-11500353Y25897599D01*
X-11514800Y25862720D01*
X-11514800Y25394480D01*
X-11335613Y24961883D01*
X-11004517Y24630787D01*
X-10571920Y24451600D01*
X-10103680Y24451600D01*
X-9671083Y24630787D01*
X-9339987Y24961883D01*
X-9304482Y25047600D01*
X-7352657Y25047600D01*
X-4162400Y21857342D01*
X-4162399Y18290020D01*
X-4393922Y18135322D01*
X-4643011Y17762533D01*
X-4730479Y17322800D01*
X-4643011Y16883067D01*
X-4393922Y16510278D01*
X-4021133Y16261189D01*
X-3692399Y16195800D01*
X-3470401Y16195800D01*
X-3141667Y16261189D01*
X-2768878Y16510278D01*
X-2519789Y16883067D01*
X-2432321Y17322800D01*
X-2519789Y17762533D01*
X-2768878Y18135322D01*
X-3000400Y18290020D01*
X-3000400Y22040784D01*
X-2989019Y22098001D01*
X-3000400Y22155218D01*
X-3000400Y22155222D01*
X-3034110Y22324695D01*
X-3162523Y22516877D01*
X-3211031Y22549289D01*
X-6660708Y25998965D01*
X-6693123Y26047477D01*
X-6885305Y26175890D01*
X-7054778Y26209600D01*
X-7054782Y26209600D01*
X-7112000Y26220981D01*
X-7169218Y26209600D01*
X-9304482Y26209600D01*
X-9339987Y26295317D01*
X-9671083Y26626413D01*
X-10103680Y26805600D01*
X-10571920Y26805600D01*
X-10657637Y26770095D01*
X-10736507Y26848965D01*
X-10768922Y26897476D01*
X-10961104Y27025889D01*
X-11130577Y27059599D01*
X-11130581Y27059599D01*
X-11187799Y27070980D01*
X-11245017Y27059599D01*
X-14198341Y27059599D01*
X-15541462Y28402720D01*
X-11514800Y28402720D01*
X-11514800Y27934480D01*
X-11335613Y27501883D01*
X-11004517Y27170787D01*
X-10571920Y26991600D01*
X-10103680Y26991600D01*
X-9671083Y27170787D01*
X-9339987Y27501883D01*
X-9160800Y27934480D01*
X-9160800Y28402720D01*
X-9339987Y28835317D01*
X-9671083Y29166413D01*
X-10103680Y29345600D01*
X-10571920Y29345600D01*
X-11004517Y29166413D01*
X-11335613Y28835317D01*
X-11514800Y28402720D01*
X-15541462Y28402720D01*
X-20945386Y33806643D01*
X-20977801Y33855155D01*
X-21169983Y33983568D01*
X-21339456Y34017278D01*
X-21339460Y34017278D01*
X-21396678Y34028659D01*
X-21453896Y34017278D01*
X-23705898Y34017278D01*
X-23932268Y34243648D01*
X-19816600Y34243648D01*
X-19816600Y33675952D01*
X-19599353Y33151469D01*
X-19197931Y32750047D01*
X-18673448Y32532800D01*
X-18105752Y32532800D01*
X-17581269Y32750047D01*
X-17179847Y33151469D01*
X-17085684Y33378800D01*
X-11514800Y33378800D01*
X-11514800Y33014480D01*
X-11335613Y32581883D01*
X-11004517Y32250787D01*
X-10571920Y32071600D01*
X-10203759Y32071600D01*
X-10389759Y31885600D01*
X-10571920Y31885600D01*
X-11004517Y31706413D01*
X-11335613Y31375317D01*
X-11514800Y30942720D01*
X-11514800Y30474480D01*
X-11335613Y30041883D01*
X-11004517Y29710787D01*
X-10571920Y29531600D01*
X-10103680Y29531600D01*
X-9671083Y29710787D01*
X-9339987Y30041883D01*
X-9160800Y30474480D01*
X-9160800Y30942720D01*
X-9262996Y31189444D01*
X-7864479Y32587961D01*
X-7700648Y32520100D01*
X-7132952Y32520100D01*
X-6608469Y32737347D01*
X-6207047Y33138769D01*
X-5989800Y33663252D01*
X-5989800Y34230948D01*
X-6207047Y34755431D01*
X-6608469Y35156853D01*
X-7132952Y35374100D01*
X-7700648Y35374100D01*
X-8225131Y35156853D01*
X-8626553Y34755431D01*
X-8843800Y34230948D01*
X-8843800Y33663252D01*
X-8775939Y33499421D01*
X-9160800Y33114560D01*
X-9160800Y33482720D01*
X-9339987Y33915317D01*
X-9671083Y34246413D01*
X-10103680Y34425600D01*
X-10571920Y34425600D01*
X-10651201Y34392761D01*
X-10822305Y34507090D01*
X-10991778Y34540800D01*
X-10991782Y34540800D01*
X-11049000Y34552181D01*
X-11106218Y34540800D01*
X-17085684Y34540800D01*
X-17179847Y34768131D01*
X-17581269Y35169553D01*
X-18105752Y35386800D01*
X-18673448Y35386800D01*
X-19197931Y35169553D01*
X-19599353Y34768131D01*
X-19816600Y34243648D01*
X-23932268Y34243648D01*
X-24618585Y34929964D01*
X-24651000Y34978476D01*
X-24757979Y35049958D01*
X-24643570Y35164367D01*
X-24475800Y35569399D01*
X-24475800Y36007801D01*
X-24643570Y36412833D01*
X-24953567Y36722830D01*
X-25274322Y36855691D01*
X-25216342Y36858285D01*
X-24793720Y37033341D01*
X-24713447Y37284642D01*
X-25577800Y38148995D01*
X-26442153Y37284642D01*
X-26361880Y37033341D01*
X-25877019Y36857455D01*
X-26202033Y36722830D01*
X-26512030Y36412833D01*
X-26679800Y36007801D01*
X-26679800Y35893336D01*
X-29343785Y38557321D01*
X-27074518Y38557321D01*
X-27048115Y37967142D01*
X-26873059Y37544520D01*
X-26621758Y37464247D01*
X-25757405Y38328600D01*
X-25398195Y38328600D01*
X-24533842Y37464247D01*
X-24282541Y37544520D01*
X-24081082Y38099879D01*
X-24107485Y38690058D01*
X-24282541Y39112680D01*
X-24533842Y39192953D01*
X-25398195Y38328600D01*
X-25757405Y38328600D01*
X-26621758Y39192953D01*
X-26873059Y39112680D01*
X-27074518Y38557321D01*
X-29343785Y38557321D01*
X-33095607Y42309142D01*
X-33082710Y42303800D01*
X-32442150Y42303800D01*
X-32283400Y42462550D01*
X-32283400Y43611800D01*
X-32029400Y43611800D01*
X-32029400Y42462550D01*
X-31870650Y42303800D01*
X-31230090Y42303800D01*
X-30996701Y42400473D01*
X-30818073Y42579102D01*
X-30721400Y42812491D01*
X-30721400Y43453050D01*
X-30880150Y43611800D01*
X-32029400Y43611800D01*
X-32283400Y43611800D01*
X-32303400Y43611800D01*
X-32303400Y43865800D01*
X-32283400Y43865800D01*
X-32283400Y45015050D01*
X-32029400Y45015050D01*
X-32029400Y43865800D01*
X-30880150Y43865800D01*
X-30721400Y44024550D01*
X-30721400Y44665109D01*
X-30818073Y44898498D01*
X-30996701Y45077127D01*
X-31230090Y45173800D01*
X-31870650Y45173800D01*
X-32029400Y45015050D01*
X-32283400Y45015050D01*
X-32442150Y45173800D01*
X-33082710Y45173800D01*
X-33316099Y45077127D01*
X-33494727Y44898498D01*
X-33591400Y44665109D01*
X-33591400Y44024550D01*
X-33432652Y43865802D01*
X-33572583Y43865802D01*
X-33634789Y44178533D01*
X-33883878Y44551322D01*
X-34256667Y44800411D01*
X-34585401Y44865800D01*
X-34807399Y44865800D01*
X-35136133Y44800411D01*
X-35508922Y44551322D01*
X-35758011Y44178533D01*
X-35845479Y43738800D01*
X-35758011Y43299067D01*
X-35508922Y42926278D01*
X-35136133Y42677189D01*
X-35059761Y42661998D01*
X-34995291Y42565512D01*
X-34995289Y42565510D01*
X-34962876Y42517001D01*
X-34914367Y42484588D01*
X-26619011Y34189231D01*
X-26586598Y34140722D01*
X-26394416Y34012309D01*
X-26376181Y34008682D01*
X-26512030Y33872833D01*
X-26529938Y33829600D01*
X-27960800Y33829600D01*
X-27960800Y34294448D01*
X-28178047Y34818931D01*
X-28579469Y35220353D01*
X-29103952Y35437600D01*
X-29671648Y35437600D01*
X-30196131Y35220353D01*
X-30597553Y34818931D01*
X-30814800Y34294448D01*
X-30814800Y33959336D01*
X-31575400Y34719935D01*
X-31575400Y35151580D01*
X-31343878Y35306278D01*
X-31094789Y35679067D01*
X-31007321Y36118800D01*
X-31094789Y36558533D01*
X-31343878Y36931322D01*
X-31716667Y37180411D01*
X-32045401Y37245800D01*
X-32267399Y37245800D01*
X-32596133Y37180411D01*
X-32968922Y36931322D01*
X-33218011Y36558533D01*
X-33305479Y36118800D01*
X-33218011Y35679067D01*
X-32968922Y35306278D01*
X-32737400Y35151580D01*
X-32737400Y34536496D01*
X-32748781Y34479278D01*
X-32737400Y34422060D01*
X-32737400Y34422057D01*
X-32703690Y34252584D01*
X-32575277Y34060401D01*
X-32526765Y34027986D01*
X-30141011Y31642230D01*
X-30108600Y31593724D01*
X-30060094Y31561313D01*
X-30060091Y31561310D01*
X-29997508Y31519494D01*
X-29916418Y31465311D01*
X-29746945Y31431601D01*
X-29746940Y31431601D01*
X-29689724Y31420220D01*
X-29632507Y31431601D01*
X-26519329Y31431601D01*
X-26575613Y31375317D01*
X-26611118Y31289600D01*
X-30620341Y31289600D01*
X-33660908Y34330165D01*
X-33693323Y34378677D01*
X-33885505Y34507090D01*
X-34054978Y34540800D01*
X-34054982Y34540800D01*
X-34112200Y34552181D01*
X-34169418Y34540800D01*
X-39107484Y34540800D01*
X-39201647Y34768131D01*
X-39465149Y35031633D01*
X-39336667Y35057189D01*
X-38963878Y35306278D01*
X-38714789Y35679067D01*
X-38627321Y36118800D01*
X-38385479Y36118800D01*
X-38298011Y35679067D01*
X-38048922Y35306278D01*
X-37676133Y35057189D01*
X-37347399Y34991800D01*
X-37125401Y34991800D01*
X-36796667Y35057189D01*
X-36423878Y35306278D01*
X-36174789Y35679067D01*
X-36087321Y36118800D01*
X-35845479Y36118800D01*
X-35758011Y35679067D01*
X-35508922Y35306278D01*
X-35136133Y35057189D01*
X-34807399Y34991800D01*
X-34585401Y34991800D01*
X-34256667Y35057189D01*
X-33883878Y35306278D01*
X-33634789Y35679067D01*
X-33547321Y36118800D01*
X-33634789Y36558533D01*
X-33883878Y36931322D01*
X-34256667Y37180411D01*
X-34585401Y37245800D01*
X-34807399Y37245800D01*
X-35136133Y37180411D01*
X-35508922Y36931322D01*
X-35758011Y36558533D01*
X-35845479Y36118800D01*
X-36087321Y36118800D01*
X-36174789Y36558533D01*
X-36423878Y36931322D01*
X-36796667Y37180411D01*
X-37125401Y37245800D01*
X-37347399Y37245800D01*
X-37676133Y37180411D01*
X-38048922Y36931322D01*
X-38298011Y36558533D01*
X-38385479Y36118800D01*
X-38627321Y36118800D01*
X-38714789Y36558533D01*
X-38963878Y36931322D01*
X-39336667Y37180411D01*
X-39665401Y37245800D01*
X-39887399Y37245800D01*
X-40216133Y37180411D01*
X-40588922Y36931322D01*
X-40838011Y36558533D01*
X-40925479Y36118800D01*
X-40838011Y35679067D01*
X-40642725Y35386800D01*
X-40695248Y35386800D01*
X-41219731Y35169553D01*
X-41621153Y34768131D01*
X-41838400Y34243648D01*
X-43810590Y34243648D01*
X-43897108Y34330165D01*
X-43929523Y34378677D01*
X-44121705Y34507090D01*
X-44291178Y34540800D01*
X-44291182Y34540800D01*
X-44348400Y34552181D01*
X-44405618Y34540800D01*
X-50105684Y34540800D01*
X-50199847Y34768131D01*
X-50601269Y35169553D01*
X-51125752Y35386800D01*
X-51693448Y35386800D01*
X-52217931Y35169553D01*
X-52619353Y34768131D01*
X-52836600Y34243648D01*
X-53560323Y34243648D01*
X-53654576Y34471194D01*
X-53971606Y34788224D01*
X-54024985Y34810335D01*
X-54037310Y34872295D01*
X-54165723Y35064477D01*
X-54357906Y35192890D01*
X-54584600Y35237982D01*
X-54811295Y35192890D01*
X-55003477Y35064477D01*
X-55131890Y34872294D01*
X-55139653Y34833266D01*
X-55248394Y34788224D01*
X-55565424Y34471194D01*
X-55737000Y34056974D01*
X-55737000Y33608626D01*
X-55565424Y33194406D01*
X-55248394Y32877376D01*
X-55165600Y32843081D01*
X-55165599Y29390643D01*
X-55578345Y28977897D01*
X-55818380Y28398401D01*
X-63123800Y28398401D01*
X-63123800Y30900301D01*
X-58320280Y30900301D01*
X-58320280Y30273059D01*
X-58080245Y29693563D01*
X-57636717Y29250035D01*
X-57057221Y29010000D01*
X-56429979Y29010000D01*
X-55850483Y29250035D01*
X-55406955Y29693563D01*
X-55166920Y30273059D01*
X-55166920Y30900301D01*
X-55406955Y31479797D01*
X-55850483Y31923325D01*
X-56429979Y32163360D01*
X-57057221Y32163360D01*
X-57636717Y31923325D01*
X-58080245Y31479797D01*
X-58320280Y30900301D01*
X-63123800Y30900301D01*
X-63123800Y36118800D01*
X-48545479Y36118800D01*
X-48458011Y35679067D01*
X-48208922Y35306278D01*
X-47836133Y35057189D01*
X-47507399Y34991800D01*
X-47285401Y34991800D01*
X-46956667Y35057189D01*
X-46583878Y35306278D01*
X-46334789Y35679067D01*
X-46247321Y36118800D01*
X-46005479Y36118800D01*
X-45918011Y35679067D01*
X-45668922Y35306278D01*
X-45296133Y35057189D01*
X-44967399Y34991800D01*
X-44745401Y34991800D01*
X-44416667Y35057189D01*
X-44043878Y35306278D01*
X-43794789Y35679067D01*
X-43707321Y36118800D01*
X-43465479Y36118800D01*
X-43378011Y35679067D01*
X-43128922Y35306278D01*
X-42756133Y35057189D01*
X-42427399Y34991800D01*
X-42205401Y34991800D01*
X-41876667Y35057189D01*
X-41503878Y35306278D01*
X-41254789Y35679067D01*
X-41167321Y36118800D01*
X-41254789Y36558533D01*
X-41503878Y36931322D01*
X-41876667Y37180411D01*
X-42205401Y37245800D01*
X-42427399Y37245800D01*
X-42756133Y37180411D01*
X-43128922Y36931322D01*
X-43378011Y36558533D01*
X-43465479Y36118800D01*
X-43707321Y36118800D01*
X-43794789Y36558533D01*
X-44043878Y36931322D01*
X-44416667Y37180411D01*
X-44745401Y37245800D01*
X-44967399Y37245800D01*
X-45296133Y37180411D01*
X-45668922Y36931322D01*
X-45918011Y36558533D01*
X-46005479Y36118800D01*
X-46247321Y36118800D01*
X-46334789Y36558533D01*
X-46583878Y36931322D01*
X-46956667Y37180411D01*
X-47285401Y37245800D01*
X-47507399Y37245800D01*
X-47836133Y37180411D01*
X-48208922Y36931322D01*
X-48458011Y36558533D01*
X-48545479Y36118800D01*
X-63123800Y36118800D01*
X-63123800Y43992800D01*
X-55759079Y43992800D01*
X-55671611Y43553067D01*
X-55422522Y43180278D01*
X-55049733Y42931189D01*
X-54720999Y42865800D01*
X-54597827Y42865800D01*
X-52966860Y41234832D01*
X-52934447Y41186323D01*
X-52885938Y41153910D01*
X-52868257Y41142096D01*
X-52742265Y41057910D01*
X-52572792Y41024200D01*
X-52572788Y41024200D01*
X-52515571Y41012819D01*
X-52458354Y41024200D01*
X-39732018Y41024200D01*
X-39674800Y41012819D01*
X-39617582Y41024200D01*
X-39617578Y41024200D01*
X-39448105Y41057910D01*
X-39255923Y41186323D01*
X-39223508Y41234835D01*
X-38385309Y42073033D01*
X-38385307Y42073036D01*
X-37739088Y42719254D01*
X-37676133Y42677189D01*
X-37347399Y42611800D01*
X-37125401Y42611800D01*
X-36796667Y42677189D01*
X-36423878Y42926278D01*
X-36174789Y43299067D01*
X-36087321Y43738800D01*
X-36174789Y44178533D01*
X-36423878Y44551322D01*
X-36796667Y44800411D01*
X-37125401Y44865800D01*
X-37347399Y44865800D01*
X-37676133Y44800411D01*
X-38048922Y44551322D01*
X-38298011Y44178533D01*
X-38385479Y43738800D01*
X-38381726Y43719932D01*
X-38692988Y43408670D01*
X-38627321Y43738800D01*
X-38714789Y44178533D01*
X-38963878Y44551322D01*
X-39336667Y44800411D01*
X-39665401Y44865800D01*
X-39887399Y44865800D01*
X-40216133Y44800411D01*
X-40588922Y44551322D01*
X-40838011Y44178533D01*
X-40925479Y43738800D01*
X-40838011Y43299067D01*
X-40588922Y42926278D01*
X-40216133Y42677189D01*
X-39887399Y42611800D01*
X-39665401Y42611800D01*
X-39446270Y42655388D01*
X-39915457Y42186200D01*
X-52274912Y42186200D01*
X-53478471Y43389759D01*
X-48788314Y43389759D01*
X-48548789Y42883666D01*
X-48133823Y42507759D01*
X-47745439Y42346896D01*
X-47523400Y42468885D01*
X-47523400Y43611800D01*
X-48667029Y43611800D01*
X-48788314Y43389759D01*
X-53478471Y43389759D01*
X-53585796Y43497083D01*
X-53548389Y43553067D01*
X-53460921Y43992800D01*
X-53479825Y44087841D01*
X-48788314Y44087841D01*
X-48667029Y43865800D01*
X-47523400Y43865800D01*
X-47523400Y45008715D01*
X-47269400Y45008715D01*
X-47269400Y43865800D01*
X-47249400Y43865800D01*
X-47249400Y43611800D01*
X-47269400Y43611800D01*
X-47269400Y42468885D01*
X-47047361Y42346896D01*
X-46658977Y42507759D01*
X-46244011Y42883666D01*
X-46004486Y43389759D01*
X-46125770Y43611798D01*
X-45980217Y43611798D01*
X-45918011Y43299067D01*
X-45668922Y42926278D01*
X-45296133Y42677189D01*
X-44967399Y42611800D01*
X-44745401Y42611800D01*
X-44416667Y42677189D01*
X-44043878Y42926278D01*
X-43794789Y43299067D01*
X-43707321Y43738800D01*
X-43465479Y43738800D01*
X-43378011Y43299067D01*
X-43128922Y42926278D01*
X-42756133Y42677189D01*
X-42427399Y42611800D01*
X-42205401Y42611800D01*
X-41876667Y42677189D01*
X-41503878Y42926278D01*
X-41254789Y43299067D01*
X-41167321Y43738800D01*
X-41254789Y44178533D01*
X-41503878Y44551322D01*
X-41876667Y44800411D01*
X-42205401Y44865800D01*
X-42427399Y44865800D01*
X-42756133Y44800411D01*
X-43128922Y44551322D01*
X-43378011Y44178533D01*
X-43465479Y43738800D01*
X-43707321Y43738800D01*
X-43794789Y44178533D01*
X-44043878Y44551322D01*
X-44416667Y44800411D01*
X-44745401Y44865800D01*
X-44967399Y44865800D01*
X-45296133Y44800411D01*
X-45668922Y44551322D01*
X-45918011Y44178533D01*
X-45980217Y43865802D01*
X-46125770Y43865802D01*
X-46004486Y44087841D01*
X-46244011Y44593934D01*
X-46658977Y44969841D01*
X-47047361Y45130704D01*
X-47269400Y45008715D01*
X-47523400Y45008715D01*
X-47745439Y45130704D01*
X-48133823Y44969841D01*
X-48548789Y44593934D01*
X-48788314Y44087841D01*
X-53479825Y44087841D01*
X-53548389Y44432533D01*
X-53797478Y44805322D01*
X-54170267Y45054411D01*
X-54499001Y45119800D01*
X-54720999Y45119800D01*
X-55049733Y45054411D01*
X-55422522Y44805322D01*
X-55671611Y44432533D01*
X-55759079Y43992800D01*
X-63123800Y43992800D01*
X-63123800Y46765848D01*
X-52811200Y46765848D01*
X-52811200Y46198152D01*
X-52593953Y45673669D01*
X-52192531Y45272247D01*
X-51668048Y45055000D01*
X-51100352Y45055000D01*
X-50575869Y45272247D01*
X-50174447Y45673669D01*
X-49957200Y46198152D01*
X-49957200Y46765848D01*
X-41813000Y46765848D01*
X-41813000Y46198152D01*
X-41595753Y45673669D01*
X-41194331Y45272247D01*
X-40669848Y45055000D01*
X-40102152Y45055000D01*
X-39577669Y45272247D01*
X-39176247Y45673669D01*
X-38959000Y46198152D01*
X-38959000Y46740448D01*
X-30814800Y46740448D01*
X-30814800Y46172752D01*
X-30597553Y45648269D01*
X-30196131Y45246847D01*
X-29671648Y45029600D01*
X-29103952Y45029600D01*
X-28579469Y45246847D01*
X-28178047Y45648269D01*
X-28083884Y45875600D01*
X-26754800Y45875600D01*
X-26754800Y45714480D01*
X-26575613Y45281883D01*
X-26244517Y44950787D01*
X-25811920Y44771600D01*
X-25343680Y44771600D01*
X-24911083Y44950787D01*
X-24579987Y45281883D01*
X-24400800Y45714480D01*
X-24400800Y46182720D01*
X-24579987Y46615317D01*
X-24911083Y46946413D01*
X-25343680Y47125600D01*
X-25811920Y47125600D01*
X-26025736Y47037035D01*
X-26028578Y47037600D01*
X-26028582Y47037600D01*
X-26085800Y47048981D01*
X-26143018Y47037600D01*
X-28083884Y47037600D01*
X-28178047Y47264931D01*
X-28579469Y47666353D01*
X-29103952Y47883600D01*
X-29671648Y47883600D01*
X-30196131Y47666353D01*
X-30597553Y47264931D01*
X-30814800Y46740448D01*
X-38959000Y46740448D01*
X-38959000Y46765848D01*
X-39053163Y46993179D01*
X-38138742Y47907600D01*
X-26611118Y47907600D01*
X-26575613Y47821883D01*
X-26244517Y47490787D01*
X-25811920Y47311600D01*
X-25343680Y47311600D01*
X-24911083Y47490787D01*
X-24579987Y47821883D01*
X-24400800Y48254480D01*
X-24400800Y48722720D01*
X-24579987Y49155317D01*
X-24911083Y49486413D01*
X-25343680Y49665600D01*
X-25811920Y49665600D01*
X-26244517Y49486413D01*
X-26575613Y49155317D01*
X-26611118Y49069600D01*
X-38322182Y49069600D01*
X-38379400Y49080981D01*
X-38436618Y49069600D01*
X-38436622Y49069600D01*
X-38606095Y49035890D01*
X-38749767Y48939891D01*
X-38749768Y48939890D01*
X-38798277Y48907477D01*
X-38830690Y48858968D01*
X-39874821Y47814837D01*
X-40102152Y47909000D01*
X-40669848Y47909000D01*
X-41194331Y47691753D01*
X-41595753Y47290331D01*
X-41813000Y46765848D01*
X-49957200Y46765848D01*
X-50051363Y46993179D01*
X-47930442Y49114100D01*
X-29508518Y49114100D01*
X-29451300Y49102719D01*
X-29394082Y49114100D01*
X-29394078Y49114100D01*
X-29224605Y49147810D01*
X-29032423Y49276223D01*
X-29000008Y49324735D01*
X-27062023Y51262720D01*
X-26754800Y51262720D01*
X-26754800Y50794480D01*
X-26575613Y50361883D01*
X-26244517Y50030787D01*
X-25811920Y49851600D01*
X-25343680Y49851600D01*
X-24911083Y50030787D01*
X-24579987Y50361883D01*
X-24400800Y50794480D01*
X-24400800Y51262720D01*
X-24579987Y51695317D01*
X-24911083Y52026413D01*
X-25343680Y52205600D01*
X-25811920Y52205600D01*
X-26244517Y52026413D01*
X-26575613Y51695317D01*
X-26754800Y51262720D01*
X-27062023Y51262720D01*
X-25897637Y52427105D01*
X-25811920Y52391600D01*
X-25343680Y52391600D01*
X-24911083Y52570787D01*
X-24579987Y52901883D01*
X-24400800Y53334480D01*
X-24400800Y53802720D01*
X-24579987Y54235317D01*
X-24911083Y54566413D01*
X-25343680Y54745600D01*
X-25811920Y54745600D01*
X-26244517Y54566413D01*
X-26575613Y54235317D01*
X-26754800Y53802720D01*
X-26754800Y53334480D01*
X-26719295Y53248763D01*
X-29691957Y50276100D01*
X-48113882Y50276100D01*
X-48171100Y50287481D01*
X-48228318Y50276100D01*
X-48228322Y50276100D01*
X-48397795Y50242390D01*
X-48541467Y50146391D01*
X-48541468Y50146390D01*
X-48589977Y50113977D01*
X-48622390Y50065468D01*
X-50873021Y47814837D01*
X-51100352Y47909000D01*
X-51668048Y47909000D01*
X-52192531Y47691753D01*
X-52593953Y47290331D01*
X-52811200Y46765848D01*
X-63123800Y46765848D01*
X-63123800Y50450476D01*
X-62907918Y50450476D01*
X-62760345Y50142094D01*
X-62005769Y49848795D01*
X-61196391Y49866586D01*
X-60531255Y50142094D01*
X-60383682Y50450476D01*
X-61645800Y51712595D01*
X-62907918Y50450476D01*
X-63123800Y50450476D01*
X-63123800Y50647442D01*
X-63087524Y50630082D01*
X-61825405Y51892200D01*
X-63087524Y53154318D01*
X-63123800Y53136958D01*
X-63123800Y62052198D01*
X-62973444Y62675099D01*
X-62464181Y63516489D01*
X-62460462Y63519824D01*
X-62457135Y63523843D01*
X-62142157Y63909165D01*
X-61782124Y64156017D01*
X-61351311Y64297128D01*
X-61165164Y64317603D01*
X-57620514Y64317972D01*
X-57652587Y64269972D01*
X-59616165Y62306392D01*
X-59664677Y62273977D01*
X-59793090Y62081794D01*
X-59826800Y61912321D01*
X-59826800Y61912318D01*
X-59838181Y61855100D01*
X-59826800Y61797882D01*
X-59826799Y55520834D01*
X-60224067Y55356280D01*
X-60709880Y54870467D01*
X-60972800Y54235722D01*
X-60972800Y53813932D01*
X-61285831Y53935605D01*
X-62095209Y53917814D01*
X-62760345Y53642306D01*
X-62907918Y53333924D01*
X-61645800Y52071805D01*
X-61631657Y52085947D01*
X-61452052Y51906342D01*
X-61466195Y51892200D01*
X-60204076Y50630082D01*
X-59895694Y50777655D01*
X-59602395Y51532231D01*
X-59616556Y52176481D01*
X-59589322Y52165200D01*
X-58902278Y52165200D01*
X-58267533Y52428120D01*
X-57781720Y52913933D01*
X-57518800Y53548678D01*
X-57518800Y54235722D01*
X-57781720Y54870467D01*
X-58267533Y55356280D01*
X-58664800Y55520833D01*
X-58664800Y61614443D01*
X-56960640Y63318601D01*
X-23512958Y63318601D01*
X-23329269Y63134912D01*
X-23488578Y63166600D01*
X-23488582Y63166600D01*
X-23545800Y63177981D01*
X-23603018Y63166600D01*
X-53085084Y63166600D01*
X-53142301Y63177981D01*
X-53199518Y63166600D01*
X-53199522Y63166600D01*
X-53368995Y63132890D01*
X-53424303Y63095934D01*
X-53512666Y63036891D01*
X-53561177Y63004477D01*
X-53593590Y62955968D01*
X-56745665Y59803892D01*
X-56794177Y59771477D01*
X-56922590Y59579294D01*
X-56956300Y59409821D01*
X-56956300Y59409818D01*
X-56967681Y59352600D01*
X-56956300Y59295382D01*
X-56956299Y55289523D01*
X-56967681Y55232300D01*
X-56922590Y55005606D01*
X-56826591Y54861934D01*
X-56826589Y54861932D01*
X-56794176Y54813423D01*
X-56745668Y54781011D01*
X-56019888Y54055229D01*
X-55987477Y54006723D01*
X-55938971Y53974312D01*
X-55938968Y53974309D01*
X-55879239Y53934400D01*
X-55795295Y53878310D01*
X-55625822Y53844600D01*
X-55625817Y53844600D01*
X-55568601Y53833219D01*
X-55511384Y53844600D01*
X-55472800Y53844600D01*
X-55472800Y53548678D01*
X-55209880Y52913933D01*
X-54724067Y52428120D01*
X-54089322Y52165200D01*
X-53402278Y52165200D01*
X-52767533Y52428120D01*
X-52281720Y52913933D01*
X-52216401Y53071629D01*
X-47214000Y53071629D01*
X-47214000Y52643171D01*
X-47050037Y52247328D01*
X-46747072Y51944363D01*
X-46351229Y51780400D01*
X-45922771Y51780400D01*
X-45526928Y51944363D01*
X-45223963Y52247328D01*
X-45060000Y52643171D01*
X-45060000Y53071629D01*
X-45223963Y53467472D01*
X-45526928Y53770437D01*
X-45922771Y53934400D01*
X-46351229Y53934400D01*
X-46747072Y53770437D01*
X-47050037Y53467472D01*
X-47214000Y53071629D01*
X-52216401Y53071629D01*
X-52018800Y53548678D01*
X-52018800Y54235722D01*
X-52281720Y54870467D01*
X-52767533Y55356280D01*
X-53402278Y55619200D01*
X-54089322Y55619200D01*
X-54724067Y55356280D01*
X-55073747Y55006600D01*
X-55327941Y55006600D01*
X-55794300Y55472957D01*
X-55794300Y59029600D01*
X-55124797Y59029600D01*
X-55021806Y58511830D01*
X-54728513Y58072887D01*
X-54352799Y57821842D01*
X-54352799Y57672609D01*
X-54364181Y57615387D01*
X-54319090Y57388693D01*
X-54223091Y57245021D01*
X-54223089Y57245019D01*
X-54190676Y57196510D01*
X-54142167Y57164097D01*
X-52072738Y55094667D01*
X-51972690Y54944936D01*
X-51924179Y54912522D01*
X-51403690Y54392032D01*
X-51371277Y54343523D01*
X-51179095Y54215110D01*
X-51009622Y54181400D01*
X-51009618Y54181400D01*
X-50952401Y54170019D01*
X-50895184Y54181400D01*
X-45020657Y54181400D01*
X-44684064Y53844806D01*
X-44691000Y53844806D01*
X-44818589Y53819427D01*
X-44926754Y53747154D01*
X-44999027Y53638989D01*
X-45024406Y53511400D01*
X-45024406Y52203400D01*
X-44999027Y52075811D01*
X-44926754Y51967646D01*
X-44818589Y51895373D01*
X-44691000Y51869994D01*
X-43383000Y51869994D01*
X-43255411Y51895373D01*
X-43165450Y51955483D01*
X-42759312Y51955483D01*
X-42703138Y51724474D01*
X-42218879Y51555793D01*
X-41706931Y51585270D01*
X-41370862Y51724474D01*
X-41314688Y51955483D01*
X-42037000Y52677795D01*
X-42759312Y51955483D01*
X-43165450Y51955483D01*
X-43147246Y51967646D01*
X-43074973Y52075811D01*
X-43057449Y52163911D01*
X-42938917Y52135088D01*
X-42216605Y52857400D01*
X-41857395Y52857400D01*
X-41135083Y52135088D01*
X-40904074Y52191262D01*
X-40866390Y52299446D01*
X-40592692Y52025748D01*
X-40232133Y51876400D01*
X-39841867Y51876400D01*
X-39481308Y52025748D01*
X-39205348Y52301708D01*
X-39056000Y52662267D01*
X-39056000Y53052533D01*
X-39063909Y53071629D01*
X-39014000Y53071629D01*
X-39014000Y52643171D01*
X-38850037Y52247328D01*
X-38547072Y51944363D01*
X-38151229Y51780400D01*
X-37722771Y51780400D01*
X-37326928Y51944363D01*
X-37023963Y52247328D01*
X-36860000Y52643171D01*
X-36860000Y53071629D01*
X-37023963Y53467472D01*
X-37326928Y53770437D01*
X-37722771Y53934400D01*
X-38151229Y53934400D01*
X-38547072Y53770437D01*
X-38850037Y53467472D01*
X-39014000Y53071629D01*
X-39063909Y53071629D01*
X-39205348Y53413092D01*
X-39481308Y53689052D01*
X-39841867Y53838400D01*
X-40232133Y53838400D01*
X-40592692Y53689052D01*
X-40861350Y53420394D01*
X-40904074Y53523538D01*
X-41135083Y53579712D01*
X-41857395Y52857400D01*
X-42216605Y52857400D01*
X-42938917Y53579712D01*
X-43057449Y53550889D01*
X-43074973Y53638989D01*
X-43147246Y53747154D01*
X-43165449Y53759317D01*
X-42759312Y53759317D01*
X-42037000Y53037005D01*
X-41314688Y53759317D01*
X-41370862Y53990326D01*
X-41855121Y54159007D01*
X-42367069Y54129530D01*
X-42703138Y53990326D01*
X-42759312Y53759317D01*
X-43165449Y53759317D01*
X-43255411Y53819427D01*
X-43383000Y53844806D01*
X-43456000Y53844806D01*
X-43456000Y53962182D01*
X-43444619Y54019400D01*
X-43456000Y54076618D01*
X-43456000Y54076622D01*
X-43489710Y54246095D01*
X-43535047Y54313946D01*
X-43585709Y54389767D01*
X-43585710Y54389768D01*
X-43618123Y54438277D01*
X-43666632Y54470690D01*
X-44328708Y55132765D01*
X-44361123Y55181277D01*
X-44553305Y55309690D01*
X-44722778Y55343400D01*
X-44722782Y55343400D01*
X-44780000Y55354781D01*
X-44837218Y55343400D01*
X-50711742Y55343400D01*
X-51034887Y55666544D01*
X-51134936Y55816277D01*
X-51183444Y55848689D01*
X-53170298Y57835542D01*
X-52815087Y58072887D01*
X-52521794Y58511830D01*
X-52515206Y58544950D01*
X-52515206Y58079600D01*
X-52489827Y57952011D01*
X-52417554Y57843846D01*
X-52309389Y57771573D01*
X-52181800Y57746194D01*
X-50281800Y57746194D01*
X-50154211Y57771573D01*
X-50046046Y57843846D01*
X-49973773Y57952011D01*
X-49948394Y58079600D01*
X-49948394Y58448600D01*
X-49186457Y58448600D01*
X-46476090Y55738232D01*
X-46443677Y55689723D01*
X-46395168Y55657310D01*
X-46395167Y55657309D01*
X-46295191Y55590507D01*
X-46251495Y55561310D01*
X-46082022Y55527600D01*
X-46082018Y55527600D01*
X-46024800Y55516219D01*
X-45967582Y55527600D01*
X-26611118Y55527600D01*
X-26575613Y55441883D01*
X-26244517Y55110787D01*
X-25811920Y54931600D01*
X-25343680Y54931600D01*
X-24911083Y55110787D01*
X-24579987Y55441883D01*
X-24400800Y55874480D01*
X-24400800Y56342720D01*
X-24579987Y56775317D01*
X-24911083Y57106413D01*
X-25343680Y57285600D01*
X-25811920Y57285600D01*
X-26244517Y57106413D01*
X-26575613Y56775317D01*
X-26611118Y56689600D01*
X-45784142Y56689600D01*
X-48494508Y59399965D01*
X-48526923Y59448477D01*
X-48719105Y59576890D01*
X-48888578Y59610600D01*
X-48888582Y59610600D01*
X-48945800Y59621981D01*
X-49003018Y59610600D01*
X-49948394Y59610600D01*
X-49948394Y59979600D01*
X-49973773Y60107189D01*
X-50046046Y60215354D01*
X-50154211Y60287627D01*
X-50281800Y60313006D01*
X-52181800Y60313006D01*
X-52309389Y60287627D01*
X-52417554Y60215354D01*
X-52489827Y60107189D01*
X-52515206Y59979600D01*
X-52515206Y59514250D01*
X-52521794Y59547370D01*
X-52815087Y59986313D01*
X-53254030Y60279606D01*
X-53641104Y60356600D01*
X-53902496Y60356600D01*
X-54289570Y60279606D01*
X-54728513Y59986313D01*
X-55021806Y59547370D01*
X-55124797Y59029600D01*
X-55794300Y59029600D01*
X-55794300Y59111943D01*
X-52901642Y62004600D01*
X-26426330Y62004600D01*
X-26575613Y61855317D01*
X-26584816Y61833100D01*
X-38138131Y61833100D01*
X-38201601Y61845725D01*
X-38265071Y61833100D01*
X-38265075Y61833100D01*
X-38453071Y61795705D01*
X-38666258Y61653258D01*
X-38702214Y61599446D01*
X-39963720Y60337939D01*
X-40127552Y60405800D01*
X-40695248Y60405800D01*
X-41219731Y60188553D01*
X-41621153Y59787131D01*
X-41838400Y59262648D01*
X-41838400Y58694952D01*
X-41621153Y58170469D01*
X-41219731Y57769047D01*
X-40695248Y57551800D01*
X-40127552Y57551800D01*
X-39603069Y57769047D01*
X-39201647Y58170469D01*
X-38984400Y58694952D01*
X-38984400Y59186448D01*
X-30687800Y59186448D01*
X-30687800Y58618752D01*
X-30470553Y58094269D01*
X-30069131Y57692847D01*
X-29544648Y57475600D01*
X-28976952Y57475600D01*
X-28452469Y57692847D01*
X-28051047Y58094269D01*
X-27983186Y58258100D01*
X-26690025Y58258100D01*
X-26575613Y57981883D01*
X-26244517Y57650787D01*
X-25811920Y57471600D01*
X-25343680Y57471600D01*
X-24911083Y57650787D01*
X-24579987Y57981883D01*
X-24400800Y58414480D01*
X-24400800Y58882720D01*
X-24579987Y59315317D01*
X-24911083Y59646413D01*
X-25343680Y59825600D01*
X-25811920Y59825600D01*
X-26244517Y59646413D01*
X-26343830Y59547100D01*
X-27983186Y59547100D01*
X-28051047Y59710931D01*
X-28452469Y60112353D01*
X-28976952Y60329600D01*
X-29544648Y60329600D01*
X-30069131Y60112353D01*
X-30470553Y59710931D01*
X-30687800Y59186448D01*
X-38984400Y59186448D01*
X-38984400Y59262648D01*
X-39052261Y59426480D01*
X-37934640Y60544100D01*
X-26584816Y60544100D01*
X-26575613Y60521883D01*
X-26244517Y60190787D01*
X-25811920Y60011600D01*
X-25343680Y60011600D01*
X-24911083Y60190787D01*
X-24579987Y60521883D01*
X-24400800Y60954480D01*
X-24400800Y61422720D01*
X-24579987Y61855317D01*
X-24729270Y62004600D01*
X-23786457Y62004600D01*
X-23491799Y61709941D01*
X-23491800Y45220243D01*
X-24608356Y44103686D01*
X-24911083Y44406413D01*
X-25343680Y44585600D01*
X-25811920Y44585600D01*
X-26244517Y44406413D01*
X-26575613Y44075317D01*
X-26754800Y43642720D01*
X-26754800Y43174480D01*
X-26575613Y42741883D01*
X-26244517Y42410787D01*
X-25811920Y42231600D01*
X-25343680Y42231600D01*
X-24911083Y42410787D01*
X-24579987Y42741883D01*
X-24544482Y42827600D01*
X-24539003Y42827600D01*
X-24481785Y42816219D01*
X-24424567Y42827600D01*
X-24424563Y42827600D01*
X-24255090Y42861310D01*
X-24062908Y42989723D01*
X-24030493Y43038235D01*
X-22540431Y44528296D01*
X-22491923Y44560708D01*
X-22363510Y44752890D01*
X-22329800Y44922363D01*
X-22329800Y44922367D01*
X-22318419Y44979584D01*
X-22329800Y45036801D01*
X-22329800Y61893382D01*
X-22318419Y61950600D01*
X-22329800Y62007818D01*
X-22329800Y62007822D01*
X-22361488Y62167131D01*
X-21662999Y61468641D01*
X-21663000Y44402978D01*
X-24565539Y41500437D01*
X-24579987Y41535317D01*
X-24911083Y41866413D01*
X-25343680Y42045600D01*
X-25811920Y42045600D01*
X-26244517Y41866413D01*
X-26575613Y41535317D01*
X-26754800Y41102720D01*
X-26754800Y40634480D01*
X-26575613Y40201883D01*
X-26244517Y39870787D01*
X-26005130Y39771630D01*
X-26361880Y39623859D01*
X-26442153Y39372558D01*
X-25577800Y38508205D01*
X-24713447Y39372558D01*
X-24793720Y39623859D01*
X-25174098Y39761843D01*
X-24911083Y39870787D01*
X-24579987Y40201883D01*
X-24544482Y40287600D01*
X-24432937Y40287600D01*
X-24375719Y40276219D01*
X-24318501Y40287600D01*
X-24318497Y40287600D01*
X-24149024Y40321310D01*
X-23956842Y40449723D01*
X-23924427Y40498235D01*
X-20711628Y43711032D01*
X-20663123Y43743442D01*
X-20630712Y43791948D01*
X-20630709Y43791951D01*
X-20581365Y43865800D01*
X-20534710Y43935624D01*
X-20501000Y44105097D01*
X-20501000Y44105102D01*
X-20489619Y44162318D01*
X-20501000Y44219535D01*
X-20501000Y46740448D01*
X-19829300Y46740448D01*
X-19829300Y46172752D01*
X-19612053Y45648269D01*
X-19210631Y45246847D01*
X-19046799Y45178986D01*
X-19046800Y43916570D01*
X-19059425Y43853100D01*
X-19046800Y43789630D01*
X-19046800Y43789626D01*
X-19009405Y43601630D01*
X-18866958Y43388442D01*
X-18813143Y43352484D01*
X-11505597Y36044937D01*
X-11514800Y36022720D01*
X-11514800Y35554480D01*
X-11335613Y35121883D01*
X-11004517Y34790787D01*
X-10571920Y34611600D01*
X-10103680Y34611600D01*
X-9671083Y34790787D01*
X-9339987Y35121883D01*
X-9160800Y35554480D01*
X-9160800Y36022720D01*
X-9339987Y36455317D01*
X-9671083Y36786413D01*
X-10103680Y36965600D01*
X-10571920Y36965600D01*
X-10594137Y36956397D01*
X-10943079Y37305338D01*
X-10571920Y37151600D01*
X-10103680Y37151600D01*
X-9671083Y37330787D01*
X-9339987Y37661883D01*
X-9160800Y38094480D01*
X-9160800Y38562720D01*
X-9339987Y38995317D01*
X-9671083Y39326413D01*
X-10103680Y39505600D01*
X-10571920Y39505600D01*
X-11004517Y39326413D01*
X-11335613Y38995317D01*
X-11514800Y38562720D01*
X-11514800Y38094480D01*
X-11361062Y37723321D01*
X-14740461Y41102720D01*
X-11514800Y41102720D01*
X-11514800Y40634480D01*
X-11335613Y40201883D01*
X-11004517Y39870787D01*
X-10571920Y39691600D01*
X-10103680Y39691600D01*
X-9671083Y39870787D01*
X-9339987Y40201883D01*
X-9160800Y40634480D01*
X-9160800Y41102720D01*
X-9339987Y41535317D01*
X-9671083Y41866413D01*
X-10103680Y42045600D01*
X-10571920Y42045600D01*
X-11004517Y41866413D01*
X-11335613Y41535317D01*
X-11514800Y41102720D01*
X-14740461Y41102720D01*
X-17757800Y44120059D01*
X-17757800Y45178986D01*
X-17593969Y45246847D01*
X-17192547Y45648269D01*
X-16975300Y46172752D01*
X-16975300Y46182720D01*
X-11514800Y46182720D01*
X-11514800Y45714480D01*
X-11335613Y45281883D01*
X-11004517Y44950787D01*
X-10571920Y44771600D01*
X-10103680Y44771600D01*
X-9949323Y44835537D01*
X-10199259Y44585600D01*
X-10571920Y44585600D01*
X-11004517Y44406413D01*
X-11335613Y44075317D01*
X-11514800Y43642720D01*
X-11514800Y43174480D01*
X-11335613Y42741883D01*
X-11004517Y42410787D01*
X-10571920Y42231600D01*
X-10103680Y42231600D01*
X-9671083Y42410787D01*
X-9339987Y42741883D01*
X-9160800Y43174480D01*
X-9160800Y43642720D01*
X-9207200Y43754740D01*
X-7864479Y45097461D01*
X-7700648Y45029600D01*
X-7132952Y45029600D01*
X-6608469Y45246847D01*
X-6207047Y45648269D01*
X-5989800Y46172752D01*
X-5989800Y46740448D01*
X-6207047Y47264931D01*
X-6608469Y47666353D01*
X-7132952Y47883600D01*
X-7700648Y47883600D01*
X-8225131Y47666353D01*
X-8626553Y47264931D01*
X-8843800Y46740448D01*
X-8843800Y46172752D01*
X-8775939Y46008921D01*
X-9224736Y45560124D01*
X-9160800Y45714480D01*
X-9160800Y46182720D01*
X-9339987Y46615317D01*
X-9671083Y46946413D01*
X-10103680Y47125600D01*
X-10571920Y47125600D01*
X-11004517Y46946413D01*
X-11335613Y46615317D01*
X-11514800Y46182720D01*
X-16975300Y46182720D01*
X-16975300Y46740448D01*
X-17192547Y47264931D01*
X-17593969Y47666353D01*
X-18118452Y47883600D01*
X-18686148Y47883600D01*
X-19210631Y47666353D01*
X-19612053Y47264931D01*
X-19829300Y46740448D01*
X-20501000Y46740448D01*
X-20501000Y48722720D01*
X-11514800Y48722720D01*
X-11514800Y48254480D01*
X-11335613Y47821883D01*
X-11004517Y47490787D01*
X-10571920Y47311600D01*
X-10103680Y47311600D01*
X-9671083Y47490787D01*
X-9339987Y47821883D01*
X-9160800Y48254480D01*
X-9160800Y48722720D01*
X-9339987Y49155317D01*
X-9671083Y49486413D01*
X-10103680Y49665600D01*
X-10571920Y49665600D01*
X-11004517Y49486413D01*
X-11335613Y49155317D01*
X-11514800Y48722720D01*
X-20501000Y48722720D01*
X-20501000Y51262720D01*
X-11514800Y51262720D01*
X-11514800Y50794480D01*
X-11335613Y50361883D01*
X-11004517Y50030787D01*
X-10571920Y49851600D01*
X-10103680Y49851600D01*
X-9671083Y50030787D01*
X-9339987Y50361883D01*
X-9160800Y50794480D01*
X-9160800Y51262720D01*
X-9339987Y51695317D01*
X-9671083Y52026413D01*
X-10103680Y52205600D01*
X-10571920Y52205600D01*
X-11004517Y52026413D01*
X-11335613Y51695317D01*
X-11514800Y51262720D01*
X-20501000Y51262720D01*
X-20501000Y53802720D01*
X-11514800Y53802720D01*
X-11514800Y53334480D01*
X-11335613Y52901883D01*
X-11004517Y52570787D01*
X-10571920Y52391600D01*
X-10103680Y52391600D01*
X-9671083Y52570787D01*
X-9339987Y52901883D01*
X-9160800Y53334480D01*
X-9160800Y53802720D01*
X-9339987Y54235317D01*
X-9671083Y54566413D01*
X-10103680Y54745600D01*
X-10571920Y54745600D01*
X-11004517Y54566413D01*
X-11335613Y54235317D01*
X-11514800Y53802720D01*
X-20501000Y53802720D01*
X-20501000Y56342720D01*
X-11514800Y56342720D01*
X-11514800Y55874480D01*
X-11335613Y55441883D01*
X-11004517Y55110787D01*
X-10571920Y54931600D01*
X-10103680Y54931600D01*
X-9671083Y55110787D01*
X-9339987Y55441883D01*
X-9160800Y55874480D01*
X-9160800Y56297941D01*
X-7839079Y57619661D01*
X-7675248Y57551800D01*
X-7107552Y57551800D01*
X-6583069Y57769047D01*
X-6181647Y58170469D01*
X-5964400Y58694952D01*
X-5964400Y59262648D01*
X-6181647Y59787131D01*
X-6583069Y60188553D01*
X-7107552Y60405800D01*
X-7675248Y60405800D01*
X-8199731Y60188553D01*
X-8601153Y59787131D01*
X-8818400Y59262648D01*
X-8818400Y58694952D01*
X-8750539Y58531121D01*
X-10027581Y57254079D01*
X-10103680Y57285600D01*
X-10571920Y57285600D01*
X-11004517Y57106413D01*
X-11335613Y56775317D01*
X-11514800Y56342720D01*
X-20501000Y56342720D01*
X-20501000Y59288048D01*
X-19842000Y59288048D01*
X-19842000Y58720352D01*
X-19624753Y58195869D01*
X-19223331Y57794447D01*
X-18698848Y57577200D01*
X-18131152Y57577200D01*
X-17606669Y57794447D01*
X-17205247Y58195869D01*
X-16988000Y58720352D01*
X-16988000Y58882720D01*
X-11514800Y58882720D01*
X-11514800Y58414480D01*
X-11335613Y57981883D01*
X-11004517Y57650787D01*
X-10571920Y57471600D01*
X-10103680Y57471600D01*
X-9671083Y57650787D01*
X-9339987Y57981883D01*
X-9160800Y58414480D01*
X-9160800Y58882720D01*
X-9339987Y59315317D01*
X-9671083Y59646413D01*
X-10103680Y59825600D01*
X-10571920Y59825600D01*
X-11004517Y59646413D01*
X-11335613Y59315317D01*
X-11514800Y58882720D01*
X-16988000Y58882720D01*
X-16988000Y59288048D01*
X-17055861Y59451880D01*
X-15963640Y60544100D01*
X-11344816Y60544100D01*
X-11335613Y60521883D01*
X-11004517Y60190787D01*
X-10571920Y60011600D01*
X-10103680Y60011600D01*
X-9671083Y60190787D01*
X-9339987Y60521883D01*
X-9160800Y60954480D01*
X-9160800Y61422720D01*
X-9339987Y61855317D01*
X-9671083Y62186413D01*
X-10103680Y62365600D01*
X-10571920Y62365600D01*
X-11004517Y62186413D01*
X-11335613Y61855317D01*
X-11344816Y61833100D01*
X-16167131Y61833100D01*
X-16230601Y61845725D01*
X-16294071Y61833100D01*
X-16294075Y61833100D01*
X-16482071Y61795705D01*
X-16695258Y61653258D01*
X-16731214Y61599446D01*
X-17967320Y60363339D01*
X-18131152Y60431200D01*
X-18698848Y60431200D01*
X-19223331Y60213953D01*
X-19624753Y59812531D01*
X-19842000Y59288048D01*
X-20501000Y59288048D01*
X-20501000Y61652084D01*
X-20489619Y61709301D01*
X-20501000Y61766518D01*
X-20501000Y61766522D01*
X-20534710Y61935995D01*
X-20663123Y62128177D01*
X-20711632Y62160590D01*
X-22821009Y64269966D01*
X-22853424Y64318478D01*
X-22858093Y64321598D01*
X-3700478Y64323596D01*
X-2977480Y64163534D01*
X-2977480Y64163534D01*
G37*
X-2977480Y64163534D02*
X-2618492Y63929066D01*
X-2329350Y63591120D01*
X-2146524Y63185261D01*
X-2080800Y62720551D01*
X-2080799Y56327344D01*
X-2078000Y56313272D01*
X-2077999Y6425533D01*
X-2080800Y6411451D01*
X-2080799Y415196D01*
X-36226740Y415196D01*
X-36226004Y5542720D01*
X-26754800Y5542720D01*
X-26754800Y5074480D01*
X-26575613Y4641883D01*
X-26244517Y4310787D01*
X-25811920Y4131600D01*
X-25343680Y4131600D01*
X-24911083Y4310787D01*
X-24579987Y4641883D01*
X-24400800Y5074480D01*
X-24400800Y5542720D01*
X-24579987Y5975317D01*
X-24911083Y6306413D01*
X-25343680Y6485600D01*
X-25811920Y6485600D01*
X-26244517Y6306413D01*
X-26575613Y5975317D01*
X-26754800Y5542720D01*
X-36226004Y5542720D01*
X-36225467Y9275448D01*
X-30814800Y9275448D01*
X-30814800Y8707752D01*
X-30597553Y8183269D01*
X-30196131Y7781847D01*
X-29671648Y7564600D01*
X-29103952Y7564600D01*
X-28579469Y7781847D01*
X-28278596Y8082720D01*
X-26754800Y8082720D01*
X-26754800Y7614480D01*
X-26575613Y7181883D01*
X-26244517Y6850787D01*
X-25811920Y6671600D01*
X-25343680Y6671600D01*
X-24911083Y6850787D01*
X-24579987Y7181883D01*
X-24400800Y7614480D01*
X-24400800Y8082720D01*
X-24579987Y8515317D01*
X-24911083Y8846413D01*
X-25343680Y9025600D01*
X-25811920Y9025600D01*
X-26244517Y8846413D01*
X-26575613Y8515317D01*
X-26754800Y8082720D01*
X-28278596Y8082720D01*
X-28178047Y8183269D01*
X-27960800Y8707752D01*
X-27960800Y9275448D01*
X-28054963Y9502779D01*
X-27750142Y9807600D01*
X-26611118Y9807600D01*
X-26575613Y9721883D01*
X-26244517Y9390787D01*
X-25811920Y9211600D01*
X-25343680Y9211600D01*
X-24911083Y9390787D01*
X-24579987Y9721883D01*
X-24400800Y10154480D01*
X-24400800Y10622720D01*
X-24579987Y11055317D01*
X-24911083Y11386413D01*
X-25343680Y11565600D01*
X-25811920Y11565600D01*
X-26244517Y11386413D01*
X-26575613Y11055317D01*
X-26611118Y10969600D01*
X-27933584Y10969600D01*
X-27990801Y10980981D01*
X-28048018Y10969600D01*
X-28048022Y10969600D01*
X-28217495Y10935890D01*
X-28343487Y10851704D01*
X-28361166Y10839891D01*
X-28409677Y10807477D01*
X-28442090Y10758968D01*
X-28876621Y10324437D01*
X-29103952Y10418600D01*
X-29671648Y10418600D01*
X-30196131Y10201353D01*
X-30597553Y9799931D01*
X-30814800Y9275448D01*
X-36225467Y9275448D01*
X-36225205Y11090926D01*
X-36218436Y11124789D01*
X-36225195Y11158939D01*
X-36225194Y11167192D01*
X-36249952Y11291749D01*
X-36344306Y11433005D01*
X-36485536Y11527400D01*
X-36652138Y11560564D01*
X-36694027Y11552238D01*
X-40021764Y11555381D01*
X-40019605Y11555810D01*
X-39827423Y11684223D01*
X-39795008Y11732735D01*
X-39243642Y12284100D01*
X-26584816Y12284100D01*
X-26575613Y12261883D01*
X-26244517Y11930787D01*
X-25811920Y11751600D01*
X-25343680Y11751600D01*
X-24911083Y11930787D01*
X-24579987Y12261883D01*
X-24400800Y12694480D01*
X-24400800Y13162720D01*
X-24579987Y13595317D01*
X-24911083Y13926413D01*
X-25343680Y14105600D01*
X-25811920Y14105600D01*
X-26244517Y13926413D01*
X-26575613Y13595317D01*
X-26584816Y13573100D01*
X-39484275Y13573100D01*
X-39672271Y13535705D01*
X-39885458Y13393258D01*
X-40027905Y13180071D01*
X-40037072Y13133986D01*
X-40486957Y12684100D01*
X-41355384Y12684100D01*
X-41449547Y12911431D01*
X-41850969Y13312853D01*
X-42375452Y13530100D01*
X-42943148Y13530100D01*
X-43467631Y13312853D01*
X-43869053Y12911431D01*
X-44086300Y12386948D01*
X-44086300Y11819252D01*
X-43978549Y11559117D01*
X-52322287Y11566996D01*
X-52217800Y11819252D01*
X-52217800Y12386948D01*
X-52311963Y12614279D01*
X-50495842Y14430400D01*
X-27258944Y14430400D01*
X-27201726Y14419019D01*
X-27144508Y14430400D01*
X-27144504Y14430400D01*
X-26975031Y14464110D01*
X-26782849Y14592523D01*
X-26750434Y14641034D01*
X-26579705Y14811763D01*
X-26575613Y14801883D01*
X-26244517Y14470787D01*
X-25811920Y14291600D01*
X-25343680Y14291600D01*
X-24911083Y14470787D01*
X-24579987Y14801883D01*
X-24400800Y15234480D01*
X-24400800Y15702720D01*
X-24579987Y16135317D01*
X-24911083Y16466413D01*
X-25343680Y16645600D01*
X-25811920Y16645600D01*
X-26244517Y16466413D01*
X-26575613Y16135317D01*
X-26611118Y16049600D01*
X-26687310Y16049600D01*
X-26744527Y16060981D01*
X-26801744Y16049600D01*
X-26801748Y16049600D01*
X-26971221Y16015890D01*
X-27163403Y15887477D01*
X-27195816Y15838968D01*
X-27442383Y15592400D01*
X-50679284Y15592400D01*
X-50736501Y15603781D01*
X-50793718Y15592400D01*
X-50793722Y15592400D01*
X-50963195Y15558690D01*
X-51155377Y15430277D01*
X-51187790Y15381768D01*
X-53133621Y13435937D01*
X-53360952Y13530100D01*
X-53928648Y13530100D01*
X-54453131Y13312853D01*
X-54854553Y12911431D01*
X-55071800Y12386948D01*
X-55071800Y11819252D01*
X-54968348Y11569495D01*
X-63123800Y11577196D01*
X-63123800Y15904141D01*
X-58320280Y15904141D01*
X-58320280Y15276899D01*
X-58080245Y14697403D01*
X-57636717Y14253875D01*
X-57057221Y14013840D01*
X-56429979Y14013840D01*
X-55850483Y14253875D01*
X-55406955Y14697403D01*
X-55166920Y15276899D01*
X-55166920Y15904141D01*
X-55406955Y16483637D01*
X-55850483Y16927165D01*
X-56429979Y17167200D01*
X-57057221Y17167200D01*
X-57636717Y16927165D01*
X-58080245Y16483637D01*
X-58320280Y15904141D01*
X-63123800Y15904141D01*
X-63123800Y18406041D01*
X-55818380Y18406041D01*
X-55818380Y17778799D01*
X-55578345Y17199303D01*
X-55134817Y16755775D01*
X-54555321Y16515740D01*
X-53928079Y16515740D01*
X-53348583Y16755775D01*
X-52905358Y17199000D01*
X-48680397Y17199000D01*
X-48656624Y17141606D01*
X-48339594Y16824576D01*
X-47925374Y16653000D01*
X-47477026Y16653000D01*
X-47062806Y16824576D01*
X-46745776Y17141606D01*
X-46574200Y17555826D01*
X-46574200Y18004174D01*
X-46745776Y18418394D01*
X-47062806Y18735424D01*
X-47477026Y18907000D01*
X-47925374Y18907000D01*
X-48339594Y18735424D01*
X-48656624Y18418394D01*
X-48680397Y18361000D01*
X-52665020Y18361000D01*
X-52665020Y18406041D01*
X-52905055Y18985537D01*
X-53348583Y19429065D01*
X-53928079Y19669100D01*
X-54555321Y19669100D01*
X-55134817Y19429065D01*
X-55578345Y18985537D01*
X-55818380Y18406041D01*
X-63123800Y18406041D01*
X-63123800Y21755511D01*
X-57894543Y21755511D01*
X-57765335Y21462741D01*
X-57065177Y21194529D01*
X-56315676Y21214672D01*
X-55716785Y21462741D01*
X-55602611Y21721448D01*
X-52658800Y21721448D01*
X-52658800Y21153752D01*
X-52441553Y20629269D01*
X-52040131Y20227847D01*
X-51515648Y20010600D01*
X-50947952Y20010600D01*
X-50423469Y20227847D01*
X-50022047Y20629269D01*
X-49927884Y20856600D01*
X-48876018Y20856600D01*
X-48818800Y20845219D01*
X-48761582Y20856600D01*
X-48761578Y20856600D01*
X-48592105Y20890310D01*
X-48399923Y21018723D01*
X-48367508Y21067235D01*
X-47687895Y21746848D01*
X-41838400Y21746848D01*
X-41838400Y21179152D01*
X-41621153Y20654669D01*
X-41219731Y20253247D01*
X-40695248Y20036000D01*
X-40127552Y20036000D01*
X-39603069Y20253247D01*
X-39201647Y20654669D01*
X-39107484Y20882000D01*
X-39054405Y20882000D01*
X-38997187Y20870619D01*
X-38939969Y20882000D01*
X-38939965Y20882000D01*
X-38770492Y20915710D01*
X-38578310Y21044123D01*
X-38545895Y21092635D01*
X-36280930Y23357599D01*
X-26740353Y23357599D01*
X-26754800Y23322720D01*
X-26754800Y22854480D01*
X-26575613Y22421883D01*
X-26244517Y22090787D01*
X-25811920Y21911600D01*
X-25343680Y21911600D01*
X-24911083Y22090787D01*
X-24579987Y22421883D01*
X-24400800Y22854480D01*
X-24400800Y23322720D01*
X-24579987Y23755317D01*
X-24911083Y24086413D01*
X-25343680Y24265600D01*
X-25811920Y24265600D01*
X-25897637Y24230095D01*
X-25976507Y24308965D01*
X-26008922Y24357476D01*
X-26201104Y24485889D01*
X-26370577Y24519599D01*
X-26370581Y24519599D01*
X-26427799Y24530980D01*
X-26485017Y24519599D01*
X-36464370Y24519599D01*
X-36521588Y24530980D01*
X-36578806Y24519599D01*
X-36578810Y24519599D01*
X-36748283Y24485889D01*
X-36891955Y24389890D01*
X-36891956Y24389889D01*
X-36940465Y24357476D01*
X-36972878Y24308967D01*
X-39145665Y22136179D01*
X-39201647Y22271331D01*
X-39603069Y22672753D01*
X-40127552Y22890000D01*
X-40695248Y22890000D01*
X-41219731Y22672753D01*
X-41621153Y22271331D01*
X-41838400Y21746848D01*
X-47687895Y21746848D01*
X-44387141Y25047600D01*
X-26611118Y25047600D01*
X-26575613Y24961883D01*
X-26244517Y24630787D01*
X-25811920Y24451600D01*
X-25343680Y24451600D01*
X-24911083Y24630787D01*
X-24579987Y24961883D01*
X-24400800Y25394480D01*
X-24400800Y25862720D01*
X-24579987Y26295317D01*
X-24911083Y26626413D01*
X-25343680Y26805600D01*
X-25811920Y26805600D01*
X-26244517Y26626413D01*
X-26575613Y26295317D01*
X-26611118Y26209600D01*
X-44570583Y26209600D01*
X-44627801Y26220981D01*
X-44685019Y26209600D01*
X-44685022Y26209600D01*
X-44854495Y26175890D01*
X-44998168Y26079891D01*
X-44998171Y26079888D01*
X-45046677Y26047477D01*
X-45079088Y25998971D01*
X-49059457Y22018600D01*
X-49927884Y22018600D01*
X-50022047Y22245931D01*
X-50423469Y22647353D01*
X-50947952Y22864600D01*
X-51515648Y22864600D01*
X-52040131Y22647353D01*
X-52441553Y22245931D01*
X-52658800Y21721448D01*
X-55602611Y21721448D01*
X-55587577Y21755511D01*
X-56741060Y22908995D01*
X-57894543Y21755511D01*
X-63123800Y21755511D01*
X-63123800Y23412717D01*
X-58635131Y23412717D01*
X-58614988Y22663216D01*
X-58366919Y22064325D01*
X-58074149Y21935117D01*
X-56920665Y23088600D01*
X-56561455Y23088600D01*
X-55407971Y21935117D01*
X-55115201Y22064325D01*
X-54846989Y22764483D01*
X-54867132Y23513984D01*
X-55115201Y24112875D01*
X-55407971Y24242083D01*
X-56561455Y23088600D01*
X-56920665Y23088600D01*
X-58074149Y24242083D01*
X-58366919Y24112875D01*
X-58635131Y23412717D01*
X-63123800Y23412717D01*
X-63123800Y24421689D01*
X-57894543Y24421689D01*
X-56741060Y23268205D01*
X-55587577Y24421689D01*
X-55716785Y24714459D01*
X-56416943Y24982671D01*
X-57166444Y24962528D01*
X-57765335Y24714459D01*
X-57894543Y24421689D01*
X-63123800Y24421689D01*
X-63123800Y28398401D01*
X-55818380Y28398401D01*
X-55818380Y27771159D01*
X-55578345Y27191663D01*
X-55134817Y26748135D01*
X-54555321Y26508100D01*
X-53928079Y26508100D01*
X-53348583Y26748135D01*
X-52905055Y27191663D01*
X-52665020Y27771159D01*
X-52665020Y28398401D01*
X-52905055Y28977897D01*
X-53348583Y29421425D01*
X-53928079Y29661460D01*
X-54003600Y29661460D01*
X-54003600Y32864124D01*
X-53971606Y32877376D01*
X-53654576Y33194406D01*
X-53483000Y33608626D01*
X-53483000Y34056974D01*
X-53560323Y34243648D01*
X-52836600Y34243648D01*
X-52836600Y33675952D01*
X-52619353Y33151469D01*
X-52217931Y32750047D01*
X-51693448Y32532800D01*
X-51125752Y32532800D01*
X-50601269Y32750047D01*
X-50199847Y33151469D01*
X-50105684Y33378800D01*
X-44589057Y33378800D01*
X-42132690Y30922432D01*
X-42100277Y30873923D01*
X-42051768Y30841510D01*
X-42051767Y30841509D01*
X-41908095Y30745510D01*
X-41738622Y30711800D01*
X-41738618Y30711800D01*
X-41681400Y30700419D01*
X-41624182Y30711800D01*
X-34124257Y30711800D01*
X-31083688Y27671229D01*
X-31051277Y27622723D01*
X-31002771Y27590312D01*
X-31002768Y27590309D01*
X-30929297Y27541218D01*
X-30859095Y27494310D01*
X-30689622Y27460600D01*
X-30689617Y27460600D01*
X-30632401Y27449219D01*
X-30575184Y27460600D01*
X-26534330Y27460600D01*
X-26244517Y27170787D01*
X-25811920Y26991600D01*
X-25343680Y26991600D01*
X-24911083Y27170787D01*
X-24579987Y27501883D01*
X-24400800Y27934480D01*
X-24400800Y28402720D01*
X-24579987Y28835317D01*
X-24911083Y29166413D01*
X-25343680Y29345600D01*
X-25811920Y29345600D01*
X-26244517Y29166413D01*
X-26575613Y28835317D01*
X-26663723Y28622600D01*
X-30391741Y28622600D01*
X-33432308Y31663165D01*
X-33464723Y31711677D01*
X-33656905Y31840090D01*
X-33826378Y31873800D01*
X-33826382Y31873800D01*
X-33883600Y31885181D01*
X-33940818Y31873800D01*
X-41440742Y31873800D01*
X-43810590Y34243648D01*
X-41838400Y34243648D01*
X-41838400Y33675952D01*
X-41621153Y33151469D01*
X-41219731Y32750047D01*
X-40695248Y32532800D01*
X-40127552Y32532800D01*
X-39603069Y32750047D01*
X-39201647Y33151469D01*
X-39107484Y33378800D01*
X-34352857Y33378800D01*
X-31312288Y30338229D01*
X-31279877Y30289723D01*
X-31231371Y30257312D01*
X-31231368Y30257309D01*
X-31157897Y30208218D01*
X-31087695Y30161310D01*
X-30918222Y30127600D01*
X-30918217Y30127600D01*
X-30861001Y30116219D01*
X-30803784Y30127600D01*
X-26611118Y30127600D01*
X-26575613Y30041883D01*
X-26244517Y29710787D01*
X-25811920Y29531600D01*
X-25343680Y29531600D01*
X-24911083Y29710787D01*
X-24579987Y30041883D01*
X-24400800Y30474480D01*
X-24400800Y30639864D01*
X-23694999Y29934063D01*
X-23695000Y18766380D01*
X-24536587Y19607966D01*
X-24569002Y19656478D01*
X-24710707Y19751163D01*
X-24579987Y19881883D01*
X-24400800Y20314480D01*
X-24400800Y20782720D01*
X-24579987Y21215317D01*
X-24911083Y21546413D01*
X-25343680Y21725600D01*
X-25811920Y21725600D01*
X-26244517Y21546413D01*
X-26575613Y21215317D01*
X-26584816Y21193100D01*
X-27706800Y21193100D01*
X-27706800Y21721448D01*
X-27924047Y22245931D01*
X-28325469Y22647353D01*
X-28849952Y22864600D01*
X-29417648Y22864600D01*
X-29942131Y22647353D01*
X-30343553Y22245931D01*
X-30560800Y21721448D01*
X-30560800Y21153752D01*
X-30343553Y20629269D01*
X-29942131Y20227847D01*
X-29417648Y20010600D01*
X-28849952Y20010600D01*
X-28695463Y20074591D01*
X-28655649Y20047988D01*
X-28655647Y20047986D01*
X-28496272Y19941495D01*
X-28456344Y19933553D01*
X-28308275Y19904100D01*
X-28308271Y19904100D01*
X-28244800Y19891475D01*
X-28181329Y19904100D01*
X-26584816Y19904100D01*
X-26575613Y19881883D01*
X-26512331Y19818601D01*
X-36026383Y19818601D01*
X-36083600Y19829982D01*
X-36140816Y19818601D01*
X-36140821Y19818601D01*
X-36310294Y19784891D01*
X-36380496Y19737983D01*
X-36453967Y19688892D01*
X-36453970Y19688889D01*
X-36502476Y19656478D01*
X-36534887Y19607972D01*
X-37268101Y18874757D01*
X-37430201Y18907000D01*
X-37652199Y18907000D01*
X-37980933Y18841611D01*
X-38353722Y18592522D01*
X-38602811Y18219733D01*
X-38690279Y17780000D01*
X-38602811Y17340267D01*
X-38353722Y16967478D01*
X-37980933Y16718389D01*
X-37652199Y16653000D01*
X-37430201Y16653000D01*
X-37101467Y16718389D01*
X-36728678Y16967478D01*
X-36479589Y17340267D01*
X-36392121Y17780000D01*
X-36446443Y18053099D01*
X-35842940Y18656601D01*
X-26488262Y18656601D01*
X-26512030Y18632833D01*
X-26679800Y18227801D01*
X-26679800Y17789399D01*
X-26512030Y17384367D01*
X-26202033Y17074370D01*
X-25797001Y16906600D01*
X-25358599Y16906600D01*
X-24953567Y17074370D01*
X-24643570Y17384367D01*
X-24475800Y17789399D01*
X-24475800Y17903864D01*
X-23694999Y17123062D01*
X-23695000Y5473058D01*
X-25257963Y3910095D01*
X-25343680Y3945600D01*
X-25811920Y3945600D01*
X-26244517Y3766413D01*
X-26575613Y3435317D01*
X-26754800Y3002720D01*
X-26754800Y2534480D01*
X-26575613Y2101883D01*
X-26244517Y1770787D01*
X-25811920Y1591600D01*
X-25343680Y1591600D01*
X-24911083Y1770787D01*
X-24579987Y2101883D01*
X-24422186Y2482850D01*
X-11772800Y2482850D01*
X-11772800Y1842291D01*
X-11676127Y1608902D01*
X-11497499Y1430273D01*
X-11264110Y1333600D01*
X-10623550Y1333600D01*
X-10464800Y1492350D01*
X-10464800Y2641600D01*
X-10210800Y2641600D01*
X-10210800Y1492350D01*
X-10052050Y1333600D01*
X-9411490Y1333600D01*
X-9178101Y1430273D01*
X-8999473Y1608902D01*
X-8902800Y1842291D01*
X-8902800Y2482850D01*
X-9061550Y2641600D01*
X-10210800Y2641600D01*
X-10464800Y2641600D01*
X-11614050Y2641600D01*
X-11772800Y2482850D01*
X-24422186Y2482850D01*
X-24400800Y2534480D01*
X-24400800Y3002720D01*
X-24436305Y3088437D01*
X-23829833Y3694909D01*
X-11772800Y3694909D01*
X-11772800Y3054350D01*
X-11614050Y2895600D01*
X-10464800Y2895600D01*
X-10464800Y2915600D01*
X-10210800Y2915600D01*
X-10210800Y2895600D01*
X-9061550Y2895600D01*
X-8902800Y3054350D01*
X-8902800Y3694909D01*
X-8999473Y3928298D01*
X-9178101Y4106927D01*
X-9411490Y4203600D01*
X-9929856Y4203600D01*
X-9671083Y4310787D01*
X-9339987Y4641883D01*
X-9160800Y5074480D01*
X-9160800Y5542720D01*
X-9339987Y5975317D01*
X-9519725Y6155055D01*
X-4409539Y6155055D01*
X-4335405Y5908936D01*
X-3798177Y5715835D01*
X-3227946Y5743022D01*
X-2827395Y5908936D01*
X-2753261Y6155055D01*
X-3581400Y6983195D01*
X-4409539Y6155055D01*
X-9519725Y6155055D01*
X-9671083Y6306413D01*
X-10103680Y6485600D01*
X-10571920Y6485600D01*
X-11004517Y6306413D01*
X-11335613Y5975317D01*
X-11514800Y5542720D01*
X-11514800Y5074480D01*
X-11335613Y4641883D01*
X-11004517Y4310787D01*
X-10745744Y4203600D01*
X-11264110Y4203600D01*
X-11497499Y4106927D01*
X-11676127Y3928298D01*
X-11772800Y3694909D01*
X-23829833Y3694909D01*
X-22743631Y4781111D01*
X-22695123Y4813523D01*
X-22566710Y5005705D01*
X-22533000Y5175178D01*
X-22533000Y5175182D01*
X-22521619Y5232399D01*
X-22533000Y5289616D01*
X-22533000Y9250048D01*
X-19842000Y9250048D01*
X-19842000Y8682352D01*
X-19624753Y8157869D01*
X-19223331Y7756447D01*
X-18698848Y7539200D01*
X-18131152Y7539200D01*
X-17606669Y7756447D01*
X-17280396Y8082720D01*
X-11514800Y8082720D01*
X-11514800Y7614480D01*
X-11335613Y7181883D01*
X-11004517Y6850787D01*
X-10571920Y6671600D01*
X-10103680Y6671600D01*
X-9671083Y6850787D01*
X-9339987Y7181883D01*
X-9258100Y7379577D01*
X-5028365Y7379577D01*
X-5001178Y6809346D01*
X-4835264Y6408795D01*
X-4589145Y6334661D01*
X-3761005Y7162800D01*
X-3401795Y7162800D01*
X-2573655Y6334661D01*
X-2327536Y6408795D01*
X-2134435Y6946023D01*
X-2161622Y7516254D01*
X-2327536Y7916805D01*
X-2573655Y7990939D01*
X-3401795Y7162800D01*
X-3761005Y7162800D01*
X-4589145Y7990939D01*
X-4835264Y7916805D01*
X-5028365Y7379577D01*
X-9258100Y7379577D01*
X-9160800Y7614480D01*
X-9160800Y8082720D01*
X-9339987Y8515317D01*
X-9671083Y8846413D01*
X-10103680Y9025600D01*
X-10571920Y9025600D01*
X-11004517Y8846413D01*
X-11335613Y8515317D01*
X-11514800Y8082720D01*
X-17280396Y8082720D01*
X-17205247Y8157869D01*
X-16988000Y8682352D01*
X-16988000Y9250048D01*
X-17082163Y9477379D01*
X-15936822Y10622720D01*
X-11514800Y10622720D01*
X-11514800Y10154480D01*
X-11335613Y9721883D01*
X-11004517Y9390787D01*
X-10571920Y9211600D01*
X-10103680Y9211600D01*
X-9671083Y9390787D01*
X-9339987Y9721883D01*
X-9304482Y9807600D01*
X-9054457Y9807600D01*
X-8724237Y9477379D01*
X-8818400Y9250048D01*
X-8818400Y8682352D01*
X-8601153Y8157869D01*
X-8199731Y7756447D01*
X-7675248Y7539200D01*
X-7107552Y7539200D01*
X-6583069Y7756447D01*
X-6181647Y8157869D01*
X-6176397Y8170545D01*
X-4409539Y8170545D01*
X-3581400Y7342405D01*
X-2753261Y8170545D01*
X-2827395Y8416664D01*
X-3364623Y8609765D01*
X-3934854Y8582578D01*
X-4335405Y8416664D01*
X-4409539Y8170545D01*
X-6176397Y8170545D01*
X-5964400Y8682352D01*
X-5964400Y9250048D01*
X-6181647Y9774531D01*
X-6583069Y10175953D01*
X-7107552Y10393200D01*
X-7675248Y10393200D01*
X-7902579Y10299037D01*
X-8362508Y10758965D01*
X-8394923Y10807477D01*
X-8587105Y10935890D01*
X-8756578Y10969600D01*
X-8756582Y10969600D01*
X-8813800Y10980981D01*
X-8871018Y10969600D01*
X-9304482Y10969600D01*
X-9339987Y11055317D01*
X-9671083Y11386413D01*
X-10103680Y11565600D01*
X-10571920Y11565600D01*
X-11004517Y11386413D01*
X-11335613Y11055317D01*
X-11514800Y10622720D01*
X-15936822Y10622720D01*
X-14211942Y12347600D01*
X-11371118Y12347600D01*
X-11335613Y12261883D01*
X-11004517Y11930787D01*
X-10571920Y11751600D01*
X-10103680Y11751600D01*
X-9671083Y11930787D01*
X-9339987Y12261883D01*
X-9160800Y12694480D01*
X-9160800Y13162720D01*
X-9339987Y13595317D01*
X-9671083Y13926413D01*
X-10103680Y14105600D01*
X-10571920Y14105600D01*
X-11004517Y13926413D01*
X-11335613Y13595317D01*
X-11371118Y13509600D01*
X-14395382Y13509600D01*
X-14452600Y13520981D01*
X-14509818Y13509600D01*
X-14509822Y13509600D01*
X-14679295Y13475890D01*
X-14822967Y13379891D01*
X-14822968Y13379890D01*
X-14871477Y13347477D01*
X-14903890Y13298968D01*
X-17903821Y10299037D01*
X-18131152Y10393200D01*
X-18698848Y10393200D01*
X-19223331Y10175953D01*
X-19624753Y9774531D01*
X-19842000Y9250048D01*
X-22533000Y9250048D01*
X-22533000Y15702720D01*
X-11514800Y15702720D01*
X-11514800Y15234480D01*
X-11335613Y14801883D01*
X-11004517Y14470787D01*
X-10571920Y14291600D01*
X-10103680Y14291600D01*
X-9671083Y14470787D01*
X-9339987Y14801883D01*
X-9160800Y15234480D01*
X-9160800Y15702720D01*
X-9339987Y16135317D01*
X-9671083Y16466413D01*
X-10103680Y16645600D01*
X-10571920Y16645600D01*
X-11004517Y16466413D01*
X-11335613Y16135317D01*
X-11514800Y15702720D01*
X-22533000Y15702720D01*
X-22533000Y17306506D01*
X-22521619Y17363723D01*
X-22533000Y17420939D01*
X-22533000Y21746848D01*
X-19816600Y21746848D01*
X-19816600Y21179152D01*
X-19599353Y20654669D01*
X-19197931Y20253247D01*
X-18673448Y20036000D01*
X-18105752Y20036000D01*
X-17950729Y20100212D01*
X-17939858Y20083942D01*
X-17886049Y20047988D01*
X-17886047Y20047986D01*
X-17830094Y20010600D01*
X-17726671Y19941495D01*
X-17538675Y19904100D01*
X-17538670Y19904100D01*
X-17475200Y19891475D01*
X-17411730Y19904100D01*
X-11344816Y19904100D01*
X-11335613Y19881883D01*
X-11004517Y19550787D01*
X-10571920Y19371600D01*
X-10419659Y19371600D01*
X-10629516Y19161743D01*
X-11004517Y19006413D01*
X-11335613Y18675317D01*
X-11514800Y18242720D01*
X-11514800Y17774480D01*
X-11335613Y17341883D01*
X-11004517Y17010787D01*
X-10571920Y16831600D01*
X-10103680Y16831600D01*
X-9671083Y17010787D01*
X-9339987Y17341883D01*
X-9160800Y17774480D01*
X-9160800Y18242720D01*
X-9326232Y18642109D01*
X-7839079Y20129261D01*
X-7675248Y20061400D01*
X-7107552Y20061400D01*
X-6583069Y20278647D01*
X-6181647Y20680069D01*
X-5964400Y21204552D01*
X-5964400Y21772248D01*
X-6181647Y22296731D01*
X-6583069Y22698153D01*
X-7107552Y22915400D01*
X-7675248Y22915400D01*
X-8199731Y22698153D01*
X-8601153Y22296731D01*
X-8818400Y21772248D01*
X-8818400Y21204552D01*
X-8750539Y21040721D01*
X-9160800Y20630460D01*
X-9160800Y20782720D01*
X-9339987Y21215317D01*
X-9671083Y21546413D01*
X-10103680Y21725600D01*
X-10571920Y21725600D01*
X-11004517Y21546413D01*
X-11335613Y21215317D01*
X-11344816Y21193100D01*
X-16962600Y21193100D01*
X-16962600Y21746848D01*
X-17179847Y22271331D01*
X-17581269Y22672753D01*
X-18105752Y22890000D01*
X-18673448Y22890000D01*
X-19197931Y22672753D01*
X-19599353Y22271331D01*
X-19816600Y21746848D01*
X-22533000Y21746848D01*
X-22533000Y23322720D01*
X-11514800Y23322720D01*
X-11514800Y22854480D01*
X-11335613Y22421883D01*
X-11004517Y22090787D01*
X-10571920Y21911600D01*
X-10103680Y21911600D01*
X-9671083Y22090787D01*
X-9339987Y22421883D01*
X-9160800Y22854480D01*
X-9160800Y23322720D01*
X-9339987Y23755317D01*
X-9671083Y24086413D01*
X-10103680Y24265600D01*
X-10571920Y24265600D01*
X-11004517Y24086413D01*
X-11335613Y23755317D01*
X-11514800Y23322720D01*
X-22533000Y23322720D01*
X-22533000Y30117506D01*
X-22521619Y30174723D01*
X-22533000Y30231940D01*
X-22533000Y30231944D01*
X-22566710Y30401417D01*
X-22695123Y30593599D01*
X-22743632Y30626012D01*
X-24500587Y32382966D01*
X-24533002Y32431478D01*
X-24714911Y32553026D01*
X-24643570Y32624367D01*
X-24475800Y33029399D01*
X-24475800Y33143864D01*
X-24397846Y33065910D01*
X-24365433Y33017401D01*
X-24316924Y32984988D01*
X-24316923Y32984987D01*
X-24173251Y32888988D01*
X-24003778Y32855278D01*
X-24003774Y32855278D01*
X-23946556Y32843897D01*
X-23889338Y32855278D01*
X-21637335Y32855278D01*
X-14890289Y26108231D01*
X-14857876Y26059722D01*
X-14809367Y26027309D01*
X-14809366Y26027308D01*
X-14766952Y25998968D01*
X-14665694Y25931309D01*
X-14496221Y25897599D01*
X-14496218Y25897599D01*
X-14439000Y25886218D01*
X-14381782Y25897599D01*
X-11500353Y25897599D01*
X-11514800Y25862720D01*
X-11514800Y25394480D01*
X-11335613Y24961883D01*
X-11004517Y24630787D01*
X-10571920Y24451600D01*
X-10103680Y24451600D01*
X-9671083Y24630787D01*
X-9339987Y24961883D01*
X-9304482Y25047600D01*
X-7352657Y25047600D01*
X-4162400Y21857342D01*
X-4162399Y18290020D01*
X-4393922Y18135322D01*
X-4643011Y17762533D01*
X-4730479Y17322800D01*
X-4643011Y16883067D01*
X-4393922Y16510278D01*
X-4021133Y16261189D01*
X-3692399Y16195800D01*
X-3470401Y16195800D01*
X-3141667Y16261189D01*
X-2768878Y16510278D01*
X-2519789Y16883067D01*
X-2432321Y17322800D01*
X-2519789Y17762533D01*
X-2768878Y18135322D01*
X-3000400Y18290020D01*
X-3000400Y22040784D01*
X-2989019Y22098001D01*
X-3000400Y22155218D01*
X-3000400Y22155222D01*
X-3034110Y22324695D01*
X-3162523Y22516877D01*
X-3211031Y22549289D01*
X-6660708Y25998965D01*
X-6693123Y26047477D01*
X-6885305Y26175890D01*
X-7054778Y26209600D01*
X-7054782Y26209600D01*
X-7112000Y26220981D01*
X-7169218Y26209600D01*
X-9304482Y26209600D01*
X-9339987Y26295317D01*
X-9671083Y26626413D01*
X-10103680Y26805600D01*
X-10571920Y26805600D01*
X-10657637Y26770095D01*
X-10736507Y26848965D01*
X-10768922Y26897476D01*
X-10961104Y27025889D01*
X-11130577Y27059599D01*
X-11130581Y27059599D01*
X-11187799Y27070980D01*
X-11245017Y27059599D01*
X-14198341Y27059599D01*
X-15541462Y28402720D01*
X-11514800Y28402720D01*
X-11514800Y27934480D01*
X-11335613Y27501883D01*
X-11004517Y27170787D01*
X-10571920Y26991600D01*
X-10103680Y26991600D01*
X-9671083Y27170787D01*
X-9339987Y27501883D01*
X-9160800Y27934480D01*
X-9160800Y28402720D01*
X-9339987Y28835317D01*
X-9671083Y29166413D01*
X-10103680Y29345600D01*
X-10571920Y29345600D01*
X-11004517Y29166413D01*
X-11335613Y28835317D01*
X-11514800Y28402720D01*
X-15541462Y28402720D01*
X-20945386Y33806643D01*
X-20977801Y33855155D01*
X-21169983Y33983568D01*
X-21339456Y34017278D01*
X-21339460Y34017278D01*
X-21396678Y34028659D01*
X-21453896Y34017278D01*
X-23705898Y34017278D01*
X-23932268Y34243648D01*
X-19816600Y34243648D01*
X-19816600Y33675952D01*
X-19599353Y33151469D01*
X-19197931Y32750047D01*
X-18673448Y32532800D01*
X-18105752Y32532800D01*
X-17581269Y32750047D01*
X-17179847Y33151469D01*
X-17085684Y33378800D01*
X-11514800Y33378800D01*
X-11514800Y33014480D01*
X-11335613Y32581883D01*
X-11004517Y32250787D01*
X-10571920Y32071600D01*
X-10203759Y32071600D01*
X-10389759Y31885600D01*
X-10571920Y31885600D01*
X-11004517Y31706413D01*
X-11335613Y31375317D01*
X-11514800Y30942720D01*
X-11514800Y30474480D01*
X-11335613Y30041883D01*
X-11004517Y29710787D01*
X-10571920Y29531600D01*
X-10103680Y29531600D01*
X-9671083Y29710787D01*
X-9339987Y30041883D01*
X-9160800Y30474480D01*
X-9160800Y30942720D01*
X-9262996Y31189444D01*
X-7864479Y32587961D01*
X-7700648Y32520100D01*
X-7132952Y32520100D01*
X-6608469Y32737347D01*
X-6207047Y33138769D01*
X-5989800Y33663252D01*
X-5989800Y34230948D01*
X-6207047Y34755431D01*
X-6608469Y35156853D01*
X-7132952Y35374100D01*
X-7700648Y35374100D01*
X-8225131Y35156853D01*
X-8626553Y34755431D01*
X-8843800Y34230948D01*
X-8843800Y33663252D01*
X-8775939Y33499421D01*
X-9160800Y33114560D01*
X-9160800Y33482720D01*
X-9339987Y33915317D01*
X-9671083Y34246413D01*
X-10103680Y34425600D01*
X-10571920Y34425600D01*
X-10651201Y34392761D01*
X-10822305Y34507090D01*
X-10991778Y34540800D01*
X-10991782Y34540800D01*
X-11049000Y34552181D01*
X-11106218Y34540800D01*
X-17085684Y34540800D01*
X-17179847Y34768131D01*
X-17581269Y35169553D01*
X-18105752Y35386800D01*
X-18673448Y35386800D01*
X-19197931Y35169553D01*
X-19599353Y34768131D01*
X-19816600Y34243648D01*
X-23932268Y34243648D01*
X-24618585Y34929964D01*
X-24651000Y34978476D01*
X-24757979Y35049958D01*
X-24643570Y35164367D01*
X-24475800Y35569399D01*
X-24475800Y36007801D01*
X-24643570Y36412833D01*
X-24953567Y36722830D01*
X-25274322Y36855691D01*
X-25216342Y36858285D01*
X-24793720Y37033341D01*
X-24713447Y37284642D01*
X-25577800Y38148995D01*
X-26442153Y37284642D01*
X-26361880Y37033341D01*
X-25877019Y36857455D01*
X-26202033Y36722830D01*
X-26512030Y36412833D01*
X-26679800Y36007801D01*
X-26679800Y35893336D01*
X-29343785Y38557321D01*
X-27074518Y38557321D01*
X-27048115Y37967142D01*
X-26873059Y37544520D01*
X-26621758Y37464247D01*
X-25757405Y38328600D01*
X-25398195Y38328600D01*
X-24533842Y37464247D01*
X-24282541Y37544520D01*
X-24081082Y38099879D01*
X-24107485Y38690058D01*
X-24282541Y39112680D01*
X-24533842Y39192953D01*
X-25398195Y38328600D01*
X-25757405Y38328600D01*
X-26621758Y39192953D01*
X-26873059Y39112680D01*
X-27074518Y38557321D01*
X-29343785Y38557321D01*
X-33095607Y42309142D01*
X-33082710Y42303800D01*
X-32442150Y42303800D01*
X-32283400Y42462550D01*
X-32283400Y43611800D01*
X-32029400Y43611800D01*
X-32029400Y42462550D01*
X-31870650Y42303800D01*
X-31230090Y42303800D01*
X-30996701Y42400473D01*
X-30818073Y42579102D01*
X-30721400Y42812491D01*
X-30721400Y43453050D01*
X-30880150Y43611800D01*
X-32029400Y43611800D01*
X-32283400Y43611800D01*
X-32303400Y43611800D01*
X-32303400Y43865800D01*
X-32283400Y43865800D01*
X-32283400Y45015050D01*
X-32029400Y45015050D01*
X-32029400Y43865800D01*
X-30880150Y43865800D01*
X-30721400Y44024550D01*
X-30721400Y44665109D01*
X-30818073Y44898498D01*
X-30996701Y45077127D01*
X-31230090Y45173800D01*
X-31870650Y45173800D01*
X-32029400Y45015050D01*
X-32283400Y45015050D01*
X-32442150Y45173800D01*
X-33082710Y45173800D01*
X-33316099Y45077127D01*
X-33494727Y44898498D01*
X-33591400Y44665109D01*
X-33591400Y44024550D01*
X-33432652Y43865802D01*
X-33572583Y43865802D01*
X-33634789Y44178533D01*
X-33883878Y44551322D01*
X-34256667Y44800411D01*
X-34585401Y44865800D01*
X-34807399Y44865800D01*
X-35136133Y44800411D01*
X-35508922Y44551322D01*
X-35758011Y44178533D01*
X-35845479Y43738800D01*
X-35758011Y43299067D01*
X-35508922Y42926278D01*
X-35136133Y42677189D01*
X-35059761Y42661998D01*
X-34995291Y42565512D01*
X-34995289Y42565510D01*
X-34962876Y42517001D01*
X-34914367Y42484588D01*
X-26619011Y34189231D01*
X-26586598Y34140722D01*
X-26394416Y34012309D01*
X-26376181Y34008682D01*
X-26512030Y33872833D01*
X-26529938Y33829600D01*
X-27960800Y33829600D01*
X-27960800Y34294448D01*
X-28178047Y34818931D01*
X-28579469Y35220353D01*
X-29103952Y35437600D01*
X-29671648Y35437600D01*
X-30196131Y35220353D01*
X-30597553Y34818931D01*
X-30814800Y34294448D01*
X-30814800Y33959336D01*
X-31575400Y34719935D01*
X-31575400Y35151580D01*
X-31343878Y35306278D01*
X-31094789Y35679067D01*
X-31007321Y36118800D01*
X-31094789Y36558533D01*
X-31343878Y36931322D01*
X-31716667Y37180411D01*
X-32045401Y37245800D01*
X-32267399Y37245800D01*
X-32596133Y37180411D01*
X-32968922Y36931322D01*
X-33218011Y36558533D01*
X-33305479Y36118800D01*
X-33218011Y35679067D01*
X-32968922Y35306278D01*
X-32737400Y35151580D01*
X-32737400Y34536496D01*
X-32748781Y34479278D01*
X-32737400Y34422060D01*
X-32737400Y34422057D01*
X-32703690Y34252584D01*
X-32575277Y34060401D01*
X-32526765Y34027986D01*
X-30141011Y31642230D01*
X-30108600Y31593724D01*
X-30060094Y31561313D01*
X-30060091Y31561310D01*
X-29997508Y31519494D01*
X-29916418Y31465311D01*
X-29746945Y31431601D01*
X-29746940Y31431601D01*
X-29689724Y31420220D01*
X-29632507Y31431601D01*
X-26519329Y31431601D01*
X-26575613Y31375317D01*
X-26611118Y31289600D01*
X-30620341Y31289600D01*
X-33660908Y34330165D01*
X-33693323Y34378677D01*
X-33885505Y34507090D01*
X-34054978Y34540800D01*
X-34054982Y34540800D01*
X-34112200Y34552181D01*
X-34169418Y34540800D01*
X-39107484Y34540800D01*
X-39201647Y34768131D01*
X-39465149Y35031633D01*
X-39336667Y35057189D01*
X-38963878Y35306278D01*
X-38714789Y35679067D01*
X-38627321Y36118800D01*
X-38385479Y36118800D01*
X-38298011Y35679067D01*
X-38048922Y35306278D01*
X-37676133Y35057189D01*
X-37347399Y34991800D01*
X-37125401Y34991800D01*
X-36796667Y35057189D01*
X-36423878Y35306278D01*
X-36174789Y35679067D01*
X-36087321Y36118800D01*
X-35845479Y36118800D01*
X-35758011Y35679067D01*
X-35508922Y35306278D01*
X-35136133Y35057189D01*
X-34807399Y34991800D01*
X-34585401Y34991800D01*
X-34256667Y35057189D01*
X-33883878Y35306278D01*
X-33634789Y35679067D01*
X-33547321Y36118800D01*
X-33634789Y36558533D01*
X-33883878Y36931322D01*
X-34256667Y37180411D01*
X-34585401Y37245800D01*
X-34807399Y37245800D01*
X-35136133Y37180411D01*
X-35508922Y36931322D01*
X-35758011Y36558533D01*
X-35845479Y36118800D01*
X-36087321Y36118800D01*
X-36174789Y36558533D01*
X-36423878Y36931322D01*
X-36796667Y37180411D01*
X-37125401Y37245800D01*
X-37347399Y37245800D01*
X-37676133Y37180411D01*
X-38048922Y36931322D01*
X-38298011Y36558533D01*
X-38385479Y36118800D01*
X-38627321Y36118800D01*
X-38714789Y36558533D01*
X-38963878Y36931322D01*
X-39336667Y37180411D01*
X-39665401Y37245800D01*
X-39887399Y37245800D01*
X-40216133Y37180411D01*
X-40588922Y36931322D01*
X-40838011Y36558533D01*
X-40925479Y36118800D01*
X-40838011Y35679067D01*
X-40642725Y35386800D01*
X-40695248Y35386800D01*
X-41219731Y35169553D01*
X-41621153Y34768131D01*
X-41838400Y34243648D01*
X-43810590Y34243648D01*
X-43897108Y34330165D01*
X-43929523Y34378677D01*
X-44121705Y34507090D01*
X-44291178Y34540800D01*
X-44291182Y34540800D01*
X-44348400Y34552181D01*
X-44405618Y34540800D01*
X-50105684Y34540800D01*
X-50199847Y34768131D01*
X-50601269Y35169553D01*
X-51125752Y35386800D01*
X-51693448Y35386800D01*
X-52217931Y35169553D01*
X-52619353Y34768131D01*
X-52836600Y34243648D01*
X-53560323Y34243648D01*
X-53654576Y34471194D01*
X-53971606Y34788224D01*
X-54024985Y34810335D01*
X-54037310Y34872295D01*
X-54165723Y35064477D01*
X-54357906Y35192890D01*
X-54584600Y35237982D01*
X-54811295Y35192890D01*
X-55003477Y35064477D01*
X-55131890Y34872294D01*
X-55139653Y34833266D01*
X-55248394Y34788224D01*
X-55565424Y34471194D01*
X-55737000Y34056974D01*
X-55737000Y33608626D01*
X-55565424Y33194406D01*
X-55248394Y32877376D01*
X-55165600Y32843081D01*
X-55165599Y29390643D01*
X-55578345Y28977897D01*
X-55818380Y28398401D01*
X-63123800Y28398401D01*
X-63123800Y30900301D01*
X-58320280Y30900301D01*
X-58320280Y30273059D01*
X-58080245Y29693563D01*
X-57636717Y29250035D01*
X-57057221Y29010000D01*
X-56429979Y29010000D01*
X-55850483Y29250035D01*
X-55406955Y29693563D01*
X-55166920Y30273059D01*
X-55166920Y30900301D01*
X-55406955Y31479797D01*
X-55850483Y31923325D01*
X-56429979Y32163360D01*
X-57057221Y32163360D01*
X-57636717Y31923325D01*
X-58080245Y31479797D01*
X-58320280Y30900301D01*
X-63123800Y30900301D01*
X-63123800Y36118800D01*
X-48545479Y36118800D01*
X-48458011Y35679067D01*
X-48208922Y35306278D01*
X-47836133Y35057189D01*
X-47507399Y34991800D01*
X-47285401Y34991800D01*
X-46956667Y35057189D01*
X-46583878Y35306278D01*
X-46334789Y35679067D01*
X-46247321Y36118800D01*
X-46005479Y36118800D01*
X-45918011Y35679067D01*
X-45668922Y35306278D01*
X-45296133Y35057189D01*
X-44967399Y34991800D01*
X-44745401Y34991800D01*
X-44416667Y35057189D01*
X-44043878Y35306278D01*
X-43794789Y35679067D01*
X-43707321Y36118800D01*
X-43465479Y36118800D01*
X-43378011Y35679067D01*
X-43128922Y35306278D01*
X-42756133Y35057189D01*
X-42427399Y34991800D01*
X-42205401Y34991800D01*
X-41876667Y35057189D01*
X-41503878Y35306278D01*
X-41254789Y35679067D01*
X-41167321Y36118800D01*
X-41254789Y36558533D01*
X-41503878Y36931322D01*
X-41876667Y37180411D01*
X-42205401Y37245800D01*
X-42427399Y37245800D01*
X-42756133Y37180411D01*
X-43128922Y36931322D01*
X-43378011Y36558533D01*
X-43465479Y36118800D01*
X-43707321Y36118800D01*
X-43794789Y36558533D01*
X-44043878Y36931322D01*
X-44416667Y37180411D01*
X-44745401Y37245800D01*
X-44967399Y37245800D01*
X-45296133Y37180411D01*
X-45668922Y36931322D01*
X-45918011Y36558533D01*
X-46005479Y36118800D01*
X-46247321Y36118800D01*
X-46334789Y36558533D01*
X-46583878Y36931322D01*
X-46956667Y37180411D01*
X-47285401Y37245800D01*
X-47507399Y37245800D01*
X-47836133Y37180411D01*
X-48208922Y36931322D01*
X-48458011Y36558533D01*
X-48545479Y36118800D01*
X-63123800Y36118800D01*
X-63123800Y43992800D01*
X-55759079Y43992800D01*
X-55671611Y43553067D01*
X-55422522Y43180278D01*
X-55049733Y42931189D01*
X-54720999Y42865800D01*
X-54597827Y42865800D01*
X-52966860Y41234832D01*
X-52934447Y41186323D01*
X-52885938Y41153910D01*
X-52868257Y41142096D01*
X-52742265Y41057910D01*
X-52572792Y41024200D01*
X-52572788Y41024200D01*
X-52515571Y41012819D01*
X-52458354Y41024200D01*
X-39732018Y41024200D01*
X-39674800Y41012819D01*
X-39617582Y41024200D01*
X-39617578Y41024200D01*
X-39448105Y41057910D01*
X-39255923Y41186323D01*
X-39223508Y41234835D01*
X-38385309Y42073033D01*
X-38385307Y42073036D01*
X-37739088Y42719254D01*
X-37676133Y42677189D01*
X-37347399Y42611800D01*
X-37125401Y42611800D01*
X-36796667Y42677189D01*
X-36423878Y42926278D01*
X-36174789Y43299067D01*
X-36087321Y43738800D01*
X-36174789Y44178533D01*
X-36423878Y44551322D01*
X-36796667Y44800411D01*
X-37125401Y44865800D01*
X-37347399Y44865800D01*
X-37676133Y44800411D01*
X-38048922Y44551322D01*
X-38298011Y44178533D01*
X-38385479Y43738800D01*
X-38381726Y43719932D01*
X-38692988Y43408670D01*
X-38627321Y43738800D01*
X-38714789Y44178533D01*
X-38963878Y44551322D01*
X-39336667Y44800411D01*
X-39665401Y44865800D01*
X-39887399Y44865800D01*
X-40216133Y44800411D01*
X-40588922Y44551322D01*
X-40838011Y44178533D01*
X-40925479Y43738800D01*
X-40838011Y43299067D01*
X-40588922Y42926278D01*
X-40216133Y42677189D01*
X-39887399Y42611800D01*
X-39665401Y42611800D01*
X-39446270Y42655388D01*
X-39915457Y42186200D01*
X-52274912Y42186200D01*
X-53478471Y43389759D01*
X-48788314Y43389759D01*
X-48548789Y42883666D01*
X-48133823Y42507759D01*
X-47745439Y42346896D01*
X-47523400Y42468885D01*
X-47523400Y43611800D01*
X-48667029Y43611800D01*
X-48788314Y43389759D01*
X-53478471Y43389759D01*
X-53585796Y43497083D01*
X-53548389Y43553067D01*
X-53460921Y43992800D01*
X-53479825Y44087841D01*
X-48788314Y44087841D01*
X-48667029Y43865800D01*
X-47523400Y43865800D01*
X-47523400Y45008715D01*
X-47269400Y45008715D01*
X-47269400Y43865800D01*
X-47249400Y43865800D01*
X-47249400Y43611800D01*
X-47269400Y43611800D01*
X-47269400Y42468885D01*
X-47047361Y42346896D01*
X-46658977Y42507759D01*
X-46244011Y42883666D01*
X-46004486Y43389759D01*
X-46125770Y43611798D01*
X-45980217Y43611798D01*
X-45918011Y43299067D01*
X-45668922Y42926278D01*
X-45296133Y42677189D01*
X-44967399Y42611800D01*
X-44745401Y42611800D01*
X-44416667Y42677189D01*
X-44043878Y42926278D01*
X-43794789Y43299067D01*
X-43707321Y43738800D01*
X-43465479Y43738800D01*
X-43378011Y43299067D01*
X-43128922Y42926278D01*
X-42756133Y42677189D01*
X-42427399Y42611800D01*
X-42205401Y42611800D01*
X-41876667Y42677189D01*
X-41503878Y42926278D01*
X-41254789Y43299067D01*
X-41167321Y43738800D01*
X-41254789Y44178533D01*
X-41503878Y44551322D01*
X-41876667Y44800411D01*
X-42205401Y44865800D01*
X-42427399Y44865800D01*
X-42756133Y44800411D01*
X-43128922Y44551322D01*
X-43378011Y44178533D01*
X-43465479Y43738800D01*
X-43707321Y43738800D01*
X-43794789Y44178533D01*
X-44043878Y44551322D01*
X-44416667Y44800411D01*
X-44745401Y44865800D01*
X-44967399Y44865800D01*
X-45296133Y44800411D01*
X-45668922Y44551322D01*
X-45918011Y44178533D01*
X-45980217Y43865802D01*
X-46125770Y43865802D01*
X-46004486Y44087841D01*
X-46244011Y44593934D01*
X-46658977Y44969841D01*
X-47047361Y45130704D01*
X-47269400Y45008715D01*
X-47523400Y45008715D01*
X-47745439Y45130704D01*
X-48133823Y44969841D01*
X-48548789Y44593934D01*
X-48788314Y44087841D01*
X-53479825Y44087841D01*
X-53548389Y44432533D01*
X-53797478Y44805322D01*
X-54170267Y45054411D01*
X-54499001Y45119800D01*
X-54720999Y45119800D01*
X-55049733Y45054411D01*
X-55422522Y44805322D01*
X-55671611Y44432533D01*
X-55759079Y43992800D01*
X-63123800Y43992800D01*
X-63123800Y46765848D01*
X-52811200Y46765848D01*
X-52811200Y46198152D01*
X-52593953Y45673669D01*
X-52192531Y45272247D01*
X-51668048Y45055000D01*
X-51100352Y45055000D01*
X-50575869Y45272247D01*
X-50174447Y45673669D01*
X-49957200Y46198152D01*
X-49957200Y46765848D01*
X-41813000Y46765848D01*
X-41813000Y46198152D01*
X-41595753Y45673669D01*
X-41194331Y45272247D01*
X-40669848Y45055000D01*
X-40102152Y45055000D01*
X-39577669Y45272247D01*
X-39176247Y45673669D01*
X-38959000Y46198152D01*
X-38959000Y46740448D01*
X-30814800Y46740448D01*
X-30814800Y46172752D01*
X-30597553Y45648269D01*
X-30196131Y45246847D01*
X-29671648Y45029600D01*
X-29103952Y45029600D01*
X-28579469Y45246847D01*
X-28178047Y45648269D01*
X-28083884Y45875600D01*
X-26754800Y45875600D01*
X-26754800Y45714480D01*
X-26575613Y45281883D01*
X-26244517Y44950787D01*
X-25811920Y44771600D01*
X-25343680Y44771600D01*
X-24911083Y44950787D01*
X-24579987Y45281883D01*
X-24400800Y45714480D01*
X-24400800Y46182720D01*
X-24579987Y46615317D01*
X-24911083Y46946413D01*
X-25343680Y47125600D01*
X-25811920Y47125600D01*
X-26025736Y47037035D01*
X-26028578Y47037600D01*
X-26028582Y47037600D01*
X-26085800Y47048981D01*
X-26143018Y47037600D01*
X-28083884Y47037600D01*
X-28178047Y47264931D01*
X-28579469Y47666353D01*
X-29103952Y47883600D01*
X-29671648Y47883600D01*
X-30196131Y47666353D01*
X-30597553Y47264931D01*
X-30814800Y46740448D01*
X-38959000Y46740448D01*
X-38959000Y46765848D01*
X-39053163Y46993179D01*
X-38138742Y47907600D01*
X-26611118Y47907600D01*
X-26575613Y47821883D01*
X-26244517Y47490787D01*
X-25811920Y47311600D01*
X-25343680Y47311600D01*
X-24911083Y47490787D01*
X-24579987Y47821883D01*
X-24400800Y48254480D01*
X-24400800Y48722720D01*
X-24579987Y49155317D01*
X-24911083Y49486413D01*
X-25343680Y49665600D01*
X-25811920Y49665600D01*
X-26244517Y49486413D01*
X-26575613Y49155317D01*
X-26611118Y49069600D01*
X-38322182Y49069600D01*
X-38379400Y49080981D01*
X-38436618Y49069600D01*
X-38436622Y49069600D01*
X-38606095Y49035890D01*
X-38749767Y48939891D01*
X-38749768Y48939890D01*
X-38798277Y48907477D01*
X-38830690Y48858968D01*
X-39874821Y47814837D01*
X-40102152Y47909000D01*
X-40669848Y47909000D01*
X-41194331Y47691753D01*
X-41595753Y47290331D01*
X-41813000Y46765848D01*
X-49957200Y46765848D01*
X-50051363Y46993179D01*
X-47930442Y49114100D01*
X-29508518Y49114100D01*
X-29451300Y49102719D01*
X-29394082Y49114100D01*
X-29394078Y49114100D01*
X-29224605Y49147810D01*
X-29032423Y49276223D01*
X-29000008Y49324735D01*
X-27062023Y51262720D01*
X-26754800Y51262720D01*
X-26754800Y50794480D01*
X-26575613Y50361883D01*
X-26244517Y50030787D01*
X-25811920Y49851600D01*
X-25343680Y49851600D01*
X-24911083Y50030787D01*
X-24579987Y50361883D01*
X-24400800Y50794480D01*
X-24400800Y51262720D01*
X-24579987Y51695317D01*
X-24911083Y52026413D01*
X-25343680Y52205600D01*
X-25811920Y52205600D01*
X-26244517Y52026413D01*
X-26575613Y51695317D01*
X-26754800Y51262720D01*
X-27062023Y51262720D01*
X-25897637Y52427105D01*
X-25811920Y52391600D01*
X-25343680Y52391600D01*
X-24911083Y52570787D01*
X-24579987Y52901883D01*
X-24400800Y53334480D01*
X-24400800Y53802720D01*
X-24579987Y54235317D01*
X-24911083Y54566413D01*
X-25343680Y54745600D01*
X-25811920Y54745600D01*
X-26244517Y54566413D01*
X-26575613Y54235317D01*
X-26754800Y53802720D01*
X-26754800Y53334480D01*
X-26719295Y53248763D01*
X-29691957Y50276100D01*
X-48113882Y50276100D01*
X-48171100Y50287481D01*
X-48228318Y50276100D01*
X-48228322Y50276100D01*
X-48397795Y50242390D01*
X-48541467Y50146391D01*
X-48541468Y50146390D01*
X-48589977Y50113977D01*
X-48622390Y50065468D01*
X-50873021Y47814837D01*
X-51100352Y47909000D01*
X-51668048Y47909000D01*
X-52192531Y47691753D01*
X-52593953Y47290331D01*
X-52811200Y46765848D01*
X-63123800Y46765848D01*
X-63123800Y50450476D01*
X-62907918Y50450476D01*
X-62760345Y50142094D01*
X-62005769Y49848795D01*
X-61196391Y49866586D01*
X-60531255Y50142094D01*
X-60383682Y50450476D01*
X-61645800Y51712595D01*
X-62907918Y50450476D01*
X-63123800Y50450476D01*
X-63123800Y50647442D01*
X-63087524Y50630082D01*
X-61825405Y51892200D01*
X-63087524Y53154318D01*
X-63123800Y53136958D01*
X-63123800Y62052198D01*
X-62973444Y62675099D01*
X-62464181Y63516489D01*
X-62460462Y63519824D01*
X-62457135Y63523843D01*
X-62142157Y63909165D01*
X-61782124Y64156017D01*
X-61351311Y64297128D01*
X-61165164Y64317603D01*
X-57620514Y64317972D01*
X-57652587Y64269972D01*
X-59616165Y62306392D01*
X-59664677Y62273977D01*
X-59793090Y62081794D01*
X-59826800Y61912321D01*
X-59826800Y61912318D01*
X-59838181Y61855100D01*
X-59826800Y61797882D01*
X-59826799Y55520834D01*
X-60224067Y55356280D01*
X-60709880Y54870467D01*
X-60972800Y54235722D01*
X-60972800Y53813932D01*
X-61285831Y53935605D01*
X-62095209Y53917814D01*
X-62760345Y53642306D01*
X-62907918Y53333924D01*
X-61645800Y52071805D01*
X-61631657Y52085947D01*
X-61452052Y51906342D01*
X-61466195Y51892200D01*
X-60204076Y50630082D01*
X-59895694Y50777655D01*
X-59602395Y51532231D01*
X-59616556Y52176481D01*
X-59589322Y52165200D01*
X-58902278Y52165200D01*
X-58267533Y52428120D01*
X-57781720Y52913933D01*
X-57518800Y53548678D01*
X-57518800Y54235722D01*
X-57781720Y54870467D01*
X-58267533Y55356280D01*
X-58664800Y55520833D01*
X-58664800Y61614443D01*
X-56960640Y63318601D01*
X-23512958Y63318601D01*
X-23329269Y63134912D01*
X-23488578Y63166600D01*
X-23488582Y63166600D01*
X-23545800Y63177981D01*
X-23603018Y63166600D01*
X-53085084Y63166600D01*
X-53142301Y63177981D01*
X-53199518Y63166600D01*
X-53199522Y63166600D01*
X-53368995Y63132890D01*
X-53424303Y63095934D01*
X-53512666Y63036891D01*
X-53561177Y63004477D01*
X-53593590Y62955968D01*
X-56745665Y59803892D01*
X-56794177Y59771477D01*
X-56922590Y59579294D01*
X-56956300Y59409821D01*
X-56956300Y59409818D01*
X-56967681Y59352600D01*
X-56956300Y59295382D01*
X-56956299Y55289523D01*
X-56967681Y55232300D01*
X-56922590Y55005606D01*
X-56826591Y54861934D01*
X-56826589Y54861932D01*
X-56794176Y54813423D01*
X-56745668Y54781011D01*
X-56019888Y54055229D01*
X-55987477Y54006723D01*
X-55938971Y53974312D01*
X-55938968Y53974309D01*
X-55879239Y53934400D01*
X-55795295Y53878310D01*
X-55625822Y53844600D01*
X-55625817Y53844600D01*
X-55568601Y53833219D01*
X-55511384Y53844600D01*
X-55472800Y53844600D01*
X-55472800Y53548678D01*
X-55209880Y52913933D01*
X-54724067Y52428120D01*
X-54089322Y52165200D01*
X-53402278Y52165200D01*
X-52767533Y52428120D01*
X-52281720Y52913933D01*
X-52216401Y53071629D01*
X-47214000Y53071629D01*
X-47214000Y52643171D01*
X-47050037Y52247328D01*
X-46747072Y51944363D01*
X-46351229Y51780400D01*
X-45922771Y51780400D01*
X-45526928Y51944363D01*
X-45223963Y52247328D01*
X-45060000Y52643171D01*
X-45060000Y53071629D01*
X-45223963Y53467472D01*
X-45526928Y53770437D01*
X-45922771Y53934400D01*
X-46351229Y53934400D01*
X-46747072Y53770437D01*
X-47050037Y53467472D01*
X-47214000Y53071629D01*
X-52216401Y53071629D01*
X-52018800Y53548678D01*
X-52018800Y54235722D01*
X-52281720Y54870467D01*
X-52767533Y55356280D01*
X-53402278Y55619200D01*
X-54089322Y55619200D01*
X-54724067Y55356280D01*
X-55073747Y55006600D01*
X-55327941Y55006600D01*
X-55794300Y55472957D01*
X-55794300Y59029600D01*
X-55124797Y59029600D01*
X-55021806Y58511830D01*
X-54728513Y58072887D01*
X-54352799Y57821842D01*
X-54352799Y57672609D01*
X-54364181Y57615387D01*
X-54319090Y57388693D01*
X-54223091Y57245021D01*
X-54223089Y57245019D01*
X-54190676Y57196510D01*
X-54142167Y57164097D01*
X-52072738Y55094667D01*
X-51972690Y54944936D01*
X-51924179Y54912522D01*
X-51403690Y54392032D01*
X-51371277Y54343523D01*
X-51179095Y54215110D01*
X-51009622Y54181400D01*
X-51009618Y54181400D01*
X-50952401Y54170019D01*
X-50895184Y54181400D01*
X-45020657Y54181400D01*
X-44684064Y53844806D01*
X-44691000Y53844806D01*
X-44818589Y53819427D01*
X-44926754Y53747154D01*
X-44999027Y53638989D01*
X-45024406Y53511400D01*
X-45024406Y52203400D01*
X-44999027Y52075811D01*
X-44926754Y51967646D01*
X-44818589Y51895373D01*
X-44691000Y51869994D01*
X-43383000Y51869994D01*
X-43255411Y51895373D01*
X-43165450Y51955483D01*
X-42759312Y51955483D01*
X-42703138Y51724474D01*
X-42218879Y51555793D01*
X-41706931Y51585270D01*
X-41370862Y51724474D01*
X-41314688Y51955483D01*
X-42037000Y52677795D01*
X-42759312Y51955483D01*
X-43165450Y51955483D01*
X-43147246Y51967646D01*
X-43074973Y52075811D01*
X-43057449Y52163911D01*
X-42938917Y52135088D01*
X-42216605Y52857400D01*
X-41857395Y52857400D01*
X-41135083Y52135088D01*
X-40904074Y52191262D01*
X-40866390Y52299446D01*
X-40592692Y52025748D01*
X-40232133Y51876400D01*
X-39841867Y51876400D01*
X-39481308Y52025748D01*
X-39205348Y52301708D01*
X-39056000Y52662267D01*
X-39056000Y53052533D01*
X-39063909Y53071629D01*
X-39014000Y53071629D01*
X-39014000Y52643171D01*
X-38850037Y52247328D01*
X-38547072Y51944363D01*
X-38151229Y51780400D01*
X-37722771Y51780400D01*
X-37326928Y51944363D01*
X-37023963Y52247328D01*
X-36860000Y52643171D01*
X-36860000Y53071629D01*
X-37023963Y53467472D01*
X-37326928Y53770437D01*
X-37722771Y53934400D01*
X-38151229Y53934400D01*
X-38547072Y53770437D01*
X-38850037Y53467472D01*
X-39014000Y53071629D01*
X-39063909Y53071629D01*
X-39205348Y53413092D01*
X-39481308Y53689052D01*
X-39841867Y53838400D01*
X-40232133Y53838400D01*
X-40592692Y53689052D01*
X-40861350Y53420394D01*
X-40904074Y53523538D01*
X-41135083Y53579712D01*
X-41857395Y52857400D01*
X-42216605Y52857400D01*
X-42938917Y53579712D01*
X-43057449Y53550889D01*
X-43074973Y53638989D01*
X-43147246Y53747154D01*
X-43165449Y53759317D01*
X-42759312Y53759317D01*
X-42037000Y53037005D01*
X-41314688Y53759317D01*
X-41370862Y53990326D01*
X-41855121Y54159007D01*
X-42367069Y54129530D01*
X-42703138Y53990326D01*
X-42759312Y53759317D01*
X-43165449Y53759317D01*
X-43255411Y53819427D01*
X-43383000Y53844806D01*
X-43456000Y53844806D01*
X-43456000Y53962182D01*
X-43444619Y54019400D01*
X-43456000Y54076618D01*
X-43456000Y54076622D01*
X-43489710Y54246095D01*
X-43535047Y54313946D01*
X-43585709Y54389767D01*
X-43585710Y54389768D01*
X-43618123Y54438277D01*
X-43666632Y54470690D01*
X-44328708Y55132765D01*
X-44361123Y55181277D01*
X-44553305Y55309690D01*
X-44722778Y55343400D01*
X-44722782Y55343400D01*
X-44780000Y55354781D01*
X-44837218Y55343400D01*
X-50711742Y55343400D01*
X-51034887Y55666544D01*
X-51134936Y55816277D01*
X-51183444Y55848689D01*
X-53170298Y57835542D01*
X-52815087Y58072887D01*
X-52521794Y58511830D01*
X-52515206Y58544950D01*
X-52515206Y58079600D01*
X-52489827Y57952011D01*
X-52417554Y57843846D01*
X-52309389Y57771573D01*
X-52181800Y57746194D01*
X-50281800Y57746194D01*
X-50154211Y57771573D01*
X-50046046Y57843846D01*
X-49973773Y57952011D01*
X-49948394Y58079600D01*
X-49948394Y58448600D01*
X-49186457Y58448600D01*
X-46476090Y55738232D01*
X-46443677Y55689723D01*
X-46395168Y55657310D01*
X-46395167Y55657309D01*
X-46295191Y55590507D01*
X-46251495Y55561310D01*
X-46082022Y55527600D01*
X-46082018Y55527600D01*
X-46024800Y55516219D01*
X-45967582Y55527600D01*
X-26611118Y55527600D01*
X-26575613Y55441883D01*
X-26244517Y55110787D01*
X-25811920Y54931600D01*
X-25343680Y54931600D01*
X-24911083Y55110787D01*
X-24579987Y55441883D01*
X-24400800Y55874480D01*
X-24400800Y56342720D01*
X-24579987Y56775317D01*
X-24911083Y57106413D01*
X-25343680Y57285600D01*
X-25811920Y57285600D01*
X-26244517Y57106413D01*
X-26575613Y56775317D01*
X-26611118Y56689600D01*
X-45784142Y56689600D01*
X-48494508Y59399965D01*
X-48526923Y59448477D01*
X-48719105Y59576890D01*
X-48888578Y59610600D01*
X-48888582Y59610600D01*
X-48945800Y59621981D01*
X-49003018Y59610600D01*
X-49948394Y59610600D01*
X-49948394Y59979600D01*
X-49973773Y60107189D01*
X-50046046Y60215354D01*
X-50154211Y60287627D01*
X-50281800Y60313006D01*
X-52181800Y60313006D01*
X-52309389Y60287627D01*
X-52417554Y60215354D01*
X-52489827Y60107189D01*
X-52515206Y59979600D01*
X-52515206Y59514250D01*
X-52521794Y59547370D01*
X-52815087Y59986313D01*
X-53254030Y60279606D01*
X-53641104Y60356600D01*
X-53902496Y60356600D01*
X-54289570Y60279606D01*
X-54728513Y59986313D01*
X-55021806Y59547370D01*
X-55124797Y59029600D01*
X-55794300Y59029600D01*
X-55794300Y59111943D01*
X-52901642Y62004600D01*
X-26426330Y62004600D01*
X-26575613Y61855317D01*
X-26584816Y61833100D01*
X-38138131Y61833100D01*
X-38201601Y61845725D01*
X-38265071Y61833100D01*
X-38265075Y61833100D01*
X-38453071Y61795705D01*
X-38666258Y61653258D01*
X-38702214Y61599446D01*
X-39963720Y60337939D01*
X-40127552Y60405800D01*
X-40695248Y60405800D01*
X-41219731Y60188553D01*
X-41621153Y59787131D01*
X-41838400Y59262648D01*
X-41838400Y58694952D01*
X-41621153Y58170469D01*
X-41219731Y57769047D01*
X-40695248Y57551800D01*
X-40127552Y57551800D01*
X-39603069Y57769047D01*
X-39201647Y58170469D01*
X-38984400Y58694952D01*
X-38984400Y59186448D01*
X-30687800Y59186448D01*
X-30687800Y58618752D01*
X-30470553Y58094269D01*
X-30069131Y57692847D01*
X-29544648Y57475600D01*
X-28976952Y57475600D01*
X-28452469Y57692847D01*
X-28051047Y58094269D01*
X-27983186Y58258100D01*
X-26690025Y58258100D01*
X-26575613Y57981883D01*
X-26244517Y57650787D01*
X-25811920Y57471600D01*
X-25343680Y57471600D01*
X-24911083Y57650787D01*
X-24579987Y57981883D01*
X-24400800Y58414480D01*
X-24400800Y58882720D01*
X-24579987Y59315317D01*
X-24911083Y59646413D01*
X-25343680Y59825600D01*
X-25811920Y59825600D01*
X-26244517Y59646413D01*
X-26343830Y59547100D01*
X-27983186Y59547100D01*
X-28051047Y59710931D01*
X-28452469Y60112353D01*
X-28976952Y60329600D01*
X-29544648Y60329600D01*
X-30069131Y60112353D01*
X-30470553Y59710931D01*
X-30687800Y59186448D01*
X-38984400Y59186448D01*
X-38984400Y59262648D01*
X-39052261Y59426480D01*
X-37934640Y60544100D01*
X-26584816Y60544100D01*
X-26575613Y60521883D01*
X-26244517Y60190787D01*
X-25811920Y60011600D01*
X-25343680Y60011600D01*
X-24911083Y60190787D01*
X-24579987Y60521883D01*
X-24400800Y60954480D01*
X-24400800Y61422720D01*
X-24579987Y61855317D01*
X-24729270Y62004600D01*
X-23786457Y62004600D01*
X-23491799Y61709941D01*
X-23491800Y45220243D01*
X-24608356Y44103686D01*
X-24911083Y44406413D01*
X-25343680Y44585600D01*
X-25811920Y44585600D01*
X-26244517Y44406413D01*
X-26575613Y44075317D01*
X-26754800Y43642720D01*
X-26754800Y43174480D01*
X-26575613Y42741883D01*
X-26244517Y42410787D01*
X-25811920Y42231600D01*
X-25343680Y42231600D01*
X-24911083Y42410787D01*
X-24579987Y42741883D01*
X-24544482Y42827600D01*
X-24539003Y42827600D01*
X-24481785Y42816219D01*
X-24424567Y42827600D01*
X-24424563Y42827600D01*
X-24255090Y42861310D01*
X-24062908Y42989723D01*
X-24030493Y43038235D01*
X-22540431Y44528296D01*
X-22491923Y44560708D01*
X-22363510Y44752890D01*
X-22329800Y44922363D01*
X-22329800Y44922367D01*
X-22318419Y44979584D01*
X-22329800Y45036801D01*
X-22329800Y61893382D01*
X-22318419Y61950600D01*
X-22329800Y62007818D01*
X-22329800Y62007822D01*
X-22361488Y62167131D01*
X-21662999Y61468641D01*
X-21663000Y44402978D01*
X-24565539Y41500437D01*
X-24579987Y41535317D01*
X-24911083Y41866413D01*
X-25343680Y42045600D01*
X-25811920Y42045600D01*
X-26244517Y41866413D01*
X-26575613Y41535317D01*
X-26754800Y41102720D01*
X-26754800Y40634480D01*
X-26575613Y40201883D01*
X-26244517Y39870787D01*
X-26005130Y39771630D01*
X-26361880Y39623859D01*
X-26442153Y39372558D01*
X-25577800Y38508205D01*
X-24713447Y39372558D01*
X-24793720Y39623859D01*
X-25174098Y39761843D01*
X-24911083Y39870787D01*
X-24579987Y40201883D01*
X-24544482Y40287600D01*
X-24432937Y40287600D01*
X-24375719Y40276219D01*
X-24318501Y40287600D01*
X-24318497Y40287600D01*
X-24149024Y40321310D01*
X-23956842Y40449723D01*
X-23924427Y40498235D01*
X-20711628Y43711032D01*
X-20663123Y43743442D01*
X-20630712Y43791948D01*
X-20630709Y43791951D01*
X-20581365Y43865800D01*
X-20534710Y43935624D01*
X-20501000Y44105097D01*
X-20501000Y44105102D01*
X-20489619Y44162318D01*
X-20501000Y44219535D01*
X-20501000Y46740448D01*
X-19829300Y46740448D01*
X-19829300Y46172752D01*
X-19612053Y45648269D01*
X-19210631Y45246847D01*
X-19046799Y45178986D01*
X-19046800Y43916570D01*
X-19059425Y43853100D01*
X-19046800Y43789630D01*
X-19046800Y43789626D01*
X-19009405Y43601630D01*
X-18866958Y43388442D01*
X-18813143Y43352484D01*
X-11505597Y36044937D01*
X-11514800Y36022720D01*
X-11514800Y35554480D01*
X-11335613Y35121883D01*
X-11004517Y34790787D01*
X-10571920Y34611600D01*
X-10103680Y34611600D01*
X-9671083Y34790787D01*
X-9339987Y35121883D01*
X-9160800Y35554480D01*
X-9160800Y36022720D01*
X-9339987Y36455317D01*
X-9671083Y36786413D01*
X-10103680Y36965600D01*
X-10571920Y36965600D01*
X-10594137Y36956397D01*
X-10943079Y37305338D01*
X-10571920Y37151600D01*
X-10103680Y37151600D01*
X-9671083Y37330787D01*
X-9339987Y37661883D01*
X-9160800Y38094480D01*
X-9160800Y38562720D01*
X-9339987Y38995317D01*
X-9671083Y39326413D01*
X-10103680Y39505600D01*
X-10571920Y39505600D01*
X-11004517Y39326413D01*
X-11335613Y38995317D01*
X-11514800Y38562720D01*
X-11514800Y38094480D01*
X-11361062Y37723321D01*
X-14740461Y41102720D01*
X-11514800Y41102720D01*
X-11514800Y40634480D01*
X-11335613Y40201883D01*
X-11004517Y39870787D01*
X-10571920Y39691600D01*
X-10103680Y39691600D01*
X-9671083Y39870787D01*
X-9339987Y40201883D01*
X-9160800Y40634480D01*
X-9160800Y41102720D01*
X-9339987Y41535317D01*
X-9671083Y41866413D01*
X-10103680Y42045600D01*
X-10571920Y42045600D01*
X-11004517Y41866413D01*
X-11335613Y41535317D01*
X-11514800Y41102720D01*
X-14740461Y41102720D01*
X-17757800Y44120059D01*
X-17757800Y45178986D01*
X-17593969Y45246847D01*
X-17192547Y45648269D01*
X-16975300Y46172752D01*
X-16975300Y46182720D01*
X-11514800Y46182720D01*
X-11514800Y45714480D01*
X-11335613Y45281883D01*
X-11004517Y44950787D01*
X-10571920Y44771600D01*
X-10103680Y44771600D01*
X-9949323Y44835537D01*
X-10199259Y44585600D01*
X-10571920Y44585600D01*
X-11004517Y44406413D01*
X-11335613Y44075317D01*
X-11514800Y43642720D01*
X-11514800Y43174480D01*
X-11335613Y42741883D01*
X-11004517Y42410787D01*
X-10571920Y42231600D01*
X-10103680Y42231600D01*
X-9671083Y42410787D01*
X-9339987Y42741883D01*
X-9160800Y43174480D01*
X-9160800Y43642720D01*
X-9207200Y43754740D01*
X-7864479Y45097461D01*
X-7700648Y45029600D01*
X-7132952Y45029600D01*
X-6608469Y45246847D01*
X-6207047Y45648269D01*
X-5989800Y46172752D01*
X-5989800Y46740448D01*
X-6207047Y47264931D01*
X-6608469Y47666353D01*
X-7132952Y47883600D01*
X-7700648Y47883600D01*
X-8225131Y47666353D01*
X-8626553Y47264931D01*
X-8843800Y46740448D01*
X-8843800Y46172752D01*
X-8775939Y46008921D01*
X-9224736Y45560124D01*
X-9160800Y45714480D01*
X-9160800Y46182720D01*
X-9339987Y46615317D01*
X-9671083Y46946413D01*
X-10103680Y47125600D01*
X-10571920Y47125600D01*
X-11004517Y46946413D01*
X-11335613Y46615317D01*
X-11514800Y46182720D01*
X-16975300Y46182720D01*
X-16975300Y46740448D01*
X-17192547Y47264931D01*
X-17593969Y47666353D01*
X-18118452Y47883600D01*
X-18686148Y47883600D01*
X-19210631Y47666353D01*
X-19612053Y47264931D01*
X-19829300Y46740448D01*
X-20501000Y46740448D01*
X-20501000Y48722720D01*
X-11514800Y48722720D01*
X-11514800Y48254480D01*
X-11335613Y47821883D01*
X-11004517Y47490787D01*
X-10571920Y47311600D01*
X-10103680Y47311600D01*
X-9671083Y47490787D01*
X-9339987Y47821883D01*
X-9160800Y48254480D01*
X-9160800Y48722720D01*
X-9339987Y49155317D01*
X-9671083Y49486413D01*
X-10103680Y49665600D01*
X-10571920Y49665600D01*
X-11004517Y49486413D01*
X-11335613Y49155317D01*
X-11514800Y48722720D01*
X-20501000Y48722720D01*
X-20501000Y51262720D01*
X-11514800Y51262720D01*
X-11514800Y50794480D01*
X-11335613Y50361883D01*
X-11004517Y50030787D01*
X-10571920Y49851600D01*
X-10103680Y49851600D01*
X-9671083Y50030787D01*
X-9339987Y50361883D01*
X-9160800Y50794480D01*
X-9160800Y51262720D01*
X-9339987Y51695317D01*
X-9671083Y52026413D01*
X-10103680Y52205600D01*
X-10571920Y52205600D01*
X-11004517Y52026413D01*
X-11335613Y51695317D01*
X-11514800Y51262720D01*
X-20501000Y51262720D01*
X-20501000Y53802720D01*
X-11514800Y53802720D01*
X-11514800Y53334480D01*
X-11335613Y52901883D01*
X-11004517Y52570787D01*
X-10571920Y52391600D01*
X-10103680Y52391600D01*
X-9671083Y52570787D01*
X-9339987Y52901883D01*
X-9160800Y53334480D01*
X-9160800Y53802720D01*
X-9339987Y54235317D01*
X-9671083Y54566413D01*
X-10103680Y54745600D01*
X-10571920Y54745600D01*
X-11004517Y54566413D01*
X-11335613Y54235317D01*
X-11514800Y53802720D01*
X-20501000Y53802720D01*
X-20501000Y56342720D01*
X-11514800Y56342720D01*
X-11514800Y55874480D01*
X-11335613Y55441883D01*
X-11004517Y55110787D01*
X-10571920Y54931600D01*
X-10103680Y54931600D01*
X-9671083Y55110787D01*
X-9339987Y55441883D01*
X-9160800Y55874480D01*
X-9160800Y56297941D01*
X-7839079Y57619661D01*
X-7675248Y57551800D01*
X-7107552Y57551800D01*
X-6583069Y57769047D01*
X-6181647Y58170469D01*
X-5964400Y58694952D01*
X-5964400Y59262648D01*
X-6181647Y59787131D01*
X-6583069Y60188553D01*
X-7107552Y60405800D01*
X-7675248Y60405800D01*
X-8199731Y60188553D01*
X-8601153Y59787131D01*
X-8818400Y59262648D01*
X-8818400Y58694952D01*
X-8750539Y58531121D01*
X-10027581Y57254079D01*
X-10103680Y57285600D01*
X-10571920Y57285600D01*
X-11004517Y57106413D01*
X-11335613Y56775317D01*
X-11514800Y56342720D01*
X-20501000Y56342720D01*
X-20501000Y59288048D01*
X-19842000Y59288048D01*
X-19842000Y58720352D01*
X-19624753Y58195869D01*
X-19223331Y57794447D01*
X-18698848Y57577200D01*
X-18131152Y57577200D01*
X-17606669Y57794447D01*
X-17205247Y58195869D01*
X-16988000Y58720352D01*
X-16988000Y58882720D01*
X-11514800Y58882720D01*
X-11514800Y58414480D01*
X-11335613Y57981883D01*
X-11004517Y57650787D01*
X-10571920Y57471600D01*
X-10103680Y57471600D01*
X-9671083Y57650787D01*
X-9339987Y57981883D01*
X-9160800Y58414480D01*
X-9160800Y58882720D01*
X-9339987Y59315317D01*
X-9671083Y59646413D01*
X-10103680Y59825600D01*
X-10571920Y59825600D01*
X-11004517Y59646413D01*
X-11335613Y59315317D01*
X-11514800Y58882720D01*
X-16988000Y58882720D01*
X-16988000Y59288048D01*
X-17055861Y59451880D01*
X-15963640Y60544100D01*
X-11344816Y60544100D01*
X-11335613Y60521883D01*
X-11004517Y60190787D01*
X-10571920Y60011600D01*
X-10103680Y60011600D01*
X-9671083Y60190787D01*
X-9339987Y60521883D01*
X-9160800Y60954480D01*
X-9160800Y61422720D01*
X-9339987Y61855317D01*
X-9671083Y62186413D01*
X-10103680Y62365600D01*
X-10571920Y62365600D01*
X-11004517Y62186413D01*
X-11335613Y61855317D01*
X-11344816Y61833100D01*
X-16167131Y61833100D01*
X-16230601Y61845725D01*
X-16294071Y61833100D01*
X-16294075Y61833100D01*
X-16482071Y61795705D01*
X-16695258Y61653258D01*
X-16731214Y61599446D01*
X-17967320Y60363339D01*
X-18131152Y60431200D01*
X-18698848Y60431200D01*
X-19223331Y60213953D01*
X-19624753Y59812531D01*
X-19842000Y59288048D01*
X-20501000Y59288048D01*
X-20501000Y61652084D01*
X-20489619Y61709301D01*
X-20501000Y61766518D01*
X-20501000Y61766522D01*
X-20534710Y61935995D01*
X-20663123Y62128177D01*
X-20711632Y62160590D01*
X-22821009Y64269966D01*
X-22853424Y64318478D01*
X-22858093Y64321598D01*
X-3700478Y64323596D01*
X-2977480Y64163534D01*
G04 #@! TD*
M02*
