999
dxfrw 0.6.3
  0
SECTION
  2
HEADER
  9
$ACADVER
  1
AC1009
  9
$DWGCODEPAGE
  3
ANSI_1252
  9
$INSBASE
 10
0
 20
0
 30
0
  9
$EXTMIN
 10
-30.49999999999999
 20
-12.26240370532059
 30
0
  9
$EXTMAX
 10
30.49999999999999
 20
52.5
 30
0
  9
$LIMMIN
 10
0
 20
0
  9
$LIMMAX
 10
420
 20
297
  9
$ORTHOMODE
 70
    0
  9
$REGENMODE
 70
    1
  9
$FILLMODE
 70
    1
  9
$QTEXTMODE
 70
    0
  9
$MIRRTEXT
 70
    0
  9
$DRAGMODE
 70
    2
  9
$LTSCALE
 40
1
  9
$OSMODE
 70
    0
  9
$ATTMODE
 70
    0
  9
$TEXTSIZE
 40
2.5
  9
$TRACEWID
 40
15.68
  9
$TEXTSTYLE
  7
STANDARD
  9
$CLAYER
  8
0
  9
$CELTYPE
  6
BYLAYER
  9
$CECOLOR
 62
  256
  9
$DIMSCALE
 40
2.5
  9
$DIMASZ
 40
2.5
  9
$DIMEXO
 40
0.625
  9
$DIMDLI
 40
3.75
  9
$DIMRND
 40
0
  9
$DIMDLE
 40
0
  9
$DIMEXE
 40
1.25
  9
$DIMTP
 40
0
  9
$DIMTM
 40
0
  9
$DIMTXT
 40
2.5
  9
$DIMCEN
 40
2.5
  9
$DIMTSZ
 40
0
  9
$DIMTOL
 70
    0
  9
$DIMLIM
 70
    0
  9
$DIMTIH
 70
    0
  9
$DIMTOH
 70
    0
  9
$DIMSE1
 70
    0
  9
$DIMSE2
 70
    0
  9
$DIMTAD
 70
    1
  9
$DIMZIN
 70
    8
  9
$DIMBLK
  1

  9
$DIMASO
 70
    1
  9
$DIMSHO
 70
    1
  9
$DIMPOST
  1

  9
$DIMAPOST
  1

  9
$DIMALT
 70
    0
  9
$DIMALTD
 70
    3
  9
$DIMALTF
 40
0.03937
  9
$DIMLFAC
 40
1
  9
$DIMTOFL
 70
    1
  9
$DIMTVP
 40
0
  9
$DIMTIX
 70
    0
  9
$DIMSOXD
 70
    0
  9
$DIMSAH
 70
    0
  9
$DIMBLK1
  1

  9
$DIMBLK2
  1

  9
$DIMSTYLE
  2
STANDARD
  9
$DIMCLRD
 70
    0
  9
$DIMCLRE
 70
    0
  9
$DIMCLRT
 70
    0
  9
$DIMTFAC
 40
1
  9
$DIMGAP
 40
0.625
  9
$LUNITS
 70
    2
  9
$LUPREC
 70
    4
  9
$SKETCHINC
 40
1
  9
$FILLETRAD
 40
0
  9
$AUNITS
 70
    0
  9
$AUPREC
 70
    2
  9
$MENU
  1
.
  9
$ELEVATION
 40
0
  9
$PELEVATION
 40
0
  9
$THICKNESS
 40
0
  9
$LIMCHECK
 70
    0
  9
$BLIPMODE
 70
    0
  9
$CHAMFERA
 40
0
  9
$CHAMFERB
 40
0
  9
$SKPOLY
 70
    0
  9
$USRTIMER
 70
    1
  9
$ANGBASE
 50
0
  9
$ANGDIR
 70
    0
  9
$PDMODE
 70
   34
  9
$PDSIZE
 40
0
  9
$PLINEWID
 40
0
  9
$COORDS
 70
    2
  9
$SPLFRAME
 70
    0
  9
$SPLINETYPE
 70
    2
  9
$SPLINESEGS
 70
    8
  9
$ATTDIA
 70
    1
  9
$ATTREQ
 70
    1
  9
$HANDLING
 70
    1
  9
$HANDSEED
  5
20000
  9
$SURFTAB1
 70
    6
  9
$SURFTAB2
 70
    6
  9
$SURFTYPE
 70
    6
  9
$SURFU
 70
    6
  9
$SURFV
 70
    6
  9
$UCSNAME
  2

  9
$UCSORG
 10
0
 20
0
 30
0
  9
$UCSXDIR
 10
1
 20
0
 30
0
  9
$UCSYDIR
 10
0
 20
1
 30
0
  9
$PUCSNAME
  2

  9
$PUCSORG
 10
0
 20
0
 30
0
  9
$PUCSXDIR
 10
1
 20
0
 30
0
  9
$PUCSYDIR
 10
0
 20
1
 30
0
  9
$USERI1
 70
    0
  9
$USERI2
 70
    0
  9
$USERI3
 70
    0
  9
$USERI4
 70
    0
  9
$USERI5
 70
    0
  9
$USERR1
 40
0
  9
$USERR2
 40
0
  9
$USERR3
 40
0
  9
$USERR4
 40
0
  9
$USERR5
 40
0
  9
$WORLDVIEW
 70
    1
  9
$SHADEDGE
 70
    3
  9
$SHADEDIF
 70
   70
  9
$TILEMODE
 70
    1
  9
$MAXACTVP
 70
   64
  9
$PLIMCHECK
 70
    0
  9
$PEXTMIN
 10
0
 20
0
 30
0
  9
$PEXTMAX
 10
0
 20
0
 30
0
  9
$SNAPSTYLE
 70
    0
  9
$PLIMMIN
 10
0
 20
0
  9
$PLIMMAX
 10
210
 20
297
  9
$UNITMODE
 70
    0
  9
$VISRETAIN
 70
    1
  9
$PLINEGEN
 70
    0
  9
$PSLTSCALE
 70
    1
  0
ENDSEC
  0
SECTION
  2
TABLES
  0
TABLE
  2
VPORT
 70
    1
  0
VPORT
  2
*ACTIVE
 70
    0
 10
0
 20
0
 11
1
 21
1
 12
56.10580555094398
 22
34.69589785201664
 13
0
 23
0
 14
10
 24
10
 15
10
 25
10
 16
0
 26
0
 36
1
 17
0
 27
0
 37
0
 40
109.926759292121
 41
1.964588144726713
 42
50
 43
0
 44
0
 50
0
 51
0
 71
    0
 72
  100
 73
    1
 74
    3
 75
    0
 76
    1
 77
    0
 78
    0
  0
ENDTAB
  0
TABLE
  2
LTYPE
 70
    4
  0
LTYPE
  2
BYBLOCK
 70
    0
  3

 72
   65
 73
    0
 40
0
  0
LTYPE
  2
BYLAYER
 70
    0
  3

 72
   65
 73
    0
 40
0
  0
LTYPE
  2
CONTINUOUS
 70
    0
  3
Solid line
 72
   65
 73
    0
 40
0
  0
LTYPE
  2
DOT
 70
    0
  3
Dot . . . . . . . . . . . . . . . . . . . . . .
 72
   65
 73
    2
 40
6.35
 49
0
 49
-6.35
  0
LTYPE
  2
DOTTINY
 70
    0
  3
Dot (.15x) .....................................
 72
   65
 73
    2
 40
0.9525
 49
0
 49
-0.9525
  0
LTYPE
  2
DOT2
 70
    0
  3
Dot (.5x) .....................................
 72
   65
 73
    2
 40
3.175
 49
0
 49
-3.175
  0
LTYPE
  2
DOTX2
 70
    0
  3
Dot (2x) .  .  .  .  .  .  .  .  .  .  .  .  .
 72
   65
 73
    2
 40
12.7
 49
0
 49
-12.7
  0
LTYPE
  2
DASHED
 70
    0
  3
Dashed _ _ _ _ _ _ _ _ _ _ _ _ _ _ _ _ _
 72
   65
 73
    2
 40
19.05
 49
12.7
 49
-6.35
  0
LTYPE
  2
DASHEDTINY
 70
    0
  3
Dashed (.15x) _ _ _ _ _ _ _ _ _ _ _ _ _ _ _ _ _
 72
   65
 73
    2
 40
2.8575
 49
1.905
 49
-0.9525
  0
LTYPE
  2
DASHED2
 70
    0
  3
Dashed (.5x) _ _ _ _ _ _ _ _ _ _ _ _ _ _ _ _ _
 72
   65
 73
    2
 40
9.524999999999999
 49
6.35
 49
-3.175
  0
LTYPE
  2
DASHEDX2
 70
    0
  3
Dashed (2x) ____  ____  ____  ____  ____  ___
 72
   65
 73
    2
 40
38.09999999999999
 49
25.4
 49
-12.7
  0
LTYPE
  2
DASHDOT
 70
    0
  3
Dash dot __ . __ . __ . __ . __ . __ . __ . __
 72
   65
 73
    4
 40
25.4
 49
12.7
 49
-6.35
 49
0
 49
-6.35
  0
LTYPE
  2
DASHDOTTINY
 70
    0
  3
Dash dot (.15x) _._._._._._._._._._._._._._._.
 72
   65
 73
    4
 40
3.81
 49
1.905
 49
-0.9525
 49
0
 49
-0.9525
  0
LTYPE
  2
DASHDOT2
 70
    0
  3
Dash dot (.5x) _._._._._._._._._._._._._._._.
 72
   65
 73
    4
 40
12.7
 49
6.35
 49
-3.175
 49
0
 49
-3.175
  0
LTYPE
  2
DASHDOTX2
 70
    0
  3
Dash dot (2x) ____  .  ____  .  ____  .  ___
 72
   65
 73
    4
 40
50.8
 49
25.4
 49
-12.7
 49
0
 49
-12.7
  0
LTYPE
  2
DIVIDE
 70
    0
  3
Divide ____ . . ____ . . ____ . . ____ . . ____
 72
   65
 73
    6
 40
31.75
 49
12.7
 49
-6.35
 49
0
 49
-6.35
 49
0
 49
-6.35
  0
LTYPE
  2
DIVIDETINY
 70
    0
  3
Divide (.15x) __..__..__..__..__..__..__..__.._
 72
   65
 73
    6
 40
4.7625
 49
1.905
 49
-0.9525
 49
0
 49
-0.9525
 49
0
 49
-0.9525
  0
LTYPE
  2
DIVIDE2
 70
    0
  3
Divide (.5x) __..__..__..__..__..__..__..__.._
 72
   65
 73
    6
 40
15.875
 49
6.35
 49
-3.175
 49
0
 49
-3.175
 49
0
 49
-3.175
  0
LTYPE
  2
DIVIDEX2
 70
    0
  3
Divide (2x) ________  .  .  ________  .  .  _
 72
   65
 73
    6
 40
63.5
 49
25.4
 49
-12.7
 49
0
 49
-12.7
 49
0
 49
-12.7
  0
LTYPE
  2
BORDER
 70
    0
  3
Border __ __ . __ __ . __ __ . __ __ . __ __ .
 72
   65
 73
    6
 40
44.45
 49
12.7
 49
-6.35
 49
12.7
 49
-6.35
 49
0
 49
-6.35
  0
LTYPE
  2
BORDERTINY
 70
    0
  3
Border (.15x) __.__.__.__.__.__.__.__.__.__.__.
 72
   65
 73
    6
 40
6.6675
 49
1.905
 49
-0.9525
 49
1.905
 49
-0.9525
 49
0
 49
-0.9525
  0
LTYPE
  2
BORDER2
 70
    0
  3
Border (.5x) __.__.__.__.__.__.__.__.__.__.__.
 72
   65
 73
    6
 40
22.225
 49
6.35
 49
-3.175
 49
6.35
 49
-3.175
 49
0
 49
-3.175
  0
LTYPE
  2
BORDERX2
 70
    0
  3
Border (2x) ____  ____  .  ____  ____  .  ___
 72
   65
 73
    6
 40
88.89999999999999
 49
25.4
 49
-12.7
 49
25.4
 49
-12.7
 49
0
 49
-12.7
  0
LTYPE
  2
CENTER
 70
    0
  3
Center ____ _ ____ _ ____ _ ____ _ ____ _ ____
 72
   65
 73
    4
 40
50.8
 49
31.75
 49
-6.35
 49
6.35
 49
-6.35
  0
LTYPE
  2
CENTERTINY
 70
    0
  3
Center (.15x) ___ _ ___ _ ___ _ ___ _ ___ _ ___
 72
   65
 73
    4
 40
7.62
 49
4.7625
 49
-0.9525
 49
0.9525
 49
-0.9525
  0
LTYPE
  2
CENTER2
 70
    0
  3
Center (.5x) ___ _ ___ _ ___ _ ___ _ ___ _ ___
 72
   65
 73
    4
 40
28.575
 49
19.05
 49
-3.175
 49
3.175
 49
-3.175
  0
LTYPE
  2
CENTERX2
 70
    0
  3
Center (2x) ________  __  ________  __  _____
 72
   65
 73
    4
 40
101.6
 49
63.5
 49
-12.7
 49
12.7
 49
-12.7
  0
ENDTAB
  0
TABLE
  2
LAYER
 70
    1
  0
LAYER
  2
0
 70
    0
 62
    7
  6
CONTINUOUS
  0
ENDTAB
  0
TABLE
  2
STYLE
 70
    3
  0
STYLE
  2
STANDARD
 70
    0
 40
0
 41
1
 50
0
 71
    0
 42
1
  3
TXT
  4

  0
ENDTAB
  0
TABLE
  2
VIEW
 70
    0
  0
ENDTAB
  0
TABLE
  2
UCS
 70
    0
  0
ENDTAB
  0
TABLE
  2
APPID
 70
    1
  0
APPID
  2
ACAD
 70
    0
  0
APPID
  2
LIBRECAD
 70
    0
  0
ENDTAB
  0
TABLE
  2
DIMSTYLE
 70
    1
  0
DIMSTYLE
  2
STANDARD
 70
    0
  3

  4

  5

  6

  7

 40
1
 41
2.5
 42
0.625
 43
0.38
 44
1.25
 45
0
 46
0
 47
0
 48
0
 49
1
140
2.5
141
0.09
142
2.5
143
25.4
144
1
145
0
146
1
147
0.625
 71
    0
 72
    0
 73
    0
 74
    1
 75
    0
 76
    0
 77
    0
 78
    1
170
    0
171
    2
172
    0
173
    0
174
    0
175
    0
176
    0
177
    0
178
    0
  0
ENDTAB
  0
ENDSEC
  0
SECTION
  2
BLOCKS
  0
BLOCK
  8
0
  2
$MODEL_SPACE
 70
    0
 10
0
 20
0
 30
0
  3
$MODEL_SPACE
  1

  0
ENDBLK
  8
0
  0
BLOCK
  8
0
  2
$PAPER_SPACE
 70
    0
 10
0
 20
0
 30
0
  3
$PAPER_SPACE
  1

  0
ENDBLK
  8
0
  0
ENDSEC
  0
SECTION
  2
ENTITIES
  0
LINE
  5
31
  8
0
  6
BYLAYER
 62
  256
 10
-4.99999999999996
 20
-1.099999985098839
 11
-30.49999999999999
 21
-1.099999985098838
  0
LINE
  5
32
  8
0
  6
BYLAYER
 62
  256
 10
-30.49999999999999
 20
-1.099999985098838
 11
-30.49999999999999
 21
42.1187981473397
  0
LINE
  5
33
  8
0
  6
BYLAYER
 62
  256
 10
-30.49999999999999
 20
42.1187981473397
 11
-30.00000000000001
 21
42.1187981473397
  0
LINE
  5
34
  8
0
  6
BYLAYER
 62
  256
 10
-30.00000000000001
 20
42.1187981473397
 11
-30.00000000000001
 21
50.49999999999999
  0
LINE
  5
35
  8
0
  6
BYLAYER
 62
  256
 10
-30.00000000000001
 20
50.49999999999999
 11
-29.78691275551988
 21
51.39829995222108
  0
ARC
  5
36
  8
0
  6
BYLAYER
 62
  256
 10
-28.00000000000001
 20
50.49999999999999
 40
2.000000000000011
 50
89.9999999999999
 51
153.3108396302702
  0
LINE
  5
37
  8
0
  6
BYLAYER
 62
  256
 10
-28.00000000000001
 20
52.5
 11
27.99999999999999
 21
52.49999999999999
  0
LINE
  5
38
  8
0
  6
BYLAYER
 62
  256
 10
27.99999999999999
 20
52.49999999999999
 11
28.84416986565957
 21
52.31311258280126
  0
ARC
  5
39
  8
0
  6
BYLAYER
 62
  256
 10
27.99999999999999
 20
50.49999999999999
 40
2.000000000000008
 50
0
 51
65.03371184323106
  0
LINE
  5
3A
  8
0
  6
BYLAYER
 62
  256
 10
29.99999999999999
 20
50.49999999999999
 11
30
 21
44.1187981473397
  0
LINE
  5
3B
  8
0
  6
BYLAYER
 62
  256
 10
30
 20
44.1187981473397
 11
30.49999999999999
 21
44.1187981473397
  0
LINE
  5
3C
  8
0
  6
BYLAYER
 62
  256
 10
30.49999999999999
 20
44.1187981473397
 11
30.49999999999999
 21
-5.88120185266029
  0
LINE
  5
3D
  8
0
  6
BYLAYER
 62
  256
 10
30.49999999999999
 20
-5.88120185266029
 11
30
 21
-5.88120185266029
  0
LINE
  5
3E
  8
0
  6
BYLAYER
 62
  256
 10
30
 20
-5.88120185266029
 11
30
 21
-12.26240370532058
  0
LINE
  5
3F
  8
0
  6
BYLAYER
 62
  256
 10
30
 20
-12.26240370532058
 11
-5
 21
-12.26240370532059
  0
LINE
  5
40
  8
0
  6
BYLAYER
 62
  256
 10
-5
 20
-12.26240370532059
 11
-4.99999999999996
 21
-1.099999985098839
  0
LINE
  5
41
  8
0
  6
BYLAYER
 62
  256
 10
22.70000000000001
 20
1.799999999999989
 11
21.30000000000001
 21
1.799999999999989
  0
LINE
  5
42
  8
0
  6
BYLAYER
 62
  256
 10
21.30000000000001
 20
1.799999999999989
 11
21.30000000000001
 21
1.199999999999979
  0
LINE
  5
43
  8
0
  6
BYLAYER
 62
  256
 10
21.30000000000001
 20
1.199999999999979
 11
22.70000000000001
 21
1.199999999999979
  0
LINE
  5
44
  8
0
  6
BYLAYER
 62
  256
 10
22.70000000000001
 20
1.199999999999979
 11
22.70000000000001
 21
1.799999999999989
  0
ARC
  5
45
  8
0
  6
BYLAYER
 62
  256
 10
-24.59999999999998
 20
1.999999999999989
 40
0.2499999999999992
 50
90
 51
180.0000000000003
  0
LINE
  5
46
  8
0
  6
BYLAYER
 62
  256
 10
-24.59999999999998
 20
2.249999999999988
 11
-23.89999999999998
 21
2.249999999999979
  0
ARC
  5
47
  8
0
  6
BYLAYER
 62
  256
 10
-23.89999999999998
 20
1.99999999999998
 40
0.2499999999999995
 50
3.053332494204976e-013
 51
90
  0
LINE
  5
48
  8
0
  6
BYLAYER
 62
  256
 10
-23.64999999999998
 20
1.999999999999981
 11
-23.64999999999998
 21
1.349999999999976
  0
ARC
  5
49
  8
0
  6
BYLAYER
 62
  256
 10
-23.89999999999998
 20
1.349999999999977
 40
0.2500000000000004
 50
270
 51
359.9999999999999
  0
LINE
  5
4A
  8
0
  6
BYLAYER
 62
  256
 10
-23.89999999999998
 20
1.099999999999976
 11
-24.59999999999999
 21
1.099999999999975
  0
ARC
  5
4B
  8
0
  6
BYLAYER
 62
  256
 10
-24.59999999999998
 20
1.349999999999973
 40
0.2499999999999982
 50
179.9999999999994
 51
269.9999999999992
  0
LINE
  5
4C
  8
0
  6
BYLAYER
 62
  256
 10
-24.84999999999998
 20
1.349999999999976
 11
-24.84999999999998
 21
1.999999999999988
  0
ARC
  5
4D
  8
0
  6
BYLAYER
 62
  256
 10
-22.34999999999998
 20
8.899999999999988
 40
0.2500000000000031
 50
179.9999999999992
 51
270
  0
LINE
  5
4E
  8
0
  6
BYLAYER
 62
  256
 10
-22.59999999999998
 20
8.899999999999991
 11
-22.59999999999998
 21
9.549999999999997
  0
ARC
  5
4F
  8
0
  6
BYLAYER
 62
  256
 10
-22.34999999999999
 20
9.549999999999997
 40
0.2499999999999937
 50
89.99999999999837
 51
180
  0
LINE
  5
50
  8
0
  6
BYLAYER
 62
  256
 10
-22.34999999999998
 20
9.79999999999999
 11
-21.64999999999999
 21
9.79999999999999
  0
ARC
  5
51
  8
0
  6
BYLAYER
 62
  256
 10
-21.64999999999998
 20
9.54999999999999
 40
0.2500000000000012
 50
359.9999999999996
 51
90.00000000000163
  0
LINE
  5
52
  8
0
  6
BYLAYER
 62
  256
 10
-21.39999999999998
 20
9.549999999999988
 11
-21.39999999999998
 21
8.899999999999991
  0
ARC
  5
53
  8
0
  6
BYLAYER
 62
  256
 10
-21.64999999999998
 20
8.899999999999991
 40
0.2499999999999994
 50
270
 51
0
  0
LINE
  5
54
  8
0
  6
BYLAYER
 62
  256
 10
-21.64999999999998
 20
8.649999999999991
 11
-22.34999999999998
 21
8.649999999999984
  0
ARC
  5
55
  8
0
  6
BYLAYER
 62
  256
 10
-20.09999999999998
 20
13.84999999999998
 40
0.2499999999999998
 50
179.9999999999996
 51
270
  0
LINE
  5
56
  8
0
  6
BYLAYER
 62
  256
 10
-20.34999999999998
 20
13.84999999999998
 11
-20.34999999999998
 21
14.49999999999998
  0
ARC
  5
57
  8
0
  6
BYLAYER
 62
  256
 10
-20.09999999999998
 20
14.49999999999998
 40
0.2500000000000036
 50
90.00000000000081
 51
180
  0
LINE
  5
58
  8
0
  6
BYLAYER
 62
  256
 10
-20.09999999999998
 20
14.74999999999999
 11
-19.39999999999998
 21
14.74999999999999
  0
ARC
  5
59
  8
0
  6
BYLAYER
 62
  256
 10
-19.39999999999998
 20
14.49999999999999
 40
0.2499999999999982
 50
359.9999999999996
 51
89.99999999999919
  0
LINE
  5
5A
  8
0
  6
BYLAYER
 62
  256
 10
-19.14999999999998
 20
14.49999999999999
 11
-19.14999999999998
 21
13.84999999999998
  0
ARC
  5
5B
  8
0
  6
BYLAYER
 62
  256
 10
-19.39999999999998
 20
13.84999999999998
 40
0.2499999999999982
 50
270.0000000000008
 51
4.071109992273301e-013
  0
LINE
  5
5C
  8
0
  6
BYLAYER
 62
  256
 10
-19.39999999999998
 20
13.59999999999998
 11
-20.09999999999998
 21
13.59999999999998
  0
ARC
  5
5D
  8
0
  6
BYLAYER
 62
  256
 10
-20.09999999999998
 20
22.05
 40
0.2500000000000001
 50
90
 51
180
  0
LINE
  5
5E
  8
0
  6
BYLAYER
 62
  256
 10
-20.09999999999998
 20
22.3
 11
-19.39999999999999
 21
22.3
  0
ARC
  5
5F
  8
0
  6
BYLAYER
 62
  256
 10
-19.39999999999999
 20
22.05
 40
0.2499999999999996
 50
0
 51
90.00000000000081
  0
LINE
  5
60
  8
0
  6
BYLAYER
 62
  256
 10
-19.14999999999999
 20
22.05
 11
-19.14999999999998
 21
21.39999999999999
  0
ARC
  5
61
  8
0
  6
BYLAYER
 62
  256
 10
-19.39999999999998
 20
21.39999999999999
 40
0.2499999999999989
 50
270
 51
0
  0
LINE
  5
62
  8
0
  6
BYLAYER
 62
  256
 10
-19.39999999999998
 20
21.14999999999999
 11
-20.09999999999998
 21
21.14999999999999
  0
ARC
  5
63
  8
0
  6
BYLAYER
 62
  256
 10
-20.09999999999998
 20
21.39999999999999
 40
0.2500000000000001
 50
180
 51
270
  0
LINE
  5
64
  8
0
  6
BYLAYER
 62
  256
 10
-20.34999999999998
 20
21.39999999999999
 11
-20.34999999999998
 21
22.05
  0
ARC
  5
65
  8
0
  6
BYLAYER
 62
  256
 10
-24.59999999999998
 20
21.39999999999999
 40
0.2500000000000001
 50
180
 51
270
  0
LINE
  5
66
  8
0
  6
BYLAYER
 62
  256
 10
-24.84999999999998
 20
21.39999999999999
 11
-24.84999999999997
 21
22.05
  0
ARC
  5
67
  8
0
  6
BYLAYER
 62
  256
 10
-24.59999999999997
 20
22.04999999999999
 40
0.2500000000000009
 50
90.00000000000163
 51
179.9999999999984
  0
LINE
  5
68
  8
0
  6
BYLAYER
 62
  256
 10
-24.59999999999998
 20
22.29999999999999
 11
-23.89999999999998
 21
22.3
  0
ARC
  5
69
  8
0
  6
BYLAYER
 62
  256
 10
-23.89999999999998
 20
22.05
 40
0.2499999999999996
 50
0
 51
90.00000000000081
  0
LINE
  5
6A
  8
0
  6
BYLAYER
 62
  256
 10
-23.64999999999998
 20
22.05
 11
-23.64999999999998
 21
21.39999999999999
  0
ARC
  5
6B
  8
0
  6
BYLAYER
 62
  256
 10
-23.89999999999998
 20
21.39999999999999
 40
0.2499999999999982
 50
270.0000000000008
 51
0
  0
LINE
  5
6C
  8
0
  6
BYLAYER
 62
  256
 10
-23.89999999999997
 20
21.14999999999999
 11
-24.59999999999998
 21
21.14999999999999
  0
ARC
  5
6D
  8
0
  6
BYLAYER
 62
  256
 10
-24.59999999999999
 20
27
 40
0.2499999999999956
 50
89.99999999999919
 51
180.0000000000008
  0
LINE
  5
6E
  8
0
  6
BYLAYER
 62
  256
 10
-24.59999999999999
 20
27.24999999999999
 11
-23.89999999999998
 21
27.24999999999999
  0
ARC
  5
6F
  8
0
  6
BYLAYER
 62
  256
 10
-23.89999999999998
 20
26.99999999999999
 40
0.2499999999999987
 50
8.142219984546603e-013
 51
90
  0
LINE
  5
70
  8
0
  6
BYLAYER
 62
  256
 10
-23.64999999999998
 20
26.99999999999999
 11
-23.64999999999999
 21
26.34999999999998
  0
ARC
  5
71
  8
0
  6
BYLAYER
 62
  256
 10
-23.89999999999998
 20
26.34999999999998
 40
0.2499999999999956
 50
269.9999999999992
 51
8.142219984546603e-013
  0
LINE
  5
72
  8
0
  6
BYLAYER
 62
  256
 10
-23.89999999999999
 20
26.09999999999998
 11
-24.59999999999999
 21
26.09999999999998
  0
ARC
  5
73
  8
0
  6
BYLAYER
 62
  256
 10
-24.59999999999999
 20
26.34999999999998
 40
0.2499999999999951
 50
179.9999999999992
 51
270.0000000000016
  0
LINE
  5
74
  8
0
  6
BYLAYER
 62
  256
 10
-24.84999999999999
 20
26.34999999999998
 11
-24.84999999999999
 21
26.99999999999999
  0
ARC
  5
75
  8
0
  6
BYLAYER
 62
  256
 10
-22.34999999999999
 20
33.90000000000001
 40
0.2499999999999947
 50
180.0000000000016
 51
270
  0
LINE
  5
76
  8
0
  6
BYLAYER
 62
  256
 10
-22.59999999999999
 20
33.9
 11
-22.59999999999998
 21
34.55
  0
ARC
  5
77
  8
0
  6
BYLAYER
 62
  256
 10
-22.34999999999998
 20
34.55
 40
0.2500000000000009
 50
90.00000000000163
 51
180
  0
LINE
  5
78
  8
0
  6
BYLAYER
 62
  256
 10
-22.34999999999999
 20
34.8
 11
-21.64999999999999
 21
34.8
  0
ARC
  5
79
  8
0
  6
BYLAYER
 62
  256
 10
-21.64999999999999
 20
34.55
 40
0.2500000000000001
 50
0
 51
90
  0
LINE
  5
7A
  8
0
  6
BYLAYER
 62
  256
 10
-21.39999999999999
 20
34.55
 11
-21.39999999999999
 21
33.9
  0
ARC
  5
7B
  8
0
  6
BYLAYER
 62
  256
 10
-21.64999999999998
 20
33.90000000000001
 40
0.2499999999999965
 50
269.9999999999992
 51
359.9999999999984
  0
LINE
  5
7C
  8
0
  6
BYLAYER
 62
  256
 10
-21.64999999999999
 20
33.65000000000001
 11
-22.34999999999999
 21
33.65000000000001
  0
ARC
  5
7D
  8
0
  6
BYLAYER
 62
  256
 10
-20.09999999999999
 20
38.84999999999997
 40
0.2499999999999956
 50
179.9999999999984
 51
270.0000000000008
  0
LINE
  5
7E
  8
0
  6
BYLAYER
 62
  256
 10
-20.34999999999999
 20
38.84999999999998
 11
-20.34999999999999
 21
39.49999999999999
  0
ARC
  5
7F
  8
0
  6
BYLAYER
 62
  256
 10
-20.09999999999999
 20
39.49999999999999
 40
0.2500000000000001
 50
90
 51
180
  0
LINE
  5
80
  8
0
  6
BYLAYER
 62
  256
 10
-20.09999999999999
 20
39.74999999999999
 11
-19.39999999999999
 21
39.74999999999999
  0
ARC
  5
81
  8
0
  6
BYLAYER
 62
  256
 10
-19.4
 20
39.49999999999998
 40
0.250000000000004
 50
1.628443996909321e-012
 51
89.99999999999919
  0
LINE
  5
82
  8
0
  6
BYLAYER
 62
  256
 10
-19.14999999999999
 20
39.49999999999999
 11
-19.14999999999999
 21
38.84999999999998
  0
ARC
  5
83
  8
0
  6
BYLAYER
 62
  256
 10
-19.39999999999999
 20
38.84999999999998
 40
0.2499999999999989
 50
270
 51
0
  0
LINE
  5
84
  8
0
  6
BYLAYER
 62
  256
 10
-19.39999999999999
 20
38.59999999999998
 11
-20.09999999999999
 21
38.59999999999998
  0
ARC
  5
85
  8
0
  6
BYLAYER
 62
  256
 10
-20.09999999999999
 20
47.05
 40
0.2500000000000053
 50
90.00000000000081
 51
180
  0
LINE
  5
86
  8
0
  6
BYLAYER
 62
  256
 10
-20.09999999999999
 20
47.3
 11
-19.39999999999999
 21
47.3
  0
ARC
  5
87
  8
0
  6
BYLAYER
 62
  256
 10
-19.39999999999999
 20
47.05
 40
0.2499999999999991
 50
359.9999999999984
 51
90
  0
LINE
  5
88
  8
0
  6
BYLAYER
 62
  256
 10
-19.14999999999999
 20
47.05
 11
-19.14999999999999
 21
46.4
  0
ARC
  5
89
  8
0
  6
BYLAYER
 62
  256
 10
-19.40000000000001
 20
46.40000000000001
 40
0.2500000000000142
 50
270.0000000000032
 51
359.9999999999984
  0
LINE
  5
8A
  8
0
  6
BYLAYER
 62
  256
 10
-19.39999999999999
 20
46.14999999999999
 11
-20.09999999999999
 21
46.15000000000001
  0
ARC
  5
8B
  8
0
  6
BYLAYER
 62
  256
 10
-20.1
 20
46.40000000000001
 40
0.2499999999999942
 50
180.0000000000016
 51
270.0000000000016
  0
LINE
  5
8C
  8
0
  6
BYLAYER
 62
  256
 10
-20.34999999999999
 20
46.4
 11
-20.35
 21
47.05
  0
ARC
  5
8D
  8
0
  6
BYLAYER
 62
  256
 10
-24.59999999999999
 20
46.40000000000001
 40
0.2499999999999942
 50
180.0000000000016
 51
270.0000000000016
  0
LINE
  5
8E
  8
0
  6
BYLAYER
 62
  256
 10
-24.84999999999999
 20
46.4
 11
-24.84999999999999
 21
47.05
  0
ARC
  5
8F
  8
0
  6
BYLAYER
 62
  256
 10
-24.59999999999999
 20
47.05
 40
0.2500000000000013
 50
90
 51
180
  0
LINE
  5
90
  8
0
  6
BYLAYER
 62
  256
 10
-24.59999999999999
 20
47.3
 11
-23.89999999999998
 21
47.3
  0
ARC
  5
91
  8
0
  6
BYLAYER
 62
  256
 10
-23.89999999999999
 20
47.05
 40
0.2500000000000058
 50
0
 51
89.99999999999837
  0
LINE
  5
92
  8
0
  6
BYLAYER
 62
  256
 10
-23.64999999999998
 20
47.05
 11
-23.64999999999998
 21
46.4
  0
ARC
  5
93
  8
0
  6
BYLAYER
 62
  256
 10
-23.9
 20
46.40000000000001
 40
0.2500000000000142
 50
270.0000000000032
 51
359.9999999999984
  0
LINE
  5
94
  8
0
  6
BYLAYER
 62
  256
 10
-23.89999999999998
 20
46.14999999999999
 11
-24.59999999999999
 21
46.15000000000001
  0
ARC
  5
95
  8
0
  6
BYLAYER
 62
  256
 10
-13.59999999999998
 20
1.99999999999999
 40
0.2499999999999988
 50
90.00000000000041
 51
180.0000000000004
  0
LINE
  5
96
  8
0
  6
BYLAYER
 62
  256
 10
-13.59999999999999
 20
2.249999999999988
 11
-12.89999999999999
 21
2.249999999999983
  0
ARC
  5
97
  8
0
  6
BYLAYER
 62
  256
 10
-12.89999999999998
 20
1.999999999999984
 40
0.2499999999999992
 50
359.9999999999994
 51
90.00000000000081
  0
LINE
  5
98
  8
0
  6
BYLAYER
 62
  256
 10
-12.64999999999998
 20
1.999999999999981
 11
-12.64999999999998
 21
1.349999999999976
  0
ARC
  5
99
  8
0
  6
BYLAYER
 62
  256
 10
-12.89999999999998
 20
1.349999999999977
 40
0.2500000000000007
 50
270
 51
359.9999999999998
  0
LINE
  5
9A
  8
0
  6
BYLAYER
 62
  256
 10
-12.89999999999998
 20
1.099999999999976
 11
-13.59999999999999
 21
1.099999999999977
  0
ARC
  5
9B
  8
0
  6
BYLAYER
 62
  256
 10
-13.59999999999998
 20
1.349999999999975
 40
0.2499999999999987
 50
179.9999999999998
 51
269.9999999999996
  0
LINE
  5
9C
  8
0
  6
BYLAYER
 62
  256
 10
-13.84999999999998
 20
1.349999999999976
 11
-13.84999999999998
 21
1.999999999999988
  0
ARC
  5
9D
  8
0
  6
BYLAYER
 62
  256
 10
-11.34999999999999
 20
8.89999999999999
 40
0.2499999999999986
 50
179.9999999999996
 51
269.9999999999996
  0
LINE
  5
9E
  8
0
  6
BYLAYER
 62
  256
 10
-11.59999999999999
 20
8.899999999999991
 11
-11.59999999999998
 21
9.549999999999997
  0
ARC
  5
9F
  8
0
  6
BYLAYER
 62
  256
 10
-11.34999999999999
 20
9.549999999999997
 40
0.2499999999999929
 50
90
 51
180
  0
LINE
  5
A0
  8
0
  6
BYLAYER
 62
  256
 10
-11.34999999999999
 20
9.79999999999999
 11
-10.64999999999999
 21
9.799999999999988
  0
ARC
  5
A1
  8
0
  6
BYLAYER
 62
  256
 10
-10.64999999999999
 20
9.54999999999999
 40
0.2499999999999986
 50
359.9999999999996
 51
89.99999999999959
  0
LINE
  5
A2
  8
0
  6
BYLAYER
 62
  256
 10
-10.39999999999999
 20
9.549999999999988
 11
-10.39999999999999
 21
8.899999999999991
  0
ARC
  5
A3
  8
0
  6
BYLAYER
 62
  256
 10
-10.64999999999999
 20
8.899999999999991
 40
0.2499999999999991
 50
270.0000000000004
 51
0
  0
LINE
  5
A4
  8
0
  6
BYLAYER
 62
  256
 10
-10.64999999999999
 20
8.649999999999991
 11
-11.34999999999999
 21
8.649999999999991
  0
ARC
  5
A5
  8
0
  6
BYLAYER
 62
  256
 10
-9.099999999999984
 20
13.84999999999998
 40
0.2500000000000001
 50
180
 51
270
  0
LINE
  5
A6
  8
0
  6
BYLAYER
 62
  256
 10
-9.349999999999984
 20
13.84999999999998
 11
-9.349999999999984
 21
14.49999999999998
  0
ARC
  5
A7
  8
0
  6
BYLAYER
 62
  256
 10
-9.099999999999985
 20
14.49999999999999
 40
0.249999999999999
 50
89.99999999999959
 51
180.0000000000012
  0
LINE
  5
A8
  8
0
  6
BYLAYER
 62
  256
 10
-9.099999999999984
 20
14.74999999999999
 11
-8.399999999999984
 21
14.74999999999999
  0
ARC
  5
A9
  8
0
  6
BYLAYER
 62
  256
 10
-8.399999999999986
 20
14.49999999999998
 40
0.250000000000002
 50
4.071109992273301e-013
 51
89.99999999999959
  0
LINE
  5
AA
  8
0
  6
BYLAYER
 62
  256
 10
-8.149999999999984
 20
14.49999999999999
 11
-8.149999999999984
 21
13.84999999999998
  0
ARC
  5
AB
  8
0
  6
BYLAYER
 62
  256
 10
-8.399999999999984
 20
13.84999999999998
 40
0.2499999999999994
 50
270
 51
0
  0
LINE
  5
AC
  8
0
  6
BYLAYER
 62
  256
 10
-8.399999999999984
 20
13.59999999999998
 11
-9.099999999999984
 21
13.59999999999998
  0
ARC
  5
AD
  8
0
  6
BYLAYER
 62
  256
 10
-9.099999999999987
 20
22.05
 40
0.2500000000000001
 50
90
 51
180
  0
LINE
  5
AE
  8
0
  6
BYLAYER
 62
  256
 10
-9.099999999999987
 20
22.3
 11
-8.39999999999999
 21
22.3
  0
ARC
  5
AF
  8
0
  6
BYLAYER
 62
  256
 10
-8.399999999999988
 20
22.05
 40
0.2500000000000009
 50
0
 51
90.00000000000041
  0
LINE
  5
B0
  8
0
  6
BYLAYER
 62
  256
 10
-8.149999999999988
 20
22.05
 11
-8.149999999999988
 21
21.39999999999999
  0
ARC
  5
B1
  8
0
  6
BYLAYER
 62
  256
 10
-8.399999999999986
 20
21.39999999999999
 40
0.2499999999999989
 50
269.9999999999996
 51
0
  0
LINE
  5
B2
  8
0
  6
BYLAYER
 62
  256
 10
-8.399999999999988
 20
21.14999999999999
 11
-9.099999999999987
 21
21.14999999999999
  0
ARC
  5
B3
  8
0
  6
BYLAYER
 62
  256
 10
-9.099999999999991
 20
21.39999999999999
 40
0.2499999999999971
 50
180.0000000000008
 51
270.0000000000008
  0
LINE
  5
B4
  8
0
  6
BYLAYER
 62
  256
 10
-9.349999999999987
 20
21.39999999999999
 11
-9.349999999999987
 21
22.05
  0
ARC
  5
B5
  8
0
  6
BYLAYER
 62
  256
 10
-13.59999999999998
 20
21.39999999999999
 40
0.2499999999999971
 50
180.0000000000008
 51
270.0000000000008
  0
LINE
  5
B6
  8
0
  6
BYLAYER
 62
  256
 10
-13.84999999999998
 20
21.39999999999999
 11
-13.84999999999997
 21
22.05
  0
ARC
  5
B7
  8
0
  6
BYLAYER
 62
  256
 10
-13.59999999999997
 20
22.04999999999999
 40
0.2500000000000002
 50
90.00000000000163
 51
179.9999999999984
  0
LINE
  5
B8
  8
0
  6
BYLAYER
 62
  256
 10
-13.59999999999998
 20
22.29999999999999
 11
-12.89999999999998
 21
22.3
  0
ARC
  5
B9
  8
0
  6
BYLAYER
 62
  256
 10
-12.89999999999998
 20
22.05
 40
0.2499999999999991
 50
0
 51
89.99999999999959
  0
LINE
  5
BA
  8
0
  6
BYLAYER
 62
  256
 10
-12.64999999999998
 20
22.05
 11
-12.64999999999998
 21
21.39999999999999
  0
ARC
  5
BB
  8
0
  6
BYLAYER
 62
  256
 10
-12.89999999999998
 20
21.39999999999999
 40
0.2499999999999989
 50
269.9999999999996
 51
0
  0
LINE
  5
BC
  8
0
  6
BYLAYER
 62
  256
 10
-12.89999999999998
 20
21.14999999999999
 11
-13.59999999999998
 21
21.14999999999999
  0
ARC
  5
BD
  8
0
  6
BYLAYER
 62
  256
 10
-13.6
 20
26.99999999999999
 40
0.2499999999999998
 50
89.99999999999919
 51
180
  0
LINE
  5
BE
  8
0
  6
BYLAYER
 62
  256
 10
-13.59999999999999
 20
27.24999999999999
 11
-12.89999999999999
 21
27.24999999999999
  0
ARC
  5
BF
  8
0
  6
BYLAYER
 62
  256
 10
-12.89999999999999
 20
26.99999999999999
 40
0.2499999999999982
 50
8.142219984546603e-013
 51
90.00000000000041
  0
LINE
  5
C0
  8
0
  6
BYLAYER
 62
  256
 10
-12.64999999999999
 20
26.99999999999999
 11
-12.64999999999999
 21
26.34999999999998
  0
ARC
  5
C1
  8
0
  6
BYLAYER
 62
  256
 10
-12.89999999999999
 20
26.34999999999998
 40
0.2499999999999998
 50
269.9999999999996
 51
0
  0
LINE
  5
C2
  8
0
  6
BYLAYER
 62
  256
 10
-12.89999999999999
 20
26.09999999999998
 11
-13.59999999999999
 21
26.09999999999999
  0
ARC
  5
C3
  8
0
  6
BYLAYER
 62
  256
 10
-13.6
 20
26.34999999999998
 40
0.2499999999999942
 50
180
 51
270.0000000000012
  0
LINE
  5
C4
  8
0
  6
BYLAYER
 62
  256
 10
-13.84999999999999
 20
26.34999999999998
 11
-13.84999999999999
 21
26.99999999999999
  0
ARC
  5
C5
  8
0
  6
BYLAYER
 62
  256
 10
-11.35
 20
33.90000000000001
 40
0.2499999999999956
 50
180.0000000000016
 51
270.0000000000008
  0
LINE
  5
C6
  8
0
  6
BYLAYER
 62
  256
 10
-11.59999999999999
 20
33.9
 11
-11.59999999999999
 21
34.55
  0
ARC
  5
C7
  8
0
  6
BYLAYER
 62
  256
 10
-11.34999999999999
 20
34.55
 40
0.2500000000000011
 50
90.00000000000203
 51
180
  0
LINE
  5
C8
  8
0
  6
BYLAYER
 62
  256
 10
-11.34999999999999
 20
34.8
 11
-10.64999999999999
 21
34.8
  0
ARC
  5
C9
  8
0
  6
BYLAYER
 62
  256
 10
-10.65
 20
34.55
 40
0.2500000000000058
 50
0
 51
89.99999999999878
  0
LINE
  5
CA
  8
0
  6
BYLAYER
 62
  256
 10
-10.39999999999999
 20
34.55
 11
-10.39999999999999
 21
33.9
  0
ARC
  5
CB
  8
0
  6
BYLAYER
 62
  256
 10
-10.64999999999999
 20
33.90000000000001
 40
0.2499999999999965
 50
269.9999999999992
 51
359.9999999999984
  0
LINE
  5
CC
  8
0
  6
BYLAYER
 62
  256
 10
-10.64999999999999
 20
33.65000000000001
 11
-11.34999999999999
 21
33.65000000000001
  0
ARC
  5
CD
  8
0
  6
BYLAYER
 62
  256
 10
-9.099999999999991
 20
38.84999999999998
 40
0.2499999999999994
 50
180
 51
270
  0
LINE
  5
CE
  8
0
  6
BYLAYER
 62
  256
 10
-9.349999999999991
 20
38.84999999999998
 11
-9.349999999999991
 21
39.49999999999999
  0
ARC
  5
CF
  8
0
  6
BYLAYER
 62
  256
 10
-9.099999999999991
 20
39.49999999999999
 40
0.2500000000000001
 50
90
 51
180
  0
LINE
  5
D0
  8
0
  6
BYLAYER
 62
  256
 10
-9.099999999999991
 20
39.74999999999999
 11
-8.399999999999995
 21
39.74999999999999
  0
ARC
  5
D1
  8
0
  6
BYLAYER
 62
  256
 10
-8.399999999999993
 20
39.49999999999999
 40
0.2500000000000012
 50
0
 51
90.00000000000041
  0
LINE
  5
D2
  8
0
  6
BYLAYER
 62
  256
 10
-8.149999999999991
 20
39.49999999999999
 11
-8.149999999999991
 21
38.84999999999998
  0
ARC
  5
D3
  8
0
  6
BYLAYER
 62
  256
 10
-8.39999999999999
 20
38.84999999999998
 40
0.2499999999999989
 50
269.9999999999996
 51
0
  0
LINE
  5
D4
  8
0
  6
BYLAYER
 62
  256
 10
-8.399999999999991
 20
38.59999999999998
 11
-9.099999999999991
 21
38.59999999999998
  0
ARC
  5
D5
  8
0
  6
BYLAYER
 62
  256
 10
-9.099999999999994
 20
47.05
 40
0.2500000000000057
 50
90
 51
180
  0
LINE
  5
D6
  8
0
  6
BYLAYER
 62
  256
 10
-9.099999999999994
 20
47.3
 11
-8.399999999999995
 21
47.3
  0
ARC
  5
D7
  8
0
  6
BYLAYER
 62
  256
 10
-8.399999999999995
 20
47.05
 40
0.2499999999999991
 50
359.9999999999984
 51
90
  0
LINE
  5
D8
  8
0
  6
BYLAYER
 62
  256
 10
-8.149999999999997
 20
47.05
 11
-8.149999999999991
 21
46.4
  0
ARC
  5
D9
  8
0
  6
BYLAYER
 62
  256
 10
-8.400000000000006
 20
46.40000000000001
 40
0.2500000000000142
 50
270.0000000000024
 51
359.9999999999984
  0
LINE
  5
DA
  8
0
  6
BYLAYER
 62
  256
 10
-8.399999999999995
 20
46.14999999999999
 11
-9.099999999999998
 21
46.15000000000001
  0
ARC
  5
DB
  8
0
  6
BYLAYER
 62
  256
 10
-9.099999999999991
 20
46.40000000000001
 40
0.2500000000000041
 50
180.0000000000033
 51
269.9999999999984
  0
LINE
  5
DC
  8
0
  6
BYLAYER
 62
  256
 10
-9.349999999999994
 20
46.4
 11
-9.35
 21
47.05
  0
ARC
  5
DD
  8
0
  6
BYLAYER
 62
  256
 10
-13.59999999999998
 20
46.40000000000001
 40
0.2500000000000051
 50
180.0000000000033
 51
269.9999999999992
  0
LINE
  5
DE
  8
0
  6
BYLAYER
 62
  256
 10
-13.84999999999999
 20
46.4
 11
-13.84999999999998
 21
47.05000000000001
  0
ARC
  5
DF
  8
0
  6
BYLAYER
 62
  256
 10
-13.59999999999999
 20
47.05000000000001
 40
0.2499999999999935
 50
89.99999999999919
 51
180
  0
LINE
  5
E0
  8
0
  6
BYLAYER
 62
  256
 10
-13.59999999999999
 20
47.3
 11
-12.89999999999999
 21
47.3
  0
ARC
  5
E1
  8
0
  6
BYLAYER
 62
  256
 10
-12.89999999999999
 20
47.05
 40
0.2499999999999991
 50
359.9999999999984
 51
90
  0
LINE
  5
E2
  8
0
  6
BYLAYER
 62
  256
 10
-12.64999999999999
 20
47.05
 11
-12.64999999999998
 21
46.4
  0
ARC
  5
E3
  8
0
  6
BYLAYER
 62
  256
 10
-12.9
 20
46.40000000000001
 40
0.2500000000000142
 50
270.0000000000024
 51
359.9999999999984
  0
LINE
  5
E4
  8
0
  6
BYLAYER
 62
  256
 10
-12.89999999999998
 20
46.14999999999999
 11
-13.59999999999999
 21
46.15000000000001
  0
ARC
  5
E5
  8
0
  6
BYLAYER
 62
  256
 10
-2.599999999999979
 20
-10.50000000000001
 40
0.2499999999999994
 50
89.99999999999969
 51
180.0000000000008
  0
LINE
  5
E6
  8
0
  6
BYLAYER
 62
  256
 10
-2.599999999999977
 20
-10.25000000000001
 11
-1.899999999999977
 21
-10.25000000000002
  0
ARC
  5
E7
  8
0
  6
BYLAYER
 62
  256
 10
-1.899999999999977
 20
-10.50000000000002
 40
0.2499999999999991
 50
4.071109992273301e-013
 51
90
  0
LINE
  5
E8
  8
0
  6
BYLAYER
 62
  256
 10
-1.649999999999978
 20
-10.50000000000002
 11
-1.649999999999977
 21
-11.15000000000002
  0
ARC
  5
E9
  8
0
  6
BYLAYER
 62
  256
 10
-1.899999999999977
 20
-11.15000000000002
 40
0.2499999999999996
 50
269.9999999999996
 51
0
  0
LINE
  5
EA
  8
0
  6
BYLAYER
 62
  256
 10
-1.899999999999978
 20
-11.40000000000002
 11
-2.599999999999976
 21
-11.40000000000002
  0
ARC
  5
EB
  8
0
  6
BYLAYER
 62
  256
 10
-2.599999999999976
 20
-11.15000000000002
 40
0.2500000000000016
 50
179.9999999999996
 51
270.0000000000001
  0
LINE
  5
EC
  8
0
  6
BYLAYER
 62
  256
 10
-2.849999999999977
 20
-11.15000000000002
 11
-2.849999999999978
 21
-10.50000000000001
  0
ARC
  5
ED
  8
0
  6
BYLAYER
 62
  256
 10
-0.3499999999999786
 20
-3.600000000000005
 40
0.2500000000000023
 50
180.0000000000001
 51
270
  0
LINE
  5
EE
  8
0
  6
BYLAYER
 62
  256
 10
-0.5999999999999808
 20
-3.600000000000006
 11
-0.5999999999999719
 21
-2.950000000000002
  0
ARC
  5
EF
  8
0
  6
BYLAYER
 62
  256
 10
-0.3499999999999788
 20
-2.950000000000001
 40
0.2499999999999931
 50
89.99999999999997
 51
180.0000000000001
  0
LINE
  5
F0
  8
0
  6
BYLAYER
 62
  256
 10
-0.3499999999999787
 20
-2.700000000000008
 11
0.3500000000000191
 21
-2.700000000000008
  0
ARC
  5
F1
  8
0
  6
BYLAYER
 62
  256
 10
0.35000000000002
 20
-2.950000000000009
 40
0.2500000000000005
 50
1.017777498068325e-013
 51
90.0000000000002
  0
LINE
  5
F2
  8
0
  6
BYLAYER
 62
  256
 10
0.6000000000000205
 20
-2.950000000000008
 11
0.6000000000000208
 21
-3.600000000000007
  0
ARC
  5
F3
  8
0
  6
BYLAYER
 62
  256
 10
0.3500000000000207
 20
-3.600000000000007
 40
0.2500000000000001
 50
269.9999999999999
 51
0
  0
LINE
  5
F4
  8
0
  6
BYLAYER
 62
  256
 10
0.3500000000000202
 20
-3.850000000000007
 11
-0.3499999999999787
 21
-3.850000000000008
  0
ARC
  5
F5
  8
0
  6
BYLAYER
 62
  256
 10
1.900000000000019
 20
1.349999999999976
 40
0.2499999999999999
 50
179.9999999999999
 51
270.0000000000001
  0
LINE
  5
F6
  8
0
  6
BYLAYER
 62
  256
 10
1.650000000000019
 20
1.349999999999976
 11
1.650000000000019
 21
1.999999999999981
  0
ARC
  5
F7
  8
0
  6
BYLAYER
 62
  256
 10
1.900000000000019
 20
1.999999999999982
 40
0.2500000000000001
 50
89.99999999999994
 51
180.0000000000001
  0
LINE
  5
F8
  8
0
  6
BYLAYER
 62
  256
 10
1.90000000000002
 20
2.249999999999982
 11
2.60000000000002
 21
2.249999999999981
  0
ARC
  5
F9
  8
0
  6
BYLAYER
 62
  256
 10
2.60000000000002
 20
1.999999999999982
 40
0.2499999999999997
 50
359.9999999999998
 51
90
  0
LINE
  5
FA
  8
0
  6
BYLAYER
 62
  256
 10
2.85000000000002
 20
1.999999999999981
 11
2.85000000000002
 21
1.349999999999976
  0
ARC
  5
FB
  8
0
  6
BYLAYER
 62
  256
 10
2.60000000000002
 20
1.349999999999976
 40
0.2499999999999996
 50
269.9999999999999
 51
1.017777498068325e-013
  0
LINE
  5
FC
  8
0
  6
BYLAYER
 62
  256
 10
2.60000000000002
 20
1.099999999999976
 11
1.90000000000002
 21
1.099999999999976
  0
ARC
  5
FD
  8
0
  6
BYLAYER
 62
  256
 10
1.900000000000017
 20
9.549999999999986
 40
0.2500000000000013
 50
90.00000000000026
 51
179.9999999999996
  0
LINE
  5
FE
  8
0
  6
BYLAYER
 62
  256
 10
1.900000000000016
 20
9.799999999999988
 11
2.600000000000016
 21
9.799999999999988
  0
ARC
  5
FF
  8
0
  6
BYLAYER
 62
  256
 10
2.600000000000014
 20
9.549999999999986
 40
0.2500000000000014
 50
4.071109992273301e-013
 51
89.99999999999969
  0
LINE
  5
100
  8
0
  6
BYLAYER
 62
  256
 10
2.850000000000016
 20
9.549999999999988
 11
2.850000000000015
 21
8.899999999999986
  0
ARC
  5
101
  8
0
  6
BYLAYER
 62
  256
 10
2.600000000000013
 20
8.899999999999986
 40
0.2500000000000021
 50
270.0000000000005
 51
0
  0
LINE
  5
102
  8
0
  6
BYLAYER
 62
  256
 10
2.600000000000016
 20
8.649999999999984
 11
1.900000000000017
 21
8.649999999999984
  0
ARC
  5
103
  8
0
  6
BYLAYER
 62
  256
 10
1.900000000000017
 20
8.899999999999986
 40
0.2500000000000012
 50
180.0000000000004
 51
269.9999999999999
  0
LINE
  5
104
  8
0
  6
BYLAYER
 62
  256
 10
1.650000000000016
 20
8.899999999999984
 11
1.650000000000016
 21
9.549999999999988
  0
ARC
  5
105
  8
0
  6
BYLAYER
 62
  256
 10
-2.599999999999977
 20
8.899999999999984
 40
0.2500000000000009
 50
180
 51
269.9999999999998
  0
LINE
  5
106
  8
0
  6
BYLAYER
 62
  256
 10
-2.849999999999977
 20
8.899999999999984
 11
-2.849999999999969
 21
9.549999999999997
  0
ARC
  5
107
  8
0
  6
BYLAYER
 62
  256
 10
-2.599999999999978
 20
9.549999999999999
 40
0.24999999999999
 50
89.9999999999998
 51
180.0000000000004
  0
LINE
  5
108
  8
0
  6
BYLAYER
 62
  256
 10
-2.599999999999977
 20
9.799999999999988
 11
-1.899999999999977
 21
9.79999999999999
  0
ARC
  5
109
  8
0
  6
BYLAYER
 62
  256
 10
-1.899999999999979
 20
9.549999999999988
 40
0.2500000000000024
 50
0
 51
89.99999999999964
  0
LINE
  5
10A
  8
0
  6
BYLAYER
 62
  256
 10
-1.649999999999976
 20
9.549999999999988
 11
-1.649999999999975
 21
8.899999999999984
  0
ARC
  5
10B
  8
0
  6
BYLAYER
 62
  256
 10
-1.899999999999976
 20
8.899999999999986
 40
0.2500000000000013
 50
270.0000000000002
 51
359.9999999999996
  0
LINE
  5
10C
  8
0
  6
BYLAYER
 62
  256
 10
-1.899999999999975
 20
8.649999999999984
 11
-2.599999999999977
 21
8.649999999999984
  0
ARC
  5
10D
  8
0
  6
BYLAYER
 62
  256
 10
-2.599999999999983
 20
14.49999999999999
 40
0.2499999999999996
 50
90.0000000000002
 51
180
  0
LINE
  5
10E
  8
0
  6
BYLAYER
 62
  256
 10
-2.599999999999984
 20
14.74999999999999
 11
-1.899999999999986
 21
14.74999999999999
  0
ARC
  5
10F
  8
0
  6
BYLAYER
 62
  256
 10
-1.899999999999987
 20
14.49999999999999
 40
0.2500000000000017
 50
0
 51
89.9999999999999
  0
LINE
  5
110
  8
0
  6
BYLAYER
 62
  256
 10
-1.649999999999985
 20
14.49999999999999
 11
-1.649999999999985
 21
13.84999999999998
  0
ARC
  5
111
  8
0
  6
BYLAYER
 62
  256
 10
-1.899999999999985
 20
13.84999999999998
 40
0.2499999999999996
 50
270
 51
0
  0
LINE
  5
112
  8
0
  6
BYLAYER
 62
  256
 10
-1.899999999999985
 20
13.59999999999998
 11
-2.599999999999985
 21
13.59999999999998
  0
ARC
  5
113
  8
0
  6
BYLAYER
 62
  256
 10
-2.599999999999981
 20
13.84999999999998
 40
0.2500000000000037
 50
180.0000000000008
 51
269.9999999999992
  0
LINE
  5
114
  8
0
  6
BYLAYER
 62
  256
 10
-2.849999999999985
 20
13.84999999999998
 11
-2.849999999999983
 21
14.49999999999999
  0
ARC
  5
115
  8
0
  6
BYLAYER
 62
  256
 10
-0.3499999999999866
 20
21.4
 40
0.2499999999999994
 50
180
 51
270.0000000000002
  0
LINE
  5
116
  8
0
  6
BYLAYER
 62
  256
 10
-0.599999999999986
 20
21.4
 11
-0.5999999999999809
 21
22.05
  0
ARC
  5
117
  8
0
  6
BYLAYER
 62
  256
 10
-0.3499999999999809
 20
22.05
 40
0.25
 50
90.00000000000109
 51
179.9999999999992
  0
LINE
  5
118
  8
0
  6
BYLAYER
 62
  256
 10
-0.3499999999999857
 20
22.3
 11
0.3500000000000147
 21
22.3
  0
ARC
  5
119
  8
0
  6
BYLAYER
 62
  256
 10
0.3500000000000132
 20
22.05
 40
0.2500000000000005
 50
0
 51
89.99999999999966
  0
LINE
  5
11A
  8
0
  6
BYLAYER
 62
  256
 10
0.6000000000000137
 20
22.05
 11
0.6000000000000143
 21
21.4
  0
ARC
  5
11B
  8
0
  6
BYLAYER
 62
  256
 10
0.3500000000000148
 20
21.4
 40
0.2499999999999995
 50
269.9999999999997
 51
0
  0
LINE
  5
11C
  8
0
  6
BYLAYER
 62
  256
 10
0.3500000000000134
 20
21.15
 11
-0.3499999999999857
 21
21.15
  0
ARC
  5
11D
  8
0
  6
BYLAYER
 62
  256
 10
1.900000000000015
 20
26.34999999999998
 40
0.2499999999999992
 50
180
 51
270.0000000000002
  0
LINE
  5
11E
  8
0
  6
BYLAYER
 62
  256
 10
1.650000000000016
 20
26.34999999999998
 11
1.650000000000018
 21
26.99999999999999
  0
ARC
  5
11F
  8
0
  6
BYLAYER
 62
  256
 10
1.900000000000016
 20
26.99999999999999
 40
0.2499999999999978
 50
89.9999999999999
 51
179.9999999999992
  0
LINE
  5
120
  8
0
  6
BYLAYER
 62
  256
 10
1.900000000000016
 20
27.24999999999998
 11
2.600000000000016
 21
27.24999999999999
  0
ARC
  5
121
  8
0
  6
BYLAYER
 62
  256
 10
2.600000000000017
 20
26.99999999999999
 40
0.2499999999999988
 50
8.142219984546603e-013
 51
90.0000000000003
  0
LINE
  5
122
  8
0
  6
BYLAYER
 62
  256
 10
2.850000000000016
 20
26.99999999999999
 11
2.850000000000017
 21
26.34999999999998
  0
ARC
  5
123
  8
0
  6
BYLAYER
 62
  256
 10
2.600000000000018
 20
26.34999999999998
 40
0.2499999999999996
 50
269.9999999999995
 51
0
  0
LINE
  5
124
  8
0
  6
BYLAYER
 62
  256
 10
2.600000000000016
 20
26.09999999999998
 11
1.900000000000016
 21
26.09999999999998
  0
ARC
  5
125
  8
0
  6
BYLAYER
 62
  256
 10
1.900000000000011
 20
34.55
 40
0.2499999999999996
 50
89.99999999999969
 51
180
  0
LINE
  5
126
  8
0
  6
BYLAYER
 62
  256
 10
1.900000000000013
 20
34.8
 11
2.600000000000011
 21
34.8
  0
ARC
  5
127
  8
0
  6
BYLAYER
 62
  256
 10
2.600000000000013
 20
34.55
 40
0.2499999999999996
 50
0
 51
90.00000000000041
  0
LINE
  5
128
  8
0
  6
BYLAYER
 62
  256
 10
2.850000000000013
 20
34.55
 11
2.850000000000014
 21
33.89999999999999
  0
ARC
  5
129
  8
0
  6
BYLAYER
 62
  256
 10
2.600000000000014
 20
33.89999999999999
 40
0.2499999999999998
 50
269.9999999999995
 51
0
  0
LINE
  5
12A
  8
0
  6
BYLAYER
 62
  256
 10
2.600000000000012
 20
33.64999999999999
 11
1.900000000000013
 21
33.64999999999999
  0
ARC
  5
12B
  8
0
  6
BYLAYER
 62
  256
 10
1.900000000000012
 20
33.89999999999999
 40
0.2499999999999994
 50
180
 51
270.0000000000002
  0
LINE
  5
12C
  8
0
  6
BYLAYER
 62
  256
 10
1.650000000000013
 20
33.89999999999999
 11
1.650000000000012
 21
34.55
  0
ARC
  5
12D
  8
0
  6
BYLAYER
 62
  256
 10
-2.599999999999981
 20
33.89999999999999
 40
0.2499999999999996
 50
180
 51
270.0000000000001
  0
LINE
  5
12E
  8
0
  6
BYLAYER
 62
  256
 10
-2.849999999999981
 20
33.89999999999999
 11
-2.849999999999977
 21
34.55
  0
ARC
  5
12F
  8
0
  6
BYLAYER
 62
  256
 10
-2.599999999999975
 20
34.55
 40
0.2500000000000019
 50
90.00000000000142
 51
180
  0
LINE
  5
130
  8
0
  6
BYLAYER
 62
  256
 10
-2.599999999999981
 20
34.8
 11
-1.899999999999982
 21
34.8
  0
ARC
  5
131
  8
0
  6
BYLAYER
 62
  256
 10
-1.899999999999981
 20
34.55
 40
0.2499999999999994
 50
0
 51
90.00000000000016
  0
LINE
  5
132
  8
0
  6
BYLAYER
 62
  256
 10
-1.649999999999982
 20
34.55
 11
-1.649999999999977
 21
33.89999999999999
  0
ARC
  5
133
  8
0
  6
BYLAYER
 62
  256
 10
-1.899999999999978
 20
33.89999999999999
 40
0.2500000000000009
 50
269.9999999999998
 51
0
  0
LINE
  5
134
  8
0
  6
BYLAYER
 62
  256
 10
-1.899999999999978
 20
33.64999999999999
 11
-2.599999999999981
 21
33.64999999999999
  0
ARC
  5
135
  8
0
  6
BYLAYER
 62
  256
 10
-2.59999999999999
 20
39.49999999999999
 40
0.2499999999999993
 50
89.99999999999959
 51
180
  0
LINE
  5
136
  8
0
  6
BYLAYER
 62
  256
 10
-2.599999999999988
 20
39.74999999999999
 11
-1.899999999999991
 21
39.74999999999999
  0
ARC
  5
137
  8
0
  6
BYLAYER
 62
  256
 10
-1.899999999999989
 20
39.49999999999999
 40
0.2500000000000003
 50
0
 51
90.00000000000045
  0
LINE
  5
138
  8
0
  6
BYLAYER
 62
  256
 10
-1.649999999999988
 20
39.49999999999999
 11
-1.649999999999988
 21
38.84999999999998
  0
ARC
  5
139
  8
0
  6
BYLAYER
 62
  256
 10
-1.899999999999988
 20
38.84999999999998
 40
0.2499999999999995
 50
269.9999999999998
 51
0
  0
LINE
  5
13A
  8
0
  6
BYLAYER
 62
  256
 10
-1.899999999999989
 20
38.59999999999998
 11
-2.599999999999989
 21
38.59999999999998
  0
ARC
  5
13B
  8
0
  6
BYLAYER
 62
  256
 10
-2.599999999999989
 20
38.84999999999998
 40
0.2499999999999996
 50
180
 51
269.9999999999999
  0
LINE
  5
13C
  8
0
  6
BYLAYER
 62
  256
 10
-2.849999999999988
 20
38.84999999999998
 11
-2.849999999999989
 21
39.49999999999999
  0
ARC
  5
13D
  8
0
  6
BYLAYER
 62
  256
 10
-0.3499999999999769
 20
46.4
 40
0.2500000000000126
 50
180
 51
269.9999999999972
  0
LINE
  5
13E
  8
0
  6
BYLAYER
 62
  256
 10
-0.5999999999999894
 20
46.4
 11
-0.5999999999999874
 21
47.05000000000001
  0
ARC
  5
13F
  8
0
  6
BYLAYER
 62
  256
 10
-0.3499999999999937
 20
47.05000000000001
 40
0.2499999999999938
 50
89.99999999999895
 51
180
  0
LINE
  5
140
  8
0
  6
BYLAYER
 62
  256
 10
-0.3499999999999891
 20
47.3
 11
0.3500000000000103
 21
47.30000000000001
  0
ARC
  5
141
  8
0
  6
BYLAYER
 62
  256
 10
0.3500000000000074
 20
47.05000000000001
 40
0.2500000000000029
 50
359.9999999999968
 51
89.99999999999933
  0
LINE
  5
142
  8
0
  6
BYLAYER
 62
  256
 10
0.6000000000000103
 20
47.05
 11
0.6000000000000084
 21
46.4
  0
ARC
  5
143
  8
0
  6
BYLAYER
 62
  256
 10
0.3500000000000146
 20
46.40000000000001
 40
0.2499999999999938
 50
269.9999999999989
 51
359.9999999999984
  0
LINE
  5
144
  8
0
  6
BYLAYER
 62
  256
 10
0.3500000000000099
 20
46.15000000000001
 11
-0.3499999999999892
 21
46.14999999999999
  0
ARC
  5
145
  8
0
  6
BYLAYER
 62
  256
 10
12.90000000000002
 20
-11.15000000000003
 40
0.2499999999999973
 50
179.9999999999988
 51
270.0000000000012
  0
LINE
  5
146
  8
0
  6
BYLAYER
 62
  256
 10
12.65000000000002
 20
-11.15000000000002
 11
12.65000000000003
 21
-10.50000000000002
  0
ARC
  5
147
  8
0
  6
BYLAYER
 62
  256
 10
12.90000000000003
 20
-10.50000000000002
 40
0.2499999999999991
 50
90
 51
179.9999999999996
  0
LINE
  5
148
  8
0
  6
BYLAYER
 62
  256
 10
12.90000000000003
 20
-10.25000000000002
 11
13.60000000000002
 21
-10.25000000000002
  0
ARC
  5
149
  8
0
  6
BYLAYER
 62
  256
 10
13.60000000000002
 20
-10.50000000000002
 40
0.2499999999999983
 50
4.071109992273301e-013
 51
89.99999999999959
  0
LINE
  5
14A
  8
0
  6
BYLAYER
 62
  256
 10
13.85000000000002
 20
-10.50000000000002
 11
13.85000000000002
 21
-11.15000000000002
  0
ARC
  5
14B
  8
0
  6
BYLAYER
 62
  256
 10
13.60000000000002
 20
-11.15000000000002
 40
0.2499999999999994
 50
270.0000000000004
 51
0
  0
LINE
  5
14C
  8
0
  6
BYLAYER
 62
  256
 10
13.60000000000002
 20
-11.40000000000002
 11
12.90000000000003
 21
-11.40000000000002
  0
ARC
  5
14D
  8
0
  6
BYLAYER
 62
  256
 10
12.90000000000002
 20
-2.950000000000009
 40
0.2500000000000006
 50
90
 51
179.9999999999999
  0
LINE
  5
14E
  8
0
  6
BYLAYER
 62
  256
 10
12.90000000000002
 20
-2.700000000000008
 11
13.60000000000002
 21
-2.700000000000008
  0
ARC
  5
14F
  8
0
  6
BYLAYER
 62
  256
 10
13.60000000000002
 20
-2.950000000000007
 40
0.2499999999999986
 50
359.9999999999997
 51
89.99999999999959
  0
LINE
  5
150
  8
0
  6
BYLAYER
 62
  256
 10
13.85000000000002
 20
-2.950000000000008
 11
13.85000000000002
 21
-3.600000000000013
  0
ARC
  5
151
  8
0
  6
BYLAYER
 62
  256
 10
13.60000000000002
 20
-3.600000000000014
 40
0.2499999999999993
 50
270.0000000000004
 51
2.035554996136651e-013
  0
LINE
  5
152
  8
0
  6
BYLAYER
 62
  256
 10
13.60000000000002
 20
-3.850000000000013
 11
12.90000000000002
 21
-3.850000000000014
  0
ARC
  5
153
  8
0
  6
BYLAYER
 62
  256
 10
12.90000000000002
 20
-3.600000000000015
 40
0.2499999999999985
 50
179.9999999999995
 51
270.0000000000004
  0
LINE
  5
154
  8
0
  6
BYLAYER
 62
  256
 10
12.65000000000002
 20
-3.600000000000013
 11
12.65000000000002
 21
-2.950000000000008
  0
ARC
  5
155
  8
0
  6
BYLAYER
 62
  256
 10
8.400000000000027
 20
-3.600000000000012
 40
0.2500000000000013
 50
180.0000000000002
 51
269.9999999999996
  0
LINE
  5
156
  8
0
  6
BYLAYER
 62
  256
 10
8.150000000000025
 20
-3.600000000000013
 11
8.150000000000034
 21
-2.950000000000001
  0
ARC
  5
157
  8
0
  6
BYLAYER
 62
  256
 10
8.400000000000025
 20
-2.95
 40
0.2499999999999902
 50
90
 51
180.0000000000002
  0
LINE
  5
158
  8
0
  6
BYLAYER
 62
  256
 10
8.400000000000025
 20
-2.70000000000001
 11
9.100000000000023
 21
-2.700000000000006
  0
ARC
  5
159
  8
0
  6
BYLAYER
 62
  256
 10
9.100000000000025
 20
-2.950000000000008
 40
0.2500000000000026
 50
0
 51
90.00000000000041
  0
LINE
  5
15A
  8
0
  6
BYLAYER
 62
  256
 10
9.350000000000026
 20
-2.950000000000008
 11
9.350000000000028
 21
-3.600000000000013
  0
ARC
  5
15B
  8
0
  6
BYLAYER
 62
  256
 10
9.100000000000026
 20
-3.600000000000012
 40
0.2500000000000013
 50
270.0000000000004
 51
359.9999999999998
  0
LINE
  5
15C
  8
0
  6
BYLAYER
 62
  256
 10
9.100000000000028
 20
-3.850000000000013
 11
8.400000000000025
 21
-3.850000000000013
  0
ARC
  5
15D
  8
0
  6
BYLAYER
 62
  256
 10
8.400000000000022
 20
1.999999999999988
 40
0.2500000000000001
 50
90.00000000000081
 51
180.0000000000001
  0
LINE
  5
15E
  8
0
  6
BYLAYER
 62
  256
 10
8.400000000000018
 20
2.249999999999988
 11
9.100000000000019
 21
2.249999999999981
  0
ARC
  5
15F
  8
0
  6
BYLAYER
 62
  256
 10
9.100000000000017
 20
1.99999999999998
 40
0.2500000000000019
 50
2.544443745170813e-013
 51
89.99999999999959
  0
LINE
  5
160
  8
0
  6
BYLAYER
 62
  256
 10
9.350000000000019
 20
1.999999999999981
 11
9.350000000000019
 21
1.349999999999976
  0
ARC
  5
161
  8
0
  6
BYLAYER
 62
  256
 10
9.100000000000017
 20
1.349999999999978
 40
0.250000000000002
 50
270
 51
359.9999999999995
  0
LINE
  5
162
  8
0
  6
BYLAYER
 62
  256
 10
9.100000000000017
 20
1.099999999999976
 11
8.400000000000018
 21
1.099999999999975
  0
ARC
  5
163
  8
0
  6
BYLAYER
 62
  256
 10
8.40000000000002
 20
1.349999999999977
 40
0.2500000000000012
 50
180.0000000000001
 51
269.9999999999996
  0
LINE
  5
164
  8
0
  6
BYLAYER
 62
  256
 10
8.150000000000018
 20
1.349999999999976
 11
8.15000000000002
 21
1.999999999999988
  0
ARC
  5
165
  8
0
  6
BYLAYER
 62
  256
 10
10.65000000000002
 20
8.899999999999991
 40
0.2500000000000001
 50
180
 51
270
  0
LINE
  5
166
  8
0
  6
BYLAYER
 62
  256
 10
10.40000000000002
 20
8.899999999999991
 11
10.40000000000002
 21
9.549999999999997
  0
ARC
  5
167
  8
0
  6
BYLAYER
 62
  256
 10
10.65000000000002
 20
9.549999999999997
 40
0.2499999999999935
 50
90
 51
180
  0
LINE
  5
168
  8
0
  6
BYLAYER
 62
  256
 10
10.65000000000002
 20
9.79999999999999
 11
11.35000000000002
 21
9.799999999999988
  0
ARC
  5
169
  8
0
  6
BYLAYER
 62
  256
 10
11.35000000000002
 20
9.549999999999988
 40
0.2499999999999994
 50
0
 51
90
  0
LINE
  5
16A
  8
0
  6
BYLAYER
 62
  256
 10
11.60000000000002
 20
9.549999999999988
 11
11.60000000000002
 21
8.899999999999991
  0
ARC
  5
16B
  8
0
  6
BYLAYER
 62
  256
 10
11.35000000000002
 20
8.899999999999991
 40
0.2500000000000001
 50
270
 51
0
  0
LINE
  5
16C
  8
0
  6
BYLAYER
 62
  256
 10
11.35000000000002
 20
8.649999999999991
 11
10.65000000000002
 21
8.649999999999991
  0
ARC
  5
16D
  8
0
  6
BYLAYER
 62
  256
 10
12.90000000000002
 20
13.84999999999998
 40
0.2499999999999991
 50
180
 51
269.9999999999996
  0
LINE
  5
16E
  8
0
  6
BYLAYER
 62
  256
 10
12.65000000000002
 20
13.84999999999998
 11
12.65000000000002
 21
14.49999999999998
  0
ARC
  5
16F
  8
0
  6
BYLAYER
 62
  256
 10
12.90000000000002
 20
14.49999999999999
 40
0.2499999999999965
 50
90
 51
180.0000000000016
  0
LINE
  5
170
  8
0
  6
BYLAYER
 62
  256
 10
12.90000000000002
 20
14.74999999999999
 11
13.60000000000002
 21
14.74999999999999
  0
ARC
  5
171
  8
0
  6
BYLAYER
 62
  256
 10
13.60000000000002
 20
14.49999999999999
 40
0.2499999999999964
 50
359.9999999999987
 51
90.00000000000081
  0
LINE
  5
172
  8
0
  6
BYLAYER
 62
  256
 10
13.85000000000002
 20
14.49999999999999
 11
13.85000000000002
 21
13.84999999999998
  0
ARC
  5
173
  8
0
  6
BYLAYER
 62
  256
 10
13.60000000000002
 20
13.84999999999998
 40
0.2499999999999991
 50
270
 51
0
  0
LINE
  5
174
  8
0
  6
BYLAYER
 62
  256
 10
13.60000000000002
 20
13.59999999999998
 11
12.90000000000002
 21
13.59999999999998
  0
ARC
  5
175
  8
0
  6
BYLAYER
 62
  256
 10
12.90000000000002
 20
22.05
 40
0.2500000000000001
 50
90
 51
180
  0
LINE
  5
176
  8
0
  6
BYLAYER
 62
  256
 10
12.90000000000002
 20
22.3
 11
13.60000000000001
 21
22.3
  0
ARC
  5
177
  8
0
  6
BYLAYER
 62
  256
 10
13.60000000000001
 20
22.04999999999999
 40
0.2500000000000042
 50
8.142219984546603e-013
 51
89.99999999999959
  0
LINE
  5
178
  8
0
  6
BYLAYER
 62
  256
 10
13.85000000000002
 20
22.05
 11
13.85000000000002
 21
21.39999999999999
  0
ARC
  5
179
  8
0
  6
BYLAYER
 62
  256
 10
13.60000000000002
 20
21.39999999999999
 40
0.2499999999999998
 50
269.9999999999992
 51
0
  0
LINE
  5
17A
  8
0
  6
BYLAYER
 62
  256
 10
13.60000000000001
 20
21.14999999999999
 11
12.90000000000002
 21
21.14999999999998
  0
ARC
  5
17B
  8
0
  6
BYLAYER
 62
  256
 10
12.90000000000002
 20
21.39999999999999
 40
0.2500000000000038
 50
180
 51
269.9999999999992
  0
LINE
  5
17C
  8
0
  6
BYLAYER
 62
  256
 10
12.65000000000002
 20
21.39999999999999
 11
12.65000000000002
 21
22.05
  0
ARC
  5
17D
  8
0
  6
BYLAYER
 62
  256
 10
8.40000000000002
 20
21.39999999999999
 40
0.2499999999999994
 50
180
 51
270
  0
LINE
  5
17E
  8
0
  6
BYLAYER
 62
  256
 10
8.15000000000002
 20
21.39999999999999
 11
8.150000000000027
 21
22.05
  0
ARC
  5
17F
  8
0
  6
BYLAYER
 62
  256
 10
8.400000000000027
 20
22.05
 40
0.2499999999999991
 50
90.00000000000163
 51
179.9999999999992
  0
LINE
  5
180
  8
0
  6
BYLAYER
 62
  256
 10
8.40000000000002
 20
22.3
 11
9.100000000000019
 21
22.3
  0
ARC
  5
181
  8
0
  6
BYLAYER
 62
  256
 10
9.100000000000019
 20
22.05
 40
0.2500000000000006
 50
0
 51
90
  0
LINE
  5
182
  8
0
  6
BYLAYER
 62
  256
 10
9.350000000000019
 20
22.05
 11
9.350000000000025
 21
21.39999999999999
  0
ARC
  5
183
  8
0
  6
BYLAYER
 62
  256
 10
9.100000000000025
 20
21.39999999999999
 40
0.2499999999999998
 50
269.9999999999996
 51
0
  0
LINE
  5
184
  8
0
  6
BYLAYER
 62
  256
 10
9.100000000000023
 20
21.14999999999999
 11
8.40000000000002
 21
21.14999999999999
  0
ARC
  5
185
  8
0
  6
BYLAYER
 62
  256
 10
8.400000000000011
 20
26.99999999999999
 40
0.2499999999999998
 50
89.99999999999959
 51
180
  0
LINE
  5
186
  8
0
  6
BYLAYER
 62
  256
 10
8.400000000000013
 20
27.24999999999999
 11
9.100000000000012
 21
27.24999999999999
  0
ARC
  5
187
  8
0
  6
BYLAYER
 62
  256
 10
9.100000000000014
 20
26.99999999999999
 40
0.2499999999999988
 50
8.142219984546603e-013
 51
90.00000000000041
  0
LINE
  5
188
  8
0
  6
BYLAYER
 62
  256
 10
9.350000000000012
 20
26.99999999999999
 11
9.350000000000014
 21
26.34999999999998
  0
ARC
  5
189
  8
0
  6
BYLAYER
 62
  256
 10
9.100000000000014
 20
26.34999999999998
 40
0.2499999999999998
 50
269.9999999999996
 51
0
  0
LINE
  5
18A
  8
0
  6
BYLAYER
 62
  256
 10
9.100000000000012
 20
26.09999999999998
 11
8.400000000000013
 21
26.09999999999998
  0
ARC
  5
18B
  8
0
  6
BYLAYER
 62
  256
 10
8.400000000000013
 20
26.34999999999998
 40
0.2500000000000001
 50
180
 51
270
  0
LINE
  5
18C
  8
0
  6
BYLAYER
 62
  256
 10
8.150000000000013
 20
26.34999999999998
 11
8.150000000000011
 21
26.99999999999999
  0
ARC
  5
18D
  8
0
  6
BYLAYER
 62
  256
 10
10.65000000000001
 20
33.90000000000001
 40
0.2500000000000006
 50
180.0000000000033
 51
270.0000000000004
  0
LINE
  5
18E
  8
0
  6
BYLAYER
 62
  256
 10
10.40000000000001
 20
33.9
 11
10.40000000000002
 21
34.55
  0
ARC
  5
18F
  8
0
  6
BYLAYER
 62
  256
 10
10.65000000000002
 20
34.55
 40
0.250000000000002
 50
90.00000000000203
 51
180
  0
LINE
  5
190
  8
0
  6
BYLAYER
 62
  256
 10
10.65000000000001
 20
34.8
 11
11.35000000000001
 21
34.8
  0
ARC
  5
191
  8
0
  6
BYLAYER
 62
  256
 10
11.35000000000001
 20
34.55
 40
0.249999999999998
 50
0
 51
90.00000000000041
  0
LINE
  5
192
  8
0
  6
BYLAYER
 62
  256
 10
11.60000000000001
 20
34.55
 11
11.60000000000001
 21
33.9
  0
ARC
  5
193
  8
0
  6
BYLAYER
 62
  256
 10
11.35000000000002
 20
33.90000000000001
 40
0.2499999999999956
 50
269.9999999999992
 51
359.9999999999984
  0
LINE
  5
194
  8
0
  6
BYLAYER
 62
  256
 10
11.35000000000001
 20
33.65000000000001
 11
10.65000000000001
 21
33.65000000000001
  0
ARC
  5
195
  8
0
  6
BYLAYER
 62
  256
 10
12.90000000000001
 20
38.84999999999998
 40
0.2499999999999945
 50
180
 51
270.0000000000012
  0
LINE
  5
196
  8
0
  6
BYLAYER
 62
  256
 10
12.65000000000001
 20
38.84999999999998
 11
12.65000000000001
 21
39.49999999999999
  0
ARC
  5
197
  8
0
  6
BYLAYER
 62
  256
 10
12.90000000000001
 20
39.49999999999999
 40
0.2499999999999991
 50
90
 51
180
  0
LINE
  5
198
  8
0
  6
BYLAYER
 62
  256
 10
12.90000000000001
 20
39.74999999999999
 11
13.60000000000001
 21
39.74999999999999
  0
ARC
  5
199
  8
0
  6
BYLAYER
 62
  256
 10
13.60000000000001
 20
39.49999999999999
 40
0.2500000000000001
 50
0
 51
90
  0
LINE
  5
19A
  8
0
  6
BYLAYER
 62
  256
 10
13.85000000000001
 20
39.49999999999999
 11
13.85000000000001
 21
38.84999999999998
  0
ARC
  5
19B
  8
0
  6
BYLAYER
 62
  256
 10
13.60000000000001
 20
38.84999999999998
 40
0.2499999999999998
 50
269.9999999999996
 51
0
  0
LINE
  5
19C
  8
0
  6
BYLAYER
 62
  256
 10
13.60000000000001
 20
38.59999999999998
 11
12.90000000000001
 21
38.59999999999999
  0
ARC
  5
19D
  8
0
  6
BYLAYER
 62
  256
 10
12.90000000000001
 20
47.05
 40
0.2500000000000056
 50
90.00000000000122
 51
180
  0
LINE
  5
19E
  8
0
  6
BYLAYER
 62
  256
 10
12.90000000000001
 20
47.3
 11
13.60000000000001
 21
47.3
  0
ARC
  5
19F
  8
0
  6
BYLAYER
 62
  256
 10
13.60000000000001
 20
47.05
 40
0.2499999999999989
 50
359.9999999999984
 51
90.00000000000081
  0
LINE
  5
1A0
  8
0
  6
BYLAYER
 62
  256
 10
13.85000000000001
 20
47.05
 11
13.85000000000001
 21
46.4
  0
ARC
  5
1A1
  8
0
  6
BYLAYER
 62
  256
 10
13.6
 20
46.40000000000001
 40
0.2500000000000142
 50
270.0000000000024
 51
359.9999999999984
  0
LINE
  5
1A2
  8
0
  6
BYLAYER
 62
  256
 10
13.60000000000001
 20
46.14999999999999
 11
12.90000000000001
 21
46.15000000000001
  0
ARC
  5
1A3
  8
0
  6
BYLAYER
 62
  256
 10
12.9
 20
46.40000000000001
 40
0.2499999999999942
 50
180.0000000000016
 51
270.0000000000012
  0
LINE
  5
1A4
  8
0
  6
BYLAYER
 62
  256
 10
12.65000000000001
 20
46.4
 11
12.65000000000001
 21
47.05
  0
ARC
  5
1A5
  8
0
  6
BYLAYER
 62
  256
 10
8.40000000000002
 20
46.40000000000001
 40
0.2500000000000048
 50
180.0000000000033
 51
269.9999999999987
  0
LINE
  5
1A6
  8
0
  6
BYLAYER
 62
  256
 10
8.150000000000015
 20
46.4
 11
8.150000000000016
 21
47.05
  0
ARC
  5
1A7
  8
0
  6
BYLAYER
 62
  256
 10
8.400000000000018
 20
47.05
 40
0.2500000000000004
 50
90.00000000000081
 51
180
  0
LINE
  5
1A8
  8
0
  6
BYLAYER
 62
  256
 10
8.400000000000015
 20
47.3
 11
9.100000000000016
 21
47.3
  0
ARC
  5
1A9
  8
0
  6
BYLAYER
 62
  256
 10
9.100000000000017
 20
47.05
 40
0.2499999999999986
 50
359.9999999999984
 51
90.00000000000041
  0
LINE
  5
1AA
  8
0
  6
BYLAYER
 62
  256
 10
9.350000000000016
 20
47.05
 11
9.350000000000021
 21
46.4
  0
ARC
  5
1AB
  8
0
  6
BYLAYER
 62
  256
 10
9.100000000000007
 20
46.40000000000001
 40
0.2500000000000142
 50
270.0000000000024
 51
359.9999999999984
  0
LINE
  5
1AC
  8
0
  6
BYLAYER
 62
  256
 10
9.100000000000017
 20
46.14999999999999
 11
8.400000000000015
 21
46.15000000000001
  0
ARC
  5
1AD
  8
0
  6
BYLAYER
 62
  256
 10
19.40000000000002
 20
-10.5
 40
0.2499999999999958
 50
89.99999999999919
 51
180.0000000000016
  0
LINE
  5
1AE
  8
0
  6
BYLAYER
 62
  256
 10
19.40000000000002
 20
-10.25000000000001
 11
20.10000000000002
 21
-10.25000000000002
  0
ARC
  5
1AF
  8
0
  6
BYLAYER
 62
  256
 10
20.10000000000002
 20
-10.50000000000002
 40
0.2499999999999991
 50
4.071109992273301e-013
 51
90
  0
LINE
  5
1B0
  8
0
  6
BYLAYER
 62
  256
 10
20.35000000000002
 20
-10.50000000000002
 11
20.35000000000002
 21
-11.15000000000002
  0
ARC
  5
1B1
  8
0
  6
BYLAYER
 62
  256
 10
20.10000000000002
 20
-11.15000000000002
 40
0.2500000000000045
 50
270.0000000000008
 51
359.9999999999987
  0
LINE
  5
1B2
  8
0
  6
BYLAYER
 62
  256
 10
20.10000000000002
 20
-11.40000000000002
 11
19.40000000000002
 21
-11.40000000000003
  0
ARC
  5
1B3
  8
0
  6
BYLAYER
 62
  256
 10
19.40000000000002
 20
-11.15000000000003
 40
0.2499999999999985
 50
179.9999999999988
 51
270
  0
LINE
  5
1B4
  8
0
  6
BYLAYER
 62
  256
 10
19.15000000000002
 20
-11.15000000000002
 11
19.15000000000002
 21
-10.50000000000001
  0
ARC
  5
1B5
  8
0
  6
BYLAYER
 62
  256
 10
21.65000000000002
 20
-3.600000000000009
 40
0.2500000000000035
 50
179.9999999999994
 51
270.0000000000008
  0
LINE
  5
1B6
  8
0
  6
BYLAYER
 62
  256
 10
21.40000000000002
 20
-3.600000000000006
 11
21.40000000000003
 21
-2.950000000000001
  0
ARC
  5
1B7
  8
0
  6
BYLAYER
 62
  256
 10
21.65000000000002
 20
-2.95
 40
0.2499999999999919
 50
89.99999999999919
 51
180.0000000000002
  0
LINE
  5
1B8
  8
0
  6
BYLAYER
 62
  256
 10
21.65000000000002
 20
-2.700000000000008
 11
22.35000000000002
 21
-2.700000000000007
  0
ARC
  5
1B9
  8
0
  6
BYLAYER
 62
  256
 10
22.35000000000002
 20
-2.950000000000004
 40
0.2499999999999978
 50
359.9999999999991
 51
90
  0
LINE
  5
1BA
  8
0
  6
BYLAYER
 62
  256
 10
22.60000000000002
 20
-2.950000000000008
 11
22.60000000000002
 21
-3.600000000000007
  0
ARC
  5
1BB
  8
0
  6
BYLAYER
 62
  256
 10
22.35000000000002
 20
-3.600000000000009
 40
0.2499999999999974
 50
270
 51
6.106664988409952e-013
  0
LINE
  5
1BC
  8
0
  6
BYLAYER
 62
  256
 10
22.35000000000002
 20
-3.850000000000007
 11
21.65000000000002
 21
-3.850000000000012
  0
ARC
  5
1BD
  8
0
  6
BYLAYER
 62
  256
 10
23.90000000000002
 20
1.349999999999977
 40
0.2499999999999995
 50
180.0000000000003
 51
270
  0
LINE
  5
1BE
  8
0
  6
BYLAYER
 62
  256
 10
23.65000000000002
 20
1.349999999999976
 11
23.65000000000002
 21
1.999999999999981
  0
ARC
  5
1BF
  8
0
  6
BYLAYER
 62
  256
 10
23.90000000000002
 20
1.999999999999981
 40
0.2500000000000003
 50
90
 51
180.0000000000001
  0
LINE
  5
1C0
  8
0
  6
BYLAYER
 62
  256
 10
23.90000000000002
 20
2.249999999999981
 11
24.60000000000002
 21
2.249999999999979
  0
ARC
  5
1C1
  8
0
  6
BYLAYER
 62
  256
 10
24.60000000000002
 20
1.99999999999998
 40
0.2499999999999995
 50
3.053332494204976e-013
 51
90
  0
LINE
  5
1C2
  8
0
  6
BYLAYER
 62
  256
 10
24.85000000000002
 20
1.999999999999981
 11
24.85000000000002
 21
1.349999999999976
  0
ARC
  5
1C3
  8
0
  6
BYLAYER
 62
  256
 10
24.60000000000002
 20
1.349999999999977
 40
0.2500000000000004
 50
270
 51
359.9999999999999
  0
LINE
  5
1C4
  8
0
  6
BYLAYER
 62
  256
 10
24.60000000000002
 20
1.099999999999976
 11
23.90000000000002
 21
1.099999999999978
  0
ARC
  5
1C5
  8
0
  6
BYLAYER
 62
  256
 10
23.90000000000002
 20
9.549999999999988
 40
0.2500000000000006
 50
90
 51
180
  0
LINE
  5
1C6
  8
0
  6
BYLAYER
 62
  256
 10
23.90000000000002
 20
9.799999999999988
 11
24.60000000000002
 21
9.79999999999999
  0
ARC
  5
1C7
  8
0
  6
BYLAYER
 62
  256
 10
24.60000000000002
 20
9.549999999999992
 40
0.2499999999999998
 50
359.9999999999992
 51
90
  0
LINE
  5
1C8
  8
0
  6
BYLAYER
 62
  256
 10
24.85000000000002
 20
9.549999999999988
 11
24.85000000000002
 21
8.899999999999984
  0
ARC
  5
1C9
  8
0
  6
BYLAYER
 62
  256
 10
24.60000000000002
 20
8.899999999999984
 40
0.2499999999999994
 50
270
 51
0
  0
LINE
  5
1CA
  8
0
  6
BYLAYER
 62
  256
 10
24.60000000000002
 20
8.649999999999984
 11
23.90000000000002
 21
8.649999999999977
  0
ARC
  5
1CB
  8
0
  6
BYLAYER
 62
  256
 10
23.90000000000002
 20
8.899999999999981
 40
0.2500000000000037
 50
179.9999999999992
 51
269.9999999999992
  0
LINE
  5
1CC
  8
0
  6
BYLAYER
 62
  256
 10
23.65000000000002
 20
8.899999999999984
 11
23.65000000000002
 21
9.549999999999988
  0
ARC
  5
1CD
  8
0
  6
BYLAYER
 62
  256
 10
19.40000000000002
 20
8.899999999999983
 40
0.2499999999999976
 50
179.9999999999996
 51
270
  0
LINE
  5
1CE
  8
0
  6
BYLAYER
 62
  256
 10
19.15000000000002
 20
8.899999999999984
 11
19.15000000000003
 21
9.549999999999997
  0
ARC
  5
1CF
  8
0
  6
BYLAYER
 62
  256
 10
19.40000000000002
 20
9.550000000000001
 40
0.249999999999988
 50
90
 51
180.0000000000008
  0
LINE
  5
1D0
  8
0
  6
BYLAYER
 62
  256
 10
19.40000000000002
 20
9.799999999999988
 11
20.10000000000002
 21
9.799999999999995
  0
ARC
  5
1D1
  8
0
  6
BYLAYER
 62
  256
 10
20.10000000000002
 20
9.549999999999992
 40
0.2500000000000037
 50
359.9999999999992
 51
90
  0
LINE
  5
1D2
  8
0
  6
BYLAYER
 62
  256
 10
20.35000000000002
 20
9.549999999999988
 11
20.35000000000002
 21
8.899999999999984
  0
ARC
  5
1D3
  8
0
  6
BYLAYER
 62
  256
 10
20.10000000000002
 20
8.899999999999984
 40
0.2499999999999994
 50
270
 51
0
  0
LINE
  5
1D4
  8
0
  6
BYLAYER
 62
  256
 10
20.10000000000002
 20
8.649999999999984
 11
19.40000000000002
 21
8.649999999999984
  0
ARC
  5
1D5
  8
0
  6
BYLAYER
 62
  256
 10
19.40000000000001
 20
14.49999999999999
 40
0.2500000000000001
 50
90
 51
180
  0
LINE
  5
1D6
  8
0
  6
BYLAYER
 62
  256
 10
19.40000000000001
 20
14.74999999999999
 11
20.10000000000001
 21
14.74999999999999
  0
ARC
  5
1D7
  8
0
  6
BYLAYER
 62
  256
 10
20.10000000000001
 20
14.49999999999999
 40
0.2499999999999982
 50
359.9999999999996
 51
89.99999999999919
  0
LINE
  5
1D8
  8
0
  6
BYLAYER
 62
  256
 10
20.35000000000001
 20
14.49999999999999
 11
20.35000000000001
 21
13.84999999999998
  0
ARC
  5
1D9
  8
0
  6
BYLAYER
 62
  256
 10
20.10000000000001
 20
13.84999999999998
 40
0.2499999999999982
 50
270.0000000000008
 51
4.071109992273301e-013
  0
LINE
  5
1DA
  8
0
  6
BYLAYER
 62
  256
 10
20.10000000000001
 20
13.59999999999998
 11
19.40000000000001
 21
13.59999999999998
  0
ARC
  5
1DB
  8
0
  6
BYLAYER
 62
  256
 10
19.40000000000001
 20
13.84999999999998
 40
0.2500000000000001
 50
180
 51
270
  0
LINE
  5
1DC
  8
0
  6
BYLAYER
 62
  256
 10
19.15000000000001
 20
13.84999999999998
 11
19.15000000000001
 21
14.49999999999999
  0
ARC
  5
1DD
  8
0
  6
BYLAYER
 62
  256
 10
21.65000000000001
 20
21.4
 40
0.2500000000000001
 50
180
 51
270
  0
LINE
  5
1DE
  8
0
  6
BYLAYER
 62
  256
 10
21.40000000000001
 20
21.4
 11
21.40000000000002
 21
22.05
  0
ARC
  5
1DF
  8
0
  6
BYLAYER
 62
  256
 10
21.65000000000002
 20
22.05
 40
0.2499999999999991
 50
90.00000000000163
 51
179.9999999999992
  0
LINE
  5
1E0
  8
0
  6
BYLAYER
 62
  256
 10
21.65000000000001
 20
22.3
 11
22.35000000000001
 21
22.3
  0
ARC
  5
1E1
  8
0
  6
BYLAYER
 62
  256
 10
22.35000000000001
 20
22.05
 40
0.2500000000000001
 50
0
 51
90
  0
LINE
  5
1E2
  8
0
  6
BYLAYER
 62
  256
 10
22.60000000000001
 20
22.05
 11
22.60000000000001
 21
21.4
  0
ARC
  5
1E3
  8
0
  6
BYLAYER
 62
  256
 10
22.35000000000002
 20
21.4
 40
0.2499999999999956
 50
269.9999999999992
 51
8.142219984546603e-013
  0
LINE
  5
1E4
  8
0
  6
BYLAYER
 62
  256
 10
22.35000000000001
 20
21.15
 11
21.65000000000001
 21
21.15
  0
ARC
  5
1E5
  8
0
  6
BYLAYER
 62
  256
 10
23.90000000000002
 20
26.34999999999998
 40
0.2500000000000001
 50
180
 51
270
  0
LINE
  5
1E6
  8
0
  6
BYLAYER
 62
  256
 10
23.65000000000002
 20
26.34999999999998
 11
23.65000000000002
 21
26.99999999999999
  0
ARC
  5
1E7
  8
0
  6
BYLAYER
 62
  256
 10
23.90000000000002
 20
26.99999999999999
 40
0.2499999999999982
 50
90
 51
179.9999999999992
  0
LINE
  5
1E8
  8
0
  6
BYLAYER
 62
  256
 10
23.90000000000002
 20
27.24999999999999
 11
24.60000000000002
 21
27.24999999999999
  0
ARC
  5
1E9
  8
0
  6
BYLAYER
 62
  256
 10
24.60000000000002
 20
26.99999999999999
 40
0.2499999999999982
 50
8.142219984546603e-013
 51
90
  0
LINE
  5
1EA
  8
0
  6
BYLAYER
 62
  256
 10
24.85000000000002
 20
26.99999999999999
 11
24.85000000000002
 21
26.34999999999998
  0
ARC
  5
1EB
  8
0
  6
BYLAYER
 62
  256
 10
24.60000000000002
 20
26.34999999999998
 40
0.2499999999999956
 50
269.9999999999992
 51
8.142219984546603e-013
  0
LINE
  5
1EC
  8
0
  6
BYLAYER
 62
  256
 10
24.60000000000002
 20
26.09999999999998
 11
23.90000000000002
 21
26.09999999999998
  0
ARC
  5
1ED
  8
0
  6
BYLAYER
 62
  256
 10
23.90000000000001
 20
34.55
 40
0.2499999999999938
 50
89.99999999999919
 51
180.0000000000016
  0
LINE
  5
1EE
  8
0
  6
BYLAYER
 62
  256
 10
23.90000000000001
 20
34.8
 11
24.60000000000001
 21
34.8
  0
ARC
  5
1EF
  8
0
  6
BYLAYER
 62
  256
 10
24.60000000000001
 20
34.55
 40
0.2500000000000001
 50
0
 51
90
  0
LINE
  5
1F0
  8
0
  6
BYLAYER
 62
  256
 10
24.85000000000001
 20
34.55
 11
24.85000000000001
 21
33.89999999999999
  0
ARC
  5
1F1
  8
0
  6
BYLAYER
 62
  256
 10
24.60000000000001
 20
33.89999999999999
 40
0.2500000000000001
 50
270
 51
0
  0
LINE
  5
1F2
  8
0
  6
BYLAYER
 62
  256
 10
24.60000000000001
 20
33.64999999999999
 11
23.90000000000001
 21
33.64999999999999
  0
ARC
  5
1F3
  8
0
  6
BYLAYER
 62
  256
 10
23.90000000000001
 20
33.89999999999998
 40
0.2499999999999938
 50
179.9999999999984
 51
270.0000000000008
  0
LINE
  5
1F4
  8
0
  6
BYLAYER
 62
  256
 10
23.65000000000002
 20
33.89999999999999
 11
23.65000000000002
 21
34.55
  0
ARC
  5
1F5
  8
0
  6
BYLAYER
 62
  256
 10
19.40000000000002
 20
33.89999999999999
 40
0.2499999999999971
 50
180
 51
269.9999999999992
  0
LINE
  5
1F6
  8
0
  6
BYLAYER
 62
  256
 10
19.15000000000002
 20
33.89999999999999
 11
19.15000000000002
 21
34.55
  0
ARC
  5
1F7
  8
0
  6
BYLAYER
 62
  256
 10
19.40000000000003
 20
34.55
 40
0.250000000000002
 50
90.00000000000244
 51
180
  0
LINE
  5
1F8
  8
0
  6
BYLAYER
 62
  256
 10
19.40000000000002
 20
34.8
 11
20.10000000000002
 21
34.8
  0
ARC
  5
1F9
  8
0
  6
BYLAYER
 62
  256
 10
20.10000000000002
 20
34.55
 40
0.2499999999999956
 50
359.9999999999984
 51
90.00000000000081
  0
LINE
  5
1FA
  8
0
  6
BYLAYER
 62
  256
 10
20.35000000000002
 20
34.55
 11
20.35000000000002
 21
33.89999999999999
  0
ARC
  5
1FB
  8
0
  6
BYLAYER
 62
  256
 10
20.10000000000002
 20
33.89999999999998
 40
0.2499999999999969
 50
269.9999999999992
 51
1.628443996909321e-012
  0
LINE
  5
1FC
  8
0
  6
BYLAYER
 62
  256
 10
20.10000000000002
 20
33.64999999999998
 11
19.40000000000002
 21
33.64999999999999
  0
ARC
  5
1FD
  8
0
  6
BYLAYER
 62
  256
 10
19.40000000000001
 20
26.99999999999999
 40
0.2499999999999989
 50
90
 51
180
  0
LINE
  5
1FE
  8
0
  6
BYLAYER
 62
  256
 10
19.40000000000001
 20
27.24999999999999
 11
20.10000000000001
 21
27.24999999999999
  0
ARC
  5
1FF
  8
0
  6
BYLAYER
 62
  256
 10
20.10000000000001
 20
26.99999999999999
 40
0.2499999999999965
 50
8.142219984546603e-013
 51
89.99999999999919
  0
LINE
  5
200
  8
0
  6
BYLAYER
 62
  256
 10
20.35
 20
26.99999999999999
 11
20.35000000000001
 21
26.34999999999998
  0
ARC
  5
201
  8
0
  6
BYLAYER
 62
  256
 10
20.10000000000001
 20
26.34999999999998
 40
0.2499999999999982
 50
270.0000000000008
 51
0
  0
LINE
  5
202
  8
0
  6
BYLAYER
 62
  256
 10
20.10000000000001
 20
26.09999999999998
 11
19.40000000000001
 21
26.09999999999999
  0
ARC
  5
203
  8
0
  6
BYLAYER
 62
  256
 10
19.40000000000001
 20
26.34999999999998
 40
0.2499999999999953
 50
180.0000000000008
 51
270.0000000000008
  0
LINE
  5
204
  8
0
  6
BYLAYER
 62
  256
 10
19.15000000000001
 20
26.34999999999998
 11
19.15000000000001
 21
26.99999999999999
  0
ARC
  5
205
  8
0
  6
BYLAYER
 62
  256
 10
10.65000000000002
 20
21.4
 40
0.2500000000000056
 50
180
 51
269.9999999999992
  0
LINE
  5
206
  8
0
  6
BYLAYER
 62
  256
 10
10.40000000000001
 20
21.4
 11
10.40000000000002
 21
22.05
  0
ARC
  5
207
  8
0
  6
BYLAYER
 62
  256
 10
10.65000000000002
 20
22.05
 40
0.2499999999999993
 50
90.00000000000203
 51
179.9999999999992
  0
LINE
  5
208
  8
0
  6
BYLAYER
 62
  256
 10
10.65000000000001
 20
22.3
 11
11.35000000000001
 21
22.3
  0
ARC
  5
209
  8
0
  6
BYLAYER
 62
  256
 10
11.35000000000001
 20
22.04999999999999
 40
0.2500000000000042
 50
8.142219984546603e-013
 51
89.99999999999959
  0
LINE
  5
20A
  8
0
  6
BYLAYER
 62
  256
 10
11.60000000000002
 20
22.05
 11
11.60000000000002
 21
21.4
  0
ARC
  5
20B
  8
0
  6
BYLAYER
 62
  256
 10
11.35000000000002
 20
21.4
 40
0.2499999999999998
 50
269.9999999999992
 51
0
  0
LINE
  5
20C
  8
0
  6
BYLAYER
 62
  256
 10
11.35000000000001
 20
21.15
 11
10.65000000000001
 21
21.14999999999999
  0
ARC
  5
20D
  8
0
  6
BYLAYER
 62
  256
 10
23.90000000000002
 20
-2.950000000000009
 40
0.2500000000000006
 50
90
 51
179.9999999999999
  0
LINE
  5
20E
  8
0
  6
BYLAYER
 62
  256
 10
23.90000000000002
 20
-2.700000000000008
 11
24.60000000000002
 21
-2.700000000000009
  0
ARC
  5
20F
  8
0
  6
BYLAYER
 62
  256
 10
24.60000000000002
 20
-2.950000000000009
 40
0.2499999999999996
 50
1.017777498068325e-013
 51
90
  0
LINE
  5
210
  8
0
  6
BYLAYER
 62
  256
 10
24.85000000000002
 20
-2.950000000000008
 11
24.85000000000002
 21
-3.600000000000013
  0
ARC
  5
211
  8
0
  6
BYLAYER
 62
  256
 10
24.60000000000002
 20
-3.600000000000013
 40
0.2500000000000008
 50
270
 51
359.9999999999999
  0
LINE
  5
212
  8
0
  6
BYLAYER
 62
  256
 10
24.60000000000002
 20
-3.850000000000013
 11
23.90000000000002
 21
-3.850000000000012
  0
ARC
  5
213
  8
0
  6
BYLAYER
 62
  256
 10
23.90000000000002
 20
-3.600000000000013
 40
0.2499999999999996
 50
180.0000000000001
 51
270
  0
LINE
  5
214
  8
0
  6
BYLAYER
 62
  256
 10
23.65000000000002
 20
-3.600000000000013
 11
23.65000000000002
 21
-2.950000000000008
  0
ARC
  5
215
  8
0
  6
BYLAYER
 62
  256
 10
19.40000000000002
 20
-3.600000000000015
 40
0.2499999999999985
 50
179.9999999999995
 51
270
  0
LINE
  5
216
  8
0
  6
BYLAYER
 62
  256
 10
19.15000000000002
 20
-3.600000000000013
 11
19.15000000000003
 21
-2.950000000000001
  0
ARC
  5
217
  8
0
  6
BYLAYER
 62
  256
 10
19.40000000000002
 20
-2.950000000000003
 40
0.2499999999999934
 50
90
 51
179.9999999999996
  0
LINE
  5
218
  8
0
  6
BYLAYER
 62
  256
 10
19.40000000000002
 20
-2.70000000000001
 11
20.10000000000002
 21
-2.700000000000007
  0
ARC
  5
219
  8
0
  6
BYLAYER
 62
  256
 10
20.10000000000003
 20
-2.950000000000007
 40
0.2500000000000009
 50
359.9999999999998
 51
90.00000000000163
  0
LINE
  5
21A
  8
0
  6
BYLAYER
 62
  256
 10
20.35000000000003
 20
-2.950000000000008
 11
20.35000000000003
 21
-3.600000000000013
  0
ARC
  5
21B
  8
0
  6
BYLAYER
 62
  256
 10
20.10000000000003
 20
-3.600000000000013
 40
0.2500000000000008
 50
270
 51
359.9999999999999
  0
LINE
  5
21C
  8
0
  6
BYLAYER
 62
  256
 10
20.10000000000003
 20
-3.850000000000013
 11
19.40000000000002
 21
-3.850000000000014
  0
ARC
  5
21D
  8
0
  6
BYLAYER
 62
  256
 10
10.65000000000001
 20
46.40000000000001
 40
0.2500000000000051
 50
180.0000000000033
 51
269.9999999999996
  0
LINE
  5
21E
  8
0
  6
BYLAYER
 62
  256
 10
10.40000000000001
 20
46.4
 11
10.40000000000001
 21
47.05000000000001
  0
ARC
  5
21F
  8
0
  6
BYLAYER
 62
  256
 10
10.65000000000001
 20
47.05000000000001
 40
0.2499999999999945
 50
89.99999999999919
 51
180
  0
LINE
  5
220
  8
0
  6
BYLAYER
 62
  256
 10
10.65000000000001
 20
47.3
 11
11.35000000000001
 21
47.3
  0
ARC
  5
221
  8
0
  6
BYLAYER
 62
  256
 10
11.35000000000001
 20
47.05
 40
0.2499999999999989
 50
359.9999999999984
 51
90.00000000000041
  0
LINE
  5
222
  8
0
  6
BYLAYER
 62
  256
 10
11.60000000000001
 20
47.05
 11
11.6
 21
46.4
  0
ARC
  5
223
  8
0
  6
BYLAYER
 62
  256
 10
11.35000000000001
 20
46.40000000000001
 40
0.2499999999999935
 50
269.9999999999992
 51
359.9999999999984
  0
LINE
  5
224
  8
0
  6
BYLAYER
 62
  256
 10
11.35000000000001
 20
46.15000000000001
 11
10.65000000000001
 21
46.15000000000001
  0
ARC
  5
225
  8
0
  6
BYLAYER
 62
  256
 10
8.400000000000016
 20
14.49999999999999
 40
0.2499999999999994
 50
90
 51
180
  0
LINE
  5
226
  8
0
  6
BYLAYER
 62
  256
 10
8.400000000000016
 20
14.74999999999999
 11
9.100000000000016
 21
14.74999999999999
  0
ARC
  5
227
  8
0
  6
BYLAYER
 62
  256
 10
9.100000000000016
 20
14.49999999999999
 40
0.2500000000000003
 50
0
 51
90
  0
LINE
  5
228
  8
0
  6
BYLAYER
 62
  256
 10
9.350000000000016
 20
14.49999999999999
 11
9.350000000000016
 21
13.84999999999998
  0
ARC
  5
229
  8
0
  6
BYLAYER
 62
  256
 10
9.100000000000016
 20
13.84999999999998
 40
0.2499999999999994
 50
270
 51
0
  0
LINE
  5
22A
  8
0
  6
BYLAYER
 62
  256
 10
9.100000000000016
 20
13.59999999999998
 11
8.400000000000016
 21
13.59999999999998
  0
ARC
  5
22B
  8
0
  6
BYLAYER
 62
  256
 10
8.400000000000016
 20
13.84999999999998
 40
0.2499999999999994
 50
180
 51
270
  0
LINE
  5
22C
  8
0
  6
BYLAYER
 62
  256
 10
8.150000000000016
 20
13.84999999999998
 11
8.150000000000016
 21
14.49999999999999
  0
ARC
  5
22D
  8
0
  6
BYLAYER
 62
  256
 10
8.400000000000016
 20
33.89999999999999
 40
0.2499999999999994
 50
180
 51
270
  0
LINE
  5
22E
  8
0
  6
BYLAYER
 62
  256
 10
8.150000000000016
 20
33.89999999999999
 11
8.150000000000022
 21
34.55
  0
ARC
  5
22F
  8
0
  6
BYLAYER
 62
  256
 10
8.400000000000025
 20
34.55
 40
0.2500000000000018
 50
90.00000000000203
 51
180
  0
LINE
  5
230
  8
0
  6
BYLAYER
 62
  256
 10
8.400000000000016
 20
34.8
 11
9.100000000000016
 21
34.8
  0
ARC
  5
231
  8
0
  6
BYLAYER
 62
  256
 10
9.100000000000017
 20
34.55
 40
0.2499999999999989
 50
0
 51
90.00000000000041
  0
LINE
  5
232
  8
0
  6
BYLAYER
 62
  256
 10
9.350000000000016
 20
34.55
 11
9.350000000000023
 21
33.89999999999999
  0
ARC
  5
233
  8
0
  6
BYLAYER
 62
  256
 10
9.100000000000023
 20
33.89999999999999
 40
0.2500000000000009
 50
269.9999999999992
 51
0
  0
LINE
  5
234
  8
0
  6
BYLAYER
 62
  256
 10
9.100000000000019
 20
33.64999999999999
 11
8.400000000000016
 21
33.64999999999999
  0
ARC
  5
235
  8
0
  6
BYLAYER
 62
  256
 10
21.65000000000001
 20
8.899999999999988
 40
0.2500000000000009
 50
179.9999999999992
 51
270.0000000000016
  0
LINE
  5
236
  8
0
  6
BYLAYER
 62
  256
 10
21.40000000000001
 20
8.899999999999991
 11
21.40000000000002
 21
9.549999999999997
  0
ARC
  5
237
  8
0
  6
BYLAYER
 62
  256
 10
21.65000000000002
 20
9.549999999999992
 40
0.2499999999999986
 50
90
 51
179.9999999999988
  0
LINE
  5
238
  8
0
  6
BYLAYER
 62
  256
 10
21.65000000000002
 20
9.79999999999999
 11
22.35000000000002
 21
9.799999999999988
  0
ARC
  5
239
  8
0
  6
BYLAYER
 62
  256
 10
22.35000000000002
 20
9.549999999999988
 40
0.2500000000000001
 50
0
 51
90
  0
LINE
  5
23A
  8
0
  6
BYLAYER
 62
  256
 10
22.60000000000002
 20
9.549999999999988
 11
22.60000000000002
 21
8.899999999999991
  0
ARC
  5
23B
  8
0
  6
BYLAYER
 62
  256
 10
22.35000000000002
 20
8.899999999999991
 40
0.2500000000000006
 50
270
 51
0
  0
LINE
  5
23C
  8
0
  6
BYLAYER
 62
  256
 10
22.35000000000002
 20
8.649999999999991
 11
21.65000000000002
 21
8.649999999999988
  0
ARC
  5
23D
  8
0
  6
BYLAYER
 62
  256
 10
10.65000000000002
 20
-3.600000000000007
 40
0.2499999999999994
 50
179.9999999999997
 51
270.0000000000004
  0
LINE
  5
23E
  8
0
  6
BYLAYER
 62
  256
 10
10.40000000000002
 20
-3.600000000000006
 11
10.40000000000003
 21
-2.950000000000001
  0
ARC
  5
23F
  8
0
  6
BYLAYER
 62
  256
 10
10.65000000000002
 20
-2.950000000000002
 40
0.2499999999999932
 50
90
 51
179.9999999999999
  0
LINE
  5
240
  8
0
  6
BYLAYER
 62
  256
 10
10.65000000000002
 20
-2.700000000000008
 11
11.35000000000002
 21
-2.700000000000008
  0
ARC
  5
241
  8
0
  6
BYLAYER
 62
  256
 10
11.35000000000002
 20
-2.950000000000008
 40
0.2499999999999994
 50
359.9999999999999
 51
90
  0
LINE
  5
242
  8
0
  6
BYLAYER
 62
  256
 10
11.60000000000002
 20
-2.950000000000008
 11
11.60000000000002
 21
-3.600000000000007
  0
ARC
  5
243
  8
0
  6
BYLAYER
 62
  256
 10
11.35000000000002
 20
-3.600000000000003
 40
0.2500000000000037
 50
270.0000000000008
 51
359.9999999999992
  0
LINE
  5
244
  8
0
  6
BYLAYER
 62
  256
 10
11.35000000000002
 20
-3.850000000000007
 11
10.65000000000002
 21
-3.850000000000007
  0
ARC
  5
245
  8
0
  6
BYLAYER
 62
  256
 10
8.400000000000011
 20
39.49999999999999
 40
0.2499999999999998
 50
89.99999999999959
 51
180
  0
LINE
  5
246
  8
0
  6
BYLAYER
 62
  256
 10
8.400000000000013
 20
39.74999999999999
 11
9.10000000000001
 21
39.74999999999999
  0
ARC
  5
247
  8
0
  6
BYLAYER
 62
  256
 10
9.10000000000001
 20
39.49999999999999
 40
0.2500000000000006
 50
0
 51
90
  0
LINE
  5
248
  8
0
  6
BYLAYER
 62
  256
 10
9.35000000000001
 20
39.49999999999999
 11
9.350000000000012
 21
38.84999999999998
  0
ARC
  5
249
  8
0
  6
BYLAYER
 62
  256
 10
9.100000000000014
 20
38.84999999999998
 40
0.2499999999999998
 50
269.9999999999992
 51
0
  0
LINE
  5
24A
  8
0
  6
BYLAYER
 62
  256
 10
9.10000000000001
 20
38.59999999999998
 11
8.400000000000013
 21
38.59999999999998
  0
ARC
  5
24B
  8
0
  6
BYLAYER
 62
  256
 10
8.400000000000013
 20
38.84999999999998
 40
0.2500000000000003
 50
180
 51
270
  0
LINE
  5
24C
  8
0
  6
BYLAYER
 62
  256
 10
8.150000000000013
 20
38.84999999999998
 11
8.150000000000011
 21
39.49999999999999
  0
ARC
  5
24D
  8
0
  6
BYLAYER
 62
  256
 10
23.90000000000001
 20
22.05
 40
0.2499999999999982
 50
90
 51
180
  0
LINE
  5
24E
  8
0
  6
BYLAYER
 62
  256
 10
23.90000000000001
 20
22.3
 11
24.60000000000001
 21
22.3
  0
ARC
  5
24F
  8
0
  6
BYLAYER
 62
  256
 10
24.60000000000001
 20
22.05
 40
0.2500000000000001
 50
0
 51
90
  0
LINE
  5
250
  8
0
  6
BYLAYER
 62
  256
 10
24.85000000000001
 20
22.05
 11
24.85000000000001
 21
21.39999999999999
  0
ARC
  5
251
  8
0
  6
BYLAYER
 62
  256
 10
24.60000000000001
 20
21.39999999999999
 40
0.2500000000000001
 50
270
 51
0
  0
LINE
  5
252
  8
0
  6
BYLAYER
 62
  256
 10
24.60000000000001
 20
21.14999999999999
 11
23.90000000000001
 21
21.14999999999999
  0
ARC
  5
253
  8
0
  6
BYLAYER
 62
  256
 10
23.90000000000001
 20
21.39999999999998
 40
0.2499999999999938
 50
179.9999999999984
 51
270.0000000000008
  0
LINE
  5
254
  8
0
  6
BYLAYER
 62
  256
 10
23.65000000000002
 20
21.39999999999999
 11
23.65000000000002
 21
22.05
  0
ARC
  5
255
  8
0
  6
BYLAYER
 62
  256
 10
21.65000000000001
 20
33.90000000000001
 40
0.2499999999999965
 50
180.0000000000016
 51
270.0000000000008
  0
LINE
  5
256
  8
0
  6
BYLAYER
 62
  256
 10
21.40000000000001
 20
33.9
 11
21.40000000000002
 21
34.55
  0
ARC
  5
257
  8
0
  6
BYLAYER
 62
  256
 10
21.65000000000002
 20
34.55
 40
0.2500000000000009
 50
90.00000000000163
 51
180
  0
LINE
  5
258
  8
0
  6
BYLAYER
 62
  256
 10
21.65000000000001
 20
34.8
 11
22.35000000000001
 21
34.8
  0
ARC
  5
259
  8
0
  6
BYLAYER
 62
  256
 10
22.35000000000002
 20
34.55
 40
0.2499999999999956
 50
359.9999999999984
 51
90.00000000000081
  0
LINE
  5
25A
  8
0
  6
BYLAYER
 62
  256
 10
22.60000000000001
 20
34.55
 11
22.60000000000001
 21
33.9
  0
ARC
  5
25B
  8
0
  6
BYLAYER
 62
  256
 10
22.35000000000002
 20
33.90000000000001
 40
0.2499999999999965
 50
269.9999999999992
 51
359.9999999999984
  0
LINE
  5
25C
  8
0
  6
BYLAYER
 62
  256
 10
22.35000000000001
 20
33.65000000000001
 11
21.65000000000001
 21
33.65000000000001
  0
ARC
  5
25D
  8
0
  6
BYLAYER
 62
  256
 10
12.90000000000002
 20
9.549999999999988
 40
0.2500000000000002
 50
90.00000000000081
 51
180
  0
LINE
  5
25E
  8
0
  6
BYLAYER
 62
  256
 10
12.90000000000002
 20
9.799999999999988
 11
13.60000000000002
 21
9.799999999999988
  0
ARC
  5
25F
  8
0
  6
BYLAYER
 62
  256
 10
13.60000000000002
 20
9.549999999999988
 40
0.2499999999999994
 50
0
 51
90
  0
LINE
  5
260
  8
0
  6
BYLAYER
 62
  256
 10
13.85000000000002
 20
9.549999999999988
 11
13.85000000000002
 21
8.899999999999984
  0
ARC
  5
261
  8
0
  6
BYLAYER
 62
  256
 10
13.60000000000001
 20
8.899999999999986
 40
0.2500000000000012
 50
270.0000000000004
 51
359.9999999999996
  0
LINE
  5
262
  8
0
  6
BYLAYER
 62
  256
 10
13.60000000000002
 20
8.649999999999984
 11
12.90000000000002
 21
8.649999999999981
  0
ARC
  5
263
  8
0
  6
BYLAYER
 62
  256
 10
12.90000000000002
 20
8.899999999999986
 40
0.2500000000000053
 50
180.0000000000004
 51
269.9999999999996
  0
LINE
  5
264
  8
0
  6
BYLAYER
 62
  256
 10
12.65000000000001
 20
8.899999999999984
 11
12.65000000000002
 21
9.549999999999988
  0
ARC
  5
265
  8
0
  6
BYLAYER
 62
  256
 10
12.90000000000001
 20
34.55
 40
0.2499999999999998
 50
89.99999999999919
 51
180
  0
LINE
  5
266
  8
0
  6
BYLAYER
 62
  256
 10
12.90000000000001
 20
34.8
 11
13.60000000000001
 21
34.8
  0
ARC
  5
267
  8
0
  6
BYLAYER
 62
  256
 10
13.60000000000001
 20
34.55
 40
0.2499999999999989
 50
0
 51
90.00000000000041
  0
LINE
  5
268
  8
0
  6
BYLAYER
 62
  256
 10
13.85000000000001
 20
34.55
 11
13.85000000000001
 21
33.89999999999999
  0
ARC
  5
269
  8
0
  6
BYLAYER
 62
  256
 10
13.60000000000001
 20
33.89999999999999
 40
0.2499999999999998
 50
269.9999999999996
 51
0
  0
LINE
  5
26A
  8
0
  6
BYLAYER
 62
  256
 10
13.60000000000001
 20
33.64999999999999
 11
12.90000000000001
 21
33.64999999999999
  0
ARC
  5
26B
  8
0
  6
BYLAYER
 62
  256
 10
12.90000000000001
 20
33.89999999999999
 40
0.249999999999998
 50
180
 51
270
  0
LINE
  5
26C
  8
0
  6
BYLAYER
 62
  256
 10
12.65000000000001
 20
33.89999999999999
 11
12.65000000000001
 21
34.55
  0
ARC
  5
26D
  8
0
  6
BYLAYER
 62
  256
 10
12.90000000000002
 20
1.349999999999973
 40
0.2499999999999985
 50
179.9999999999993
 51
270.0000000000004
  0
LINE
  5
26E
  8
0
  6
BYLAYER
 62
  256
 10
12.65000000000002
 20
1.349999999999976
 11
12.65000000000002
 21
1.999999999999981
  0
ARC
  5
26F
  8
0
  6
BYLAYER
 62
  256
 10
12.90000000000002
 20
1.99999999999998
 40
0.2500000000000011
 50
90.00000000000041
 51
179.9999999999999
  0
LINE
  5
270
  8
0
  6
BYLAYER
 62
  256
 10
12.90000000000002
 20
2.249999999999981
 11
13.60000000000002
 21
2.24999999999998
  0
ARC
  5
271
  8
0
  6
BYLAYER
 62
  256
 10
13.60000000000002
 20
1.999999999999982
 40
0.2499999999999988
 50
359.9999999999998
 51
89.99999999999959
  0
LINE
  5
272
  8
0
  6
BYLAYER
 62
  256
 10
13.85000000000002
 20
1.999999999999981
 11
13.85000000000002
 21
1.349999999999976
  0
ARC
  5
273
  8
0
  6
BYLAYER
 62
  256
 10
13.60000000000002
 20
1.349999999999975
 40
0.249999999999999
 50
270.0000000000004
 51
2.035554996136651e-013
  0
LINE
  5
274
  8
0
  6
BYLAYER
 62
  256
 10
13.60000000000002
 20
1.099999999999976
 11
12.90000000000002
 21
1.099999999999975
  0
ARC
  5
275
  8
0
  6
BYLAYER
 62
  256
 10
19.40000000000002
 20
1.999999999999991
 40
0.2499999999999979
 50
90.00000000000081
 51
180.0000000000006
  0
LINE
  5
276
  8
0
  6
BYLAYER
 62
  256
 10
19.40000000000002
 20
2.249999999999988
 11
20.10000000000002
 21
2.249999999999981
  0
ARC
  5
277
  8
0
  6
BYLAYER
 62
  256
 10
20.10000000000002
 20
1.999999999999982
 40
0.2499999999999995
 50
359.9999999999997
 51
90
  0
LINE
  5
278
  8
0
  6
BYLAYER
 62
  256
 10
20.35000000000002
 20
1.999999999999981
 11
20.35000000000002
 21
1.349999999999976
  0
ARC
  5
279
  8
0
  6
BYLAYER
 62
  256
 10
20.10000000000002
 20
1.349999999999975
 40
0.2499999999999993
 50
270
 51
1.526666247102488e-013
  0
LINE
  5
27A
  8
0
  6
BYLAYER
 62
  256
 10
20.10000000000002
 20
1.099999999999976
 11
19.40000000000002
 21
1.099999999999977
  0
ARC
  5
27B
  8
0
  6
BYLAYER
 62
  256
 10
19.40000000000002
 20
1.349999999999974
 40
0.2499999999999978
 50
179.9999999999996
 51
269.9999999999992
  0
LINE
  5
27C
  8
0
  6
BYLAYER
 62
  256
 10
19.15000000000002
 20
1.349999999999976
 11
19.15000000000002
 21
1.999999999999988
  0
ARC
  5
27D
  8
0
  6
BYLAYER
 62
  256
 10
23.90000000000002
 20
13.84999999999998
 40
0.2500000000000001
 50
180
 51
270
  0
LINE
  5
27E
  8
0
  6
BYLAYER
 62
  256
 10
23.65000000000002
 20
13.84999999999998
 11
23.65000000000002
 21
14.49999999999998
  0
ARC
  5
27F
  8
0
  6
BYLAYER
 62
  256
 10
23.90000000000002
 20
14.49999999999998
 40
0.250000000000004
 50
90.00000000000081
 51
180
  0
LINE
  5
280
  8
0
  6
BYLAYER
 62
  256
 10
23.90000000000002
 20
14.74999999999999
 11
24.60000000000002
 21
14.74999999999999
  0
ARC
  5
281
  8
0
  6
BYLAYER
 62
  256
 10
24.60000000000002
 20
14.49999999999999
 40
0.2499999999999998
 50
359.9999999999996
 51
90
  0
LINE
  5
282
  8
0
  6
BYLAYER
 62
  256
 10
24.85000000000002
 20
14.49999999999999
 11
24.85000000000001
 21
13.84999999999998
  0
ARC
  5
283
  8
0
  6
BYLAYER
 62
  256
 10
24.60000000000002
 20
13.84999999999998
 40
0.2499999999999971
 50
270
 51
8.142219984546603e-013
  0
LINE
  5
284
  8
0
  6
BYLAYER
 62
  256
 10
24.60000000000002
 20
13.59999999999998
 11
23.90000000000002
 21
13.59999999999998
  0
ARC
  5
285
  8
0
  6
BYLAYER
 62
  256
 10
12.90000000000002
 20
26.34999999999998
 40
0.2500000000000038
 50
180.0000000000008
 51
269.9999999999992
  0
LINE
  5
286
  8
0
  6
BYLAYER
 62
  256
 10
12.65000000000002
 20
26.34999999999998
 11
12.65000000000002
 21
26.99999999999999
  0
ARC
  5
287
  8
0
  6
BYLAYER
 62
  256
 10
12.90000000000001
 20
26.99999999999999
 40
0.2499999999999982
 50
89.99999999999959
 51
179.9999999999992
  0
LINE
  5
288
  8
0
  6
BYLAYER
 62
  256
 10
12.90000000000002
 20
27.24999999999999
 11
13.60000000000001
 21
27.24999999999999
  0
ARC
  5
289
  8
0
  6
BYLAYER
 62
  256
 10
13.60000000000001
 20
26.99999999999998
 40
0.2500000000000024
 50
1.628443996909321e-012
 51
90
  0
LINE
  5
28A
  8
0
  6
BYLAYER
 62
  256
 10
13.85000000000002
 20
26.99999999999999
 11
13.85000000000002
 21
26.34999999999998
  0
ARC
  5
28B
  8
0
  6
BYLAYER
 62
  256
 10
13.60000000000002
 20
26.34999999999998
 40
0.2499999999999998
 50
269.9999999999992
 51
0
  0
LINE
  5
28C
  8
0
  6
BYLAYER
 62
  256
 10
13.60000000000001
 20
26.09999999999998
 11
12.90000000000002
 21
26.09999999999998
  0
ARC
  5
28D
  8
0
  6
BYLAYER
 62
  256
 10
19.40000000000002
 20
21.39999999999999
 40
0.2499999999999953
 50
180
 51
270
  0
LINE
  5
28E
  8
0
  6
BYLAYER
 62
  256
 10
19.15000000000002
 20
21.39999999999999
 11
19.15000000000002
 21
22.05
  0
ARC
  5
28F
  8
0
  6
BYLAYER
 62
  256
 10
19.40000000000002
 20
22.04999999999999
 40
0.2500000000000002
 50
90.00000000000163
 51
179.9999999999984
  0
LINE
  5
290
  8
0
  6
BYLAYER
 62
  256
 10
19.40000000000002
 20
22.29999999999999
 11
20.10000000000002
 21
22.3
  0
ARC
  5
291
  8
0
  6
BYLAYER
 62
  256
 10
20.10000000000002
 20
22.05
 40
0.2500000000000001
 50
0
 51
90
  0
LINE
  5
292
  8
0
  6
BYLAYER
 62
  256
 10
20.35000000000002
 20
22.05
 11
20.35000000000002
 21
21.39999999999999
  0
ARC
  5
293
  8
0
  6
BYLAYER
 62
  256
 10
20.10000000000002
 20
21.39999999999999
 40
0.2500000000000001
 50
270
 51
0
  0
LINE
  5
294
  8
0
  6
BYLAYER
 62
  256
 10
20.10000000000002
 20
21.14999999999999
 11
19.40000000000002
 21
21.14999999999999
  0
ARC
  5
295
  8
0
  6
BYLAYER
 62
  256
 10
-0.3499999999999811
 20
8.899999999999995
 40
0.2500000000000031
 50
180.0000000000008
 51
269.9999999999998
  0
LINE
  5
296
  8
0
  6
BYLAYER
 62
  256
 10
-0.5999999999999842
 20
8.899999999999991
 11
-0.5999999999999761
 21
9.549999999999997
  0
ARC
  5
297
  8
0
  6
BYLAYER
 62
  256
 10
-0.3499999999999818
 20
9.549999999999995
 40
0.2499999999999943
 50
90.00000000000007
 51
179.9999999999996
  0
LINE
  5
298
  8
0
  6
BYLAYER
 62
  256
 10
-0.3499999999999821
 20
9.79999999999999
 11
0.3500000000000147
 21
9.799999999999988
  0
ARC
  5
299
  8
0
  6
BYLAYER
 62
  256
 10
0.3500000000000183
 20
9.54999999999999
 40
0.249999999999999
 50
359.9999999999996
 51
90.00000000000082
  0
LINE
  5
29A
  8
0
  6
BYLAYER
 62
  256
 10
0.6000000000000173
 20
9.549999999999988
 11
0.6000000000000177
 21
8.899999999999991
  0
ARC
  5
29B
  8
0
  6
BYLAYER
 62
  256
 10
0.3500000000000165
 20
8.899999999999993
 40
0.2500000000000013
 50
270.0000000000001
 51
359.9999999999996
  0
LINE
  5
29C
  8
0
  6
BYLAYER
 62
  256
 10
0.3500000000000169
 20
8.649999999999991
 11
-0.3499999999999822
 21
8.649999999999991
  0
ARC
  5
29D
  8
0
  6
BYLAYER
 62
  256
 10
-2.599999999999974
 20
-3.600000000000013
 40
0.25
 50
180
 51
270.0000000000001
  0
LINE
  5
29E
  8
0
  6
BYLAYER
 62
  256
 10
-2.849999999999974
 20
-3.600000000000013
 11
-2.849999999999965
 21
-2.950000000000001
  0
ARC
  5
29F
  8
0
  6
BYLAYER
 62
  256
 10
-2.599999999999974
 20
-2.950000000000001
 40
0.249999999999991
 50
89.9999999999999
 51
180.0000000000001
  0
LINE
  5
2A0
  8
0
  6
BYLAYER
 62
  256
 10
-2.599999999999974
 20
-2.70000000000001
 11
-1.899999999999973
 21
-2.700000000000006
  0
ARC
  5
2A1
  8
0
  6
BYLAYER
 62
  256
 10
-1.899999999999975
 20
-2.950000000000008
 40
0.2500000000000021
 50
359.9999999999999
 51
89.99999999999955
  0
LINE
  5
2A2
  8
0
  6
BYLAYER
 62
  256
 10
-1.649999999999973
 20
-2.950000000000008
 11
-1.649999999999971
 21
-3.600000000000013
  0
ARC
  5
2A3
  8
0
  6
BYLAYER
 62
  256
 10
-1.899999999999971
 20
-3.600000000000013
 40
0.2500000000000002
 50
270.0000000000001
 51
0
  0
LINE
  5
2A4
  8
0
  6
BYLAYER
 62
  256
 10
-1.899999999999971
 20
-3.850000000000013
 11
-2.599999999999974
 21
-3.850000000000013
  0
ARC
  5
2A5
  8
0
  6
BYLAYER
 62
  256
 10
-13.6
 20
39.49999999999999
 40
0.2499999999999998
 50
89.99999999999919
 51
180
  0
LINE
  5
2A6
  8
0
  6
BYLAYER
 62
  256
 10
-13.59999999999999
 20
39.74999999999999
 11
-12.89999999999999
 21
39.74999999999999
  0
ARC
  5
2A7
  8
0
  6
BYLAYER
 62
  256
 10
-12.89999999999999
 20
39.49999999999999
 40
0.2500000000000001
 50
0
 51
90
  0
LINE
  5
2A8
  8
0
  6
BYLAYER
 62
  256
 10
-12.64999999999999
 20
39.49999999999999
 11
-12.64999999999999
 21
38.84999999999998
  0
ARC
  5
2A9
  8
0
  6
BYLAYER
 62
  256
 10
-12.89999999999999
 20
38.84999999999998
 40
0.2499999999999998
 50
269.9999999999996
 51
0
  0
LINE
  5
2AA
  8
0
  6
BYLAYER
 62
  256
 10
-12.89999999999999
 20
38.59999999999998
 11
-13.59999999999999
 21
38.59999999999999
  0
ARC
  5
2AB
  8
0
  6
BYLAYER
 62
  256
 10
-13.6
 20
38.84999999999998
 40
0.2499999999999942
 50
180
 51
270.0000000000012
  0
LINE
  5
2AC
  8
0
  6
BYLAYER
 62
  256
 10
-13.84999999999999
 20
38.84999999999998
 11
-13.84999999999999
 21
39.49999999999999
  0
ARC
  5
2AD
  8
0
  6
BYLAYER
 62
  256
 10
-13.59999999999998
 20
33.89999999999999
 40
0.2500000000000056
 50
180
 51
269.9999999999987
  0
LINE
  5
2AE
  8
0
  6
BYLAYER
 62
  256
 10
-13.84999999999999
 20
33.89999999999999
 11
-13.84999999999998
 21
34.55
  0
ARC
  5
2AF
  8
0
  6
BYLAYER
 62
  256
 10
-13.59999999999998
 20
34.55
 40
0.250000000000002
 50
90.00000000000203
 51
180
  0
LINE
  5
2B0
  8
0
  6
BYLAYER
 62
  256
 10
-13.59999999999999
 20
34.8
 11
-12.89999999999999
 21
34.8
  0
ARC
  5
2B1
  8
0
  6
BYLAYER
 62
  256
 10
-12.89999999999999
 20
34.55
 40
0.2500000000000058
 50
0
 51
89.99999999999878
  0
LINE
  5
2B2
  8
0
  6
BYLAYER
 62
  256
 10
-12.64999999999999
 20
34.55
 11
-12.64999999999998
 21
33.89999999999999
  0
ARC
  5
2B3
  8
0
  6
BYLAYER
 62
  256
 10
-12.89999999999998
 20
33.89999999999999
 40
0.2500000000000002
 50
270
 51
0
  0
LINE
  5
2B4
  8
0
  6
BYLAYER
 62
  256
 10
-12.89999999999998
 20
33.64999999999999
 11
-13.59999999999999
 21
33.64999999999998
  0
ARC
  5
2B5
  8
0
  6
BYLAYER
 62
  256
 10
-9.099999999999991
 20
26.34999999999998
 40
0.2499999999999994
 50
180
 51
270
  0
LINE
  5
2B6
  8
0
  6
BYLAYER
 62
  256
 10
-9.349999999999991
 20
26.34999999999998
 11
-9.349999999999991
 21
26.99999999999999
  0
ARC
  5
2B7
  8
0
  6
BYLAYER
 62
  256
 10
-9.099999999999993
 20
26.99999999999999
 40
0.2499999999999982
 50
89.99999999999959
 51
179.9999999999992
  0
LINE
  5
2B8
  8
0
  6
BYLAYER
 62
  256
 10
-9.099999999999991
 20
27.24999999999999
 11
-8.399999999999995
 21
27.24999999999999
  0
ARC
  5
2B9
  8
0
  6
BYLAYER
 62
  256
 10
-8.399999999999991
 20
26.99999999999999
 40
0.2499999999999994
 50
8.142219984546603e-013
 51
90.00000000000081
  0
LINE
  5
2BA
  8
0
  6
BYLAYER
 62
  256
 10
-8.149999999999991
 20
26.99999999999999
 11
-8.149999999999991
 21
26.34999999999998
  0
ARC
  5
2BB
  8
0
  6
BYLAYER
 62
  256
 10
-8.39999999999999
 20
26.34999999999998
 40
0.2499999999999989
 50
269.9999999999996
 51
0
  0
LINE
  5
2BC
  8
0
  6
BYLAYER
 62
  256
 10
-8.399999999999991
 20
26.09999999999998
 11
-9.099999999999991
 21
26.09999999999998
  0
ARC
  5
2BD
  8
0
  6
BYLAYER
 62
  256
 10
1.90000000000002
 20
-2.950000000000008
 40
0.2500000000000001
 50
90.0000000000001
 51
180
  0
LINE
  5
2BE
  8
0
  6
BYLAYER
 62
  256
 10
1.90000000000002
 20
-2.700000000000008
 11
2.60000000000002
 21
-2.700000000000009
  0
ARC
  5
2BF
  8
0
  6
BYLAYER
 62
  256
 10
2.60000000000002
 20
-2.950000000000008
 40
0.2499999999999996
 50
0
 51
90
  0
LINE
  5
2C0
  8
0
  6
BYLAYER
 62
  256
 10
2.85000000000002
 20
-2.950000000000008
 11
2.85000000000002
 21
-3.600000000000013
  0
ARC
  5
2C1
  8
0
  6
BYLAYER
 62
  256
 10
2.60000000000002
 20
-3.600000000000013
 40
0.2500000000000002
 50
269.9999999999999
 51
0
  0
LINE
  5
2C2
  8
0
  6
BYLAYER
 62
  256
 10
2.60000000000002
 20
-3.850000000000013
 11
1.900000000000019
 21
-3.850000000000013
  0
ARC
  5
2C3
  8
0
  6
BYLAYER
 62
  256
 10
1.90000000000002
 20
-3.600000000000013
 40
0.2500000000000003
 50
180
 51
269.9999999999999
  0
LINE
  5
2C4
  8
0
  6
BYLAYER
 62
  256
 10
1.650000000000019
 20
-3.600000000000013
 11
1.65000000000002
 21
-2.950000000000008
  0
ARC
  5
2C5
  8
0
  6
BYLAYER
 62
  256
 10
-24.59999999999998
 20
14.5
 40
0.2499999999999971
 50
90
 51
180.0000000000008
  0
LINE
  5
2C6
  8
0
  6
BYLAYER
 62
  256
 10
-24.59999999999998
 20
14.74999999999999
 11
-23.89999999999998
 21
14.74999999999999
  0
ARC
  5
2C7
  8
0
  6
BYLAYER
 62
  256
 10
-23.89999999999998
 20
14.49999999999999
 40
0.2500000000000001
 50
0
 51
90
  0
LINE
  5
2C8
  8
0
  6
BYLAYER
 62
  256
 10
-23.64999999999998
 20
14.49999999999999
 11
-23.64999999999998
 21
13.84999999999998
  0
ARC
  5
2C9
  8
0
  6
BYLAYER
 62
  256
 10
-23.89999999999998
 20
13.84999999999998
 40
0.2500000000000001
 50
270
 51
0
  0
LINE
  5
2CA
  8
0
  6
BYLAYER
 62
  256
 10
-23.89999999999998
 20
13.59999999999998
 11
-24.59999999999998
 21
13.59999999999998
  0
ARC
  5
2CB
  8
0
  6
BYLAYER
 62
  256
 10
-24.59999999999998
 20
13.84999999999998
 40
0.250000000000002
 50
180.0000000000004
 51
269.9999999999992
  0
LINE
  5
2CC
  8
0
  6
BYLAYER
 62
  256
 10
-24.84999999999998
 20
13.84999999999998
 11
-24.84999999999998
 21
14.49999999999999
  0
ARC
  5
2CD
  8
0
  6
BYLAYER
 62
  256
 10
1.900000000000012
 20
38.84999999999998
 40
0.2499999999999994
 50
180
 51
270.0000000000002
  0
LINE
  5
2CE
  8
0
  6
BYLAYER
 62
  256
 10
1.650000000000013
 20
38.84999999999998
 11
1.650000000000014
 21
39.49999999999999
  0
ARC
  5
2CF
  8
0
  6
BYLAYER
 62
  256
 10
1.900000000000014
 20
39.49999999999999
 40
0.2499999999999996
 50
90.0000000000002
 51
180
  0
LINE
  5
2D0
  8
0
  6
BYLAYER
 62
  256
 10
1.900000000000013
 20
39.74999999999999
 11
2.600000000000011
 21
39.74999999999999
  0
ARC
  5
2D1
  8
0
  6
BYLAYER
 62
  256
 10
2.600000000000012
 20
39.49999999999999
 40
0.2500000000000007
 50
0
 51
90.0000000000002
  0
LINE
  5
2D2
  8
0
  6
BYLAYER
 62
  256
 10
2.850000000000013
 20
39.49999999999999
 11
2.850000000000014
 21
38.84999999999998
  0
ARC
  5
2D3
  8
0
  6
BYLAYER
 62
  256
 10
2.600000000000014
 20
38.84999999999998
 40
0.2499999999999998
 50
269.9999999999995
 51
0
  0
LINE
  5
2D4
  8
0
  6
BYLAYER
 62
  256
 10
2.600000000000012
 20
38.59999999999998
 11
1.900000000000013
 21
38.59999999999998
  0
ARC
  5
2D5
  8
0
  6
BYLAYER
 62
  256
 10
-9.099999999999982
 20
1.349999999999977
 40
0.2500000000000012
 50
180.0000000000001
 51
269.9999999999996
  0
LINE
  5
2D6
  8
0
  6
BYLAYER
 62
  256
 10
-9.349999999999984
 20
1.349999999999976
 11
-9.349999999999984
 21
1.999999999999981
  0
ARC
  5
2D7
  8
0
  6
BYLAYER
 62
  256
 10
-9.099999999999982
 20
1.99999999999998
 40
0.2500000000000011
 50
90.00000000000041
 51
179.9999999999999
  0
LINE
  5
2D8
  8
0
  6
BYLAYER
 62
  256
 10
-9.099999999999984
 20
2.249999999999981
 11
-8.399999999999984
 21
2.249999999999982
  0
ARC
  5
2D9
  8
0
  6
BYLAYER
 62
  256
 10
-8.399999999999986
 20
1.99999999999998
 40
0.2500000000000013
 50
1.017777498068325e-013
 51
89.99999999999959
  0
LINE
  5
2DA
  8
0
  6
BYLAYER
 62
  256
 10
-8.149999999999984
 20
1.999999999999981
 11
-8.149999999999986
 21
1.349999999999976
  0
ARC
  5
2DB
  8
0
  6
BYLAYER
 62
  256
 10
-8.399999999999984
 20
1.349999999999976
 40
0.25
 50
270
 51
0
  0
LINE
  5
2DC
  8
0
  6
BYLAYER
 62
  256
 10
-8.399999999999984
 20
1.099999999999976
 11
-9.099999999999984
 21
1.099999999999975
  0
LINE
  5
2DD
  8
0
  6
BYLAYER
 62
  256
 10
-21.3
 20
26.8
 11
-22.69999999999999
 21
26.8
  0
LINE
  5
2DE
  8
0
  6
BYLAYER
 62
  256
 10
-22.69999999999999
 20
26.8
 11
-22.69999999999999
 21
26.19999999999999
  0
LINE
  5
2DF
  8
0
  6
BYLAYER
 62
  256
 10
-22.69999999999999
 20
26.19999999999999
 11
-21.29999999999999
 21
26.19999999999999
  0
LINE
  5
2E0
  8
0
  6
BYLAYER
 62
  256
 10
-21.29999999999999
 20
26.19999999999999
 11
-21.3
 21
26.8
  0
ARC
  5
2E1
  8
0
  6
BYLAYER
 62
  256
 10
-2.599999999999981
 20
21.39999999999999
 40
0.2499999999999996
 50
180
 51
270.0000000000001
  0
LINE
  5
2E2
  8
0
  6
BYLAYER
 62
  256
 10
-2.849999999999981
 20
21.39999999999999
 11
-2.849999999999977
 21
22.05
  0
ARC
  5
2E3
  8
0
  6
BYLAYER
 62
  256
 10
-2.599999999999977
 20
22.04999999999999
 40
0.2500000000000002
 50
90.00000000000102
 51
179.9999999999984
  0
LINE
  5
2E4
  8
0
  6
BYLAYER
 62
  256
 10
-2.599999999999981
 20
22.29999999999999
 11
-1.899999999999982
 21
22.3
  0
ARC
  5
2E5
  8
0
  6
BYLAYER
 62
  256
 10
-1.899999999999982
 20
22.05
 40
0.2500000000000006
 50
0
 51
89.9999999999999
  0
LINE
  5
2E6
  8
0
  6
BYLAYER
 62
  256
 10
-1.649999999999982
 20
22.05
 11
-1.649999999999978
 21
21.39999999999999
  0
ARC
  5
2E7
  8
0
  6
BYLAYER
 62
  256
 10
-1.899999999999977
 20
21.39999999999999
 40
0.2499999999999995
 50
269.9999999999998
 51
0
  0
LINE
  5
2E8
  8
0
  6
BYLAYER
 62
  256
 10
-1.899999999999978
 20
21.14999999999999
 11
-2.599999999999981
 21
21.14999999999999
  0
ARC
  5
2E9
  8
0
  6
BYLAYER
 62
  256
 10
-20.09999999999998
 20
9.549999999999988
 40
0.2500000000000006
 50
90
 51
180
  0
LINE
  5
2EA
  8
0
  6
BYLAYER
 62
  256
 10
-20.09999999999998
 20
9.799999999999988
 11
-19.39999999999999
 21
9.799999999999988
  0
ARC
  5
2EB
  8
0
  6
BYLAYER
 62
  256
 10
-19.39999999999999
 20
9.54999999999999
 40
0.249999999999999
 50
359.9999999999996
 51
90.00000000000081
  0
LINE
  5
2EC
  8
0
  6
BYLAYER
 62
  256
 10
-19.14999999999999
 20
9.549999999999988
 11
-19.14999999999999
 21
8.899999999999984
  0
ARC
  5
2ED
  8
0
  6
BYLAYER
 62
  256
 10
-19.39999999999998
 20
8.899999999999984
 40
0.2499999999999993
 50
270
 51
0
  0
LINE
  5
2EE
  8
0
  6
BYLAYER
 62
  256
 10
-19.39999999999998
 20
8.649999999999984
 11
-20.09999999999998
 21
8.649999999999986
  0
ARC
  5
2EF
  8
0
  6
BYLAYER
 62
  256
 10
-20.09999999999998
 20
8.899999999999984
 40
0.2499999999999991
 50
180
 51
270
  0
LINE
  5
2F0
  8
0
  6
BYLAYER
 62
  256
 10
-20.34999999999998
 20
8.899999999999984
 11
-20.34999999999998
 21
9.549999999999988
  0
ARC
  5
2F1
  8
0
  6
BYLAYER
 62
  256
 10
-11.35
 20
46.40000000000001
 40
0.2499999999999934
 50
180.0000000000016
 51
270.0000000000012
  0
LINE
  5
2F2
  8
0
  6
BYLAYER
 62
  256
 10
-11.59999999999999
 20
46.4
 11
-11.59999999999999
 21
47.05000000000001
  0
ARC
  5
2F3
  8
0
  6
BYLAYER
 62
  256
 10
-11.35
 20
47.05000000000001
 40
0.2499999999999935
 50
89.99999999999919
 51
180
  0
LINE
  5
2F4
  8
0
  6
BYLAYER
 62
  256
 10
-11.34999999999999
 20
47.3
 11
-10.64999999999999
 21
47.3
  0
ARC
  5
2F5
  8
0
  6
BYLAYER
 62
  256
 10
-10.64999999999999
 20
47.05
 40
0.2499999999999991
 50
359.9999999999984
 51
90
  0
LINE
  5
2F6
  8
0
  6
BYLAYER
 62
  256
 10
-10.39999999999999
 20
47.05
 11
-10.4
 21
46.4
  0
ARC
  5
2F7
  8
0
  6
BYLAYER
 62
  256
 10
-10.64999999999999
 20
46.40000000000001
 40
0.2499999999999945
 50
269.9999999999992
 51
359.9999999999984
  0
LINE
  5
2F8
  8
0
  6
BYLAYER
 62
  256
 10
-10.64999999999999
 20
46.15000000000001
 11
-11.34999999999999
 21
46.15000000000001
  0
ARC
  5
2F9
  8
0
  6
BYLAYER
 62
  256
 10
1.900000000000016
 20
13.84999999999998
 40
0.2499999999999997
 50
180
 51
270.0000000000001
  0
LINE
  5
2FA
  8
0
  6
BYLAYER
 62
  256
 10
1.650000000000016
 20
13.84999999999998
 11
1.650000000000015
 21
14.49999999999998
  0
ARC
  5
2FB
  8
0
  6
BYLAYER
 62
  256
 10
1.900000000000014
 20
14.49999999999999
 40
0.2499999999999991
 50
89.99999999999939
 51
180.0000000000012
  0
LINE
  5
2FC
  8
0
  6
BYLAYER
 62
  256
 10
1.900000000000016
 20
14.74999999999999
 11
2.600000000000016
 21
14.74999999999999
  0
ARC
  5
2FD
  8
0
  6
BYLAYER
 62
  256
 10
2.600000000000014
 20
14.49999999999999
 40
0.2500000000000014
 50
0
 51
89.99999999999969
  0
LINE
  5
2FE
  8
0
  6
BYLAYER
 62
  256
 10
2.850000000000016
 20
14.49999999999999
 11
2.850000000000016
 21
13.84999999999998
  0
ARC
  5
2FF
  8
0
  6
BYLAYER
 62
  256
 10
2.600000000000016
 20
13.84999999999998
 40
0.2499999999999994
 50
269.9999999999999
 51
0
  0
LINE
  5
300
  8
0
  6
BYLAYER
 62
  256
 10
2.600000000000016
 20
13.59999999999998
 11
1.900000000000016
 21
13.59999999999998
  0
ARC
  5
301
  8
0
  6
BYLAYER
 62
  256
 10
-13.59999999999998
 20
14.49999999999999
 40
0.2499999999999991
 50
90.00000000000041
 51
180
  0
LINE
  5
302
  8
0
  6
BYLAYER
 62
  256
 10
-13.59999999999999
 20
14.74999999999999
 11
-12.89999999999999
 21
14.74999999999999
  0
ARC
  5
303
  8
0
  6
BYLAYER
 62
  256
 10
-12.89999999999998
 20
14.49999999999999
 40
0.2499999999999971
 50
359.9999999999992
 51
90.00000000000163
  0
LINE
  5
304
  8
0
  6
BYLAYER
 62
  256
 10
-12.64999999999998
 20
14.49999999999999
 11
-12.64999999999999
 21
13.84999999999998
  0
ARC
  5
305
  8
0
  6
BYLAYER
 62
  256
 10
-12.89999999999998
 20
13.84999999999998
 40
0.2499999999999991
 50
270
 51
0
  0
LINE
  5
306
  8
0
  6
BYLAYER
 62
  256
 10
-12.89999999999998
 20
13.59999999999998
 11
-13.59999999999999
 21
13.59999999999998
  0
ARC
  5
307
  8
0
  6
BYLAYER
 62
  256
 10
-13.59999999999998
 20
13.84999999999998
 40
0.2499999999999991
 50
180
 51
269.9999999999996
  0
LINE
  5
308
  8
0
  6
BYLAYER
 62
  256
 10
-13.84999999999998
 20
13.84999999999998
 11
-13.84999999999998
 21
14.49999999999999
  0
ARC
  5
309
  8
0
  6
BYLAYER
 62
  256
 10
8.400000000000018
 20
-10.50000000000001
 40
0.2499999999999996
 50
89.99999999999919
 51
180.0000000000008
  0
LINE
  5
30A
  8
0
  6
BYLAYER
 62
  256
 10
8.400000000000022
 20
-10.25000000000001
 11
9.100000000000021
 21
-10.25000000000002
  0
ARC
  5
30B
  8
0
  6
BYLAYER
 62
  256
 10
9.100000000000021
 20
-10.50000000000002
 40
0.2499999999999991
 50
4.071109992273301e-013
 51
90
  0
LINE
  5
30C
  8
0
  6
BYLAYER
 62
  256
 10
9.350000000000021
 20
-10.50000000000002
 11
9.350000000000021
 21
-11.15000000000002
  0
ARC
  5
30D
  8
0
  6
BYLAYER
 62
  256
 10
9.100000000000021
 20
-11.15000000000002
 40
0.2499999999999994
 50
270
 51
0
  0
LINE
  5
30E
  8
0
  6
BYLAYER
 62
  256
 10
9.100000000000021
 20
-11.40000000000002
 11
8.40000000000002
 21
-11.40000000000002
  0
ARC
  5
30F
  8
0
  6
BYLAYER
 62
  256
 10
8.400000000000022
 20
-11.15000000000002
 40
0.2500000000000006
 50
179.9999999999996
 51
269.9999999999996
  0
LINE
  5
310
  8
0
  6
BYLAYER
 62
  256
 10
8.150000000000022
 20
-11.15000000000002
 11
8.15000000000002
 21
-10.50000000000001
  0
ARC
  5
311
  8
0
  6
BYLAYER
 62
  256
 10
-2.599999999999971
 20
46.4
 40
0.2500000000000127
 50
180
 51
269.999999999997
  0
LINE
  5
312
  8
0
  6
BYLAYER
 62
  256
 10
-2.849999999999984
 20
46.4
 11
-2.849999999999983
 21
47.05000000000001
  0
ARC
  5
313
  8
0
  6
BYLAYER
 62
  256
 10
-2.599999999999989
 20
47.05000000000001
 40
0.2499999999999938
 50
89.99999999999888
 51
180
  0
LINE
  5
314
  8
0
  6
BYLAYER
 62
  256
 10
-2.599999999999984
 20
47.3
 11
-1.899999999999986
 21
47.30000000000001
  0
ARC
  5
315
  8
0
  6
BYLAYER
 62
  256
 10
-1.899999999999988
 20
47.05000000000001
 40
0.2500000000000028
 50
359.9999999999968
 51
89.99999999999964
  0
LINE
  5
316
  8
0
  6
BYLAYER
 62
  256
 10
-1.649999999999985
 20
47.05
 11
-1.649999999999979
 21
46.4
  0
ARC
  5
317
  8
0
  6
BYLAYER
 62
  256
 10
-1.899999999999993
 20
46.40000000000001
 40
0.2500000000000143
 50
270.0000000000026
 51
359.9999999999984
  0
LINE
  5
318
  8
0
  6
BYLAYER
 62
  256
 10
-1.899999999999982
 20
46.14999999999999
 11
-2.599999999999984
 21
46.14999999999999
  0
ARC
  5
319
  8
0
  6
BYLAYER
 62
  256
 10
1.900000000000012
 20
47.05
 40
0.2500000000000053
 50
90.00000000000051
 51
180
  0
LINE
  5
31A
  8
0
  6
BYLAYER
 62
  256
 10
1.900000000000009
 20
47.3
 11
2.600000000000009
 21
47.30000000000001
  0
ARC
  5
31B
  8
0
  6
BYLAYER
 62
  256
 10
2.600000000000005
 20
47.05000000000001
 40
0.250000000000003
 50
359.9999999999968
 51
89.99999999999919
  0
LINE
  5
31C
  8
0
  6
BYLAYER
 62
  256
 10
2.850000000000009
 20
47.05
 11
2.850000000000011
 21
46.4
  0
ARC
  5
31D
  8
0
  6
BYLAYER
 62
  256
 10
2.599999999999997
 20
46.4
 40
0.250000000000014
 50
270.0000000000027
 51
0
  0
LINE
  5
31E
  8
0
  6
BYLAYER
 62
  256
 10
2.600000000000009
 20
46.14999999999998
 11
1.900000000000008
 21
46.14999999999999
  0
ARC
  5
31F
  8
0
  6
BYLAYER
 62
  256
 10
1.900000000000022
 20
46.4
 40
0.2500000000000125
 50
180
 51
269.9999999999969
  0
LINE
  5
320
  8
0
  6
BYLAYER
 62
  256
 10
1.650000000000009
 20
46.4
 11
1.650000000000007
 21
47.05
  0
ARC
  5
321
  8
0
  6
BYLAYER
 62
  256
 10
-9.099999999999985
 20
9.549999999999986
 40
0.2500000000000017
 50
90.00000000000041
 51
179.9999999999996
  0
LINE
  5
322
  8
0
  6
BYLAYER
 62
  256
 10
-9.099999999999987
 20
9.799999999999988
 11
-8.39999999999999
 21
9.799999999999988
  0
ARC
  5
323
  8
0
  6
BYLAYER
 62
  256
 10
-8.39999999999999
 20
9.549999999999986
 40
0.2500000000000026
 50
4.071109992273301e-013
 51
90
  0
LINE
  5
324
  8
0
  6
BYLAYER
 62
  256
 10
-8.149999999999988
 20
9.549999999999988
 11
-8.149999999999988
 21
8.899999999999984
  0
ARC
  5
325
  8
0
  6
BYLAYER
 62
  256
 10
-8.39999999999999
 20
8.899999999999986
 40
0.2500000000000022
 50
270.0000000000004
 51
359.9999999999996
  0
LINE
  5
326
  8
0
  6
BYLAYER
 62
  256
 10
-8.399999999999988
 20
8.649999999999984
 11
-9.099999999999987
 21
8.649999999999986
  0
ARC
  5
327
  8
0
  6
BYLAYER
 62
  256
 10
-9.099999999999989
 20
8.899999999999983
 40
0.249999999999998
 50
179.9999999999996
 51
270.0000000000004
  0
LINE
  5
328
  8
0
  6
BYLAYER
 62
  256
 10
-9.349999999999987
 20
8.899999999999984
 11
-9.349999999999987
 21
9.549999999999988
  0
ARC
  5
329
  8
0
  6
BYLAYER
 62
  256
 10
-13.59999999999998
 20
8.899999999999984
 40
0.2499999999999994
 50
180
 51
270
  0
LINE
  5
32A
  8
0
  6
BYLAYER
 62
  256
 10
-13.84999999999998
 20
8.899999999999984
 11
-13.84999999999997
 21
9.549999999999997
  0
ARC
  5
32B
  8
0
  6
BYLAYER
 62
  256
 10
-13.59999999999998
 20
9.550000000000001
 40
0.2499999999999889
 50
89.99999999999919
 51
180.0000000000008
  0
LINE
  5
32C
  8
0
  6
BYLAYER
 62
  256
 10
-13.59999999999998
 20
9.79999999999999
 11
-12.89999999999998
 21
9.79999999999999
  0
ARC
  5
32D
  8
0
  6
BYLAYER
 62
  256
 10
-12.89999999999998
 20
9.54999999999999
 40
0.2500000000000012
 50
359.9999999999996
 51
90.00000000000041
  0
LINE
  5
32E
  8
0
  6
BYLAYER
 62
  256
 10
-12.64999999999998
 20
9.549999999999988
 11
-12.64999999999998
 21
8.899999999999984
  0
ARC
  5
32F
  8
0
  6
BYLAYER
 62
  256
 10
-12.89999999999998
 20
8.899999999999984
 40
0.2500000000000002
 50
270.0000000000004
 51
0
  0
LINE
  5
330
  8
0
  6
BYLAYER
 62
  256
 10
-12.89999999999998
 20
8.649999999999984
 11
-13.59999999999998
 21
8.649999999999984
  0
ARC
  5
331
  8
0
  6
BYLAYER
 62
  256
 10
-11.34999999999998
 20
21.4
 40
0.2500000000000047
 50
179.9999999999992
 51
269.9999999999987
  0
LINE
  5
332
  8
0
  6
BYLAYER
 62
  256
 10
-11.59999999999999
 20
21.4
 11
-11.59999999999998
 21
22.05
  0
ARC
  5
333
  8
0
  6
BYLAYER
 62
  256
 10
-11.34999999999998
 20
22.04999999999999
 40
0.2500000000000002
 50
90.00000000000163
 51
179.9999999999984
  0
LINE
  5
334
  8
0
  6
BYLAYER
 62
  256
 10
-11.34999999999999
 20
22.29999999999999
 11
-10.64999999999999
 21
22.3
  0
ARC
  5
335
  8
0
  6
BYLAYER
 62
  256
 10
-10.64999999999999
 20
22.05
 40
0.2499999999999991
 50
0
 51
89.99999999999959
  0
LINE
  5
336
  8
0
  6
BYLAYER
 62
  256
 10
-10.39999999999999
 20
22.05
 11
-10.39999999999998
 21
21.4
  0
ARC
  5
337
  8
0
  6
BYLAYER
 62
  256
 10
-10.64999999999998
 20
21.4
 40
0.2499999999999998
 50
269.9999999999992
 51
0
  0
LINE
  5
338
  8
0
  6
BYLAYER
 62
  256
 10
-10.64999999999999
 20
21.15
 11
-11.34999999999999
 21
21.14999999999999
  0
ARC
  5
339
  8
0
  6
BYLAYER
 62
  256
 10
-9.099999999999996
 20
34.55
 40
0.2499999999999998
 50
89.99999999999959
 51
180
  0
LINE
  5
33A
  8
0
  6
BYLAYER
 62
  256
 10
-9.099999999999994
 20
34.8
 11
-8.399999999999995
 21
34.8
  0
ARC
  5
33B
  8
0
  6
BYLAYER
 62
  256
 10
-8.399999999999995
 20
34.55
 40
0.2500000000000001
 50
0
 51
90
  0
LINE
  5
33C
  8
0
  6
BYLAYER
 62
  256
 10
-8.149999999999995
 20
34.55
 11
-8.149999999999993
 21
33.89999999999999
  0
ARC
  5
33D
  8
0
  6
BYLAYER
 62
  256
 10
-8.399999999999993
 20
33.89999999999999
 40
0.2499999999999998
 50
269.9999999999996
 51
0
  0
LINE
  5
33E
  8
0
  6
BYLAYER
 62
  256
 10
-8.399999999999995
 20
33.64999999999999
 11
-9.099999999999998
 21
33.64999999999999
  0
ARC
  5
33F
  8
0
  6
BYLAYER
 62
  256
 10
-9.099999999999996
 20
33.89999999999999
 40
0.2499999999999988
 50
180
 51
269.9999999999996
  0
LINE
  5
340
  8
0
  6
BYLAYER
 62
  256
 10
-9.349999999999994
 20
33.89999999999999
 11
-9.349999999999996
 21
34.55
  0
ARC
  5
341
  8
0
  6
BYLAYER
 62
  256
 10
-2.599999999999984
 20
26.99999999999999
 40
0.2499999999999995
 50
90
 51
180
  0
LINE
  5
342
  8
0
  6
BYLAYER
 62
  256
 10
-2.599999999999984
 20
27.24999999999999
 11
-1.899999999999986
 21
27.24999999999999
  0
ARC
  5
343
  8
0
  6
BYLAYER
 62
  256
 10
-1.899999999999983
 20
26.99999999999999
 40
0.2499999999999988
 50
8.142219984546603e-013
 51
90.00000000000061
  0
LINE
  5
344
  8
0
  6
BYLAYER
 62
  256
 10
-1.649999999999985
 20
26.99999999999999
 11
-1.649999999999984
 21
26.34999999999998
  0
ARC
  5
345
  8
0
  6
BYLAYER
 62
  256
 10
-1.899999999999984
 20
26.34999999999998
 40
0.2499999999999995
 50
269.9999999999998
 51
0
  0
LINE
  5
346
  8
0
  6
BYLAYER
 62
  256
 10
-1.899999999999985
 20
26.09999999999998
 11
-2.599999999999985
 21
26.09999999999998
  0
ARC
  5
347
  8
0
  6
BYLAYER
 62
  256
 10
-2.599999999999985
 20
26.34999999999998
 40
0.2499999999999992
 50
180
 51
270.0000000000002
  0
LINE
  5
348
  8
0
  6
BYLAYER
 62
  256
 10
-2.849999999999985
 20
26.34999999999998
 11
-2.849999999999984
 21
26.99999999999999
  0
ARC
  5
349
  8
0
  6
BYLAYER
 62
  256
 10
-0.349999999999989
 20
33.90000000000001
 40
0.249999999999997
 50
180.0000000000016
 51
270.0000000000007
  0
LINE
  5
34A
  8
0
  6
BYLAYER
 62
  256
 10
-0.599999999999986
 20
33.9
 11
-0.5999999999999809
 21
34.55
  0
ARC
  5
34B
  8
0
  6
BYLAYER
 62
  256
 10
-0.3499999999999791
 20
34.55
 40
0.2500000000000018
 50
90.00000000000151
 51
180
  0
LINE
  5
34C
  8
0
  6
BYLAYER
 62
  256
 10
-0.3499999999999857
 20
34.8
 11
0.3500000000000147
 21
34.8
  0
ARC
  5
34D
  8
0
  6
BYLAYER
 62
  256
 10
0.3500000000000144
 20
34.55
 40
0.2499999999999994
 50
0
 51
89.99999999999991
  0
LINE
  5
34E
  8
0
  6
BYLAYER
 62
  256
 10
0.6000000000000137
 20
34.55
 11
0.6000000000000121
 21
33.9
  0
ARC
  5
34F
  8
0
  6
BYLAYER
 62
  256
 10
0.3500000000000161
 20
33.90000000000001
 40
0.249999999999996
 50
269.9999999999994
 51
359.9999999999984
  0
LINE
  5
350
  8
0
  6
BYLAYER
 62
  256
 10
0.3500000000000134
 20
33.65000000000001
 11
-0.3499999999999857
 21
33.65000000000001
  0
ARC
  5
351
  8
0
  6
BYLAYER
 62
  256
 10
1.900000000000025
 20
-11.15000000000002
 40
0.2500000000000018
 50
179.9999999999996
 51
269.9999999999997
  0
LINE
  5
352
  8
0
  6
BYLAYER
 62
  256
 10
1.650000000000023
 20
-11.15000000000002
 11
1.650000000000024
 21
-10.50000000000002
  0
ARC
  5
353
  8
0
  6
BYLAYER
 62
  256
 10
1.900000000000022
 20
-10.50000000000002
 40
0.2499999999999988
 50
89.99999999999974
 51
179.9999999999996
  0
LINE
  5
354
  8
0
  6
BYLAYER
 62
  256
 10
1.900000000000023
 20
-10.25000000000002
 11
2.600000000000022
 21
-10.25000000000002
  0
ARC
  5
355
  8
0
  6
BYLAYER
 62
  256
 10
2.600000000000024
 20
-10.50000000000002
 40
0.2499999999999993
 50
4.071109992273301e-013
 51
90.0000000000003
  0
LINE
  5
356
  8
0
  6
BYLAYER
 62
  256
 10
2.850000000000023
 20
-10.50000000000002
 11
2.850000000000023
 21
-11.15000000000002
  0
ARC
  5
357
  8
0
  6
BYLAYER
 62
  256
 10
2.600000000000023
 20
-11.15000000000002
 40
0.2499999999999999
 50
269.9999999999998
 51
0
  0
LINE
  5
358
  8
0
  6
BYLAYER
 62
  256
 10
2.600000000000022
 20
-11.40000000000002
 11
1.900000000000023
 21
-11.40000000000002
  0
ARC
  5
359
  8
0
  6
BYLAYER
 62
  256
 10
-2.599999999999981
 20
1.999999999999988
 40
0.2500000000000003
 50
90
 51
180
  0
LINE
  5
35A
  8
0
  6
BYLAYER
 62
  256
 10
-2.599999999999981
 20
2.249999999999988
 11
-1.899999999999982
 21
2.249999999999981
  0
ARC
  5
35B
  8
0
  6
BYLAYER
 62
  256
 10
-1.899999999999982
 20
1.999999999999982
 40
0.2500000000000001
 50
359.9999999999998
 51
90
  0
LINE
  5
35C
  8
0
  6
BYLAYER
 62
  256
 10
-1.649999999999982
 20
1.999999999999981
 11
-1.649999999999981
 21
1.349999999999976
  0
ARC
  5
35D
  8
0
  6
BYLAYER
 62
  256
 10
-1.899999999999981
 20
1.349999999999976
 40
0.2499999999999999
 50
269.9999999999999
 51
5.088887490341627e-014
  0
LINE
  5
35E
  8
0
  6
BYLAYER
 62
  256
 10
-1.899999999999982
 20
1.099999999999976
 11
-2.59999999999998
 21
1.099999999999977
  0
ARC
  5
35F
  8
0
  6
BYLAYER
 62
  256
 10
-2.599999999999981
 20
1.349999999999976
 40
0.2499999999999997
 50
180
 51
270.0000000000003
  0
LINE
  5
360
  8
0
  6
BYLAYER
 62
  256
 10
-2.849999999999981
 20
1.349999999999976
 11
-2.849999999999981
 21
1.999999999999988
  0
ARC
  5
361
  8
0
  6
BYLAYER
 62
  256
 10
1.900000000000014
 20
22.05
 40
0.2499999999999996
 50
90.0000000000002
 51
180
  0
LINE
  5
362
  8
0
  6
BYLAYER
 62
  256
 10
1.900000000000013
 20
22.3
 11
2.600000000000011
 21
22.3
  0
ARC
  5
363
  8
0
  6
BYLAYER
 62
  256
 10
2.600000000000012
 20
22.05
 40
0.2500000000000007
 50
0
 51
90.0000000000002
  0
LINE
  5
364
  8
0
  6
BYLAYER
 62
  256
 10
2.850000000000013
 20
22.05
 11
2.850000000000014
 21
21.39999999999999
  0
ARC
  5
365
  8
0
  6
BYLAYER
 62
  256
 10
2.600000000000014
 20
21.39999999999999
 40
0.2499999999999998
 50
269.9999999999995
 51
0
  0
LINE
  5
366
  8
0
  6
BYLAYER
 62
  256
 10
2.600000000000012
 20
21.14999999999999
 11
1.900000000000013
 21
21.14999999999999
  0
ARC
  5
367
  8
0
  6
BYLAYER
 62
  256
 10
1.900000000000012
 20
21.39999999999999
 40
0.2499999999999994
 50
180
 51
270.0000000000002
  0
LINE
  5
368
  8
0
  6
BYLAYER
 62
  256
 10
1.650000000000013
 20
21.39999999999999
 11
1.650000000000014
 21
22.05
  0
ARC
  5
369
  8
0
  6
BYLAYER
 62
  256
 10
-22.34999999999999
 20
46.4
 40
0.2499999999999924
 50
180
 51
270.0000000000008
  0
LINE
  5
36A
  8
0
  6
BYLAYER
 62
  256
 10
-22.59999999999999
 20
46.4
 11
-22.59999999999999
 21
47.05
  0
ARC
  5
36B
  8
0
  6
BYLAYER
 62
  256
 10
-22.34999999999999
 20
47.05
 40
0.2499999999999996
 50
90.00000000000081
 51
180.0000000000016
  0
LINE
  5
36C
  8
0
  6
BYLAYER
 62
  256
 10
-22.34999999999999
 20
47.3
 11
-21.64999999999999
 21
47.3
  0
ARC
  5
36D
  8
0
  6
BYLAYER
 62
  256
 10
-21.65
 20
47.05
 40
0.2500000000000058
 50
0
 51
89.99999999999837
  0
LINE
  5
36E
  8
0
  6
BYLAYER
 62
  256
 10
-21.39999999999999
 20
47.05
 11
-21.39999999999999
 21
46.40000000000001
  0
ARC
  5
36F
  8
0
  6
BYLAYER
 62
  256
 10
-21.64999999999998
 20
46.40000000000001
 40
0.2499999999999978
 50
269.9999999999992
 51
0
  0
LINE
  5
370
  8
0
  6
BYLAYER
 62
  256
 10
-21.64999999999999
 20
46.15000000000001
 11
-22.34999999999999
 21
46.15000000000001
  0
ARC
  5
371
  8
0
  6
BYLAYER
 62
  256
 10
8.400000000000023
 20
8.899999999999986
 40
0.2500000000000022
 50
180.0000000000004
 51
269.9999999999996
  0
LINE
  5
372
  8
0
  6
BYLAYER
 62
  256
 10
8.150000000000022
 20
8.899999999999984
 11
8.150000000000032
 21
9.549999999999997
  0
ARC
  5
373
  8
0
  6
BYLAYER
 62
  256
 10
8.400000000000022
 20
9.549999999999999
 40
0.2499999999999897
 50
90
 51
180.0000000000004
  0
LINE
  5
374
  8
0
  6
BYLAYER
 62
  256
 10
8.400000000000022
 20
9.799999999999988
 11
9.100000000000021
 21
9.799999999999992
  0
ARC
  5
375
  8
0
  6
BYLAYER
 62
  256
 10
9.100000000000021
 20
9.549999999999988
 40
0.250000000000003
 50
0
 51
90
  0
LINE
  5
376
  8
0
  6
BYLAYER
 62
  256
 10
9.350000000000025
 20
9.549999999999988
 11
9.350000000000025
 21
8.899999999999984
  0
ARC
  5
377
  8
0
  6
BYLAYER
 62
  256
 10
9.100000000000023
 20
8.899999999999986
 40
0.2500000000000022
 50
270.0000000000004
 51
359.9999999999996
  0
LINE
  5
378
  8
0
  6
BYLAYER
 62
  256
 10
9.100000000000025
 20
8.649999999999984
 11
8.400000000000022
 21
8.649999999999984
  0
ARC
  5
379
  8
0
  6
BYLAYER
 62
  256
 10
23.90000000000002
 20
-11.15000000000003
 40
0.2499999999999998
 50
179.9999999999992
 51
270
  0
LINE
  5
37A
  8
0
  6
BYLAYER
 62
  256
 10
23.65000000000002
 20
-11.15000000000002
 11
23.65000000000003
 21
-10.50000000000002
  0
ARC
  5
37B
  8
0
  6
BYLAYER
 62
  256
 10
23.90000000000002
 20
-10.50000000000001
 40
0.2499999999999962
 50
90
 51
180.0000000000004
  0
LINE
  5
37C
  8
0
  6
BYLAYER
 62
  256
 10
23.90000000000002
 20
-10.25000000000002
 11
24.60000000000003
 21
-10.25000000000001
  0
ARC
  5
37D
  8
0
  6
BYLAYER
 62
  256
 10
24.60000000000003
 20
-10.50000000000001
 40
0.2499999999999998
 50
359.9999999999992
 51
90
  0
LINE
  5
37E
  8
0
  6
BYLAYER
 62
  256
 10
24.85000000000003
 20
-10.50000000000002
 11
24.85000000000002
 21
-11.15000000000002
  0
ARC
  5
37F
  8
0
  6
BYLAYER
 62
  256
 10
24.60000000000002
 20
-11.15000000000003
 40
0.2499999999999974
 50
270.0000000000008
 51
4.071109992273301e-013
  0
LINE
  5
380
  8
0
  6
BYLAYER
 62
  256
 10
24.60000000000003
 20
-11.40000000000002
 11
23.90000000000002
 21
-11.40000000000002
  0
ARC
  5
381
  8
0
  6
BYLAYER
 62
  256
 10
-20.09999999999999
 20
26.34999999999998
 40
0.2499999999999956
 50
179.9999999999992
 51
270.0000000000008
  0
LINE
  5
382
  8
0
  6
BYLAYER
 62
  256
 10
-20.34999999999999
 20
26.34999999999998
 11
-20.34999999999999
 21
26.99999999999999
  0
ARC
  5
383
  8
0
  6
BYLAYER
 62
  256
 10
-20.09999999999999
 20
26.99999999999999
 40
0.2499999999999982
 50
90
 51
179.9999999999992
  0
LINE
  5
384
  8
0
  6
BYLAYER
 62
  256
 10
-20.09999999999999
 20
27.24999999999999
 11
-19.39999999999999
 21
27.24999999999999
  0
ARC
  5
385
  8
0
  6
BYLAYER
 62
  256
 10
-19.39999999999999
 20
26.99999999999998
 40
0.2500000000000022
 50
1.628443996909321e-012
 51
90
  0
LINE
  5
386
  8
0
  6
BYLAYER
 62
  256
 10
-19.14999999999999
 20
26.99999999999999
 11
-19.14999999999999
 21
26.34999999999998
  0
ARC
  5
387
  8
0
  6
BYLAYER
 62
  256
 10
-19.39999999999999
 20
26.34999999999998
 40
0.2499999999999989
 50
270
 51
0
  0
LINE
  5
388
  8
0
  6
BYLAYER
 62
  256
 10
-19.39999999999999
 20
26.09999999999998
 11
-20.09999999999999
 21
26.09999999999998
  0
ARC
  5
389
  8
0
  6
BYLAYER
 62
  256
 10
-22.34999999999998
 20
21.4
 40
0.2500000000000001
 50
180
 51
270
  0
LINE
  5
38A
  8
0
  6
BYLAYER
 62
  256
 10
-22.59999999999998
 20
21.4
 11
-22.59999999999998
 21
22.05
  0
ARC
  5
38B
  8
0
  6
BYLAYER
 62
  256
 10
-22.34999999999998
 20
22.04999999999999
 40
0.2500000000000009
 50
90.00000000000081
 51
179.9999999999984
  0
LINE
  5
38C
  8
0
  6
BYLAYER
 62
  256
 10
-22.34999999999998
 20
22.29999999999999
 11
-21.64999999999999
 21
22.3
  0
ARC
  5
38D
  8
0
  6
BYLAYER
 62
  256
 10
-21.64999999999998
 20
22.05
 40
0.2499999999999996
 50
0
 51
90.00000000000163
  0
LINE
  5
38E
  8
0
  6
BYLAYER
 62
  256
 10
-21.39999999999998
 20
22.05
 11
-21.39999999999998
 21
21.4
  0
ARC
  5
38F
  8
0
  6
BYLAYER
 62
  256
 10
-21.64999999999998
 20
21.4
 40
0.2499999999999956
 50
269.9999999999992
 51
8.142219984546603e-013
  0
LINE
  5
390
  8
0
  6
BYLAYER
 62
  256
 10
-21.64999999999998
 20
21.15
 11
-22.34999999999998
 21
21.15
  0
ARC
  5
391
  8
0
  6
BYLAYER
 62
  256
 10
-24.59999999999999
 20
39.5
 40
0.2499999999999956
 50
89.99999999999919
 51
180.0000000000016
  0
LINE
  5
392
  8
0
  6
BYLAYER
 62
  256
 10
-24.59999999999999
 20
39.74999999999999
 11
-23.89999999999998
 21
39.74999999999999
  0
ARC
  5
393
  8
0
  6
BYLAYER
 62
  256
 10
-23.89999999999999
 20
39.49999999999999
 40
0.2500000000000004
 50
0
 51
89.99999999999919
  0
LINE
  5
394
  8
0
  6
BYLAYER
 62
  256
 10
-23.64999999999999
 20
39.49999999999999
 11
-23.64999999999999
 21
38.84999999999998
  0
ARC
  5
395
  8
0
  6
BYLAYER
 62
  256
 10
-23.89999999999998
 20
38.84999999999997
 40
0.2499999999999956
 50
269.9999999999992
 51
1.628443996909321e-012
  0
LINE
  5
396
  8
0
  6
BYLAYER
 62
  256
 10
-23.89999999999999
 20
38.59999999999998
 11
-24.59999999999999
 21
38.59999999999998
  0
ARC
  5
397
  8
0
  6
BYLAYER
 62
  256
 10
-24.59999999999999
 20
38.84999999999997
 40
0.2499999999999951
 50
179.9999999999984
 51
270.0000000000016
  0
LINE
  5
398
  8
0
  6
BYLAYER
 62
  256
 10
-24.84999999999999
 20
38.84999999999998
 11
-24.84999999999999
 21
39.49999999999999
  0
ARC
  5
399
  8
0
  6
BYLAYER
 62
  256
 10
-20.09999999999999
 20
34.55
 40
0.2500000000000001
 50
90
 51
180
  0
LINE
  5
39A
  8
0
  6
BYLAYER
 62
  256
 10
-20.09999999999999
 20
34.8
 11
-19.39999999999999
 21
34.8
  0
ARC
  5
39B
  8
0
  6
BYLAYER
 62
  256
 10
-19.4
 20
34.55
 40
0.2500000000000058
 50
0
 51
89.99999999999837
  0
LINE
  5
39C
  8
0
  6
BYLAYER
 62
  256
 10
-19.14999999999999
 20
34.55
 11
-19.14999999999999
 21
33.89999999999999
  0
ARC
  5
39D
  8
0
  6
BYLAYER
 62
  256
 10
-19.39999999999999
 20
33.89999999999999
 40
0.2499999999999989
 50
270
 51
0
  0
LINE
  5
39E
  8
0
  6
BYLAYER
 62
  256
 10
-19.39999999999999
 20
33.64999999999999
 11
-20.09999999999999
 21
33.64999999999999
  0
ARC
  5
39F
  8
0
  6
BYLAYER
 62
  256
 10
-20.09999999999999
 20
33.89999999999999
 40
0.2500000000000001
 50
180
 51
270
  0
LINE
  5
3A0
  8
0
  6
BYLAYER
 62
  256
 10
-20.34999999999999
 20
33.89999999999999
 11
-20.34999999999999
 21
34.55
  0
ARC
  5
3A1
  8
0
  6
BYLAYER
 62
  256
 10
-20.09999999999998
 20
1.349999999999975
 40
0.2499999999999995
 50
179.9999999999997
 51
270
  0
LINE
  5
3A2
  8
0
  6
BYLAYER
 62
  256
 10
-20.34999999999998
 20
1.349999999999976
 11
-20.34999999999998
 21
1.999999999999981
  0
ARC
  5
3A3
  8
0
  6
BYLAYER
 62
  256
 10
-20.09999999999998
 20
1.999999999999982
 40
0.2499999999999993
 50
90
 51
180.0000000000003
  0
LINE
  5
3A4
  8
0
  6
BYLAYER
 62
  256
 10
-20.09999999999998
 20
2.249999999999981
 11
-19.39999999999998
 21
2.24999999999998
  0
ARC
  5
3A5
  8
0
  6
BYLAYER
 62
  256
 10
-19.39999999999998
 20
1.999999999999982
 40
0.2499999999999979
 50
359.9999999999997
 51
89.99999999999919
  0
LINE
  5
3A6
  8
0
  6
BYLAYER
 62
  256
 10
-19.14999999999999
 20
1.999999999999981
 11
-19.14999999999998
 21
1.349999999999976
  0
ARC
  5
3A7
  8
0
  6
BYLAYER
 62
  256
 10
-19.39999999999998
 20
1.349999999999974
 40
0.2499999999999981
 50
270.0000000000008
 51
4.579998741307465e-013
  0
LINE
  5
3A8
  8
0
  6
BYLAYER
 62
  256
 10
-19.39999999999998
 20
1.099999999999976
 11
-20.09999999999998
 21
1.099999999999975
  0
ARC
  5
3A9
  8
0
  6
BYLAYER
 62
  256
 10
-24.59999999999998
 20
8.899999999999984
 40
0.2499999999999991
 50
180
 51
270
  0
LINE
  5
3AA
  8
0
  6
BYLAYER
 62
  256
 10
-24.84999999999998
 20
8.899999999999984
 11
-24.84999999999997
 21
9.549999999999997
  0
ARC
  5
3AB
  8
0
  6
BYLAYER
 62
  256
 10
-24.59999999999998
 20
9.550000000000002
 40
0.2499999999999864
 50
89.99999999999919
 51
180.0000000000012
  0
LINE
  5
3AC
  8
0
  6
BYLAYER
 62
  256
 10
-24.59999999999998
 20
9.799999999999988
 11
-23.89999999999998
 21
9.79999999999999
  0
ARC
  5
3AD
  8
0
  6
BYLAYER
 62
  256
 10
-23.89999999999998
 20
9.549999999999992
 40
0.2499999999999984
 50
359.9999999999992
 51
90.00000000000163
  0
LINE
  5
3AE
  8
0
  6
BYLAYER
 62
  256
 10
-23.64999999999998
 20
9.549999999999988
 11
-23.64999999999998
 21
8.899999999999984
  0
ARC
  5
3AF
  8
0
  6
BYLAYER
 62
  256
 10
-23.89999999999998
 20
8.899999999999983
 40
0.2499999999999988
 50
270.0000000000008
 51
4.071109992273301e-013
  0
LINE
  5
3B0
  8
0
  6
BYLAYER
 62
  256
 10
-23.89999999999997
 20
8.649999999999984
 11
-24.59999999999998
 21
8.649999999999986
  0
ARC
  5
3B1
  8
0
  6
BYLAYER
 62
  256
 10
-24.59999999999999
 20
33.89999999999999
 40
0.2500000000000001
 50
180
 51
270
  0
LINE
  5
3B2
  8
0
  6
BYLAYER
 62
  256
 10
-24.84999999999999
 20
33.89999999999999
 11
-24.84999999999998
 21
34.55
  0
ARC
  5
3B3
  8
0
  6
BYLAYER
 62
  256
 10
-24.59999999999998
 20
34.55
 40
0.2500000000000009
 50
90.00000000000163
 51
180
  0
LINE
  5
3B4
  8
0
  6
BYLAYER
 62
  256
 10
-24.59999999999999
 20
34.8
 11
-23.89999999999998
 21
34.8
  0
ARC
  5
3B5
  8
0
  6
BYLAYER
 62
  256
 10
-23.89999999999998
 20
34.55
 40
0.2500000000000001
 50
0
 51
90
  0
LINE
  5
3B6
  8
0
  6
BYLAYER
 62
  256
 10
-23.64999999999998
 20
34.55
 11
-23.64999999999998
 21
33.89999999999999
  0
ARC
  5
3B7
  8
0
  6
BYLAYER
 62
  256
 10
-23.89999999999998
 20
33.89999999999998
 40
0.2499999999999969
 50
269.9999999999992
 51
1.628443996909321e-012
  0
LINE
  5
3B8
  8
0
  6
BYLAYER
 62
  256
 10
-23.89999999999998
 20
33.64999999999998
 11
-24.59999999999999
 21
33.64999999999999
  0
LINE
  5
3B9
  8
0
  6
BYLAYER
 62
  256
 10
-21.3
 20
39.3
 11
-22.69999999999999
 21
39.3
  0
LINE
  5
3BA
  8
0
  6
BYLAYER
 62
  256
 10
-22.69999999999999
 20
39.3
 11
-22.69999999999999
 21
38.69999999999998
  0
LINE
  5
3BB
  8
0
  6
BYLAYER
 62
  256
 10
-22.69999999999999
 20
38.69999999999998
 11
-21.29999999999999
 21
38.69999999999998
  0
LINE
  5
3BC
  8
0
  6
BYLAYER
 62
  256
 10
-21.29999999999999
 20
38.69999999999998
 11
-21.3
 21
39.3
  0
LINE
  5
3BD
  8
0
  6
BYLAYER
 62
  256
 10
20.35000000000002
 20
46.4
 11
20.35000000000002
 21
47.05
  0
ARC
  5
3BE
  8
0
  6
BYLAYER
 62
  256
 10
20.10000000000001
 20
47.04999999999999
 40
0.250000000000004
 50
1.628443996909321e-012
 51
90
  0
LINE
  5
3BF
  8
0
  6
BYLAYER
 62
  256
 10
20.10000000000001
 20
47.3
 11
19.40000000000001
 21
47.3
  0
ARC
  5
3C0
  8
0
  6
BYLAYER
 62
  256
 10
19.40000000000002
 20
47.05
 40
0.2500000000000007
 50
90.00000000000163
 51
179.9999999999984
  0
LINE
  5
3C1
  8
0
  6
BYLAYER
 62
  256
 10
19.15000000000002
 20
47.05000000000001
 11
19.15000000000001
 21
46.4
  0
ARC
  5
3C2
  8
0
  6
BYLAYER
 62
  256
 10
19.40000000000003
 20
46.4
 40
0.2500000000000124
 50
180
 51
269.9999999999968
  0
LINE
  5
3C3
  8
0
  6
BYLAYER
 62
  256
 10
19.40000000000001
 20
46.14999999999998
 11
20.10000000000002
 21
46.14999999999999
  0
ARC
  5
3C4
  8
0
  6
BYLAYER
 62
  256
 10
20.1
 20
46.4
 40
0.2500000000000124
 50
270.0000000000032
 51
0
  0
LINE
  5
3C5
  8
0
  6
BYLAYER
 62
  256
 10
23.90000000000001
 20
46.14999999999999
 11
24.60000000000001
 21
46.14999999999999
  0
ARC
  5
3C6
  8
0
  6
BYLAYER
 62
  256
 10
24.59999999999999
 20
46.40000000000001
 40
0.2500000000000142
 50
270.0000000000032
 51
359.9999999999984
  0
LINE
  5
3C7
  8
0
  6
BYLAYER
 62
  256
 10
24.85000000000001
 20
46.4
 11
24.85000000000001
 21
47.05
  0
ARC
  5
3C8
  8
0
  6
BYLAYER
 62
  256
 10
24.60000000000001
 20
47.05
 40
0.2499999999999956
 50
359.9999999999984
 51
90.00000000000081
  0
LINE
  5
3C9
  8
0
  6
BYLAYER
 62
  256
 10
24.60000000000001
 20
47.3
 11
23.90000000000001
 21
47.3
  0
ARC
  5
3CA
  8
0
  6
BYLAYER
 62
  256
 10
23.90000000000002
 20
47.05
 40
0.250000000000004
 50
90.00000000000244
 51
180
  0
LINE
  5
3CB
  8
0
  6
BYLAYER
 62
  256
 10
23.65000000000002
 20
47.05
 11
23.65000000000001
 21
46.4
  0
ARC
  5
3CC
  8
0
  6
BYLAYER
 62
  256
 10
23.90000000000003
 20
46.4
 40
0.2500000000000129
 50
180
 51
269.9999999999959
  0
LINE
  5
3CD
  8
0
  6
BYLAYER
 62
  256
 10
24.85000000000001
 20
38.84999999999998
 11
24.85000000000001
 21
39.49999999999999
  0
ARC
  5
3CE
  8
0
  6
BYLAYER
 62
  256
 10
24.60000000000001
 20
39.49999999999999
 40
0.2500000000000001
 50
0
 51
90
  0
LINE
  5
3CF
  8
0
  6
BYLAYER
 62
  256
 10
24.60000000000001
 20
39.74999999999999
 11
23.90000000000001
 21
39.74999999999999
  0
ARC
  5
3D0
  8
0
  6
BYLAYER
 62
  256
 10
23.90000000000001
 20
39.49999999999999
 40
0.2499999999999982
 50
90
 51
180
  0
LINE
  5
3D1
  8
0
  6
BYLAYER
 62
  256
 10
23.65000000000001
 20
39.49999999999999
 11
23.65000000000002
 21
38.84999999999998
  0
ARC
  5
3D2
  8
0
  6
BYLAYER
 62
  256
 10
23.90000000000001
 20
38.84999999999997
 40
0.2499999999999938
 50
179.9999999999984
 51
270.0000000000008
  0
LINE
  5
3D3
  8
0
  6
BYLAYER
 62
  256
 10
23.90000000000001
 20
38.59999999999998
 11
24.60000000000001
 21
38.59999999999998
  0
ARC
  5
3D4
  8
0
  6
BYLAYER
 62
  256
 10
24.60000000000001
 20
38.84999999999998
 40
0.2500000000000001
 50
270
 51
0
  0
LINE
  5
3D5
  8
0
  6
BYLAYER
 62
  256
 10
19.40000000000001
 20
38.59999999999998
 11
20.10000000000001
 21
38.59999999999998
  0
ARC
  5
3D6
  8
0
  6
BYLAYER
 62
  256
 10
20.10000000000002
 20
38.84999999999998
 40
0.2500000000000018
 50
269.9999999999992
 51
0
  0
LINE
  5
3D7
  8
0
  6
BYLAYER
 62
  256
 10
20.35000000000002
 20
38.84999999999998
 11
20.35000000000001
 21
39.49999999999999
  0
ARC
  5
3D8
  8
0
  6
BYLAYER
 62
  256
 10
20.10000000000001
 20
39.49999999999999
 40
0.2499999999999982
 50
0
 51
89.99999999999919
  0
LINE
  5
3D9
  8
0
  6
BYLAYER
 62
  256
 10
20.10000000000001
 20
39.74999999999999
 11
19.40000000000001
 21
39.74999999999999
  0
ARC
  5
3DA
  8
0
  6
BYLAYER
 62
  256
 10
19.40000000000001
 20
39.49999999999999
 40
0.2500000000000001
 50
90
 51
180
  0
LINE
  5
3DB
  8
0
  6
BYLAYER
 62
  256
 10
19.15000000000001
 20
39.49999999999999
 11
19.15000000000001
 21
38.84999999999998
  0
ARC
  5
3DC
  8
0
  6
BYLAYER
 62
  256
 10
19.40000000000001
 20
38.84999999999998
 40
0.2500000000000001
 50
180
 51
270
  0
LINE
  5
3DD
  8
0
  6
BYLAYER
 62
  256
 10
22.60000000000001
 20
46.4
 11
22.60000000000001
 21
47.05
  0
ARC
  5
3DE
  8
0
  6
BYLAYER
 62
  256
 10
22.35
 20
47.04999999999999
 40
0.250000000000004
 50
1.628443996909321e-012
 51
89.99999999999919
  0
LINE
  5
3DF
  8
0
  6
BYLAYER
 62
  256
 10
22.35000000000001
 20
47.3
 11
21.65000000000001
 21
47.3
  0
ARC
  5
3E0
  8
0
  6
BYLAYER
 62
  256
 10
21.65000000000001
 20
47.05000000000002
 40
0.2499999999999911
 50
90
 51
180.0000000000016
  0
LINE
  5
3E1
  8
0
  6
BYLAYER
 62
  256
 10
21.40000000000002
 20
47.05000000000001
 11
21.40000000000001
 21
46.4
  0
ARC
  5
3E2
  8
0
  6
BYLAYER
 62
  256
 10
21.65000000000002
 20
46.40000000000001
 40
0.2500000000000053
 50
180.0000000000033
 51
269.9999999999984
  0
LINE
  5
3E3
  8
0
  6
BYLAYER
 62
  256
 10
21.65000000000001
 20
46.15000000000001
 11
22.35000000000001
 21
46.14999999999999
  0
ARC
  5
3E4
  8
0
  6
BYLAYER
 62
  256
 10
22.34999999999999
 20
46.40000000000001
 40
0.2500000000000164
 50
270.0000000000032
 51
359.9999999999984
  0
ARC
  5
3E5
  8
0
  6
BYLAYER
 62
  256
 10
-8.149999999999986
 20
0.1999999999999795
 40
0.2500000000000023
 50
3.053332494204976e-013
 51
89.99999999999959
  0
LINE
  5
3E6
  8
0
  6
BYLAYER
 62
  256
 10
-7.899999999999983
 20
0.1999999999999808
 11
-7.899999999999986
 21
-0.4500000000000239
  0
ARC
  5
3E7
  8
0
  6
BYLAYER
 62
  256
 10
-8.149999999999984
 20
-0.4500000000000242
 40
0.2499999999999997
 50
270
 51
6.361109362927034e-014
  0
LINE
  5
3E8
  8
0
  6
BYLAYER
 62
  256
 10
-8.149999999999984
 20
-0.7000000000000239
 11
-8.849999999999984
 21
-0.7000000000000252
  0
ARC
  5
3E9
  8
0
  6
BYLAYER
 62
  256
 10
-8.849999999999982
 20
-0.4500000000000234
 40
0.2500000000000018
 50
180.0000000000001
 51
269.9999999999996
  0
LINE
  5
3EA
  8
0
  6
BYLAYER
 62
  256
 10
-9.099999999999984
 20
-0.4500000000000238
 11
-9.099999999999984
 21
0.1999999999999808
  0
ARC
  5
3EB
  8
0
  6
BYLAYER
 62
  256
 10
-8.849999999999982
 20
0.1999999999999796
 40
0.2500000000000014
 50
90.00000000000041
 51
179.9999999999997
  0
LINE
  5
3EC
  8
0
  6
BYLAYER
 62
  256
 10
-8.849999999999984
 20
0.449999999999981
 11
-8.149999999999984
 21
0.4499999999999818
  0
ARC
  5
3ED
  8
0
  6
BYLAYER
 62
  256
 10
-22.34999999999998
 20
-0.4500000000000262
 40
0.2500000000000022
 50
179.9999999999995
 51
269.9999999999992
  0
LINE
  5
3EE
  8
0
  6
BYLAYER
 62
  256
 10
-22.59999999999999
 20
-0.4500000000000239
 11
-22.59999999999998
 21
0.1999999999999808
  0
ARC
  5
3EF
  8
0
  6
BYLAYER
 62
  256
 10
-22.34999999999999
 20
0.199999999999987
 40
0.2499999999999941
 50
90
 51
180.0000000000014
  0
LINE
  5
3F0
  8
0
  6
BYLAYER
 62
  256
 10
-22.34999999999999
 20
0.449999999999981
 11
-21.64999999999998
 21
0.4499999999999853
  0
ARC
  5
3F1
  8
0
  6
BYLAYER
 62
  256
 10
-21.64999999999999
 20
0.1999999999999813
 40
0.2500000000000041
 50
359.9999999999999
 51
89.99999999999919
  0
LINE
  5
3F2
  8
0
  6
BYLAYER
 62
  256
 10
-21.39999999999998
 20
0.1999999999999808
 11
-21.39999999999999
 21
-0.4500000000000239
  0
ARC
  5
3F3
  8
0
  6
BYLAYER
 62
  256
 10
-21.64999999999998
 20
-0.4500000000000282
 40
0.2499999999999958
 50
269.9999999999992
 51
9.66888623164909e-013
  0
LINE
  5
3F4
  8
0
  6
BYLAYER
 62
  256
 10
-21.64999999999998
 20
-0.7000000000000239
 11
-22.34999999999999
 21
-0.7000000000000284
  0
ARC
  5
3F5
  8
0
  6
BYLAYER
 62
  256
 10
-19.84999999999998
 20
-0.4500000000000226
 40
0.2499999999999996
 50
180.0000000000003
 51
270
  0
LINE
  5
3F6
  8
0
  6
BYLAYER
 62
  256
 10
-20.09999999999998
 20
-0.4500000000000239
 11
-20.09999999999998
 21
0.1999999999999808
  0
ARC
  5
3F7
  8
0
  6
BYLAYER
 62
  256
 10
-19.84999999999998
 20
0.1999999999999793
 40
0.2500000000000018
 50
90
 51
179.9999999999997
  0
LINE
  5
3F8
  8
0
  6
BYLAYER
 62
  256
 10
-19.84999999999998
 20
0.4499999999999811
 11
-19.14999999999998
 21
0.4499999999999822
  0
ARC
  5
3F9
  8
0
  6
BYLAYER
 62
  256
 10
-19.14999999999998
 20
0.1999999999999804
 40
0.2500000000000018
 50
8.269442171805144e-014
 51
90
  0
LINE
  5
3FA
  8
0
  6
BYLAYER
 62
  256
 10
-18.89999999999998
 20
0.1999999999999808
 11
-18.89999999999998
 21
-0.4500000000000239
  0
ARC
  5
3FB
  8
0
  6
BYLAYER
 62
  256
 10
-19.14999999999998
 20
-0.4500000000000239
 40
0.2500000000000001
 50
270
 51
0
  0
LINE
  5
3FC
  8
0
  6
BYLAYER
 62
  256
 10
-19.14999999999998
 20
-0.7000000000000239
 11
-19.84999999999998
 21
-0.7000000000000222
  0
ARC
  5
3FD
  8
0
  6
BYLAYER
 62
  256
 10
-10.64999999999998
 20
0.1999999999999823
 40
0.2500000000000016
 50
359.9999999999997
 51
90
  0
LINE
  5
3FE
  8
0
  6
BYLAYER
 62
  256
 10
-10.39999999999998
 20
0.1999999999999807
 11
-10.39999999999998
 21
-0.4500000000000238
  0
ARC
  5
3FF
  8
0
  6
BYLAYER
 62
  256
 10
-10.64999999999999
 20
-0.4500000000000181
 40
0.2500000000000058
 50
270.0000000000012
 51
359.9999999999987
  0
LINE
  5
400
  8
0
  6
BYLAYER
 62
  256
 10
-10.64999999999998
 20
-0.7000000000000239
 11
-11.34999999999998
 21
-0.700000000000027
  0
ARC
  5
401
  8
0
  6
BYLAYER
 62
  256
 10
-11.34999999999998
 20
-0.4500000000000255
 40
0.2500000000000016
 50
179.9999999999996
 51
270.0000000000004
  0
LINE
  5
402
  8
0
  6
BYLAYER
 62
  256
 10
-11.59999999999999
 20
-0.4500000000000239
 11
-11.59999999999998
 21
0.1999999999999808
  0
ARC
  5
403
  8
0
  6
BYLAYER
 62
  256
 10
-11.34999999999998
 20
0.1999999999999809
 40
0.2500000000000001
 50
90
 51
180
  0
LINE
  5
404
  8
0
  6
BYLAYER
 62
  256
 10
-11.34999999999998
 20
0.449999999999981
 11
-10.64999999999998
 21
0.4499999999999839
  0
ARC
  5
405
  8
0
  6
BYLAYER
 62
  256
 10
-24.14999999999998
 20
-0.4500000000000245
 40
0.2499999999999995
 50
270
 51
1.526666247102488e-013
  0
LINE
  5
406
  8
0
  6
BYLAYER
 62
  256
 10
-24.14999999999998
 20
-0.7000000000000239
 11
-24.84999999999999
 21
-0.7000000000000188
  0
ARC
  5
407
  8
0
  6
BYLAYER
 62
  256
 10
-24.84999999999998
 20
-0.4500000000000206
 40
0.2499999999999982
 50
180.0000000000008
 51
269.9999999999984
  0
LINE
  5
408
  8
0
  6
BYLAYER
 62
  256
 10
-25.09999999999998
 20
-0.4500000000000239
 11
-25.09999999999998
 21
0.1999999999999807
  0
ARC
  5
409
  8
0
  6
BYLAYER
 62
  256
 10
-24.84999999999999
 20
0.1999999999999832
 40
0.2499999999999978
 50
90
 51
180.0000000000006
  0
LINE
  5
40A
  8
0
  6
BYLAYER
 62
  256
 10
-24.84999999999999
 20
0.449999999999981
 11
-24.14999999999998
 21
0.4499999999999757
  0
ARC
  5
40B
  8
0
  6
BYLAYER
 62
  256
 10
-24.14999999999999
 20
0.1999999999999757
 40
0.2500000000000001
 50
1.164083013415647e-012
 51
89.99999999999919
  0
LINE
  5
40C
  8
0
  6
BYLAYER
 62
  256
 10
-23.89999999999999
 20
0.1999999999999808
 11
-23.89999999999998
 21
-0.4500000000000238
  0
ARC
  5
40D
  8
0
  6
BYLAYER
 62
  256
 10
-13.14999999999998
 20
0.1999999999999814
 40
0.2500000000000009
 50
359.9999999999999
 51
89.99999999999959
  0
LINE
  5
40E
  8
0
  6
BYLAYER
 62
  256
 10
-12.89999999999998
 20
0.1999999999999809
 11
-12.89999999999998
 21
-0.4500000000000239
  0
ARC
  5
40F
  8
0
  6
BYLAYER
 62
  256
 10
-13.14999999999998
 20
-0.4500000000000248
 40
0.2499999999999991
 50
270
 51
1.90833280887811e-013
  0
LINE
  5
410
  8
0
  6
BYLAYER
 62
  256
 10
-13.14999999999998
 20
-0.7000000000000239
 11
-13.84999999999998
 21
-0.7000000000000245
  0
ARC
  5
411
  8
0
  6
BYLAYER
 62
  256
 10
-13.84999999999998
 20
-0.4500000000000207
 40
0.2500000000000037
 50
180.0000000000007
 51
269.9999999999992
  0
LINE
  5
412
  8
0
  6
BYLAYER
 62
  256
 10
-14.09999999999998
 20
-0.4500000000000239
 11
-14.09999999999998
 21
0.1999999999999808
  0
ARC
  5
413
  8
0
  6
BYLAYER
 62
  256
 10
-13.84999999999998
 20
0.1999999999999774
 40
0.2500000000000036
 50
90.00000000000081
 51
179.9999999999992
  0
LINE
  5
414
  8
0
  6
BYLAYER
 62
  256
 10
-13.84999999999998
 20
0.449999999999981
 11
-13.14999999999998
 21
0.4499999999999822
  0
LINE
  5
415
  8
0
  6
BYLAYER
 62
  256
 10
21.30000000000001
 20
13.69999999999998
 11
22.70000000000001
 21
13.69999999999998
  0
LINE
  5
416
  8
0
  6
BYLAYER
 62
  256
 10
22.70000000000001
 20
13.69999999999998
 11
22.70000000000001
 21
14.29999999999999
  0
LINE
  5
417
  8
0
  6
BYLAYER
 62
  256
 10
22.70000000000001
 20
14.29999999999999
 11
21.30000000000001
 21
14.29999999999999
  0
LINE
  5
418
  8
0
  6
BYLAYER
 62
  256
 10
21.30000000000001
 20
14.29999999999999
 11
21.30000000000001
 21
13.69999999999998
  0
LINE
  5
419
  8
0
  6
BYLAYER
 62
  256
 10
10.30000000000001
 20
26.19999999999999
 11
11.70000000000001
 21
26.19999999999999
  0
LINE
  5
41A
  8
0
  6
BYLAYER
 62
  256
 10
11.70000000000001
 20
26.19999999999999
 11
11.70000000000001
 21
26.8
  0
LINE
  5
41B
  8
0
  6
BYLAYER
 62
  256
 10
11.70000000000001
 20
26.8
 11
10.30000000000001
 21
26.8
  0
LINE
  5
41C
  8
0
  6
BYLAYER
 62
  256
 10
10.30000000000001
 20
26.8
 11
10.30000000000001
 21
26.19999999999999
  0
LINE
  5
41D
  8
0
  6
BYLAYER
 62
  256
 10
-0.699999999999994
 20
38.69999999999998
 11
0.7000000000000073
 21
38.69999999999998
  0
LINE
  5
41E
  8
0
  6
BYLAYER
 62
  256
 10
0.7000000000000073
 20
38.69999999999998
 11
0.7000000000000028
 21
39.3
  0
LINE
  5
41F
  8
0
  6
BYLAYER
 62
  256
 10
0.7000000000000028
 20
39.3
 11
-0.699999999999994
 21
39.3
  0
LINE
  5
420
  8
0
  6
BYLAYER
 62
  256
 10
-0.699999999999994
 20
39.3
 11
-0.699999999999994
 21
38.69999999999998
  0
LINE
  5
421
  8
0
  6
BYLAYER
 62
  256
 10
-11.7
 20
26.19999999999999
 11
-10.3
 21
26.19999999999999
  0
LINE
  5
422
  8
0
  6
BYLAYER
 62
  256
 10
-10.3
 20
26.19999999999999
 11
-10.3
 21
26.8
  0
LINE
  5
423
  8
0
  6
BYLAYER
 62
  256
 10
-10.3
 20
26.8
 11
-11.7
 21
26.8
  0
LINE
  5
424
  8
0
  6
BYLAYER
 62
  256
 10
-11.7
 20
26.8
 11
-11.7
 21
26.19999999999999
  0
LINE
  5
425
  8
0
  6
BYLAYER
 62
  256
 10
-0.699999999999994
 20
26.19999999999999
 11
0.7000000000000117
 21
26.19999999999999
  0
LINE
  5
426
  8
0
  6
BYLAYER
 62
  256
 10
0.7000000000000117
 20
26.19999999999999
 11
0.7000000000000073
 21
26.8
  0
LINE
  5
427
  8
0
  6
BYLAYER
 62
  256
 10
0.7000000000000073
 20
26.8
 11
-0.699999999999994
 21
26.8
  0
LINE
  5
428
  8
0
  6
BYLAYER
 62
  256
 10
-0.699999999999994
 20
26.8
 11
-0.699999999999994
 21
26.19999999999999
  0
LINE
  5
429
  8
0
  6
BYLAYER
 62
  256
 10
-11.7
 20
13.69999999999998
 11
-10.29999999999999
 21
13.69999999999998
  0
LINE
  5
42A
  8
0
  6
BYLAYER
 62
  256
 10
-10.29999999999999
 20
13.69999999999998
 11
-10.29999999999999
 21
14.29999999999999
  0
LINE
  5
42B
  8
0
  6
BYLAYER
 62
  256
 10
-10.29999999999999
 20
14.29999999999999
 11
-11.7
 21
14.29999999999999
  0
LINE
  5
42C
  8
0
  6
BYLAYER
 62
  256
 10
-11.7
 20
14.29999999999999
 11
-11.7
 21
13.69999999999998
  0
LINE
  5
42D
  8
0
  6
BYLAYER
 62
  256
 10
10.3
 20
38.69999999999998
 11
11.70000000000001
 21
38.69999999999998
  0
LINE
  5
42E
  8
0
  6
BYLAYER
 62
  256
 10
11.70000000000001
 20
38.69999999999998
 11
11.7
 21
39.3
  0
LINE
  5
42F
  8
0
  6
BYLAYER
 62
  256
 10
11.7
 20
39.3
 11
10.3
 21
39.3
  0
LINE
  5
430
  8
0
  6
BYLAYER
 62
  256
 10
10.3
 20
39.3
 11
10.3
 21
38.69999999999998
  0
LINE
  5
431
  8
0
  6
BYLAYER
 62
  256
 10
10.30000000000001
 20
13.69999999999998
 11
11.70000000000001
 21
13.69999999999998
  0
LINE
  5
432
  8
0
  6
BYLAYER
 62
  256
 10
11.70000000000001
 20
13.69999999999998
 11
11.70000000000001
 21
14.29999999999999
  0
LINE
  5
433
  8
0
  6
BYLAYER
 62
  256
 10
11.70000000000001
 20
14.29999999999999
 11
10.30000000000001
 21
14.29999999999999
  0
LINE
  5
434
  8
0
  6
BYLAYER
 62
  256
 10
10.30000000000001
 20
14.29999999999999
 11
10.30000000000001
 21
13.69999999999998
  0
LINE
  5
435
  8
0
  6
BYLAYER
 62
  256
 10
-0.6999999999999895
 20
1.199999999999979
 11
0.7000000000000117
 21
1.199999999999979
  0
LINE
  5
436
  8
0
  6
BYLAYER
 62
  256
 10
0.7000000000000117
 20
1.199999999999979
 11
0.7000000000000117
 21
1.799999999999989
  0
LINE
  5
437
  8
0
  6
BYLAYER
 62
  256
 10
0.7000000000000117
 20
1.799999999999989
 11
-0.6999999999999895
 21
1.799999999999989
  0
LINE
  5
438
  8
0
  6
BYLAYER
 62
  256
 10
-0.6999999999999895
 20
1.799999999999989
 11
-0.6999999999999895
 21
1.199999999999979
  0
LINE
  5
439
  8
0
  6
BYLAYER
 62
  256
 10
21.30000000000001
 20
26.19999999999999
 11
22.70000000000001
 21
26.19999999999999
  0
LINE
  5
43A
  8
0
  6
BYLAYER
 62
  256
 10
22.70000000000001
 20
26.19999999999999
 11
22.70000000000001
 21
26.8
  0
LINE
  5
43B
  8
0
  6
BYLAYER
 62
  256
 10
22.70000000000001
 20
26.8
 11
21.30000000000001
 21
26.8
  0
LINE
  5
43C
  8
0
  6
BYLAYER
 62
  256
 10
21.30000000000001
 20
26.8
 11
21.30000000000001
 21
26.19999999999999
  0
LINE
  5
43D
  8
0
  6
BYLAYER
 62
  256
 10
-0.699999999999994
 20
13.69999999999998
 11
0.7000000000000117
 21
13.69999999999998
  0
LINE
  5
43E
  8
0
  6
BYLAYER
 62
  256
 10
0.7000000000000117
 20
13.69999999999998
 11
0.7000000000000073
 21
14.29999999999999
  0
LINE
  5
43F
  8
0
  6
BYLAYER
 62
  256
 10
0.7000000000000073
 20
14.29999999999999
 11
-0.699999999999994
 21
14.29999999999999
  0
LINE
  5
440
  8
0
  6
BYLAYER
 62
  256
 10
-0.699999999999994
 20
14.29999999999999
 11
-0.699999999999994
 21
13.69999999999998
  0
LINE
  5
441
  8
0
  6
BYLAYER
 62
  256
 10
-11.7
 20
38.69999999999998
 11
-10.3
 21
38.69999999999998
  0
LINE
  5
442
  8
0
  6
BYLAYER
 62
  256
 10
-10.3
 20
38.69999999999998
 11
-10.3
 21
39.3
  0
LINE
  5
443
  8
0
  6
BYLAYER
 62
  256
 10
-10.3
 20
39.3
 11
-11.7
 21
39.3
  0
LINE
  5
444
  8
0
  6
BYLAYER
 62
  256
 10
-11.7
 20
39.3
 11
-11.7
 21
38.69999999999998
  0
LINE
  5
445
  8
0
  6
BYLAYER
 62
  256
 10
-11.7
 20
1.199999999999979
 11
-10.29999999999999
 21
1.199999999999979
  0
LINE
  5
446
  8
0
  6
BYLAYER
 62
  256
 10
-10.29999999999999
 20
1.199999999999979
 11
-10.29999999999999
 21
1.799999999999989
  0
LINE
  5
447
  8
0
  6
BYLAYER
 62
  256
 10
-10.29999999999999
 20
1.799999999999989
 11
-11.7
 21
1.799999999999989
  0
LINE
  5
448
  8
0
  6
BYLAYER
 62
  256
 10
-11.7
 20
1.799999999999989
 11
-11.7
 21
1.199999999999979
  0
LINE
  5
449
  8
0
  6
BYLAYER
 62
  256
 10
21.3
 20
38.69999999999998
 11
22.70000000000001
 21
38.69999999999998
  0
LINE
  5
44A
  8
0
  6
BYLAYER
 62
  256
 10
22.70000000000001
 20
38.69999999999998
 11
22.7
 21
39.3
  0
LINE
  5
44B
  8
0
  6
BYLAYER
 62
  256
 10
22.7
 20
39.3
 11
21.3
 21
39.3
  0
LINE
  5
44C
  8
0
  6
BYLAYER
 62
  256
 10
21.3
 20
39.3
 11
21.3
 21
38.69999999999998
  0
LINE
  5
44D
  8
0
  6
BYLAYER
 62
  256
 10
10.30000000000001
 20
1.199999999999979
 11
11.70000000000001
 21
1.199999999999979
  0
LINE
  5
44E
  8
0
  6
BYLAYER
 62
  256
 10
11.70000000000001
 20
1.199999999999979
 11
11.70000000000001
 21
1.799999999999989
  0
LINE
  5
44F
  8
0
  6
BYLAYER
 62
  256
 10
11.70000000000001
 20
1.799999999999989
 11
10.30000000000001
 21
1.799999999999989
  0
LINE
  5
450
  8
0
  6
BYLAYER
 62
  256
 10
10.30000000000001
 20
1.799999999999989
 11
10.30000000000001
 21
1.199999999999979
  0
ENDSEC
  0
EOF
