0
SECTION
2
HEADER
9
$INSUNITS
70
4
9
$ACADVER
1
AC1014
9
$HANDSEED
5
FFFF
0
ENDSEC
0
SECTION
2
TABLES
0
TABLE
2
VPORT
5
8
100
AcDbSymbolTable
0
ENDTAB
0
TABLE
2
LTYPE
5
5
100
AcDbSymbolTable
0
LTYPE
5
14
100
AcDbSymbolTableRecord
100
AcDbLinetypeTableRecord
2
BYBLOCK
70
0
0
LTYPE
5
15
100
AcDbSymbolTableRecord
100
AcDbLinetypeTableRecord
2
BYLAYER
70
0
0
ENDTAB
0
TABLE
2
LAYER
5
2
100
AcDbSymbolTable
70
2
0
LAYER
5
50
100
AcDbSymbolTableRecord
100
AcDbLayerTableRecord
2
0
70
0
6
CONTINUOUS
0
ENDTAB
0
TABLE
2
STYLE
5
3
100
AcDbSymbolTable
70
1
0
STYLE
5
11
100
AcDbSymbolTableRecord
100
AcDbTextStyleTableRecord
2
STANDARD
70
0
0
ENDTAB
0
TABLE
2
VIEW
5
6
100
AcDbSymbolTable
70
0
0
ENDTAB
0
TABLE
2
UCS
5
7
100
AcDbSymbolTable
70
0
0
ENDTAB
0
TABLE
2
APPID
5
9
100
AcDbSymbolTable
70
2
0
APPID
5
12
100
AcDbSymbolTableRecord
100
AcDbRegAppTableRecord
2
ACAD
70
0
0
ENDTAB
0
TABLE
2
DIMSTYLE
5
A
100
AcDbSymbolTable
70
1
0
ENDTAB
0
TABLE
2
BLOCK_RECORD
5
1
100
AcDbSymbolTable
70
1
0
BLOCK_RECORD
5
1F
100
AcDbSymbolTableRecord
100
AcDbBlockTableRecord
2
*MODEL_SPACE
0
BLOCK_RECORD
5
1B
100
AcDbSymbolTableRecord
100
AcDbBlockTableRecord
2
*PAPER_SPACE
0
ENDTAB
0
ENDSEC
0
SECTION
2
BLOCKS
0
BLOCK
5
20
100
AcDbEntity
100
AcDbBlockBegin
2
*MODEL_SPACE
0
ENDBLK
5
21
100
AcDbEntity
100
AcDbBlockEnd
0
BLOCK
5
1C
100
AcDbEntity
100
AcDbBlockBegin
2
*PAPER_SPACE
0
ENDBLK
5
1D
100
AcDbEntity
100
AcDbBlockEnd
0
ENDSEC
0
SECTION
2
ENTITIES
0
LWPOLYLINE
5
100
100
AcDbEntity
8
0
100
AcDbPolyline
90
16
70
1
43
0.0
10
-4.99999999999996
20
-1.0999999850988389
10
-30.499999999999993
20
-1.0999999850988385
10
-30.499999999999993
20
42.118798147339696
10
-30.000000000000007
20
42.118798147339696
10
-30.000000000000014
20
50.499999999999986
10
-29.786912755519882
20
51.39829995222108
42
-0.28349390344854436
10
-28.000000000000007
20
52.5
10
27.999999999999989
20
52.499999999999993
10
28.844169865659573
20
52.31311258280126
42
-0.29163301886560034
10
29.999999999999996
20
50.499999999999986
10
29.999999999999996
20
44.118798147339703
10
30.499999999999993
20
44.118798147339703
10
30.499999999999989
20
-5.8812018526602898
10
30
20
-5.8812018526602898
10
30
20
-12.262403705320581
10
-5
20
-12.26240370532059
0
LWPOLYLINE
5
101
100
AcDbEntity
8
0
100
AcDbPolyline
90
4
70
1
43
0.0
10
22.70000000000001
20
1.7999999999999894
10
21.300000000000011
20
1.7999999999999894
10
21.300000000000011
20
1.1999999999999789
10
22.700000000000014
20
1.1999999999999789
0
LWPOLYLINE
5
102
100
AcDbEntity
8
0
100
AcDbPolyline
90
8
70
1
43
0.0
10
-24.84999999999998
20
1.9999999999999882
42
-0.41421356237309731
10
-24.59999999999998
20
2.2499999999999885
10
-23.899999999999984
20
2.2499999999999791
42
-0.41421356237309404
10
-23.649999999999984
20
1.9999999999999809
10
-23.649999999999984
20
1.3499999999999761
42
-0.41421356237309404
10
-23.899999999999984
20
1.0999999999999761
10
-24.599999999999987
20
1.0999999999999754
42
-0.41421356237309176
10
-24.84999999999998
20
1.3499999999999761
0
LWPOLYLINE
5
103
100
AcDbEntity
8
0
100
AcDbPolyline
90
8
70
1
43
0.0
10
-22.34999999999998
20
8.6499999999999844
42
-0.41421356237310025
10
-22.599999999999984
20
8.8999999999999915
10
-22.59999999999998
20
9.5499999999999972
42
-0.41421356237310153
10
-22.34999999999998
20
9.7999999999999901
10
-21.649999999999991
20
9.7999999999999901
42
-0.41421356237310281
10
-21.399999999999984
20
9.5499999999999883
10
-21.399999999999984
20
8.8999999999999915
42
-0.41421356237309631
10
-21.649999999999984
20
8.6499999999999915
0
LWPOLYLINE
5
104
100
AcDbEntity
8
0
100
AcDbPolyline
90
8
70
1
43
0.0
10
-20.09999999999998
20
13.599999999999978
42
-0.41421356237309764
10
-20.34999999999998
20
13.84999999999998
10
-20.349999999999984
20
14.499999999999984
42
-0.41421356237309503
10
-20.09999999999998
20
14.749999999999988
10
-19.399999999999981
20
14.749999999999986
42
-0.41421356237309503
10
-19.149999999999984
20
14.499999999999986
10
-19.149999999999984
20
13.84999999999998
42
-0.41421356237309503
10
-19.399999999999981
20
13.59999999999998
0
LWPOLYLINE
5
105
100
AcDbEntity
8
0
100
AcDbPolyline
90
8
70
1
43
0.0
10
-20.349999999999984
20
22.049999999999997
42
-0.41421356237309503
10
-20.099999999999984
20
22.299999999999997
10
-19.399999999999991
20
22.299999999999997
42
-0.41421356237310025
10
-19.149999999999988
20
22.049999999999997
10
-19.149999999999984
20
21.399999999999988
42
-0.41421356237309764
10
-19.399999999999984
20
21.149999999999988
10
-20.099999999999984
20
21.149999999999988
42
-0.41421356237309503
10
-20.349999999999984
20
21.399999999999988
0
LWPOLYLINE
5
106
100
AcDbEntity
8
0
100
AcDbPolyline
90
8
70
1
43
0.0
10
-24.599999999999977
20
21.149999999999988
42
-0.41421356237309503
10
-24.849999999999977
20
21.399999999999988
10
-24.849999999999973
20
22.050000000000001
42
-0.4142135623730846
10
-24.599999999999977
20
22.299999999999997
10
-23.899999999999984
20
22.299999999999997
42
-0.41421356237310025
10
-23.649999999999981
20
22.049999999999997
10
-23.649999999999977
20
21.399999999999988
42
-0.41421356237309503
10
-23.899999999999974
20
21.149999999999988
0
LWPOLYLINE
5
107
100
AcDbEntity
8
0
100
AcDbPolyline
90
8
70
1
43
0.0
10
-24.849999999999991
20
26.999999999999993
42
-0.41421356237310542
10
-24.599999999999991
20
27.249999999999993
10
-23.899999999999984
20
27.249999999999986
42
-0.41421356237308982
10
-23.649999999999988
20
26.999999999999989
10
-23.649999999999988
20
26.34999999999998
42
-0.41421356237310542
10
-23.899999999999988
20
26.09999999999998
10
-24.599999999999987
20
26.09999999999998
42
-0.41421356237311063
10
-24.849999999999991
20
26.34999999999998
0
LWPOLYLINE
5
108
100
AcDbEntity
8
0
100
AcDbPolyline
90
8
70
1
43
0.0
10
-22.349999999999991
20
33.650000000000006
42
-0.41421356237309503
10
-22.599999999999987
20
33.899999999999999
10
-22.599999999999984
20
34.549999999999997
42
-0.4142135623730846
10
-22.349999999999991
20
34.799999999999997
10
-21.649999999999988
20
34.799999999999997
42
-0.41421356237309503
10
-21.399999999999988
20
34.549999999999997
10
-21.399999999999988
20
33.899999999999999
42
-0.41421356237309503
10
-21.649999999999988
20
33.650000000000006
0
LWPOLYLINE
5
109
100
AcDbEntity
8
0
100
AcDbPolyline
90
8
70
1
43
0.0
10
-20.099999999999987
20
38.59999999999998
42
-0.41421356237310542
10
-20.349999999999987
20
38.84999999999998
10
-20.349999999999987
20
39.499999999999986
42
-0.41421356237309503
10
-20.099999999999987
20
39.749999999999986
10
-19.399999999999991
20
39.749999999999986
42
-0.41421356237308982
10
-19.149999999999988
20
39.499999999999986
10
-19.149999999999988
20
38.84999999999998
42
-0.41421356237309764
10
-19.399999999999988
20
38.59999999999998
0
LWPOLYLINE
5
110
100
AcDbEntity
8
0
100
AcDbPolyline
90
8
70
1
43
0.0
10
-20.349999999999998
20
47.049999999999997
42
-0.41421356237309503
10
-20.099999999999994
20
47.300000000000004
10
-19.399999999999991
20
47.300000000000004
42
-0.41421356237310542
10
-19.149999999999991
20
47.049999999999997
10
-19.149999999999988
20
46.399999999999999
42
-0.41421356237307422
10
-19.399999999999991
20
46.149999999999991
10
-20.099999999999994
20
46.150000000000006
42
-0.41421356237310025
10
-20.349999999999994
20
46.399999999999999
0
LWPOLYLINE
5
111
100
AcDbEntity
8
0
100
AcDbPolyline
90
8
70
1
43
0.0
10
-24.599999999999987
20
46.150000000000006
42
-0.41421356237310025
10
-24.849999999999987
20
46.399999999999999
10
-24.849999999999987
20
47.049999999999997
42
-0.41421356237310025
10
-24.599999999999987
20
47.300000000000004
10
-23.899999999999984
20
47.300000000000004
42
-0.41421356237308982
10
-23.649999999999984
20
47.049999999999997
10
-23.649999999999981
20
46.399999999999999
42
-0.41421356237307422
10
-23.899999999999984
20
46.149999999999991
0
LWPOLYLINE
5
112
100
AcDbEntity
8
0
100
AcDbPolyline
90
8
70
1
43
0.0
10
-13.849999999999984
20
1.9999999999999882
42
-0.41421356237309598
10
-13.599999999999985
20
2.2499999999999885
10
-12.899999999999988
20
2.2499999999999827
42
-0.41421356237310314
10
-12.649999999999984
20
1.9999999999999809
10
-12.649999999999984
20
1.3499999999999761
42
-0.41421356237309342
10
-12.899999999999984
20
1.0999999999999761
10
-13.599999999999985
20
1.0999999999999766
42
-0.4142135623730957
10
-13.849999999999984
20
1.3499999999999761
0
LWPOLYLINE
5
113
100
AcDbEntity
8
0
100
AcDbPolyline
90
8
70
1
43
0.0
10
-11.349999999999989
20
8.6499999999999915
42
-0.41421356237309631
10
-11.599999999999987
20
8.8999999999999915
10
-11.59999999999998
20
9.5499999999999972
42
-0.41421356237309503
10
-11.349999999999987
20
9.7999999999999901
10
-10.649999999999986
20
9.7999999999999883
42
-0.41421356237309631
10
-10.399999999999988
20
9.5499999999999883
10
-10.399999999999988
20
8.8999999999999915
42
-0.41421356237309503
10
-10.649999999999986
20
8.6499999999999915
0
LWPOLYLINE
5
114
100
AcDbEntity
8
0
100
AcDbPolyline
90
8
70
1
43
0.0
10
-9.0999999999999837
20
13.59999999999998
42
-0.41421356237309503
10
-9.3499999999999837
20
13.84999999999998
10
-9.3499999999999837
20
14.499999999999984
42
-0.41421356237310153
10
-9.0999999999999837
20
14.749999999999988
10
-8.3999999999999844
20
14.749999999999988
42
-0.41421356237309243
10
-8.1499999999999844
20
14.499999999999986
10
-8.1499999999999844
20
13.84999999999998
42
-0.41421356237309631
10
-8.3999999999999844
20
13.59999999999998
0
LWPOLYLINE
5
115
100
AcDbEntity
8
0
100
AcDbPolyline
90
8
70
1
43
0.0
10
-9.3499999999999872
20
22.049999999999997
42
-0.41421356237309503
10
-9.0999999999999872
20
22.299999999999997
10
-8.3999999999999897
20
22.299999999999997
42
-0.41421356237309503
10
-8.1499999999999879
20
22.049999999999997
10
-8.1499999999999879
20
21.399999999999988
42
-0.41421356237309764
10
-8.3999999999999879
20
21.149999999999988
10
-9.0999999999999872
20
21.149999999999991
42
-0.41421356237309764
10
-9.3499999999999872
20
21.399999999999988
0
LWPOLYLINE
5
116
100
AcDbEntity
8
0
100
AcDbPolyline
90
8
70
1
43
0.0
10
-13.59999999999998
20
21.149999999999991
42
-0.41421356237309764
10
-13.84999999999998
20
21.399999999999988
10
-13.849999999999973
20
22.050000000000001
42
-0.41421356237308204
10
-13.59999999999998
20
22.299999999999997
10
-12.899999999999983
20
22.299999999999997
42
-0.41421356237309503
10
-12.649999999999984
20
22.049999999999997
10
-12.649999999999977
20
21.399999999999988
42
-0.41421356237309764
10
-12.899999999999977
20
21.149999999999988
0
LWPOLYLINE
5
117
100
AcDbEntity
8
0
100
AcDbPolyline
90
8
70
1
43
0.0
10
-13.849999999999994
20
26.999999999999993
42
-0.41421356237309764
10
-13.599999999999993
20
27.249999999999993
10
-12.899999999999991
20
27.249999999999986
42
-0.41421356237309503
10
-12.649999999999991
20
26.999999999999989
10
-12.64999999999999
20
26.34999999999998
42
-0.41421356237309764
10
-12.899999999999991
20
26.09999999999998
10
-13.599999999999991
20
26.099999999999987
42
-0.41421356237310025
10
-13.849999999999991
20
26.34999999999998
0
LWPOLYLINE
5
118
100
AcDbEntity
8
0
100
AcDbPolyline
90
8
70
1
43
0.0
10
-11.349999999999994
20
33.650000000000006
42
-0.41421356237309503
10
-11.599999999999993
20
33.899999999999999
10
-11.599999999999985
20
34.549999999999997
42
-0.41421356237308204
10
-11.349999999999994
20
34.799999999999997
10
-10.649999999999991
20
34.800000000000004
42
-0.41421356237308982
10
-10.399999999999991
20
34.549999999999997
10
-10.399999999999993
20
33.899999999999999
42
-0.41421356237309503
10
-10.649999999999993
20
33.650000000000006
0
LWPOLYLINE
5
119
100
AcDbEntity
8
0
100
AcDbPolyline
90
8
70
1
43
0.0
10
-9.0999999999999908
20
38.59999999999998
42
-0.41421356237309631
10
-9.3499999999999908
20
38.84999999999998
10
-9.3499999999999908
20
39.499999999999986
42
-0.41421356237309503
10
-9.0999999999999908
20
39.749999999999986
10
-8.399999999999995
20
39.749999999999986
42
-0.41421356237309631
10
-8.1499999999999915
20
39.499999999999986
10
-8.1499999999999915
20
38.84999999999998
42
-0.41421356237309764
10
-8.3999999999999915
20
38.59999999999998
0
LWPOLYLINE
5
120
100
AcDbEntity
8
0
100
AcDbPolyline
90
8
70
1
43
0.0
10
-9.3499999999999996
20
47.049999999999997
42
-0.41421356237309631
10
-9.0999999999999943
20
47.300000000000004
10
-8.399999999999995
20
47.300000000000004
42
-0.41421356237310542
10
-8.149999999999995
20
47.049999999999997
10
-8.1499999999999915
20
46.399999999999999
42
-0.41421356237307422
10
-8.399999999999995
20
46.149999999999991
10
-9.0999999999999979
20
46.150000000000006
42
-0.41421356237307294
10
-9.3499999999999943
20
46.399999999999999
0
LWPOLYLINE
5
121
100
AcDbEntity
8
0
100
AcDbPolyline
90
8
70
1
43
0.0
10
-13.599999999999987
20
46.150000000000006
42
-0.41421356237307683
10
-13.849999999999989
20
46.399999999999999
10
-13.849999999999984
20
47.050000000000011
42
-0.41421356237309764
10
-13.599999999999987
20
47.300000000000004
10
-12.899999999999988
20
47.300000000000004
42
-0.41421356237310542
10
-12.649999999999988
20
47.049999999999997
10
-12.649999999999981
20
46.399999999999999
42
-0.41421356237307422
10
-12.899999999999984
20
46.149999999999991
0
LWPOLYLINE
5
122
100
AcDbEntity
8
0
100
AcDbPolyline
90
8
70
1
43
0.0
10
-2.8499999999999783
20
-10.500000000000009
42
-0.41421356237309959
10
-2.5999999999999774
20
-10.250000000000007
10
-1.8999999999999773
20
-10.250000000000018
42
-0.41421356237309404
10
-1.6499999999999782
20
-10.500000000000016
10
-1.649999999999977
20
-11.150000000000023
42
-0.41421356237309764
10
-1.8999999999999784
20
-11.400000000000023
10
-2.5999999999999757
20
-11.400000000000023
42
-0.4142135623730957
10
-2.8499999999999774
20
-11.150000000000022
0
LWPOLYLINE
5
123
100
AcDbEntity
8
0
100
AcDbPolyline
90
8
70
1
43
0.0
10
-0.34999999999997866
20
-3.8500000000000076
42
-0.41421356237309426
10
-0.59999999999998077
20
-3.6000000000000059
10
-0.59999999999997189
20
-2.9500000000000015
42
-0.41421356237309537
10
-0.34999999999997866
20
-2.7000000000000082
10
0.35000000000001913
20
-2.7000000000000082
42
-0.41421356237309553
10
0.60000000000002063
20
-2.9500000000000082
10
0.60000000000002085
20
-3.6000000000000068
42
-0.41421356237309531
10
0.35000000000002041
20
-3.8500000000000068
0
LWPOLYLINE
5
124
100
AcDbEntity
8
0
100
AcDbPolyline
90
8
70
1
43
0.0
10
1.9000000000000197
20
1.0999999999999761
42
-0.4142135623730957
10
1.6500000000000195
20
1.3499999999999761
10
1.6500000000000195
20
1.9999999999999809
42
-0.4142135623730957
10
1.9000000000000197
20
2.2499999999999813
10
2.6000000000000201
20
2.2499999999999813
42
-0.4142135623730957
10
2.8500000000000196
20
1.9999999999999809
10
2.8500000000000196
20
1.3499999999999761
42
-0.41421356237309598
10
2.6000000000000196
20
1.0999999999999761
0
LWPOLYLINE
5
125
100
AcDbEntity
8
0
100
AcDbPolyline
90
8
70
1
43
0.0
10
1.6500000000000161
20
9.5499999999999883
42
-0.41421356237309243
10
1.9000000000000163
20
9.7999999999999883
10
2.6000000000000156
20
9.7999999999999883
42
-0.41421356237309176
10
2.8500000000000156
20
9.5499999999999883
10
2.8500000000000152
20
8.8999999999999861
42
-0.41421356237309176
10
2.6000000000000156
20
8.6499999999999844
10
1.9000000000000172
20
8.6499999999999844
42
-0.41421356237309342
10
1.6500000000000161
20
8.8999999999999844
0
LWPOLYLINE
5
126
100
AcDbEntity
8
0
100
AcDbPolyline
90
8
70
1
43
0.0
10
-2.5999999999999774
20
8.6499999999999844
42
-0.41421356237309309
10
-2.8499999999999774
20
8.8999999999999844
10
-2.8499999999999686
20
9.5499999999999972
42
-0.41421356237309764
10
-2.5999999999999774
20
9.7999999999999883
10
-1.8999999999999773
20
9.7999999999999901
42
-0.41421356237309243
10
-1.6499999999999764
20
9.5499999999999883
10
-1.6499999999999746
20
8.8999999999999844
42
-0.41421356237309243
10
-1.8999999999999748
20
8.6499999999999844
0
LWPOLYLINE
5
127
100
AcDbEntity
8
0
100
AcDbPolyline
90
8
70
1
43
0.0
10
-2.8499999999999828
20
14.499999999999993
42
-0.41421356237309437
10
-2.5999999999999841
20
14.749999999999993
10
-1.8999999999999861
20
14.749999999999988
42
-0.4142135623730947
10
-1.6499999999999848
20
14.499999999999986
10
-1.6499999999999853
20
13.84999999999998
42
-0.4142135623730957
10
-1.899999999999985
20
13.59999999999998
10
-2.5999999999999845
20
13.599999999999978
42
-0.41421356237308854
10
-2.8499999999999845
20
13.84999999999998
0
LWPOLYLINE
5
128
100
AcDbEntity
8
0
100
AcDbPolyline
90
8
70
1
43
0.0
10
-0.34999999999998566
20
21.149999999999999
42
-0.41421356237309681
10
-0.59999999999998599
20
21.399999999999999
10
-0.59999999999998088
20
22.050000000000001
42
-0.41421356237308526
10
-0.34999999999998566
20
22.299999999999997
10
0.35000000000001474
20
22.299999999999997
42
-0.4142135623730927
10
0.60000000000001374
20
22.049999999999997
10
0.6000000000000143
20
21.399999999999999
42
-0.41421356237309692
10
0.35000000000001358
20
21.149999999999999
0
LWPOLYLINE
5
129
100
AcDbEntity
8
0
100
AcDbPolyline
90
8
70
1
43
0.0
10
1.9000000000000163
20
26.09999999999998
42
-0.41421356237309731
10
1.6500000000000161
20
26.34999999999998
10
1.6500000000000181
20
26.999999999999989
42
-0.41421356237309404
10
1.9000000000000163
20
27.249999999999986
10
2.6000000000000156
20
27.249999999999986
42
-0.4142135623730937
10
2.8500000000000156
20
26.999999999999989
10
2.850000000000017
20
26.34999999999998
42
-0.41421356237309764
10
2.6000000000000156
20
26.09999999999998
0
LWPOLYLINE
5
130
100
AcDbEntity
8
0
100
AcDbPolyline
90
8
70
1
43
0.0
10
1.6500000000000119
20
34.549999999999997
42
-0.41421356237309698
10
1.9000000000000128
20
34.799999999999997
10
2.6000000000000112
20
34.799999999999997
42
-0.41421356237309764
10
2.8500000000000125
20
34.549999999999997
10
2.8500000000000139
20
33.899999999999991
42
-0.41421356237309764
10
2.6000000000000121
20
33.649999999999991
10
1.9000000000000128
20
33.649999999999991
42
-0.41421356237309664
10
1.6500000000000126
20
33.899999999999991
0
LWPOLYLINE
5
131
100
AcDbEntity
8
0
100
AcDbPolyline
90
8
70
1
43
0.0
10
-2.599999999999981
20
33.649999999999991
42
-0.41421356237309631
10
-2.8499999999999814
20
33.899999999999991
10
-2.8499999999999766
20
34.549999999999997
42
-0.41421356237308526
10
-2.599999999999981
20
34.799999999999997
10
-1.8999999999999817
20
34.799999999999997
42
-0.41421356237309664
10
-1.6499999999999815
20
34.549999999999997
10
-1.6499999999999768
20
33.899999999999991
42
-0.41421356237310314
10
-1.8999999999999784
20
33.649999999999984
0
LWPOLYLINE
5
132
100
AcDbEntity
8
0
100
AcDbPolyline
90
8
70
1
43
0.0
10
-2.849999999999989
20
39.499999999999993
42
-0.41421356237309764
10
-2.5999999999999881
20
39.749999999999993
10
-1.8999999999999906
20
39.749999999999986
42
-0.41421356237309698
10
-1.6499999999999884
20
39.499999999999986
10
-1.6499999999999881
20
38.84999999999998
42
-0.41421356237309664
10
-1.8999999999999886
20
38.59999999999998
10
-2.599999999999989
20
38.59999999999998
42
-0.41421356237309503
10
-2.8499999999999881
20
38.84999999999998
0
LWPOLYLINE
5
133
100
AcDbEntity
8
0
100
AcDbPolyline
90
8
70
1
43
0.0
10
-0.34999999999998915
20
46.149999999999991
42
-0.41421356237307422
10
-0.59999999999998943
20
46.399999999999999
10
-0.59999999999998743
20
47.050000000000011
42
-0.41421356237309948
10
-0.3499999999999891
20
47.300000000000004
10
0.3500000000000103
20
47.300000000000011
42
-0.41421356237310503
10
0.6000000000000103
20
47.049999999999997
10
0.60000000000000842
20
46.399999999999999
42
-0.41421356237309948
10
0.35000000000001003
20
46.150000000000006
0
LWPOLYLINE
5
134
100
AcDbEntity
8
0
100
AcDbPolyline
90
8
70
1
43
0.0
10
12.900000000000025
20
-11.400000000000023
42
-0.41421356237310542
10
12.650000000000023
20
-11.150000000000022
10
12.650000000000025
20
-10.500000000000016
42
-0.41421356237309503
10
12.900000000000025
20
-10.250000000000018
10
13.600000000000021
20
-10.250000000000018
42
-0.41421356237309503
10
13.850000000000019
20
-10.500000000000016
10
13.850000000000019
20
-11.150000000000023
42
-0.41421356237309243
10
13.600000000000021
20
-11.400000000000022
0
LWPOLYLINE
5
135
100
AcDbEntity
8
0
100
AcDbPolyline
90
8
70
1
43
0.0
10
12.65000000000002
20
-2.9500000000000082
42
-0.4142135623730937
10
12.90000000000002
20
-2.7000000000000082
10
13.600000000000021
20
-2.7000000000000082
42
-0.41421356237309631
10
13.850000000000019
20
-2.9500000000000082
10
13.850000000000019
20
-3.600000000000013
42
-0.41421356237309503
10
13.600000000000021
20
-3.8500000000000134
10
12.90000000000002
20
-3.8500000000000139
42
-0.41421356237309959
10
12.65000000000002
20
-3.600000000000013
0
LWPOLYLINE
5
136
100
AcDbEntity
8
0
100
AcDbPolyline
90
8
70
1
43
0.0
10
8.4000000000000252
20
-3.8500000000000134
42
-0.41421356237309243
10
8.1500000000000252
20
-3.600000000000013
10
8.1500000000000341
20
-2.9500000000000011
42
-0.41421356237309764
10
8.4000000000000252
20
-2.7000000000000095
10
9.1000000000000227
20
-2.7000000000000055
42
-0.41421356237309631
10
9.3500000000000263
20
-2.9500000000000082
10
9.3500000000000281
20
-3.600000000000013
42
-0.41421356237309243
10
9.1000000000000281
20
-3.8500000000000134
0
LWPOLYLINE
5
137
100
AcDbEntity
8
0
100
AcDbPolyline
90
8
70
1
43
0.0
10
8.1500000000000199
20
1.9999999999999882
42
-0.41421356237309309
10
8.4000000000000181
20
2.2499999999999885
10
9.1000000000000192
20
2.2499999999999813
42
-0.41421356237309115
10
9.3500000000000192
20
1.9999999999999809
10
9.3500000000000192
20
1.3499999999999761
42
-0.41421356237309243
10
9.1000000000000174
20
1.0999999999999761
10
8.4000000000000181
20
1.0999999999999754
42
-0.41421356237309309
10
8.1500000000000181
20
1.3499999999999761
0
LWPOLYLINE
5
138
100
AcDbEntity
8
0
100
AcDbPolyline
90
8
70
1
43
0.0
10
10.650000000000016
20
8.6499999999999915
42
-0.41421356237309503
10
10.400000000000016
20
8.8999999999999915
10
10.400000000000023
20
9.5499999999999972
42
-0.4142135623730937
10
10.650000000000016
20
9.7999999999999901
10
11.350000000000016
20
9.7999999999999883
42
-0.41421356237309631
10
11.600000000000016
20
9.5499999999999883
10
11.600000000000016
20
8.8999999999999915
42
-0.41421356237309503
10
11.350000000000016
20
8.6499999999999915
0
LWPOLYLINE
5
139
100
AcDbEntity
8
0
100
AcDbPolyline
90
8
70
1
43
0.0
10
12.900000000000018
20
13.59999999999998
42
-0.41421356237309503
10
12.65000000000002
20
13.84999999999998
10
12.65000000000002
20
14.499999999999984
42
-0.41421356237310542
10
12.900000000000018
20
14.749999999999988
10
13.600000000000019
20
14.749999999999988
42
-0.41421356237310542
10
13.850000000000019
20
14.499999999999986
10
13.850000000000017
20
13.84999999999998
42
-0.41421356237309503
10
13.600000000000019
20
13.59999999999998
0
LWPOLYLINE
5
140
100
AcDbEntity
8
0
100
AcDbPolyline
90
8
70
1
43
0.0
10
12.650000000000016
20
22.049999999999997
42
-0.41421356237309503
10
12.900000000000016
20
22.299999999999997
10
13.600000000000014
20
22.299999999999997
42
-0.41421356237308721
10
13.850000000000016
20
22.049999999999997
10
13.850000000000016
20
21.399999999999988
42
-0.41421356237309764
10
13.600000000000014
20
21.149999999999988
10
12.900000000000016
20
21.149999999999984
42
-0.41421356237309243
10
12.650000000000015
20
21.399999999999988
0
LWPOLYLINE
5
141
100
AcDbEntity
8
0
100
AcDbPolyline
90
8
70
1
43
0.0
10
8.4000000000000199
20
21.149999999999988
42
-0.41421356237309631
10
8.1500000000000199
20
21.399999999999988
10
8.150000000000027
20
22.050000000000001
42
-0.4142135623730846
10
8.4000000000000199
20
22.299999999999997
10
9.1000000000000192
20
22.299999999999997
42
-0.4142135623730937
10
9.3500000000000192
20
22.049999999999997
10
9.3500000000000245
20
21.399999999999988
42
-0.41421356237309764
10
9.1000000000000227
20
21.149999999999988
0
LWPOLYLINE
5
142
100
AcDbEntity
8
0
100
AcDbPolyline
90
8
70
1
43
0.0
10
8.150000000000011
20
26.999999999999993
42
-0.41421356237309764
10
8.4000000000000128
20
27.249999999999993
10
9.1000000000000121
20
27.249999999999986
42
-0.4142135623730937
10
9.3500000000000121
20
26.999999999999989
10
9.3500000000000139
20
26.34999999999998
42
-0.41421356237309764
10
9.1000000000000121
20
26.09999999999998
10
8.4000000000000128
20
26.09999999999998
42
-0.41421356237309503
10
8.1500000000000128
20
26.34999999999998
0
LWPOLYLINE
5
143
100
AcDbEntity
8
0
100
AcDbPolyline
90
8
70
1
43
0.0
10
10.650000000000011
20
33.650000000000006
42
-0.41421356237308721
10
10.400000000000009
20
33.899999999999999
10
10.400000000000018
20
34.549999999999997
42
-0.41421356237308204
10
10.650000000000011
20
34.799999999999997
10
11.350000000000012
20
34.799999999999997
42
-0.41421356237309764
10
11.60000000000001
20
34.549999999999997
10
11.60000000000001
20
33.899999999999999
42
-0.41421356237309503
10
11.350000000000012
20
33.650000000000006
0
LWPOLYLINE
5
144
100
AcDbEntity
8
0
100
AcDbPolyline
90
8
70
1
43
0.0
10
12.900000000000013
20
38.599999999999987
42
-0.41421356237309764
10
12.650000000000015
20
38.84999999999998
10
12.650000000000015
20
39.499999999999986
42
-0.41421356237309503
10
12.900000000000013
20
39.749999999999986
10
13.600000000000012
20
39.749999999999986
42
-0.41421356237309503
10
13.850000000000012
20
39.499999999999986
10
13.850000000000014
20
38.84999999999998
42
-0.41421356237309764
10
13.600000000000012
20
38.59999999999998
0
LWPOLYLINE
5
145
100
AcDbEntity
8
0
100
AcDbPolyline
90
8
70
1
43
0.0
10
12.650000000000007
20
47.049999999999997
42
-0.41421356237309243
10
12.900000000000009
20
47.300000000000004
10
13.60000000000001
20
47.300000000000004
42
-0.41421356237310802
10
13.850000000000012
20
47.049999999999997
10
13.850000000000014
20
46.399999999999999
42
-0.41421356237307422
10
13.60000000000001
20
46.149999999999991
10
12.900000000000009
20
46.150000000000006
42
-0.41421356237310025
10
12.650000000000009
20
46.399999999999999
0
LWPOLYLINE
5
146
100
AcDbEntity
8
0
100
AcDbPolyline
90
8
70
1
43
0.0
10
8.4000000000000146
20
46.150000000000006
42
-0.41421356237307549
10
8.1500000000000146
20
46.399999999999999
10
8.1500000000000163
20
47.049999999999997
42
-0.41421356237310025
10
8.4000000000000146
20
47.300000000000004
10
9.1000000000000156
20
47.300000000000004
42
-0.41421356237310675
10
9.3500000000000156
20
47.049999999999997
10
9.350000000000021
20
46.399999999999999
42
-0.41421356237307422
10
9.1000000000000174
20
46.149999999999991
0
LWPOLYLINE
5
147
100
AcDbEntity
8
0
100
AcDbPolyline
90
8
70
1
43
0.0
10
19.150000000000023
20
-10.500000000000009
42
-0.41421356237310281
10
19.40000000000002
20
-10.250000000000007
10
20.100000000000019
20
-10.250000000000018
42
-0.41421356237309503
10
20.350000000000019
20
-10.500000000000016
10
20.350000000000019
20
-11.150000000000023
42
-0.4142135623730846
10
20.100000000000019
20
-11.400000000000023
10
19.40000000000002
20
-11.400000000000025
42
-0.41421356237310281
10
19.15000000000002
20
-11.150000000000022
0
LWPOLYLINE
5
148
100
AcDbEntity
8
0
100
AcDbPolyline
90
8
70
1
43
0.0
10
21.650000000000023
20
-3.8500000000000121
42
-0.41421356237309825
10
21.40000000000002
20
-3.6000000000000059
10
21.400000000000027
20
-2.9500000000000011
42
-0.41421356237310153
10
21.650000000000023
20
-2.7000000000000082
10
22.350000000000023
20
-2.7000000000000068
42
-0.41421356237309764
10
22.600000000000019
20
-2.9500000000000082
10
22.600000000000019
20
-3.6000000000000068
42
-0.41421356237309698
10
22.350000000000023
20
-3.8500000000000068
0
LWPOLYLINE
5
149
100
AcDbEntity
8
0
100
AcDbPolyline
90
8
70
1
43
0.0
10
23.90000000000002
20
1.0999999999999777
42
-0.41421356237309437
10
23.65000000000002
20
1.3499999999999761
10
23.65000000000002
20
1.9999999999999809
42
-0.4142135623730947
10
23.90000000000002
20
2.2499999999999813
10
24.600000000000023
20
2.2499999999999791
42
-0.41421356237309404
10
24.850000000000023
20
1.9999999999999809
10
24.850000000000023
20
1.3499999999999761
42
-0.41421356237309404
10
24.600000000000023
20
1.0999999999999761
0
LWPOLYLINE
5
150
100
AcDbEntity
8
0
100
AcDbPolyline
90
8
70
1
43
0.0
10
23.65000000000002
20
9.5499999999999883
42
-0.4142135623730937
10
23.90000000000002
20
9.7999999999999883
10
24.600000000000016
20
9.7999999999999901
42
-0.41421356237309764
10
24.850000000000016
20
9.5499999999999883
10
24.850000000000016
20
8.8999999999999844
42
-0.41421356237309631
10
24.600000000000016
20
8.6499999999999844
10
23.90000000000002
20
8.6499999999999773
42
-0.41421356237309892
10
23.650000000000016
20
8.8999999999999844
0
LWPOLYLINE
5
151
100
AcDbEntity
8
0
100
AcDbPolyline
90
8
70
1
43
0.0
10
19.40000000000002
20
8.6499999999999844
42
-0.41421356237309631
10
19.150000000000023
20
8.8999999999999844
10
19.150000000000031
20
9.5499999999999972
42
-0.41421356237310025
10
19.40000000000002
20
9.7999999999999883
10
20.100000000000019
20
9.7999999999999954
42
-0.41421356237309892
10
20.350000000000023
20
9.5499999999999883
10
20.350000000000023
20
8.8999999999999844
42
-0.41421356237309631
10
20.100000000000023
20
8.6499999999999844
0
LWPOLYLINE
5
152
100
AcDbEntity
8
0
100
AcDbPolyline
90
8
70
1
43
0.0
10
19.150000000000013
20
14.499999999999993
42
-0.41421356237309503
10
19.400000000000013
20
14.749999999999993
10
20.100000000000012
20
14.749999999999986
42
-0.41421356237309503
10
20.350000000000009
20
14.499999999999986
10
20.350000000000009
20
13.84999999999998
42
-0.41421356237309503
10
20.100000000000012
20
13.59999999999998
10
19.400000000000013
20
13.59999999999998
42
-0.41421356237309503
10
19.150000000000013
20
13.84999999999998
0
LWPOLYLINE
5
153
100
AcDbEntity
8
0
100
AcDbPolyline
90
8
70
1
43
0.0
10
21.650000000000013
20
21.149999999999999
42
-0.41421356237309503
10
21.400000000000013
20
21.399999999999999
10
21.40000000000002
20
22.050000000000001
42
-0.4142135623730846
10
21.650000000000013
20
22.299999999999997
10
22.350000000000012
20
22.299999999999997
42
-0.41421356237309503
10
22.600000000000012
20
22.049999999999997
10
22.600000000000012
20
21.399999999999999
42
-0.41421356237310542
10
22.350000000000012
20
21.149999999999999
0
LWPOLYLINE
5
154
100
AcDbEntity
8
0
100
AcDbPolyline
90
8
70
1
43
0.0
10
23.90000000000002
20
26.09999999999998
42
-0.41421356237309503
10
23.65000000000002
20
26.34999999999998
10
23.65000000000002
20
26.999999999999989
42
-0.41421356237309503
10
23.90000000000002
20
27.249999999999986
10
24.600000000000016
20
27.249999999999986
42
-0.41421356237309503
10
24.850000000000016
20
26.999999999999989
10
24.850000000000016
20
26.34999999999998
42
-0.41421356237310542
10
24.600000000000016
20
26.09999999999998
0
LWPOLYLINE
5
155
100
AcDbEntity
8
0
100
AcDbPolyline
90
8
70
1
43
0.0
10
23.650000000000016
20
34.549999999999997
42
-0.41421356237310542
10
23.900000000000013
20
34.799999999999997
10
24.600000000000012
20
34.799999999999997
42
-0.41421356237309503
10
24.850000000000012
20
34.549999999999997
10
24.850000000000012
20
33.899999999999991
42
-0.41421356237309503
10
24.600000000000012
20
33.649999999999991
10
23.900000000000013
20
33.649999999999991
42
-0.41421356237310542
10
23.650000000000016
20
33.899999999999991
0
LWPOLYLINE
5
156
100
AcDbEntity
8
0
100
AcDbPolyline
90
8
70
1
43
0.0
10
19.400000000000016
20
33.649999999999991
42
-0.41421356237309764
10
19.15000000000002
20
33.899999999999991
10
19.150000000000023
20
34.549999999999997
42
-0.41421356237308204
10
19.400000000000016
20
34.799999999999997
10
20.100000000000016
20
34.799999999999997
42
-0.41421356237310542
10
20.350000000000016
20
34.549999999999997
10
20.350000000000019
20
33.899999999999991
42
-0.41421356237311063
10
20.100000000000019
20
33.649999999999984
0
LWPOLYLINE
5
157
100
AcDbEntity
8
0
100
AcDbPolyline
90
8
70
1
43
0.0
10
19.150000000000013
20
26.999999999999993
42
-0.41421356237309764
10
19.400000000000013
20
27.249999999999993
10
20.100000000000012
20
27.249999999999986
42
-0.41421356237309503
10
20.350000000000009
20
26.999999999999989
10
20.350000000000009
20
26.34999999999998
42
-0.41421356237309503
10
20.100000000000012
20
26.09999999999998
10
19.400000000000013
20
26.099999999999987
42
-0.41421356237309764
10
19.150000000000013
20
26.34999999999998
0
LWPOLYLINE
5
158
100
AcDbEntity
8
0
100
AcDbPolyline
90
8
70
1
43
0.0
10
10.650000000000015
20
21.149999999999991
42
-0.41421356237309243
10
10.400000000000013
20
21.399999999999999
10
10.400000000000023
20
22.050000000000001
42
-0.41421356237308204
10
10.650000000000015
20
22.299999999999997
10
11.350000000000014
20
22.299999999999997
42
-0.41421356237308721
10
11.600000000000016
20
22.049999999999997
10
11.600000000000016
20
21.399999999999999
42
-0.41421356237309764
10
11.350000000000014
20
21.149999999999999
0
LWPOLYLINE
5
159
100
AcDbEntity
8
0
100
AcDbPolyline
90
8
70
1
43
0.0
10
23.65000000000002
20
-2.9500000000000082
42
-0.4142135623730937
10
23.90000000000002
20
-2.7000000000000082
10
24.600000000000023
20
-2.7000000000000091
42
-0.41421356237309503
10
24.850000000000023
20
-2.9500000000000082
10
24.850000000000023
20
-3.600000000000013
42
-0.4142135623730937
10
24.600000000000023
20
-3.8500000000000134
10
23.90000000000002
20
-3.8500000000000121
42
-0.41421356237309503
10
23.65000000000002
20
-3.600000000000013
0
LWPOLYLINE
5
160
100
AcDbEntity
8
0
100
AcDbPolyline
90
8
70
1
43
0.0
10
19.400000000000023
20
-3.8500000000000139
42
-0.41421356237309959
10
19.150000000000023
20
-3.600000000000013
10
19.150000000000031
20
-2.9500000000000011
42
-0.41421356237309243
10
19.400000000000023
20
-2.7000000000000095
10
20.100000000000023
20
-2.7000000000000068
42
-0.41421356237310281
10
20.35000000000003
20
-2.9500000000000082
10
20.35000000000003
20
-3.600000000000013
42
-0.4142135623730937
10
20.10000000000003
20
-3.8500000000000134
0
LWPOLYLINE
5
161
100
AcDbEntity
8
0
100
AcDbPolyline
90
8
70
1
43
0.0
10
10.650000000000011
20
46.150000000000006
42
-0.41421356237307683
10
10.400000000000009
20
46.399999999999999
10
10.400000000000013
20
47.050000000000011
42
-0.41421356237309764
10
10.650000000000011
20
47.300000000000004
10
11.350000000000009
20
47.300000000000004
42
-0.41421356237310802
10
11.60000000000001
20
47.049999999999997
10
11.600000000000005
20
46.399999999999999
42
-0.41421356237309764
10
11.350000000000009
20
46.150000000000006
0
LWPOLYLINE
5
162
100
AcDbEntity
8
0
100
AcDbPolyline
90
8
70
1
43
0.0
10
8.1500000000000163
20
14.499999999999993
42
-0.41421356237309631
10
8.4000000000000163
20
14.749999999999993
10
9.1000000000000156
20
14.749999999999988
42
-0.41421356237309631
10
9.3500000000000156
20
14.499999999999986
10
9.3500000000000156
20
13.84999999999998
42
-0.41421356237309631
10
9.1000000000000156
20
13.59999999999998
10
8.4000000000000163
20
13.59999999999998
42
-0.41421356237309631
10
8.1500000000000163
20
13.84999999999998
0
LWPOLYLINE
5
163
100
AcDbEntity
8
0
100
AcDbPolyline
90
8
70
1
43
0.0
10
8.4000000000000163
20
33.649999999999991
42
-0.41421356237309631
10
8.1500000000000163
20
33.899999999999991
10
8.1500000000000217
20
34.549999999999997
42
-0.4142135623730846
10
8.4000000000000163
20
34.799999999999997
10
9.1000000000000156
20
34.799999999999997
42
-0.41421356237309764
10
9.3500000000000156
20
34.549999999999997
10
9.3500000000000227
20
33.899999999999991
42
-0.41421356237310542
10
9.1000000000000192
20
33.649999999999984
0
LWPOLYLINE
5
164
100
AcDbEntity
8
0
100
AcDbPolyline
90
8
70
1
43
0.0
10
21.65000000000002
20
8.6499999999999879
42
-0.41421356237310542
10
21.400000000000013
20
8.8999999999999915
10
21.400000000000023
20
9.5499999999999972
42
-0.41421356237308593
10
21.65000000000002
20
9.7999999999999901
10
22.350000000000016
20
9.7999999999999883
42
-0.41421356237309503
10
22.600000000000016
20
9.5499999999999883
10
22.600000000000016
20
8.8999999999999915
42
-0.4142135623730937
10
22.350000000000016
20
8.6499999999999915
0
LWPOLYLINE
5
165
100
AcDbEntity
8
0
100
AcDbPolyline
90
8
70
1
43
0.0
10
10.65000000000002
20
-3.8500000000000068
42
-0.41421356237309959
10
10.400000000000018
20
-3.6000000000000059
10
10.400000000000027
20
-2.9500000000000011
42
-0.41421356237309437
10
10.65000000000002
20
-2.7000000000000082
10
11.350000000000019
20
-2.7000000000000082
42
-0.41421356237309631
10
11.600000000000019
20
-2.9500000000000082
10
11.600000000000021
20
-3.6000000000000068
42
-0.41421356237308854
10
11.350000000000019
20
-3.8500000000000068
0
LWPOLYLINE
5
166
100
AcDbEntity
8
0
100
AcDbPolyline
90
8
70
1
43
0.0
10
8.150000000000011
20
39.499999999999993
42
-0.41421356237309764
10
8.4000000000000128
20
39.749999999999993
10
9.1000000000000103
20
39.749999999999986
42
-0.4142135623730937
10
9.3500000000000103
20
39.499999999999986
10
9.3500000000000121
20
38.84999999999998
42
-0.41421356237309764
10
9.1000000000000103
20
38.59999999999998
10
8.4000000000000128
20
38.59999999999998
42
-0.41421356237309631
10
8.150000000000011
20
38.84999999999998
0
LWPOLYLINE
5
167
100
AcDbEntity
8
0
100
AcDbPolyline
90
8
70
1
43
0.0
10
23.650000000000016
20
22.049999999999997
42
-0.41421356237309503
10
23.900000000000013
20
22.299999999999997
10
24.600000000000012
20
22.299999999999997
42
-0.41421356237309503
10
24.850000000000012
20
22.049999999999997
10
24.850000000000012
20
21.399999999999988
42
-0.41421356237309503
10
24.600000000000012
20
21.149999999999988
10
23.900000000000013
20
21.149999999999988
42
-0.41421356237310542
10
23.650000000000016
20
21.399999999999988
0
LWPOLYLINE
5
168
100
AcDbEntity
8
0
100
AcDbPolyline
90
8
70
1
43
0.0
10
21.650000000000013
20
33.650000000000006
42
-0.41421356237309503
10
21.400000000000013
20
33.899999999999999
10
21.40000000000002
20
34.549999999999997
42
-0.4142135623730846
10
21.650000000000013
20
34.799999999999997
10
22.350000000000012
20
34.799999999999997
42
-0.41421356237310542
10
22.600000000000012
20
34.549999999999997
10
22.600000000000012
20
33.899999999999999
42
-0.41421356237309503
10
22.350000000000012
20
33.650000000000006
0
LWPOLYLINE
5
169
100
AcDbEntity
8
0
100
AcDbPolyline
90
8
70
1
43
0.0
10
12.65000000000002
20
9.5499999999999883
42
-0.41421356237309243
10
12.900000000000018
20
9.7999999999999883
10
13.600000000000016
20
9.7999999999999883
42
-0.41421356237309631
10
13.850000000000016
20
9.5499999999999883
10
13.850000000000016
20
8.8999999999999844
42
-0.41421356237309243
10
13.600000000000016
20
8.6499999999999844
10
12.900000000000018
20
8.6499999999999808
42
-0.41421356237309115
10
12.650000000000015
20
8.8999999999999844
0
LWPOLYLINE
5
170
100
AcDbEntity
8
0
100
AcDbPolyline
90
8
70
1
43
0.0
10
12.650000000000009
20
34.549999999999997
42
-0.41421356237309764
10
12.900000000000011
20
34.799999999999997
10
13.600000000000012
20
34.799999999999997
42
-0.41421356237309764
10
13.850000000000012
20
34.549999999999997
10
13.850000000000014
20
33.899999999999991
42
-0.41421356237309764
10
13.600000000000012
20
33.649999999999991
10
12.900000000000011
20
33.649999999999991
42
-0.41421356237309764
10
12.650000000000013
20
33.899999999999991
0
LWPOLYLINE
5
171
100
AcDbEntity
8
0
100
AcDbPolyline
90
8
70
1
43
0.0
10
12.90000000000002
20
1.0999999999999748
42
-0.41421356237310025
10
12.65000000000002
20
1.3499999999999761
10
12.65000000000002
20
1.9999999999999809
42
-0.41421356237309309
10
12.90000000000002
20
2.2499999999999813
10
13.600000000000021
20
2.2499999999999805
42
-0.41421356237309537
10
13.850000000000019
20
1.9999999999999809
10
13.850000000000019
20
1.3499999999999761
42
-0.41421356237309537
10
13.600000000000021
20
1.0999999999999761
0
LWPOLYLINE
5
172
100
AcDbEntity
8
0
100
AcDbPolyline
90
8
70
1
43
0.0
10
19.15000000000002
20
1.9999999999999882
42
-0.41421356237309598
10
19.400000000000016
20
2.2499999999999885
10
20.100000000000016
20
2.2499999999999813
42
-0.41421356237309664
10
20.350000000000016
20
1.9999999999999809
10
20.350000000000016
20
1.3499999999999761
42
-0.41421356237309664
10
20.100000000000016
20
1.0999999999999761
10
19.400000000000016
20
1.0999999999999766
42
-0.4142135623730957
10
19.15000000000002
20
1.3499999999999761
0
LWPOLYLINE
5
173
100
AcDbEntity
8
0
100
AcDbPolyline
90
8
70
1
43
0.0
10
23.90000000000002
20
13.59999999999998
42
-0.41421356237309503
10
23.65000000000002
20
13.84999999999998
10
23.65000000000002
20
14.499999999999984
42
-0.41421356237308982
10
23.90000000000002
20
14.749999999999988
10
24.600000000000016
20
14.749999999999988
42
-0.41421356237309764
10
24.850000000000016
20
14.499999999999986
10
24.850000000000012
20
13.84999999999998
42
-0.41421356237309764
10
24.600000000000016
20
13.59999999999998
0
LWPOLYLINE
5
174
100
AcDbEntity
8
0
100
AcDbPolyline
90
8
70
1
43
0.0
10
12.900000000000016
20
26.099999999999977
42
-0.41421356237309243
10
12.650000000000015
20
26.34999999999998
10
12.650000000000016
20
26.999999999999989
42
-0.41421356237309503
10
12.900000000000016
20
27.249999999999986
10
13.600000000000014
20
27.249999999999986
42
-0.41421356237308721
10
13.850000000000016
20
26.999999999999989
10
13.850000000000016
20
26.34999999999998
42
-0.41421356237309764
10
13.600000000000014
20
26.09999999999998
0
LWPOLYLINE
5
175
100
AcDbEntity
8
0
100
AcDbPolyline
90
8
70
1
43
0.0
10
19.400000000000016
20
21.149999999999991
42
-0.41421356237309764
10
19.15000000000002
20
21.399999999999988
10
19.150000000000023
20
22.050000000000001
42
-0.41421356237308204
10
19.400000000000016
20
22.299999999999997
10
20.100000000000016
20
22.299999999999997
42
-0.41421356237309503
10
20.350000000000016
20
22.049999999999997
10
20.350000000000019
20
21.399999999999988
42
-0.41421356237309503
10
20.100000000000019
20
21.149999999999988
0
LWPOLYLINE
5
176
100
AcDbEntity
8
0
100
AcDbPolyline
90
8
70
1
43
0.0
10
-0.34999999999998221
20
8.6499999999999915
42
-0.41421356237309009
10
-0.59999999999998421
20
8.8999999999999915
10
-0.59999999999997611
20
9.5499999999999972
42
-0.41421356237309293
10
-0.3499999999999821
20
9.7999999999999901
10
0.35000000000001469
20
9.7999999999999883
42
-0.41421356237310042
10
0.60000000000001719
20
9.5499999999999883
10
0.60000000000001774
20
8.8999999999999915
42
-0.41421356237309309
10
0.35000000000001696
20
8.6499999999999915
0
LWPOLYLINE
5
177
100
AcDbEntity
8
0
100
AcDbPolyline
90
8
70
1
43
0.0
10
-2.5999999999999739
20
-3.850000000000013
42
-0.4142135623730957
10
-2.8499999999999743
20
-3.600000000000013
10
-2.8499999999999654
20
-2.9500000000000011
42
-0.41421356237309631
10
-2.5999999999999739
20
-2.7000000000000095
10
-1.8999999999999728
20
-2.7000000000000055
42
-0.41421356237309342
10
-1.6499999999999728
20
-2.9500000000000082
10
-1.649999999999971
20
-3.600000000000013
42
-0.41421356237309503
10
-1.899999999999971
20
-3.8500000000000134
0
LWPOLYLINE
5
178
100
AcDbEntity
8
0
100
AcDbPolyline
90
8
70
1
43
0.0
10
-13.849999999999994
20
39.499999999999993
42
-0.41421356237309764
10
-13.599999999999993
20
39.749999999999993
10
-12.899999999999991
20
39.749999999999986
42
-0.41421356237309503
10
-12.649999999999991
20
39.499999999999986
10
-12.64999999999999
20
38.84999999999998
42
-0.41421356237309764
10
-12.899999999999991
20
38.59999999999998
10
-13.599999999999991
20
38.599999999999987
42
-0.41421356237310025
10
-13.849999999999991
20
38.84999999999998
0
LWPOLYLINE
5
179
100
AcDbEntity
8
0
100
AcDbPolyline
90
8
70
1
43
0.0
10
-13.599999999999987
20
33.649999999999984
42
-0.41421356237309243
10
-13.849999999999989
20
33.899999999999991
10
-13.84999999999998
20
34.549999999999997
42
-0.41421356237308204
10
-13.599999999999987
20
34.799999999999997
10
-12.899999999999988
20
34.800000000000004
42
-0.41421356237308982
10
-12.649999999999988
20
34.549999999999997
10
-12.649999999999984
20
33.899999999999991
42
-0.41421356237310281
10
-12.899999999999984
20
33.649999999999984
0
LWPOLYLINE
5
180
100
AcDbEntity
8
0
100
AcDbPolyline
90
8
70
1
43
0.0
10
-9.0999999999999908
20
26.09999999999998
42
-0.41421356237309631
10
-9.3499999999999908
20
26.34999999999998
10
-9.3499999999999908
20
26.999999999999989
42
-0.41421356237309503
10
-9.0999999999999908
20
27.249999999999986
10
-8.399999999999995
20
27.249999999999986
42
-0.41421356237309631
10
-8.1499999999999915
20
26.999999999999989
10
-8.1499999999999915
20
26.34999999999998
42
-0.41421356237309764
10
-8.3999999999999915
20
26.09999999999998
0
LWPOLYLINE
5
181
100
AcDbEntity
8
0
100
AcDbPolyline
90
8
70
1
43
0.0
10
1.6500000000000199
20
-2.9500000000000082
42
-0.4142135623730947
10
1.9000000000000197
20
-2.7000000000000082
10
2.6000000000000201
20
-2.7000000000000086
42
-0.41421356237309503
10
2.8500000000000196
20
-2.9500000000000082
10
2.8500000000000201
20
-3.600000000000013
42
-0.4142135623730957
10
2.6000000000000196
20
-3.8500000000000134
10
1.9000000000000195
20
-3.8500000000000134
42
-0.4142135623730947
10
1.6500000000000195
20
-3.600000000000013
0
LWPOLYLINE
5
182
100
AcDbEntity
8
0
100
AcDbPolyline
90
8
70
1
43
0.0
10
-24.849999999999977
20
14.499999999999993
42
-0.41421356237309764
10
-24.59999999999998
20
14.749999999999993
10
-23.899999999999984
20
14.749999999999986
42
-0.41421356237309503
10
-23.649999999999984
20
14.499999999999986
10
-23.649999999999984
20
13.84999999999998
42
-0.41421356237309503
10
-23.899999999999984
20
13.59999999999998
10
-24.59999999999998
20
13.599999999999978
42
-0.41421356237309243
10
-24.84999999999998
20
13.84999999999998
0
LWPOLYLINE
5
183
100
AcDbEntity
8
0
100
AcDbPolyline
90
8
70
1
43
0.0
10
1.9000000000000128
20
38.59999999999998
42
-0.41421356237309664
10
1.6500000000000126
20
38.84999999999998
10
1.6500000000000141
20
39.499999999999986
42
-0.41421356237309437
10
1.9000000000000128
20
39.749999999999986
10
2.6000000000000112
20
39.749999999999986
42
-0.41421356237309503
10
2.8500000000000125
20
39.499999999999986
10
2.8500000000000139
20
38.84999999999998
42
-0.41421356237309764
10
2.6000000000000121
20
38.59999999999998
0
LWPOLYLINE
5
184
100
AcDbEntity
8
0
100
AcDbPolyline
90
8
70
1
43
0.0
10
-9.0999999999999837
20
1.0999999999999754
42
-0.41421356237309309
10
-9.3499999999999837
20
1.3499999999999761
10
-9.3499999999999837
20
1.9999999999999809
42
-0.41421356237309309
10
-9.0999999999999837
20
2.2499999999999813
10
-8.3999999999999844
20
2.2499999999999818
42
-0.41421356237309309
10
-8.1499999999999844
20
1.9999999999999809
10
-8.1499999999999861
20
1.3499999999999761
42
-0.41421356237309309
10
-8.3999999999999844
20
1.0999999999999761
0
LWPOLYLINE
5
185
100
AcDbEntity
8
0
100
AcDbPolyline
90
4
70
1
43
0.0
10
-21.300000000000004
20
26.799999999999997
10
-22.699999999999992
20
26.799999999999997
10
-22.699999999999992
20
26.199999999999989
10
-21.299999999999994
20
26.199999999999989
0
LWPOLYLINE
5
186
100
AcDbEntity
8
0
100
AcDbPolyline
90
8
70
1
43
0.0
10
-2.599999999999981
20
21.149999999999988
42
-0.41421356237309631
10
-2.8499999999999814
20
21.399999999999988
10
-2.8499999999999766
20
22.050000000000001
42
-0.41421356237308526
10
-2.599999999999981
20
22.299999999999997
10
-1.8999999999999817
20
22.299999999999997
42
-0.41421356237309404
10
-1.6499999999999815
20
22.049999999999997
10
-1.6499999999999777
20
21.399999999999988
42
-0.41421356237309698
10
-1.8999999999999784
20
21.149999999999988
0
LWPOLYLINE
5
187
100
AcDbEntity
8
0
100
AcDbPolyline
90
8
70
1
43
0.0
10
-20.349999999999984
20
9.5499999999999883
42
-0.4142135623730937
10
-20.099999999999984
20
9.7999999999999883
10
-19.399999999999991
20
9.7999999999999883
42
-0.41421356237310153
10
-19.149999999999988
20
9.5499999999999883
10
-19.149999999999988
20
8.8999999999999844
42
-0.41421356237309243
10
-19.399999999999984
20
8.6499999999999844
10
-20.099999999999984
20
8.6499999999999861
42
-0.41421356237309503
10
-20.349999999999984
20
8.8999999999999844
0
LWPOLYLINE
5
188
100
AcDbEntity
8
0
100
AcDbPolyline
90
8
70
1
43
0.0
10
-11.349999999999994
20
46.150000000000006
42
-0.41421356237310025
10
-11.599999999999993
20
46.399999999999999
10
-11.599999999999991
20
47.050000000000011
42
-0.41421356237309764
10
-11.349999999999994
20
47.300000000000004
10
-10.649999999999991
20
47.300000000000004
42
-0.41421356237310542
10
-10.399999999999991
20
47.049999999999997
10
-10.399999999999995
20
46.399999999999999
42
-0.41421356237309764
10
-10.649999999999993
20
46.150000000000006
0
LWPOLYLINE
5
189
100
AcDbEntity
8
0
100
AcDbPolyline
90
8
70
1
43
0.0
10
1.9000000000000163
20
13.59999999999998
42
-0.41421356237309598
10
1.6500000000000161
20
13.84999999999998
10
1.6500000000000148
20
14.499999999999984
42
-0.41421356237310314
10
1.9000000000000163
20
14.749999999999988
10
2.6000000000000156
20
14.749999999999988
42
-0.4142135623730937
10
2.8500000000000156
20
14.499999999999986
10
2.8500000000000156
20
13.84999999999998
42
-0.41421356237309631
10
2.6000000000000156
20
13.59999999999998
0
LWPOLYLINE
5
190
100
AcDbEntity
8
0
100
AcDbPolyline
90
8
70
1
43
0.0
10
-13.849999999999984
20
14.499999999999993
42
-0.41421356237309503
10
-13.599999999999985
20
14.749999999999993
10
-12.899999999999988
20
14.749999999999988
42
-0.41421356237310802
10
-12.649999999999984
20
14.499999999999986
10
-12.649999999999986
20
13.84999999999998
42
-0.41421356237309503
10
-12.899999999999984
20
13.59999999999998
10
-13.599999999999985
20
13.59999999999998
42
-0.41421356237309503
10
-13.849999999999984
20
13.84999999999998
0
LWPOLYLINE
5
191
100
AcDbEntity
8
0
100
AcDbPolyline
90
8
70
1
43
0.0
10
8.1500000000000199
20
-10.500000000000009
42
-0.41421356237310025
10
8.4000000000000217
20
-10.250000000000007
10
9.100000000000021
20
-10.250000000000018
42
-0.41421356237309503
10
9.350000000000021
20
-10.500000000000016
10
9.350000000000021
20
-11.150000000000023
42
-0.41421356237309631
10
9.100000000000021
20
-11.400000000000023
10
8.4000000000000199
20
-11.400000000000023
42
-0.4142135623730937
10
8.1500000000000217
20
-11.150000000000022
0
LWPOLYLINE
5
192
100
AcDbEntity
8
0
100
AcDbPolyline
90
8
70
1
43
0.0
10
-2.5999999999999841
20
46.149999999999991
42
-0.41421356237307355
10
-2.8499999999999841
20
46.399999999999999
10
-2.8499999999999828
20
47.050000000000011
42
-0.41421356237309959
10
-2.5999999999999841
20
47.300000000000004
10
-1.8999999999999861
20
47.300000000000011
42
-0.41421356237310675
10
-1.6499999999999848
20
47.049999999999997
10
-1.6499999999999786
20
46.399999999999999
42
-0.41421356237307355
10
-1.8999999999999817
20
46.149999999999991
0
LWPOLYLINE
5
193
100
AcDbEntity
8
0
100
AcDbPolyline
90
8
70
1
43
0.0
10
1.6500000000000066
20
47.049999999999997
42
-0.41421356237309437
10
1.9000000000000095
20
47.300000000000004
10
2.600000000000009
20
47.300000000000011
42
-0.41421356237310414
10
2.8500000000000085
20
47.049999999999997
10
2.8500000000000112
20
46.399999999999999
42
-0.41421356237307355
10
2.6000000000000085
20
46.149999999999991
10
1.9000000000000083
20
46.149999999999991
42
-0.41421356237307294
10
1.6500000000000092
20
46.399999999999999
0
LWPOLYLINE
5
194
100
AcDbEntity
8
0
100
AcDbPolyline
90
8
70
1
43
0.0
10
-9.3499999999999872
20
9.5499999999999883
42
-0.41421356237309115
10
-9.0999999999999872
20
9.7999999999999883
10
-8.3999999999999897
20
9.7999999999999883
42
-0.41421356237309115
10
-8.1499999999999879
20
9.5499999999999883
10
-8.1499999999999879
20
8.8999999999999844
42
-0.41421356237308982
10
-8.3999999999999879
20
8.6499999999999844
10
-9.0999999999999872
20
8.6499999999999861
42
-0.41421356237309764
10
-9.3499999999999872
20
8.8999999999999844
0
LWPOLYLINE
5
195
100
AcDbEntity
8
0
100
AcDbPolyline
90
8
70
1
43
0.0
10
-13.59999999999998
20
8.6499999999999844
42
-0.41421356237309631
10
-13.84999999999998
20
8.8999999999999844
10
-13.849999999999971
20
9.5499999999999972
42
-0.41421356237310025
10
-13.59999999999998
20
9.7999999999999883
10
-12.899999999999983
20
9.7999999999999901
42
-0.41421356237309631
10
-12.649999999999981
20
9.5499999999999883
10
-12.649999999999979
20
8.8999999999999844
42
-0.41421356237309243
10
-12.899999999999977
20
8.6499999999999844
0
LWPOLYLINE
5
196
100
AcDbEntity
8
0
100
AcDbPolyline
90
8
70
1
43
0.0
10
-11.349999999999987
20
21.149999999999991
42
-0.41421356237309243
10
-11.599999999999987
20
21.399999999999999
10
-11.59999999999998
20
22.050000000000001
42
-0.41421356237308204
10
-11.349999999999987
20
22.299999999999997
10
-10.649999999999986
20
22.299999999999997
42
-0.41421356237309503
10
-10.399999999999988
20
22.049999999999997
10
-10.399999999999984
20
21.399999999999999
42
-0.41421356237309764
10
-10.649999999999986
20
21.149999999999999
0
LWPOLYLINE
5
197
100
AcDbEntity
8
0
100
AcDbPolyline
90
8
70
1
43
0.0
10
-9.3499999999999961
20
34.549999999999997
42
-0.41421356237309764
10
-9.0999999999999943
20
34.799999999999997
10
-8.399999999999995
20
34.799999999999997
42
-0.41421356237309503
10
-8.149999999999995
20
34.549999999999997
10
-8.1499999999999932
20
33.899999999999991
42
-0.41421356237309764
10
-8.399999999999995
20
33.649999999999991
10
-9.0999999999999979
20
33.649999999999991
42
-0.4142135623730937
10
-9.3499999999999943
20
33.899999999999991
0
LWPOLYLINE
5
198
100
AcDbEntity
8
0
100
AcDbPolyline
90
8
70
1
43
0.0
10
-2.8499999999999837
20
26.999999999999993
42
-0.4142135623730957
10
-2.5999999999999841
20
27.249999999999993
10
-1.8999999999999861
20
27.249999999999986
42
-0.41421356237309537
10
-1.6499999999999848
20
26.999999999999989
10
-1.6499999999999844
20
26.34999999999998
42
-0.41421356237309698
10
-1.899999999999985
20
26.09999999999998
10
-2.5999999999999845
20
26.09999999999998
42
-0.41421356237309698
10
-2.8499999999999845
20
26.34999999999998
0
LWPOLYLINE
5
199
100
AcDbEntity
8
0
100
AcDbPolyline
90
8
70
1
43
0.0
10
-0.34999999999998566
20
33.650000000000006
42
-0.4142135623730942
10
-0.59999999999998599
20
33.899999999999999
10
-0.59999999999998088
20
34.549999999999997
42
-0.41421356237308526
10
-0.34999999999998566
20
34.799999999999997
10
0.35000000000001474
20
34.799999999999997
42
-0.41421356237309531
10
0.60000000000001374
20
34.549999999999997
10
0.60000000000001208
20
33.899999999999999
42
-0.41421356237309431
10
0.35000000000001358
20
33.650000000000006
0
LWPOLYLINE
5
200
100
AcDbEntity
8
0
100
AcDbPolyline
90
8
70
1
43
0.0
10
1.9000000000000234
20
-11.400000000000023
42
-0.41421356237309342
10
1.650000000000023
20
-11.150000000000022
10
1.6500000000000237
20
-10.500000000000016
42
-0.4142135623730957
10
1.9000000000000234
20
-10.250000000000018
10
2.6000000000000223
20
-10.250000000000018
42
-0.41421356237309503
10
2.8500000000000227
20
-10.500000000000016
10
2.8500000000000227
20
-11.150000000000023
42
-0.4142135623730937
10
2.6000000000000223
20
-11.400000000000022
0
LWPOLYLINE
5
201
100
AcDbEntity
8
0
100
AcDbPolyline
90
8
70
1
43
0.0
10
-2.8499999999999814
20
1.9999999999999882
42
-0.41421356237309503
10
-2.599999999999981
20
2.2499999999999885
10
-1.8999999999999817
20
2.2499999999999813
42
-0.4142135623730957
10
-1.6499999999999815
20
1.9999999999999809
10
-1.6499999999999815
20
1.3499999999999761
42
-0.4142135623730957
10
-1.8999999999999817
20
1.0999999999999761
10
-2.5999999999999801
20
1.0999999999999766
42
-0.41421356237309631
10
-2.849999999999981
20
1.3499999999999761
0
LWPOLYLINE
5
202
100
AcDbEntity
8
0
100
AcDbPolyline
90
8
70
1
43
0.0
10
1.6500000000000141
20
22.049999999999997
42
-0.41421356237309437
10
1.9000000000000128
20
22.299999999999997
10
2.6000000000000112
20
22.299999999999997
42
-0.41421356237309503
10
2.8500000000000125
20
22.049999999999997
10
2.8500000000000139
20
21.399999999999988
42
-0.41421356237309764
10
2.6000000000000121
20
21.149999999999988
10
1.9000000000000128
20
21.149999999999988
42
-0.41421356237309664
10
1.6500000000000126
20
21.399999999999988
0
LWPOLYLINE
5
203
100
AcDbEntity
8
0
100
AcDbPolyline
90
8
70
1
43
0.0
10
-22.349999999999991
20
46.150000000000006
42
-0.41421356237310025
10
-22.599999999999987
20
46.399999999999999
10
-22.599999999999987
20
47.049999999999997
42
-0.41421356237310025
10
-22.349999999999991
20
47.300000000000004
10
-21.649999999999988
20
47.300000000000004
42
-0.41421356237308982
10
-21.399999999999988
20
47.049999999999997
10
-21.399999999999988
20
46.400000000000006
42
-0.41421356237310025
10
-21.649999999999988
20
46.150000000000006
0
LWPOLYLINE
5
204
100
AcDbEntity
8
0
100
AcDbPolyline
90
8
70
1
43
0.0
10
8.4000000000000217
20
8.6499999999999844
42
-0.41421356237308982
10
8.1500000000000217
20
8.8999999999999844
10
8.1500000000000323
20
9.5499999999999972
42
-0.41421356237309631
10
8.4000000000000217
20
9.7999999999999883
10
9.100000000000021
20
9.7999999999999918
42
-0.41421356237309631
10
9.3500000000000245
20
9.5499999999999883
10
9.3500000000000245
20
8.8999999999999844
42
-0.41421356237308982
10
9.1000000000000245
20
8.6499999999999844
0
LWPOLYLINE
5
205
100
AcDbEntity
8
0
100
AcDbPolyline
90
8
70
1
43
0.0
10
23.900000000000023
20
-11.400000000000023
42
-0.41421356237309764
10
23.650000000000023
20
-11.150000000000022
10
23.650000000000027
20
-10.500000000000016
42
-0.41421356237309764
10
23.900000000000023
20
-10.250000000000018
10
24.600000000000026
20
-10.250000000000014
42
-0.41421356237309764
10
24.850000000000026
20
-10.500000000000016
10
24.850000000000023
20
-11.150000000000023
42
-0.41421356237309503
10
24.600000000000026
20
-11.400000000000022
0
LWPOLYLINE
5
206
100
AcDbEntity
8
0
100
AcDbPolyline
90
8
70
1
43
0.0
10
-20.099999999999987
20
26.09999999999998
42
-0.41421356237310542
10
-20.349999999999987
20
26.34999999999998
10
-20.349999999999987
20
26.999999999999989
42
-0.41421356237309503
10
-20.099999999999987
20
27.249999999999986
10
-19.399999999999991
20
27.249999999999986
42
-0.41421356237308982
10
-19.149999999999988
20
26.999999999999989
10
-19.149999999999988
20
26.34999999999998
42
-0.41421356237309764
10
-19.399999999999988
20
26.09999999999998
0
LWPOLYLINE
5
207
100
AcDbEntity
8
0
100
AcDbPolyline
90
8
70
1
43
0.0
10
-22.34999999999998
20
21.149999999999999
42
-0.41421356237309503
10
-22.59999999999998
20
21.399999999999999
10
-22.599999999999977
20
22.050000000000001
42
-0.4142135623730846
10
-22.34999999999998
20
22.299999999999997
10
-21.649999999999988
20
22.299999999999997
42
-0.41421356237310025
10
-21.399999999999984
20
22.049999999999997
10
-21.399999999999984
20
21.399999999999999
42
-0.41421356237310542
10
-21.649999999999984
20
21.149999999999999
0
LWPOLYLINE
5
208
100
AcDbEntity
8
0
100
AcDbPolyline
90
8
70
1
43
0.0
10
-24.849999999999991
20
39.499999999999993
42
-0.41421356237310542
10
-24.599999999999991
20
39.749999999999993
10
-23.899999999999984
20
39.749999999999986
42
-0.41421356237308982
10
-23.649999999999988
20
39.499999999999986
10
-23.649999999999988
20
38.84999999999998
42
-0.41421356237310542
10
-23.899999999999988
20
38.59999999999998
10
-24.599999999999987
20
38.59999999999998
42
-0.41421356237311063
10
-24.849999999999991
20
38.84999999999998
0
LWPOLYLINE
5
209
100
AcDbEntity
8
0
100
AcDbPolyline
90
8
70
1
43
0.0
10
-20.349999999999994
20
34.549999999999997
42
-0.41421356237309503
10
-20.099999999999994
20
34.799999999999997
10
-19.399999999999991
20
34.800000000000004
42
-0.41421356237308982
10
-19.149999999999991
20
34.549999999999997
10
-19.149999999999991
20
33.899999999999991
42
-0.41421356237309764
10
-19.399999999999991
20
33.649999999999991
10
-20.099999999999994
20
33.649999999999991
42
-0.41421356237309503
10
-20.349999999999994
20
33.899999999999991
0
LWPOLYLINE
5
210
100
AcDbEntity
8
0
100
AcDbPolyline
90
8
70
1
43
0.0
10
-20.09999999999998
20
1.0999999999999754
42
-0.41421356237309698
10
-20.34999999999998
20
1.3499999999999761
10
-20.34999999999998
20
1.9999999999999809
42
-0.41421356237309731
10
-20.09999999999998
20
2.2499999999999813
10
-19.399999999999981
20
2.2499999999999805
42
-0.41421356237309537
10
-19.149999999999984
20
1.9999999999999809
10
-19.149999999999984
20
1.3499999999999761
42
-0.41421356237309537
10
-19.399999999999981
20
1.0999999999999761
0
LWPOLYLINE
5
211
100
AcDbEntity
8
0
100
AcDbPolyline
90
8
70
1
43
0.0
10
-24.599999999999977
20
8.6499999999999861
42
-0.41421356237309503
10
-24.849999999999977
20
8.8999999999999844
10
-24.849999999999966
20
9.5499999999999972
42
-0.41421356237310414
10
-24.599999999999977
20
9.7999999999999883
10
-23.899999999999984
20
9.7999999999999901
42
-0.41421356237310936
10
-23.649999999999977
20
9.5499999999999883
10
-23.649999999999977
20
8.8999999999999844
42
-0.4142135623730937
10
-23.899999999999974
20
8.6499999999999844
0
LWPOLYLINE
5
212
100
AcDbEntity
8
0
100
AcDbPolyline
90
8
70
1
43
0.0
10
-24.599999999999987
20
33.649999999999991
42
-0.41421356237309503
10
-24.849999999999987
20
33.899999999999991
10
-24.84999999999998
20
34.549999999999997
42
-0.4142135623730846
10
-24.599999999999987
20
34.799999999999997
10
-23.899999999999984
20
34.799999999999997
42
-0.41421356237309503
10
-23.649999999999984
20
34.549999999999997
10
-23.649999999999984
20
33.899999999999991
42
-0.41421356237311063
10
-23.899999999999984
20
33.649999999999984
0
LWPOLYLINE
5
213
100
AcDbEntity
8
0
100
AcDbPolyline
90
4
70
1
43
0.0
10
-21.300000000000004
20
39.299999999999997
10
-22.699999999999992
20
39.299999999999997
10
-22.699999999999992
20
38.699999999999982
10
-21.299999999999994
20
38.699999999999982
0
LWPOLYLINE
5
214
100
AcDbEntity
8
0
100
AcDbPolyline
90
8
70
1
43
0.0
10
20.350000000000016
20
46.399999999999999
10
20.350000000000016
20
47.049999999999997
42
0.41421356237308982
10
20.100000000000012
20
47.299999999999997
10
19.400000000000013
20
47.300000000000004
42
0.41421356237307683
10
19.15000000000002
20
47.050000000000011
10
19.150000000000013
20
46.399999999999999
42
0.41421356237307422
10
19.400000000000013
20
46.149999999999991
10
20.100000000000016
20
46.149999999999991
42
0.41421356237307422
0
LWPOLYLINE
5
215
100
AcDbEntity
8
0
100
AcDbPolyline
90
8
70
1
43
0.0
10
23.900000000000009
20
46.149999999999991
10
24.600000000000009
20
46.149999999999991
42
0.41421356237307422
10
24.850000000000012
20
46.399999999999999
10
24.850000000000009
20
47.049999999999997
42
0.41421356237310542
10
24.600000000000009
20
47.299999999999997
10
23.900000000000009
20
47.300000000000004
42
0.41421356237308982
10
23.650000000000013
20
47.049999999999997
10
23.650000000000013
20
46.399999999999999
42
0.414213562373069
0
LWPOLYLINE
5
216
100
AcDbEntity
8
0
100
AcDbPolyline
90
8
70
1
43
0.0
10
24.850000000000012
20
38.84999999999998
10
24.850000000000012
20
39.499999999999986
42
0.41421356237309503
10
24.600000000000012
20
39.749999999999986
10
23.900000000000013
20
39.749999999999986
42
0.41421356237309503
10
23.650000000000016
20
39.499999999999986
10
23.650000000000016
20
38.84999999999998
42
0.41421356237310542
10
23.900000000000013
20
38.59999999999998
10
24.600000000000012
20
38.59999999999998
42
0.41421356237309503
0
LWPOLYLINE
5
217
100
AcDbEntity
8
0
100
AcDbPolyline
90
8
70
1
43
0.0
10
19.400000000000009
20
38.59999999999998
10
20.100000000000012
20
38.59999999999998
42
0.41421356237309503
10
20.350000000000016
20
38.84999999999998
10
20.350000000000009
20
39.499999999999986
42
0.41421356237309503
10
20.100000000000012
20
39.749999999999986
10
19.400000000000009
20
39.749999999999993
42
0.41421356237309503
10
19.150000000000009
20
39.499999999999993
10
19.150000000000009
20
38.84999999999998
42
0.41421356237309503
0
LWPOLYLINE
5
218
100
AcDbEntity
8
0
100
AcDbPolyline
90
8
70
1
43
0.0
10
22.600000000000012
20
46.399999999999999
10
22.600000000000012
20
47.049999999999997
42
0.41421356237308982
10
22.350000000000009
20
47.299999999999997
10
21.650000000000009
20
47.300000000000004
42
0.41421356237309503
10
21.40000000000002
20
47.050000000000011
10
21.400000000000009
20
46.399999999999999
42
0.41421356237307422
10
21.650000000000009
20
46.150000000000006
10
22.350000000000009
20
46.149999999999991
42
0.414213562373069
0
LWPOLYLINE
5
219
100
AcDbEntity
8
0
100
AcDbPolyline
90
8
70
1
43
0.0
10
-8.1499999999999844
20
0.4499999999999818
42
-0.41421356237309082
10
-7.8999999999999844
20
0.1999999999999808
10
-7.8999999999999861
20
-0.45000000000002394
42
-0.41421356237309365
10
-8.1499999999999844
20
-0.70000000000002394
10
-8.8499999999999837
20
-0.70000000000002516
42
-0.41421356237309237
10
-9.0999999999999837
20
-0.45000000000002394
10
-9.0999999999999837
20
0.19999999999998078
42
-0.41421356237309204
10
-8.8499999999999837
20
0.44999999999998103
0
LWPOLYLINE
5
220
100
AcDbEntity
8
0
100
AcDbPolyline
90
8
70
1
43
0.0
10
-22.349999999999987
20
-0.70000000000002838
42
-0.41421356237309093
10
-22.599999999999984
20
-0.45000000000002394
10
-22.59999999999998
20
0.1999999999999808
42
-0.41421356237310086
10
-22.349999999999987
20
0.44999999999998103
10
-21.649999999999984
20
0.4499999999999853
42
-0.41421356237309087
10
-21.399999999999984
20
0.1999999999999808
10
-21.399999999999988
20
-0.45000000000002394
42
-0.41421356237310081
10
-21.649999999999984
20
-0.70000000000002394
0
LWPOLYLINE
5
221
100
AcDbEntity
8
0
100
AcDbPolyline
90
8
70
1
43
0.0
10
-19.84999999999998
20
-0.70000000000002216
42
-0.41421356237309398
10
-20.09999999999998
20
-0.45000000000002394
10
-20.09999999999998
20
0.19999999999998078
42
-0.4142135623730912
10
-19.84999999999998
20
0.44999999999998103
10
-19.149999999999984
20
0.44999999999998219
42
-0.41421356237309248
10
-18.899999999999984
20
0.1999999999999808
10
-18.899999999999984
20
-0.45000000000002394
42
-0.41421356237309498
10
-19.149999999999984
20
-0.70000000000002394
0
LWPOLYLINE
5
222
100
AcDbEntity
8
0
100
AcDbPolyline
90
8
70
1
43
0.0
10
-10.649999999999984
20
0.44999999999998386
42
-0.41421356237309709
10
-10.399999999999983
20
0.1999999999999808
10
-10.399999999999984
20
-0.45000000000002383
42
-0.41421356237308149
10
-10.649999999999984
20
-0.70000000000002394
10
-11.349999999999982
20
-0.70000000000002705
42
-0.41421356237309709
10
-11.599999999999984
20
-0.45000000000002394
10
-11.599999999999982
20
0.19999999999998078
42
-0.41421356237309509
10
-11.349999999999982
20
0.44999999999998103
0
LWPOLYLINE
5
223
100
AcDbEntity
8
0
100
AcDbPolyline
90
8
70
1
43
0.0
10
-23.899999999999984
20
-0.45000000000002383
42
-0.41421356237309631
10
-24.149999999999984
20
-0.70000000000002394
10
-24.849999999999987
20
-0.70000000000001883
42
-0.41421356237308488
10
-25.09999999999998
20
-0.45000000000002394
10
-25.099999999999984
20
0.19999999999998075
42
-0.41421356237309648
10
-24.849999999999987
20
0.44999999999998103
10
-24.149999999999984
20
0.4499999999999757
42
-0.41421356237308482
10
-23.899999999999988
20
0.1999999999999808
0
LWPOLYLINE
5
224
100
AcDbEntity
8
0
100
AcDbPolyline
90
8
70
1
43
0.0
10
-13.149999999999981
20
0.44999999999998219
42
-0.41421356237309248
10
-12.899999999999983
20
0.1999999999999808
10
-12.899999999999983
20
-0.45000000000002394
42
-0.41421356237309498
10
-13.149999999999981
20
-0.70000000000002394
10
-13.84999999999998
20
-0.70000000000002449
42
-0.41421356237308898
10
-14.099999999999982
20
-0.45000000000002394
10
-14.099999999999982
20
0.19999999999998078
42
-0.41421356237308904
10
-13.84999999999998
20
0.44999999999998097
0
LWPOLYLINE
5
225
100
AcDbEntity
8
0
100
AcDbPolyline
90
4
70
1
43
0.0
10
21.300000000000008
20
13.699999999999983
10
22.70000000000001
20
13.699999999999983
10
22.70000000000001
20
14.299999999999994
10
21.300000000000008
20
14.299999999999994
0
LWPOLYLINE
5
226
100
AcDbEntity
8
0
100
AcDbPolyline
90
4
70
1
43
0.0
10
10.300000000000008
20
26.199999999999989
10
11.700000000000006
20
26.199999999999989
10
11.700000000000006
20
26.799999999999997
10
10.300000000000008
20
26.799999999999997
0
LWPOLYLINE
5
227
100
AcDbEntity
8
0
100
AcDbPolyline
90
4
70
1
43
0.0
10
-0.69999999999999396
20
38.699999999999982
10
0.70000000000000728
20
38.699999999999982
10
0.70000000000000284
20
39.299999999999997
10
-0.69999999999999396
20
39.299999999999997
0
LWPOLYLINE
5
228
100
AcDbEntity
8
0
100
AcDbPolyline
90
4
70
1
43
0.0
10
-11.699999999999999
20
26.199999999999989
10
-10.299999999999997
20
26.199999999999989
10
-10.299999999999997
20
26.799999999999997
10
-11.699999999999999
20
26.799999999999997
0
LWPOLYLINE
5
229
100
AcDbEntity
8
0
100
AcDbPolyline
90
4
70
1
43
0.0
10
-0.69999999999999396
20
26.199999999999989
10
0.70000000000001172
20
26.199999999999989
10
0.70000000000000728
20
26.799999999999997
10
-0.69999999999999396
20
26.799999999999997
0
LWPOLYLINE
5
230
100
AcDbEntity
8
0
100
AcDbPolyline
90
4
70
1
43
0.0
10
-11.699999999999996
20
13.699999999999983
10
-10.29999999999999
20
13.699999999999983
10
-10.299999999999994
20
14.299999999999994
10
-11.699999999999996
20
14.299999999999994
0
LWPOLYLINE
5
231
100
AcDbEntity
8
0
100
AcDbPolyline
90
4
70
1
43
0.0
10
10.300000000000004
20
38.699999999999982
10
11.700000000000006
20
38.699999999999982
10
11.700000000000003
20
39.299999999999997
10
10.300000000000004
20
39.299999999999997
0
LWPOLYLINE
5
232
100
AcDbEntity
8
0
100
AcDbPolyline
90
4
70
1
43
0.0
10
10.30000000000001
20
13.699999999999983
10
11.70000000000001
20
13.699999999999983
10
11.700000000000006
20
14.299999999999994
10
10.30000000000001
20
14.299999999999994
0
LWPOLYLINE
5
233
100
AcDbEntity
8
0
100
AcDbPolyline
90
4
70
1
43
0.0
10
-0.69999999999998952
20
1.1999999999999789
10
0.70000000000001172
20
1.1999999999999789
10
0.70000000000001172
20
1.7999999999999894
10
-0.69999999999998952
20
1.7999999999999894
0
LWPOLYLINE
5
234
100
AcDbEntity
8
0
100
AcDbPolyline
90
4
70
1
43
0.0
10
21.300000000000008
20
26.199999999999989
10
22.70000000000001
20
26.199999999999989
10
22.70000000000001
20
26.799999999999997
10
21.300000000000008
20
26.799999999999997
0
LWPOLYLINE
5
235
100
AcDbEntity
8
0
100
AcDbPolyline
90
4
70
1
43
0.0
10
-0.69999999999999396
20
13.699999999999983
10
0.70000000000001172
20
13.699999999999983
10
0.70000000000000728
20
14.299999999999994
10
-0.69999999999999396
20
14.299999999999994
0
LWPOLYLINE
5
236
100
AcDbEntity
8
0
100
AcDbPolyline
90
4
70
1
43
0.0
10
-11.699999999999999
20
38.699999999999982
10
-10.299999999999997
20
38.699999999999982
10
-10.299999999999997
20
39.299999999999997
10
-11.699999999999999
20
39.299999999999997
0
LWPOLYLINE
5
237
100
AcDbEntity
8
0
100
AcDbPolyline
90
4
70
1
43
0.0
10
-11.699999999999996
20
1.1999999999999789
10
-10.29999999999999
20
1.1999999999999789
10
-10.299999999999994
20
1.7999999999999894
10
-11.699999999999996
20
1.7999999999999894
0
LWPOLYLINE
5
238
100
AcDbEntity
8
0
100
AcDbPolyline
90
4
70
1
43
0.0
10
21.300000000000004
20
38.699999999999982
10
22.70000000000001
20
38.699999999999982
10
22.700000000000003
20
39.299999999999997
10
21.300000000000004
20
39.299999999999997
0
LWPOLYLINE
5
239
100
AcDbEntity
8
0
100
AcDbPolyline
90
4
70
1
43
0.0
10
10.300000000000011
20
1.1999999999999789
10
11.700000000000014
20
1.1999999999999789
10
11.700000000000008
20
1.7999999999999894
10
10.300000000000011
20
1.7999999999999894
0
ENDSEC
0
SECTION
2
OBJECTS
0
DICTIONARY
5
C
100
AcDbDictionary
3
ACAD_GROUP
350
D
3
ACAD_MLINESTYLE
350
17
0
DICTIONARY
5
D
100
AcDbDictionary
0
DICTIONARY
5
1A
330
C
100
AcDbDictionary
0
DICTIONARY
5
17
100
AcDbDictionary
0
ENDSEC
0
EOF
